G04*
G04 #@! TF.GenerationSoftware,Altium Limited,Altium Designer,21.4.1 (30)*
G04*
G04 Layer_Color=8388736*
%FSLAX25Y25*%
%MOIN*%
G70*
G04*
G04 #@! TF.SameCoordinates,FB31E628-B40C-45E7-AE42-562EE5F46966*
G04*
G04*
G04 #@! TF.FilePolarity,Negative*
G04*
G01*
G75*
G04:AMPARAMS|DCode=13|XSize=45.4mil|YSize=159.58mil|CornerRadius=6.06mil|HoleSize=0mil|Usage=FLASHONLY|Rotation=270.000|XOffset=0mil|YOffset=0mil|HoleType=Round|Shape=RoundedRectangle|*
%AMROUNDEDRECTD13*
21,1,0.04540,0.14746,0,0,270.0*
21,1,0.03329,0.15958,0,0,270.0*
1,1,0.01211,-0.07373,-0.01664*
1,1,0.01211,-0.07373,0.01664*
1,1,0.01211,0.07373,0.01664*
1,1,0.01211,0.07373,-0.01664*
%
%ADD13ROUNDEDRECTD13*%
G04:AMPARAMS|DCode=14|XSize=429.26mil|YSize=319.02mil|CornerRadius=5.56mil|HoleSize=0mil|Usage=FLASHONLY|Rotation=270.000|XOffset=0mil|YOffset=0mil|HoleType=Round|Shape=RoundedRectangle|*
%AMROUNDEDRECTD14*
21,1,0.42926,0.30791,0,0,270.0*
21,1,0.41815,0.31902,0,0,270.0*
1,1,0.01111,-0.15396,-0.20908*
1,1,0.01111,-0.15396,0.20908*
1,1,0.01111,0.15396,0.20908*
1,1,0.01111,0.15396,-0.20908*
%
%ADD14ROUNDEDRECTD14*%
%ADD15R,0.13792X0.05131*%
%ADD16R,0.05363X0.04558*%
%ADD17R,0.05131X0.13792*%
%ADD18R,0.06717X0.04545*%
%ADD19R,0.04545X0.06717*%
%ADD20R,0.05512X0.06457*%
%ADD21R,0.05524X0.06509*%
%ADD22C,0.06890*%
%ADD23R,0.06890X0.06890*%
%ADD24C,0.06800*%
%ADD25C,0.04921*%
%ADD26R,0.04921X0.04921*%
%ADD27C,0.02300*%
%ADD28C,0.24422*%
D13*
X377909Y316614D02*
D03*
Y323307D02*
D03*
Y330000D02*
D03*
Y336693D02*
D03*
Y343386D02*
D03*
X474090Y317571D02*
D03*
Y324264D02*
D03*
Y330957D02*
D03*
Y337650D02*
D03*
Y344342D02*
D03*
X474590Y197571D02*
D03*
Y204264D02*
D03*
Y210957D02*
D03*
Y217650D02*
D03*
Y224342D02*
D03*
X377909Y225929D02*
D03*
Y219236D02*
D03*
Y212543D02*
D03*
Y205850D02*
D03*
Y199158D02*
D03*
D14*
X337161Y330000D02*
D03*
X514839Y330957D02*
D03*
X515339Y210957D02*
D03*
X337161Y212543D02*
D03*
D15*
X431000Y269779D02*
D03*
Y292220D02*
D03*
X406000Y219220D02*
D03*
Y196780D02*
D03*
X405000Y336720D02*
D03*
Y314280D02*
D03*
D16*
X446500Y269757D02*
D03*
Y263243D02*
D03*
D17*
X441221Y319000D02*
D03*
X418780D02*
D03*
X442721Y200000D02*
D03*
X420280D02*
D03*
D18*
X458500Y307477D02*
D03*
Y317523D02*
D03*
X392500Y319977D02*
D03*
Y330023D02*
D03*
X393500Y202477D02*
D03*
Y212523D02*
D03*
D19*
X449977Y330500D02*
D03*
X460023D02*
D03*
X401523Y343500D02*
D03*
X391477D02*
D03*
X449977Y197500D02*
D03*
X460023D02*
D03*
X449977Y211000D02*
D03*
X460023D02*
D03*
X401523Y226000D02*
D03*
X391477D02*
D03*
D20*
X394433Y157500D02*
D03*
X378567D02*
D03*
Y142500D02*
D03*
X394433D02*
D03*
D21*
X373563Y397500D02*
D03*
X381437D02*
D03*
D22*
X354500Y405000D02*
D03*
X304500D02*
D03*
X354500Y455000D02*
D03*
X304500D02*
D03*
D23*
X329500Y430000D02*
D03*
D24*
X424000Y129500D02*
D03*
X407000D02*
D03*
X546000Y428000D02*
D03*
X509250D02*
D03*
X472500D02*
D03*
D25*
X397000Y412500D02*
D03*
X417000Y402500D02*
D03*
D26*
Y422500D02*
D03*
D27*
X507000Y349500D02*
D03*
Y344214D02*
D03*
Y338929D02*
D03*
Y333643D02*
D03*
Y328357D02*
D03*
Y323071D02*
D03*
Y317786D02*
D03*
Y312500D02*
D03*
X512000D02*
D03*
Y317786D02*
D03*
Y323071D02*
D03*
Y328357D02*
D03*
Y333643D02*
D03*
Y338929D02*
D03*
Y344214D02*
D03*
Y349500D02*
D03*
X517000Y312500D02*
D03*
Y317786D02*
D03*
Y323071D02*
D03*
Y328357D02*
D03*
Y333643D02*
D03*
Y338929D02*
D03*
Y344214D02*
D03*
Y349500D02*
D03*
X522000Y312500D02*
D03*
Y317786D02*
D03*
Y323071D02*
D03*
Y328357D02*
D03*
Y333643D02*
D03*
Y338929D02*
D03*
Y344214D02*
D03*
Y349500D02*
D03*
X527500Y312500D02*
D03*
Y317786D02*
D03*
Y323071D02*
D03*
Y328357D02*
D03*
Y333643D02*
D03*
Y338929D02*
D03*
Y344214D02*
D03*
Y349500D02*
D03*
X508000Y229500D02*
D03*
Y224214D02*
D03*
Y218929D02*
D03*
Y213643D02*
D03*
Y208357D02*
D03*
Y203071D02*
D03*
Y197786D02*
D03*
Y192500D02*
D03*
X513000D02*
D03*
Y197786D02*
D03*
Y203071D02*
D03*
Y208357D02*
D03*
Y213643D02*
D03*
Y218929D02*
D03*
Y224214D02*
D03*
Y229500D02*
D03*
X518000Y192500D02*
D03*
Y197786D02*
D03*
Y203071D02*
D03*
Y208357D02*
D03*
Y213643D02*
D03*
Y218929D02*
D03*
Y224214D02*
D03*
Y229500D02*
D03*
X523000Y192500D02*
D03*
Y197786D02*
D03*
Y203071D02*
D03*
Y208357D02*
D03*
Y213643D02*
D03*
Y218929D02*
D03*
Y224214D02*
D03*
Y229500D02*
D03*
X528500Y192500D02*
D03*
Y197786D02*
D03*
Y203071D02*
D03*
Y208357D02*
D03*
Y213643D02*
D03*
Y218929D02*
D03*
Y224214D02*
D03*
Y229500D02*
D03*
X325000Y231000D02*
D03*
Y225714D02*
D03*
Y220428D02*
D03*
Y215143D02*
D03*
Y209857D02*
D03*
Y204571D02*
D03*
Y199286D02*
D03*
Y194000D02*
D03*
X330000D02*
D03*
Y199286D02*
D03*
Y204571D02*
D03*
Y209857D02*
D03*
Y215143D02*
D03*
Y220428D02*
D03*
Y225714D02*
D03*
Y231000D02*
D03*
X335000Y194000D02*
D03*
Y199286D02*
D03*
Y204571D02*
D03*
Y209857D02*
D03*
Y215143D02*
D03*
Y220428D02*
D03*
Y225714D02*
D03*
Y231000D02*
D03*
X340000Y194000D02*
D03*
Y199286D02*
D03*
Y204571D02*
D03*
Y209857D02*
D03*
Y215143D02*
D03*
Y220428D02*
D03*
Y225714D02*
D03*
Y231000D02*
D03*
X345500Y194000D02*
D03*
Y199286D02*
D03*
Y204571D02*
D03*
Y209857D02*
D03*
Y215143D02*
D03*
Y220428D02*
D03*
Y225714D02*
D03*
Y231000D02*
D03*
X345000Y348500D02*
D03*
Y343214D02*
D03*
Y337929D02*
D03*
Y332643D02*
D03*
Y327357D02*
D03*
Y322071D02*
D03*
Y316786D02*
D03*
Y311500D02*
D03*
X339500Y348500D02*
D03*
Y343214D02*
D03*
Y337929D02*
D03*
Y332643D02*
D03*
Y327357D02*
D03*
Y322071D02*
D03*
Y316786D02*
D03*
Y311500D02*
D03*
X334500Y348500D02*
D03*
Y343214D02*
D03*
Y337929D02*
D03*
Y332643D02*
D03*
Y327357D02*
D03*
Y322071D02*
D03*
Y316786D02*
D03*
Y311500D02*
D03*
X329500Y348500D02*
D03*
Y343214D02*
D03*
Y337929D02*
D03*
Y332643D02*
D03*
Y327357D02*
D03*
Y322071D02*
D03*
Y316786D02*
D03*
Y311500D02*
D03*
X324500D02*
D03*
Y316786D02*
D03*
Y322071D02*
D03*
Y327357D02*
D03*
Y332643D02*
D03*
Y337929D02*
D03*
Y343214D02*
D03*
Y348500D02*
D03*
D28*
X247500Y376500D02*
D03*
X427500D02*
D03*
X607500D02*
D03*
Y166500D02*
D03*
X427500D02*
D03*
X247500D02*
D03*
M02*
