G04*
G04 #@! TF.GenerationSoftware,Altium Limited,Altium Designer,21.4.1 (30)*
G04*
G04 Layer_Color=32896*
%FSLAX25Y25*%
%MOIN*%
G70*
G04*
G04 #@! TF.SameCoordinates,FB31E628-B40C-45E7-AE42-562EE5F46966*
G04*
G04*
G04 #@! TF.FilePolarity,Positive*
G04*
G01*
G75*
%ADD12C,0.01000*%
D12*
X611500Y144594D02*
Y138596D01*
X608501D01*
X607501Y139596D01*
Y140596D01*
X608501Y141595D01*
X611500D01*
X608501D01*
X607501Y142595D01*
Y143595D01*
X608501Y144594D01*
X611500D01*
X605502Y138596D02*
Y139596D01*
X604502D01*
Y138596D01*
X605502D01*
X594506Y144594D02*
Y138596D01*
X591506D01*
X590507Y139596D01*
Y143595D01*
X591506Y144594D01*
X594506D01*
X588507Y142595D02*
Y139596D01*
X587508Y138596D01*
X584509D01*
Y137597D01*
X585508Y136597D01*
X586508D01*
X584509Y138596D02*
Y142595D01*
X579510Y138596D02*
X581510D01*
X582509Y139596D01*
Y141595D01*
X581510Y142595D01*
X579510D01*
X578511Y141595D01*
Y140596D01*
X582509D01*
X576511Y142595D02*
Y138596D01*
Y140596D01*
X575512Y141595D01*
X574512Y142595D01*
X573512D01*
X569514Y137597D02*
X568514Y138596D01*
Y139596D01*
X569514D01*
Y138596D01*
X568514D01*
X569514Y137597D01*
X570513Y136597D01*
X558517Y144594D02*
Y138596D01*
X555518D01*
X554518Y139596D01*
Y143595D01*
X555518Y144594D01*
X558517D01*
X552519Y138596D02*
Y139596D01*
X551519D01*
Y138596D01*
X552519D01*
X537524Y144594D02*
X541523D01*
Y141595D01*
X539523D01*
X541523D01*
Y138596D01*
X535525D02*
X533525D01*
X534525D01*
Y142595D01*
X535525D01*
X529527Y143595D02*
Y142595D01*
X530526D01*
X528527D01*
X529527D01*
Y139596D01*
X528527Y138596D01*
X525528Y142595D02*
X521529D01*
X525528Y138596D01*
X521529D01*
X517530Y136597D02*
X516531D01*
X515531Y137597D01*
Y142595D01*
X518530D01*
X519530Y141595D01*
Y139596D01*
X518530Y138596D01*
X515531D01*
X513532Y142595D02*
Y138596D01*
Y140596D01*
X512532Y141595D01*
X511532Y142595D01*
X510533D01*
X504535Y138596D02*
X506534D01*
X507534Y139596D01*
Y141595D01*
X506534Y142595D01*
X504535D01*
X503535Y141595D01*
Y140596D01*
X507534D01*
X498536Y138596D02*
X500536D01*
X501536Y139596D01*
Y141595D01*
X500536Y142595D01*
X498536D01*
X497537Y141595D01*
Y140596D01*
X501536D01*
X495538Y138596D02*
Y142595D01*
X492538D01*
X491539Y141595D01*
Y138596D01*
X611500Y132997D02*
Y126999D01*
X608501D01*
X607501Y127999D01*
Y131998D01*
X608501Y132997D01*
X611500D01*
X602503Y126999D02*
X604502D01*
X605502Y127999D01*
Y129998D01*
X604502Y130998D01*
X602503D01*
X601503Y129998D01*
Y128999D01*
X605502D01*
X599504Y125000D02*
Y130998D01*
X596505D01*
X595505Y129998D01*
Y127999D01*
X596505Y126999D01*
X599504D01*
X592506Y131998D02*
Y130998D01*
X593506D01*
X591506D01*
X592506D01*
Y127999D01*
X591506Y126999D01*
X588507D02*
Y127999D01*
X587508D01*
Y126999D01*
X588507D01*
X577511D02*
Y132997D01*
X574512D01*
X573512Y131998D01*
Y129998D01*
X574512Y128999D01*
X577511D01*
X567514Y126999D02*
X568514Y127999D01*
X569514Y126999D01*
X570513D01*
X571513Y127999D01*
Y128999D01*
X570513Y129998D01*
X571513Y130998D01*
Y131998D01*
X570513Y132997D01*
X569514D01*
X568514Y131998D01*
Y130998D01*
X569514Y129998D01*
X568514Y128999D01*
Y127999D01*
X567514Y129998D02*
X568514Y128999D01*
X570513Y129998D02*
X569514D01*
X565515Y126999D02*
Y130998D01*
X563516Y132997D01*
X561516Y130998D01*
Y126999D01*
Y129998D01*
X565515D01*
M02*
