G04*
G04 #@! TF.GenerationSoftware,Altium Limited,Altium Designer,21.4.1 (30)*
G04*
G04 Layer_Color=8421504*
%FSLAX25Y25*%
%MOIN*%
G70*
G04*
G04 #@! TF.SameCoordinates,39AD2F1A-D5AA-41BC-B7BA-F57A03BCC34B*
G04*
G04*
G04 #@! TF.FilePolarity,Positive*
G04*
G01*
G75*
G04:AMPARAMS|DCode=13|XSize=37.4mil|YSize=151.58mil|CornerRadius=2.06mil|HoleSize=0mil|Usage=FLASHONLY|Rotation=270.000|XOffset=0mil|YOffset=0mil|HoleType=Round|Shape=RoundedRectangle|*
%AMROUNDEDRECTD13*
21,1,0.03740,0.14746,0,0,270.0*
21,1,0.03329,0.15158,0,0,270.0*
1,1,0.00411,-0.07373,-0.01664*
1,1,0.00411,-0.07373,0.01664*
1,1,0.00411,0.07373,0.01664*
1,1,0.00411,0.07373,-0.01664*
%
%ADD13ROUNDEDRECTD13*%
G04:AMPARAMS|DCode=14|XSize=421.26mil|YSize=311.02mil|CornerRadius=1.56mil|HoleSize=0mil|Usage=FLASHONLY|Rotation=270.000|XOffset=0mil|YOffset=0mil|HoleType=Round|Shape=RoundedRectangle|*
%AMROUNDEDRECTD14*
21,1,0.42126,0.30791,0,0,270.0*
21,1,0.41815,0.31102,0,0,270.0*
1,1,0.00311,-0.15396,-0.20908*
1,1,0.00311,-0.15396,0.20908*
1,1,0.00311,0.15396,0.20908*
1,1,0.00311,0.15396,-0.20908*
%
%ADD14ROUNDEDRECTD14*%
%ADD15R,0.12992X0.04331*%
%ADD16R,0.05363X0.04558*%
%ADD17R,0.04331X0.12992*%
%ADD18R,0.06717X0.04545*%
%ADD19R,0.04545X0.06717*%
%ADD20R,0.05512X0.06457*%
%ADD21R,0.04724X0.05709*%
D13*
X377909Y316614D02*
D03*
Y323307D02*
D03*
Y330000D02*
D03*
Y336693D02*
D03*
Y343386D02*
D03*
X474090Y317571D02*
D03*
Y324264D02*
D03*
Y330957D02*
D03*
Y337650D02*
D03*
Y344342D02*
D03*
X474590Y197571D02*
D03*
Y204264D02*
D03*
Y210957D02*
D03*
Y217650D02*
D03*
Y224342D02*
D03*
X377909Y225929D02*
D03*
Y219236D02*
D03*
Y212543D02*
D03*
Y205850D02*
D03*
Y199158D02*
D03*
D14*
X337161Y330000D02*
D03*
X514839Y330957D02*
D03*
X515339Y210957D02*
D03*
X337161Y212543D02*
D03*
D15*
X431000Y269779D02*
D03*
Y292220D02*
D03*
X406000Y219220D02*
D03*
Y196780D02*
D03*
X405000Y336720D02*
D03*
Y314280D02*
D03*
D16*
X446500Y269757D02*
D03*
Y263243D02*
D03*
D17*
X441221Y319000D02*
D03*
X418780D02*
D03*
X442721Y200000D02*
D03*
X420280D02*
D03*
D18*
X458500Y307477D02*
D03*
Y317523D02*
D03*
X392500Y319977D02*
D03*
Y330023D02*
D03*
X393500Y202477D02*
D03*
Y212523D02*
D03*
D19*
X449977Y330500D02*
D03*
X460023D02*
D03*
X401523Y343500D02*
D03*
X391477D02*
D03*
X449977Y197500D02*
D03*
X460023D02*
D03*
X449977Y211000D02*
D03*
X460023D02*
D03*
X401523Y226000D02*
D03*
X391477D02*
D03*
D20*
X394433Y157500D02*
D03*
X378567D02*
D03*
Y142500D02*
D03*
X394433D02*
D03*
D21*
X373563Y397500D02*
D03*
X381437D02*
D03*
M02*
