G04*
G04 #@! TF.GenerationSoftware,Altium Limited,Altium Designer,21.4.1 (30)*
G04*
G04 Layer_Physical_Order=4*
G04 Layer_Color=16711680*
%FSLAX25Y25*%
%MOIN*%
G70*
G04*
G04 #@! TF.SameCoordinates,FB31E628-B40C-45E7-AE42-562EE5F46966*
G04*
G04*
G04 #@! TF.FilePolarity,Positive*
G04*
G01*
G75*
%ADD22C,0.06890*%
%ADD23R,0.06890X0.06890*%
%ADD25C,0.04921*%
%ADD26R,0.04921X0.04921*%
%ADD38C,0.06000*%
%ADD39C,0.01500*%
%ADD40C,0.05000*%
%ADD41C,0.03000*%
%ADD42C,0.23622*%
G36*
X622471Y120029D02*
X234029Y120029D01*
X234029Y468971D01*
X622471Y468971D01*
X622471Y120029D01*
D02*
G37*
%LPC*%
G36*
X354500Y459483D02*
X353340Y459331D01*
X352258Y458883D01*
X351330Y458170D01*
X350617Y457242D01*
X350169Y456160D01*
X350017Y455000D01*
X350169Y453840D01*
X350617Y452758D01*
X351330Y451830D01*
X352258Y451117D01*
X353340Y450669D01*
X354500Y450517D01*
X355660Y450669D01*
X356742Y451117D01*
X357670Y451830D01*
X358383Y452758D01*
X358830Y453840D01*
X358983Y455000D01*
X358830Y456160D01*
X358383Y457242D01*
X357670Y458170D01*
X356742Y458883D01*
X355660Y459331D01*
X354500Y459483D01*
D02*
G37*
G36*
X304500D02*
X303340Y459331D01*
X302258Y458883D01*
X301330Y458170D01*
X300617Y457242D01*
X300169Y456160D01*
X300017Y455000D01*
X300169Y453840D01*
X300617Y452758D01*
X301330Y451830D01*
X302258Y451117D01*
X303340Y450669D01*
X304500Y450517D01*
X305660Y450669D01*
X306742Y451117D01*
X307670Y451830D01*
X308383Y452758D01*
X308830Y453840D01*
X308983Y455000D01*
X308830Y456160D01*
X308383Y457242D01*
X307670Y458170D01*
X306742Y458883D01*
X305660Y459331D01*
X304500Y459483D01*
D02*
G37*
G36*
X333945Y434445D02*
X325055D01*
Y425555D01*
X333945D01*
Y434445D01*
D02*
G37*
G36*
X546000Y432034D02*
X544956Y431897D01*
X543983Y431494D01*
X543147Y430853D01*
X542506Y430017D01*
X542103Y429044D01*
X541965Y428000D01*
X542103Y426956D01*
X542506Y425983D01*
X543147Y425147D01*
X543983Y424506D01*
X544956Y424103D01*
X546000Y423966D01*
X547044Y424103D01*
X548017Y424506D01*
X548853Y425147D01*
X549494Y425983D01*
X549897Y426956D01*
X550035Y428000D01*
X549897Y429044D01*
X549494Y430017D01*
X548853Y430853D01*
X548017Y431494D01*
X547044Y431897D01*
X546000Y432034D01*
D02*
G37*
G36*
X472500D02*
X471456Y431897D01*
X470483Y431494D01*
X469647Y430853D01*
X469006Y430017D01*
X468603Y429044D01*
X468466Y428000D01*
X468603Y426956D01*
X469006Y425983D01*
X469647Y425147D01*
X470483Y424506D01*
X471456Y424103D01*
X472500Y423966D01*
X473544Y424103D01*
X474517Y424506D01*
X475353Y425147D01*
X475994Y425983D01*
X476397Y426956D01*
X476535Y428000D01*
X476397Y429044D01*
X475994Y430017D01*
X475353Y430853D01*
X474517Y431494D01*
X473544Y431897D01*
X472500Y432034D01*
D02*
G37*
G36*
X420461Y425961D02*
X413539D01*
Y419039D01*
X420461D01*
Y425961D01*
D02*
G37*
G36*
X397000Y415990D02*
X396097Y415872D01*
X395255Y415523D01*
X394532Y414968D01*
X393977Y414245D01*
X393629Y413403D01*
X393510Y412500D01*
X393629Y411597D01*
X393977Y410755D01*
X394532Y410032D01*
X395255Y409477D01*
X396097Y409129D01*
X397000Y409010D01*
X397903Y409129D01*
X398745Y409477D01*
X399468Y410032D01*
X400023Y410755D01*
X400372Y411597D01*
X400491Y412500D01*
X400372Y413403D01*
X400023Y414245D01*
X399468Y414968D01*
X398745Y415523D01*
X397903Y415872D01*
X397000Y415990D01*
D02*
G37*
G36*
X354500Y409483D02*
X353340Y409331D01*
X352258Y408883D01*
X351330Y408170D01*
X350617Y407242D01*
X350169Y406160D01*
X350017Y405000D01*
X350169Y403840D01*
X350617Y402758D01*
X351330Y401830D01*
X352258Y401117D01*
X353340Y400669D01*
X354500Y400517D01*
X355660Y400669D01*
X356742Y401117D01*
X357670Y401830D01*
X358383Y402758D01*
X358830Y403840D01*
X358983Y405000D01*
X358830Y406160D01*
X358383Y407242D01*
X357670Y408170D01*
X356742Y408883D01*
X355660Y409331D01*
X354500Y409483D01*
D02*
G37*
G36*
X304500D02*
X303340Y409331D01*
X302258Y408883D01*
X301330Y408170D01*
X300617Y407242D01*
X300169Y406160D01*
X300017Y405000D01*
X300169Y403840D01*
X300617Y402758D01*
X301330Y401830D01*
X302258Y401117D01*
X303340Y400669D01*
X304500Y400517D01*
X305660Y400669D01*
X306742Y401117D01*
X307670Y401830D01*
X308383Y402758D01*
X308830Y403840D01*
X308983Y405000D01*
X308830Y406160D01*
X308383Y407242D01*
X307670Y408170D01*
X306742Y408883D01*
X305660Y409331D01*
X304500Y409483D01*
D02*
G37*
G36*
X417000Y405991D02*
X416097Y405871D01*
X415255Y405523D01*
X414532Y404968D01*
X413977Y404245D01*
X413628Y403403D01*
X413510Y402500D01*
X413628Y401597D01*
X413977Y400755D01*
X414532Y400032D01*
X415255Y399477D01*
X416097Y399129D01*
X417000Y399009D01*
X417903Y399129D01*
X418745Y399477D01*
X419468Y400032D01*
X420023Y400755D01*
X420372Y401597D01*
X420491Y402500D01*
X420372Y403403D01*
X420023Y404245D01*
X419468Y404968D01*
X418745Y405523D01*
X417903Y405871D01*
X417000Y405991D01*
D02*
G37*
G36*
X387500Y401030D02*
X386586Y400910D01*
X385735Y400557D01*
X385004Y399996D01*
X384443Y399265D01*
X384090Y398414D01*
X383970Y397500D01*
X384090Y396586D01*
X384443Y395735D01*
X385004Y395004D01*
X385735Y394443D01*
X386586Y394090D01*
X387500Y393970D01*
X388414Y394090D01*
X389265Y394443D01*
X389996Y395004D01*
X390557Y395735D01*
X390910Y396586D01*
X391030Y397500D01*
X390910Y398414D01*
X390557Y399265D01*
X389996Y399996D01*
X389265Y400557D01*
X388414Y400910D01*
X387500Y401030D01*
D02*
G37*
G36*
X607500Y389351D02*
X605490Y389192D01*
X603529Y388722D01*
X601666Y387950D01*
X599947Y386896D01*
X598413Y385587D01*
X597104Y384053D01*
X596050Y382334D01*
X595278Y380471D01*
X594808Y378510D01*
X594649Y376500D01*
X594808Y374490D01*
X595278Y372529D01*
X596050Y370666D01*
X597104Y368947D01*
X598413Y367413D01*
X599947Y366104D01*
X601666Y365050D01*
X603529Y364278D01*
X605490Y363808D01*
X607500Y363649D01*
X609510Y363808D01*
X611471Y364278D01*
X613334Y365050D01*
X615053Y366104D01*
X616587Y367413D01*
X617896Y368947D01*
X618950Y370666D01*
X619722Y372529D01*
X620192Y374490D01*
X620351Y376500D01*
X620192Y378510D01*
X619722Y380471D01*
X618950Y382334D01*
X617896Y384053D01*
X616587Y385587D01*
X615053Y386896D01*
X613334Y387950D01*
X611471Y388722D01*
X609510Y389192D01*
X607500Y389351D01*
D02*
G37*
G36*
X427500D02*
X425490Y389192D01*
X423529Y388722D01*
X421666Y387950D01*
X419947Y386896D01*
X418413Y385587D01*
X417104Y384053D01*
X416050Y382334D01*
X415278Y380471D01*
X414808Y378510D01*
X414649Y376500D01*
X414808Y374490D01*
X415278Y372529D01*
X416050Y370666D01*
X417104Y368947D01*
X418413Y367413D01*
X419947Y366104D01*
X421666Y365050D01*
X423529Y364278D01*
X425490Y363808D01*
X427500Y363649D01*
X429510Y363808D01*
X431471Y364278D01*
X433334Y365050D01*
X435053Y366104D01*
X436587Y367413D01*
X437896Y368947D01*
X438950Y370666D01*
X439722Y372529D01*
X440192Y374490D01*
X440351Y376500D01*
X440192Y378510D01*
X439722Y380471D01*
X438950Y382334D01*
X437896Y384053D01*
X436587Y385587D01*
X435053Y386896D01*
X433334Y387950D01*
X431471Y388722D01*
X429510Y389192D01*
X427500Y389351D01*
D02*
G37*
G36*
X247500D02*
X245490Y389192D01*
X243529Y388722D01*
X241666Y387950D01*
X239947Y386896D01*
X238413Y385587D01*
X237104Y384053D01*
X236050Y382334D01*
X235278Y380471D01*
X234808Y378510D01*
X234649Y376500D01*
X234808Y374490D01*
X235278Y372529D01*
X236050Y370666D01*
X237104Y368947D01*
X238413Y367413D01*
X239947Y366104D01*
X241666Y365050D01*
X243529Y364278D01*
X245490Y363808D01*
X247500Y363649D01*
X249510Y363808D01*
X251471Y364278D01*
X253334Y365050D01*
X255053Y366104D01*
X256587Y367413D01*
X257896Y368947D01*
X258950Y370666D01*
X259722Y372529D01*
X260192Y374490D01*
X260351Y376500D01*
X260192Y378510D01*
X259722Y380471D01*
X258950Y382334D01*
X257896Y384053D01*
X256587Y385587D01*
X255053Y386896D01*
X253334Y387950D01*
X251471Y388722D01*
X249510Y389192D01*
X247500Y389351D01*
D02*
G37*
G36*
X379000Y351530D02*
X378086Y351410D01*
X377235Y351057D01*
X376504Y350496D01*
X375943Y349765D01*
X375590Y348914D01*
X375470Y348000D01*
X375590Y347086D01*
X375943Y346235D01*
X376504Y345504D01*
X377235Y344943D01*
X378086Y344590D01*
X379000Y344470D01*
X379914Y344590D01*
X380765Y344943D01*
X381496Y345504D01*
X382057Y346235D01*
X382410Y347086D01*
X382530Y348000D01*
X382410Y348914D01*
X382057Y349765D01*
X381496Y350496D01*
X380765Y351057D01*
X379914Y351410D01*
X379000Y351530D01*
D02*
G37*
G36*
X489000Y348030D02*
X488086Y347910D01*
X487235Y347557D01*
X486504Y346996D01*
X485943Y346265D01*
X485590Y345414D01*
X485470Y344500D01*
X485590Y343586D01*
X485943Y342735D01*
X486504Y342004D01*
X487235Y341443D01*
X488086Y341090D01*
X489000Y340970D01*
X489914Y341090D01*
X490765Y341443D01*
X491496Y342004D01*
X492057Y342735D01*
X492410Y343586D01*
X492530Y344500D01*
X492410Y345414D01*
X492057Y346265D01*
X491496Y346996D01*
X490765Y347557D01*
X489914Y347910D01*
X489000Y348030D01*
D02*
G37*
G36*
X408500D02*
X407586Y347910D01*
X406735Y347557D01*
X406004Y346996D01*
X405443Y346265D01*
X405090Y345414D01*
X404970Y344500D01*
X405090Y343586D01*
X405443Y342735D01*
X406004Y342004D01*
X406735Y341443D01*
X407586Y341090D01*
X408500Y340970D01*
X409414Y341090D01*
X410265Y341443D01*
X410996Y342004D01*
X411557Y342735D01*
X411910Y343586D01*
X412030Y344500D01*
X411910Y345414D01*
X411557Y346265D01*
X410996Y346996D01*
X410265Y347557D01*
X409414Y347910D01*
X408500Y348030D01*
D02*
G37*
G36*
X367000Y340530D02*
X366086Y340410D01*
X365235Y340057D01*
X364504Y339496D01*
X363943Y338765D01*
X363590Y337914D01*
X363470Y337000D01*
X363590Y336086D01*
X363943Y335235D01*
X364504Y334504D01*
X365235Y333943D01*
X366086Y333590D01*
X367000Y333470D01*
X367914Y333590D01*
X368765Y333943D01*
X369496Y334504D01*
X370057Y335235D01*
X370410Y336086D01*
X370530Y337000D01*
X370410Y337914D01*
X370057Y338765D01*
X369496Y339496D01*
X368765Y340057D01*
X367914Y340410D01*
X367000Y340530D01*
D02*
G37*
G36*
X443500Y334030D02*
X442586Y333910D01*
X441735Y333557D01*
X441004Y332996D01*
X440443Y332265D01*
X440090Y331414D01*
X439970Y330500D01*
X440090Y329586D01*
X440443Y328735D01*
X441004Y328004D01*
X441735Y327443D01*
X442586Y327090D01*
X443500Y326970D01*
X444414Y327090D01*
X445265Y327443D01*
X445996Y328004D01*
X446557Y328735D01*
X446910Y329586D01*
X447030Y330500D01*
X446910Y331414D01*
X446557Y332265D01*
X445996Y332996D01*
X445265Y333557D01*
X444414Y333910D01*
X443500Y334030D01*
D02*
G37*
G36*
X474000Y315530D02*
X473086Y315410D01*
X472235Y315057D01*
X471504Y314496D01*
X470943Y313765D01*
X470590Y312914D01*
X470470Y312000D01*
X470590Y311086D01*
X470943Y310235D01*
X471504Y309504D01*
X472235Y308943D01*
X473086Y308590D01*
X474000Y308470D01*
X474914Y308590D01*
X475765Y308943D01*
X476496Y309504D01*
X477057Y310235D01*
X477410Y311086D01*
X477530Y312000D01*
X477410Y312914D01*
X477057Y313765D01*
X476496Y314496D01*
X475765Y315057D01*
X474914Y315410D01*
X474000Y315530D01*
D02*
G37*
G36*
X450500Y310530D02*
X449586Y310410D01*
X448735Y310057D01*
X448004Y309496D01*
X447443Y308765D01*
X447090Y307914D01*
X446970Y307000D01*
X447090Y306086D01*
X447443Y305235D01*
X448004Y304504D01*
X448735Y303943D01*
X449586Y303590D01*
X450500Y303470D01*
X451414Y303590D01*
X452265Y303943D01*
X452996Y304504D01*
X453557Y305235D01*
X453910Y306086D01*
X454030Y307000D01*
X453910Y307914D01*
X453557Y308765D01*
X452996Y309496D01*
X452265Y310057D01*
X451414Y310410D01*
X450500Y310530D01*
D02*
G37*
G36*
X392500D02*
X391586Y310410D01*
X390735Y310057D01*
X390004Y309496D01*
X389443Y308765D01*
X389090Y307914D01*
X388970Y307000D01*
X389090Y306086D01*
X389443Y305235D01*
X390004Y304504D01*
X390735Y303943D01*
X391586Y303590D01*
X392500Y303470D01*
X393414Y303590D01*
X394265Y303943D01*
X394996Y304504D01*
X395557Y305235D01*
X395910Y306086D01*
X396030Y307000D01*
X395910Y307914D01*
X395557Y308765D01*
X394996Y309496D01*
X394265Y310057D01*
X393414Y310410D01*
X392500Y310530D01*
D02*
G37*
G36*
X446500Y260530D02*
X445586Y260410D01*
X444735Y260057D01*
X444004Y259496D01*
X443443Y258765D01*
X443090Y257914D01*
X442970Y257000D01*
X443090Y256086D01*
X443443Y255235D01*
X444004Y254504D01*
X444735Y253943D01*
X445586Y253590D01*
X446500Y253470D01*
X447414Y253590D01*
X448265Y253943D01*
X448996Y254504D01*
X449557Y255235D01*
X449910Y256086D01*
X450030Y257000D01*
X449910Y257914D01*
X449557Y258765D01*
X448996Y259496D01*
X448265Y260057D01*
X447414Y260410D01*
X446500Y260530D01*
D02*
G37*
G36*
X378500Y235030D02*
X377586Y234910D01*
X376735Y234557D01*
X376004Y233996D01*
X375443Y233265D01*
X375090Y232414D01*
X374970Y231500D01*
X375090Y230586D01*
X375443Y229735D01*
X376004Y229004D01*
X376735Y228443D01*
X377586Y228090D01*
X378500Y227970D01*
X379414Y228090D01*
X380265Y228443D01*
X380996Y229004D01*
X381557Y229735D01*
X381910Y230586D01*
X382030Y231500D01*
X381910Y232414D01*
X381557Y233265D01*
X380996Y233996D01*
X380265Y234557D01*
X379414Y234910D01*
X378500Y235030D01*
D02*
G37*
G36*
X408000Y229786D02*
X407086Y229666D01*
X406235Y229313D01*
X405504Y228752D01*
X404943Y228021D01*
X404590Y227170D01*
X404470Y226256D01*
X404590Y225342D01*
X404943Y224491D01*
X405504Y223760D01*
X406235Y223199D01*
X407086Y222846D01*
X408000Y222726D01*
X408914Y222846D01*
X409765Y223199D01*
X410496Y223760D01*
X411057Y224491D01*
X411410Y225342D01*
X411530Y226256D01*
X411410Y227170D01*
X411057Y228021D01*
X410496Y228752D01*
X409765Y229313D01*
X408914Y229666D01*
X408000Y229786D01*
D02*
G37*
G36*
X489000Y228030D02*
X488086Y227910D01*
X487235Y227557D01*
X486504Y226996D01*
X485943Y226265D01*
X485590Y225414D01*
X485470Y224500D01*
X485590Y223586D01*
X485943Y222735D01*
X486504Y222004D01*
X487235Y221443D01*
X488086Y221090D01*
X489000Y220970D01*
X489914Y221090D01*
X490765Y221443D01*
X491496Y222004D01*
X492057Y222735D01*
X492410Y223586D01*
X492530Y224500D01*
X492410Y225414D01*
X492057Y226265D01*
X491496Y226996D01*
X490765Y227557D01*
X489914Y227910D01*
X489000Y228030D01*
D02*
G37*
G36*
X443500Y214530D02*
X442586Y214410D01*
X441735Y214057D01*
X441004Y213496D01*
X440443Y212765D01*
X440090Y211914D01*
X439970Y211000D01*
X440090Y210086D01*
X440443Y209235D01*
X441004Y208504D01*
X441735Y207943D01*
X442586Y207590D01*
X443500Y207470D01*
X444414Y207590D01*
X445265Y207943D01*
X445996Y208504D01*
X446557Y209235D01*
X446910Y210086D01*
X447030Y211000D01*
X446910Y211914D01*
X446557Y212765D01*
X445996Y213496D01*
X445265Y214057D01*
X444414Y214410D01*
X443500Y214530D01*
D02*
G37*
G36*
X363000Y203030D02*
X362086Y202910D01*
X361235Y202557D01*
X360504Y201996D01*
X359943Y201265D01*
X359590Y200414D01*
X359470Y199500D01*
X359590Y198586D01*
X359943Y197735D01*
X360504Y197004D01*
X361235Y196443D01*
X362086Y196090D01*
X363000Y195970D01*
X363914Y196090D01*
X364765Y196443D01*
X365496Y197004D01*
X366057Y197735D01*
X366410Y198586D01*
X366530Y199500D01*
X366410Y200414D01*
X366057Y201265D01*
X365496Y201996D01*
X364765Y202557D01*
X363914Y202910D01*
X363000Y203030D01*
D02*
G37*
G36*
X475000Y195030D02*
X474086Y194910D01*
X473235Y194557D01*
X472504Y193996D01*
X471943Y193265D01*
X471590Y192414D01*
X471470Y191500D01*
X471590Y190586D01*
X471943Y189735D01*
X472504Y189004D01*
X473235Y188443D01*
X474086Y188090D01*
X475000Y187970D01*
X475914Y188090D01*
X476765Y188443D01*
X477496Y189004D01*
X478057Y189735D01*
X478410Y190586D01*
X478530Y191500D01*
X478410Y192414D01*
X478057Y193265D01*
X477496Y193996D01*
X476765Y194557D01*
X475914Y194910D01*
X475000Y195030D01*
D02*
G37*
G36*
X393500Y193030D02*
X392586Y192910D01*
X391735Y192557D01*
X391004Y191996D01*
X390443Y191265D01*
X390090Y190414D01*
X389970Y189500D01*
X390090Y188586D01*
X390443Y187735D01*
X391004Y187004D01*
X391735Y186443D01*
X392586Y186090D01*
X393500Y185970D01*
X394414Y186090D01*
X395265Y186443D01*
X395996Y187004D01*
X396557Y187735D01*
X396910Y188586D01*
X397030Y189500D01*
X396910Y190414D01*
X396557Y191265D01*
X395996Y191996D01*
X395265Y192557D01*
X394414Y192910D01*
X393500Y193030D01*
D02*
G37*
G36*
X450000Y192530D02*
X449086Y192410D01*
X448235Y192057D01*
X447504Y191496D01*
X446943Y190765D01*
X446590Y189914D01*
X446470Y189000D01*
X446590Y188086D01*
X446943Y187235D01*
X447504Y186504D01*
X448235Y185943D01*
X449086Y185590D01*
X450000Y185470D01*
X450914Y185590D01*
X451765Y185943D01*
X452496Y186504D01*
X453057Y187235D01*
X453410Y188086D01*
X453530Y189000D01*
X453410Y189914D01*
X453057Y190765D01*
X452496Y191496D01*
X451765Y192057D01*
X450914Y192410D01*
X450000Y192530D01*
D02*
G37*
G36*
X379500Y169530D02*
X378586Y169410D01*
X377735Y169057D01*
X377004Y168496D01*
X376443Y167765D01*
X376090Y166914D01*
X375970Y166000D01*
X376090Y165086D01*
X376443Y164235D01*
X377004Y163504D01*
X377735Y162943D01*
X378586Y162590D01*
X379500Y162470D01*
X380414Y162590D01*
X381265Y162943D01*
X381996Y163504D01*
X382557Y164235D01*
X382910Y165086D01*
X383030Y166000D01*
X382910Y166914D01*
X382557Y167765D01*
X381996Y168496D01*
X381265Y169057D01*
X380414Y169410D01*
X379500Y169530D01*
D02*
G37*
G36*
X607500Y179351D02*
X605490Y179192D01*
X603529Y178722D01*
X601666Y177950D01*
X599947Y176896D01*
X598413Y175587D01*
X597104Y174053D01*
X596050Y172334D01*
X595278Y170471D01*
X594808Y168510D01*
X594649Y166500D01*
X594808Y164490D01*
X595278Y162529D01*
X596050Y160666D01*
X597104Y158947D01*
X598413Y157413D01*
X599947Y156104D01*
X601666Y155050D01*
X603529Y154278D01*
X605490Y153808D01*
X607500Y153649D01*
X609510Y153808D01*
X611471Y154278D01*
X613334Y155050D01*
X615053Y156104D01*
X616587Y157413D01*
X617896Y158947D01*
X618950Y160666D01*
X619722Y162529D01*
X620192Y164490D01*
X620351Y166500D01*
X620192Y168510D01*
X619722Y170471D01*
X618950Y172334D01*
X617896Y174053D01*
X616587Y175587D01*
X615053Y176896D01*
X613334Y177950D01*
X611471Y178722D01*
X609510Y179192D01*
X607500Y179351D01*
D02*
G37*
G36*
X427500D02*
X425490Y179192D01*
X423529Y178722D01*
X421666Y177950D01*
X419947Y176896D01*
X418413Y175587D01*
X417104Y174053D01*
X416050Y172334D01*
X415278Y170471D01*
X414808Y168510D01*
X414649Y166500D01*
X414808Y164490D01*
X415278Y162529D01*
X416050Y160666D01*
X417104Y158947D01*
X418413Y157413D01*
X419947Y156104D01*
X421666Y155050D01*
X423529Y154278D01*
X425490Y153808D01*
X427500Y153649D01*
X429510Y153808D01*
X431471Y154278D01*
X433334Y155050D01*
X435053Y156104D01*
X436587Y157413D01*
X437896Y158947D01*
X438950Y160666D01*
X439722Y162529D01*
X440192Y164490D01*
X440351Y166500D01*
X440192Y168510D01*
X439722Y170471D01*
X438950Y172334D01*
X437896Y174053D01*
X436587Y175587D01*
X435053Y176896D01*
X433334Y177950D01*
X431471Y178722D01*
X429510Y179192D01*
X427500Y179351D01*
D02*
G37*
G36*
X247500D02*
X245490Y179192D01*
X243529Y178722D01*
X241666Y177950D01*
X239947Y176896D01*
X238413Y175587D01*
X237104Y174053D01*
X236050Y172334D01*
X235278Y170471D01*
X234808Y168510D01*
X234649Y166500D01*
X234808Y164490D01*
X235278Y162529D01*
X236050Y160666D01*
X237104Y158947D01*
X238413Y157413D01*
X239947Y156104D01*
X241666Y155050D01*
X243529Y154278D01*
X245490Y153808D01*
X247500Y153649D01*
X249510Y153808D01*
X251471Y154278D01*
X253334Y155050D01*
X255053Y156104D01*
X256587Y157413D01*
X257896Y158947D01*
X258950Y160666D01*
X259722Y162529D01*
X260192Y164490D01*
X260351Y166500D01*
X260192Y168510D01*
X259722Y170471D01*
X258950Y172334D01*
X257896Y174053D01*
X256587Y175587D01*
X255053Y176896D01*
X253334Y177950D01*
X251471Y178722D01*
X249510Y179192D01*
X247500Y179351D01*
D02*
G37*
G36*
X424000Y133535D02*
X422956Y133397D01*
X421983Y132994D01*
X421147Y132353D01*
X420506Y131517D01*
X420103Y130544D01*
X419966Y129500D01*
X420103Y128456D01*
X420506Y127483D01*
X421147Y126647D01*
X421983Y126006D01*
X422956Y125603D01*
X424000Y125466D01*
X425044Y125603D01*
X426017Y126006D01*
X426853Y126647D01*
X427494Y127483D01*
X427897Y128456D01*
X428034Y129500D01*
X427897Y130544D01*
X427494Y131517D01*
X426853Y132353D01*
X426017Y132994D01*
X425044Y133397D01*
X424000Y133535D01*
D02*
G37*
G36*
X407000D02*
X405956Y133397D01*
X404983Y132994D01*
X404147Y132353D01*
X403506Y131517D01*
X403103Y130544D01*
X402965Y129500D01*
X403103Y128456D01*
X403506Y127483D01*
X404147Y126647D01*
X404983Y126006D01*
X405956Y125603D01*
X407000Y125466D01*
X408044Y125603D01*
X409017Y126006D01*
X409853Y126647D01*
X410494Y127483D01*
X410897Y128456D01*
X411034Y129500D01*
X410897Y130544D01*
X410494Y131517D01*
X409853Y132353D01*
X409017Y132994D01*
X408044Y133397D01*
X407000Y133535D01*
D02*
G37*
%LPD*%
D22*
X354500Y405000D02*
D03*
X304500D02*
D03*
X354500Y455000D02*
D03*
X304500D02*
D03*
D23*
X329500Y430000D02*
D03*
D25*
X397000Y412500D02*
D03*
X417000Y402500D02*
D03*
D26*
Y422500D02*
D03*
D38*
X424000Y129500D02*
D03*
X407000D02*
D03*
X546000Y428000D02*
D03*
X509250D02*
D03*
X472500D02*
D03*
D39*
X507000Y349500D02*
D03*
Y344214D02*
D03*
Y338929D02*
D03*
Y333643D02*
D03*
Y328357D02*
D03*
Y323071D02*
D03*
Y317786D02*
D03*
Y312500D02*
D03*
X512000D02*
D03*
Y317786D02*
D03*
Y323071D02*
D03*
Y328357D02*
D03*
Y333643D02*
D03*
Y338929D02*
D03*
Y344214D02*
D03*
Y349500D02*
D03*
X517000Y312500D02*
D03*
Y317786D02*
D03*
Y323071D02*
D03*
Y328357D02*
D03*
Y333643D02*
D03*
Y338929D02*
D03*
Y344214D02*
D03*
Y349500D02*
D03*
X522000Y312500D02*
D03*
Y317786D02*
D03*
Y323071D02*
D03*
Y328357D02*
D03*
Y333643D02*
D03*
Y338929D02*
D03*
Y344214D02*
D03*
Y349500D02*
D03*
X527500Y312500D02*
D03*
Y317786D02*
D03*
Y323071D02*
D03*
Y328357D02*
D03*
Y333643D02*
D03*
Y338929D02*
D03*
Y344214D02*
D03*
Y349500D02*
D03*
X508000Y229500D02*
D03*
Y224214D02*
D03*
Y218929D02*
D03*
Y213643D02*
D03*
Y208357D02*
D03*
Y203071D02*
D03*
Y197786D02*
D03*
Y192500D02*
D03*
X513000D02*
D03*
Y197786D02*
D03*
Y203071D02*
D03*
Y208357D02*
D03*
Y213643D02*
D03*
Y218929D02*
D03*
Y224214D02*
D03*
Y229500D02*
D03*
X518000Y192500D02*
D03*
Y197786D02*
D03*
Y203071D02*
D03*
Y208357D02*
D03*
Y213643D02*
D03*
Y218929D02*
D03*
Y224214D02*
D03*
Y229500D02*
D03*
X523000Y192500D02*
D03*
Y197786D02*
D03*
Y203071D02*
D03*
Y208357D02*
D03*
Y213643D02*
D03*
Y218929D02*
D03*
Y224214D02*
D03*
Y229500D02*
D03*
X528500Y192500D02*
D03*
Y197786D02*
D03*
Y203071D02*
D03*
Y208357D02*
D03*
Y213643D02*
D03*
Y218929D02*
D03*
Y224214D02*
D03*
Y229500D02*
D03*
X325000Y231000D02*
D03*
Y225714D02*
D03*
Y220428D02*
D03*
Y215143D02*
D03*
Y209857D02*
D03*
Y204571D02*
D03*
Y199286D02*
D03*
Y194000D02*
D03*
X330000D02*
D03*
Y199286D02*
D03*
Y204571D02*
D03*
Y209857D02*
D03*
Y215143D02*
D03*
Y220428D02*
D03*
Y225714D02*
D03*
Y231000D02*
D03*
X335000Y194000D02*
D03*
Y199286D02*
D03*
Y204571D02*
D03*
Y209857D02*
D03*
Y215143D02*
D03*
Y220428D02*
D03*
Y225714D02*
D03*
Y231000D02*
D03*
X340000Y194000D02*
D03*
Y199286D02*
D03*
Y204571D02*
D03*
Y209857D02*
D03*
Y215143D02*
D03*
Y220428D02*
D03*
Y225714D02*
D03*
Y231000D02*
D03*
X345500Y194000D02*
D03*
Y199286D02*
D03*
Y204571D02*
D03*
Y209857D02*
D03*
Y215143D02*
D03*
Y220428D02*
D03*
Y225714D02*
D03*
Y231000D02*
D03*
X345000Y348500D02*
D03*
Y343214D02*
D03*
Y337929D02*
D03*
Y332643D02*
D03*
Y327357D02*
D03*
Y322071D02*
D03*
Y316786D02*
D03*
Y311500D02*
D03*
X339500Y348500D02*
D03*
Y343214D02*
D03*
Y337929D02*
D03*
Y332643D02*
D03*
Y327357D02*
D03*
Y322071D02*
D03*
Y316786D02*
D03*
Y311500D02*
D03*
X334500Y348500D02*
D03*
Y343214D02*
D03*
Y337929D02*
D03*
Y332643D02*
D03*
Y327357D02*
D03*
Y322071D02*
D03*
Y316786D02*
D03*
Y311500D02*
D03*
X329500Y348500D02*
D03*
Y343214D02*
D03*
Y337929D02*
D03*
Y332643D02*
D03*
Y327357D02*
D03*
Y322071D02*
D03*
Y316786D02*
D03*
Y311500D02*
D03*
X324500D02*
D03*
Y316786D02*
D03*
Y322071D02*
D03*
Y327357D02*
D03*
Y332643D02*
D03*
Y337929D02*
D03*
Y343214D02*
D03*
Y348500D02*
D03*
D40*
X393500Y189500D02*
D03*
X450000Y189000D02*
D03*
X450500Y307000D02*
D03*
X392500D02*
D03*
X379500Y166000D02*
D03*
X378500Y231500D02*
D03*
X475000Y191500D02*
D03*
X474000Y312000D02*
D03*
X379000Y348000D02*
D03*
X387500Y397500D02*
D03*
X408000Y226256D02*
D03*
X443500Y211000D02*
D03*
X446500Y257000D02*
D03*
X443500Y330500D02*
D03*
X408500Y344500D02*
D03*
X367000Y337000D02*
D03*
X489000Y224500D02*
D03*
Y344500D02*
D03*
X363000Y199500D02*
D03*
D41*
X534603Y351500D02*
D03*
Y311500D02*
D03*
Y316500D02*
D03*
Y321500D02*
D03*
Y326500D02*
D03*
Y331500D02*
D03*
Y336500D02*
D03*
Y341500D02*
D03*
Y346500D02*
D03*
X539103D02*
D03*
Y341500D02*
D03*
Y336500D02*
D03*
Y331500D02*
D03*
Y326500D02*
D03*
Y321500D02*
D03*
Y316500D02*
D03*
Y311500D02*
D03*
Y351500D02*
D03*
X543603Y346500D02*
D03*
Y341500D02*
D03*
Y336500D02*
D03*
Y331500D02*
D03*
Y326500D02*
D03*
Y321500D02*
D03*
Y316500D02*
D03*
Y311500D02*
D03*
Y351500D02*
D03*
X527500Y364603D02*
D03*
X522500D02*
D03*
X517500D02*
D03*
X512500D02*
D03*
X507500D02*
D03*
X502500D02*
D03*
X497500D02*
D03*
X492500D02*
D03*
X527500Y360103D02*
D03*
X522500D02*
D03*
X517500D02*
D03*
X512500D02*
D03*
X507500D02*
D03*
X502500D02*
D03*
X497500D02*
D03*
X492500D02*
D03*
Y355603D02*
D03*
X497500D02*
D03*
X502500D02*
D03*
X507500D02*
D03*
X512500D02*
D03*
X517500D02*
D03*
X522500D02*
D03*
X527500D02*
D03*
X528000Y306603D02*
D03*
X523000D02*
D03*
X518000D02*
D03*
X513000D02*
D03*
X508000D02*
D03*
X503000D02*
D03*
X498000D02*
D03*
X528000Y302103D02*
D03*
X523000D02*
D03*
X518000D02*
D03*
X513000D02*
D03*
X508000D02*
D03*
X503000D02*
D03*
X498000D02*
D03*
Y297603D02*
D03*
X503000D02*
D03*
X508000D02*
D03*
X513000D02*
D03*
X518000D02*
D03*
X523000D02*
D03*
X528000D02*
D03*
X535103Y231500D02*
D03*
Y191500D02*
D03*
Y196500D02*
D03*
Y201500D02*
D03*
Y206500D02*
D03*
Y211500D02*
D03*
Y216500D02*
D03*
Y221500D02*
D03*
Y226500D02*
D03*
X539603D02*
D03*
Y221500D02*
D03*
Y216500D02*
D03*
Y211500D02*
D03*
Y206500D02*
D03*
Y201500D02*
D03*
Y196500D02*
D03*
Y191500D02*
D03*
Y231500D02*
D03*
X544103Y226500D02*
D03*
Y221500D02*
D03*
Y216500D02*
D03*
Y211500D02*
D03*
Y206500D02*
D03*
Y201500D02*
D03*
Y196500D02*
D03*
Y191500D02*
D03*
Y231500D02*
D03*
X528000Y244603D02*
D03*
X523000D02*
D03*
X518000D02*
D03*
X513000D02*
D03*
X508000D02*
D03*
X503000D02*
D03*
X498000D02*
D03*
X493000D02*
D03*
X528000Y240103D02*
D03*
X523000D02*
D03*
X518000D02*
D03*
X513000D02*
D03*
X508000D02*
D03*
X503000D02*
D03*
X498000D02*
D03*
X493000D02*
D03*
Y235603D02*
D03*
X498000D02*
D03*
X503000D02*
D03*
X508000D02*
D03*
X513000D02*
D03*
X518000D02*
D03*
X523000D02*
D03*
X528000D02*
D03*
X528500Y186603D02*
D03*
X523500D02*
D03*
X518500D02*
D03*
X513500D02*
D03*
X508500D02*
D03*
X503500D02*
D03*
X498500D02*
D03*
X528500Y182103D02*
D03*
X523500D02*
D03*
X518500D02*
D03*
X513500D02*
D03*
X508500D02*
D03*
X503500D02*
D03*
X498500D02*
D03*
Y177603D02*
D03*
X503500D02*
D03*
X508500D02*
D03*
X513500D02*
D03*
X518500D02*
D03*
X523500D02*
D03*
X528500D02*
D03*
X317397Y192500D02*
D03*
Y232500D02*
D03*
Y227500D02*
D03*
Y222500D02*
D03*
Y217500D02*
D03*
Y212500D02*
D03*
Y207500D02*
D03*
Y202500D02*
D03*
Y197500D02*
D03*
X312897D02*
D03*
Y202500D02*
D03*
Y207500D02*
D03*
Y212500D02*
D03*
Y217500D02*
D03*
Y222500D02*
D03*
Y227500D02*
D03*
Y232500D02*
D03*
Y192500D02*
D03*
X308397Y197500D02*
D03*
Y202500D02*
D03*
Y207500D02*
D03*
Y212500D02*
D03*
Y217500D02*
D03*
Y222500D02*
D03*
Y227500D02*
D03*
Y232500D02*
D03*
Y192500D02*
D03*
X324500Y179397D02*
D03*
X329500D02*
D03*
X334500D02*
D03*
X339500D02*
D03*
X344500D02*
D03*
X349500D02*
D03*
X354500D02*
D03*
X359500D02*
D03*
X324500Y183897D02*
D03*
X329500D02*
D03*
X334500D02*
D03*
X339500D02*
D03*
X344500D02*
D03*
X349500D02*
D03*
X354500D02*
D03*
X359500D02*
D03*
Y188397D02*
D03*
X354500D02*
D03*
X349500D02*
D03*
X344500D02*
D03*
X339500D02*
D03*
X334500D02*
D03*
X329500D02*
D03*
X324500D02*
D03*
X324000Y237397D02*
D03*
X329000D02*
D03*
X334000D02*
D03*
X339000D02*
D03*
X344000D02*
D03*
X349000D02*
D03*
X354000D02*
D03*
X324000Y241897D02*
D03*
X329000D02*
D03*
X334000D02*
D03*
X339000D02*
D03*
X344000D02*
D03*
X349000D02*
D03*
X354000D02*
D03*
Y246397D02*
D03*
X349000D02*
D03*
X344000D02*
D03*
X339000D02*
D03*
X334000D02*
D03*
X329000D02*
D03*
X324000D02*
D03*
X579002Y294434D02*
D03*
Y334434D02*
D03*
Y329434D02*
D03*
Y324434D02*
D03*
Y319434D02*
D03*
Y314434D02*
D03*
Y309434D02*
D03*
Y304434D02*
D03*
Y299434D02*
D03*
X571502Y294434D02*
D03*
Y334434D02*
D03*
Y329434D02*
D03*
Y324434D02*
D03*
Y319434D02*
D03*
Y314434D02*
D03*
Y309434D02*
D03*
Y304434D02*
D03*
Y299434D02*
D03*
X564002Y294434D02*
D03*
Y334434D02*
D03*
Y329434D02*
D03*
Y324434D02*
D03*
Y319434D02*
D03*
Y314434D02*
D03*
Y309434D02*
D03*
Y304434D02*
D03*
Y299434D02*
D03*
X557002Y294434D02*
D03*
Y334434D02*
D03*
Y329434D02*
D03*
Y324434D02*
D03*
Y319434D02*
D03*
Y314434D02*
D03*
Y309434D02*
D03*
Y304434D02*
D03*
Y299434D02*
D03*
X557000Y254500D02*
D03*
Y259500D02*
D03*
Y264500D02*
D03*
Y269500D02*
D03*
Y274500D02*
D03*
Y279500D02*
D03*
Y284500D02*
D03*
Y289500D02*
D03*
Y249500D02*
D03*
X564000Y254500D02*
D03*
Y259500D02*
D03*
Y264500D02*
D03*
Y269500D02*
D03*
Y274500D02*
D03*
Y279500D02*
D03*
Y284500D02*
D03*
Y289500D02*
D03*
Y249500D02*
D03*
X571500Y254500D02*
D03*
Y259500D02*
D03*
Y264500D02*
D03*
Y269500D02*
D03*
Y274500D02*
D03*
Y279500D02*
D03*
Y284500D02*
D03*
Y289500D02*
D03*
Y249500D02*
D03*
X579000Y254500D02*
D03*
Y259500D02*
D03*
Y264500D02*
D03*
Y269500D02*
D03*
Y274500D02*
D03*
Y279500D02*
D03*
Y284500D02*
D03*
Y289500D02*
D03*
Y249500D02*
D03*
X557000Y210000D02*
D03*
Y215000D02*
D03*
Y220000D02*
D03*
Y225000D02*
D03*
Y230000D02*
D03*
Y235000D02*
D03*
Y240000D02*
D03*
Y245000D02*
D03*
Y205000D02*
D03*
X564000Y210000D02*
D03*
Y215000D02*
D03*
Y220000D02*
D03*
Y225000D02*
D03*
Y230000D02*
D03*
Y235000D02*
D03*
Y240000D02*
D03*
Y245000D02*
D03*
Y205000D02*
D03*
X571500Y210000D02*
D03*
Y215000D02*
D03*
Y220000D02*
D03*
Y225000D02*
D03*
Y230000D02*
D03*
Y235000D02*
D03*
Y240000D02*
D03*
Y245000D02*
D03*
Y205000D02*
D03*
X579000Y210000D02*
D03*
Y215000D02*
D03*
Y220000D02*
D03*
Y225000D02*
D03*
Y230000D02*
D03*
Y235000D02*
D03*
Y240000D02*
D03*
Y245000D02*
D03*
Y205000D02*
D03*
X557000Y165000D02*
D03*
Y170000D02*
D03*
Y175000D02*
D03*
Y180000D02*
D03*
Y185000D02*
D03*
Y190000D02*
D03*
Y195000D02*
D03*
Y200000D02*
D03*
Y160000D02*
D03*
X564000Y165000D02*
D03*
Y170000D02*
D03*
Y175000D02*
D03*
Y180000D02*
D03*
Y185000D02*
D03*
Y190000D02*
D03*
Y195000D02*
D03*
Y200000D02*
D03*
Y160000D02*
D03*
X571500Y165000D02*
D03*
Y170000D02*
D03*
Y175000D02*
D03*
Y180000D02*
D03*
Y185000D02*
D03*
Y190000D02*
D03*
Y195000D02*
D03*
Y200000D02*
D03*
Y160000D02*
D03*
X579000Y165000D02*
D03*
Y170000D02*
D03*
Y175000D02*
D03*
Y180000D02*
D03*
Y185000D02*
D03*
Y190000D02*
D03*
Y195000D02*
D03*
Y200000D02*
D03*
Y160000D02*
D03*
X557000Y344500D02*
D03*
Y349500D02*
D03*
Y354500D02*
D03*
Y359500D02*
D03*
Y364500D02*
D03*
Y369500D02*
D03*
Y374500D02*
D03*
Y379500D02*
D03*
Y339500D02*
D03*
X564000Y344500D02*
D03*
Y349500D02*
D03*
Y354500D02*
D03*
Y359500D02*
D03*
Y364500D02*
D03*
Y369500D02*
D03*
Y374500D02*
D03*
Y379500D02*
D03*
Y339500D02*
D03*
X571500Y344500D02*
D03*
Y349500D02*
D03*
Y354500D02*
D03*
Y359500D02*
D03*
Y364500D02*
D03*
Y369500D02*
D03*
Y374500D02*
D03*
Y379500D02*
D03*
Y339500D02*
D03*
X579000Y344500D02*
D03*
Y349500D02*
D03*
Y354500D02*
D03*
Y359500D02*
D03*
Y364500D02*
D03*
Y369500D02*
D03*
Y374500D02*
D03*
Y379500D02*
D03*
Y339500D02*
D03*
X298000Y340000D02*
D03*
Y380000D02*
D03*
Y375000D02*
D03*
Y370000D02*
D03*
Y365000D02*
D03*
Y360000D02*
D03*
Y355000D02*
D03*
Y350000D02*
D03*
Y345000D02*
D03*
X290500Y340000D02*
D03*
Y380000D02*
D03*
Y375000D02*
D03*
Y370000D02*
D03*
Y365000D02*
D03*
Y360000D02*
D03*
Y355000D02*
D03*
Y350000D02*
D03*
Y345000D02*
D03*
X283000Y340000D02*
D03*
Y380000D02*
D03*
Y375000D02*
D03*
Y370000D02*
D03*
Y365000D02*
D03*
Y360000D02*
D03*
Y355000D02*
D03*
Y350000D02*
D03*
Y345000D02*
D03*
X276000Y340000D02*
D03*
Y380000D02*
D03*
Y375000D02*
D03*
Y370000D02*
D03*
Y365000D02*
D03*
Y360000D02*
D03*
Y355000D02*
D03*
Y350000D02*
D03*
Y345000D02*
D03*
X298000Y160500D02*
D03*
Y200500D02*
D03*
Y195500D02*
D03*
Y190500D02*
D03*
Y185500D02*
D03*
Y180500D02*
D03*
Y175500D02*
D03*
Y170500D02*
D03*
Y165500D02*
D03*
X290500Y160500D02*
D03*
Y200500D02*
D03*
Y195500D02*
D03*
Y190500D02*
D03*
Y185500D02*
D03*
Y180500D02*
D03*
Y175500D02*
D03*
Y170500D02*
D03*
Y165500D02*
D03*
X283000Y160500D02*
D03*
Y200500D02*
D03*
Y195500D02*
D03*
Y190500D02*
D03*
Y185500D02*
D03*
Y180500D02*
D03*
Y175500D02*
D03*
Y170500D02*
D03*
Y165500D02*
D03*
X276000Y160500D02*
D03*
Y200500D02*
D03*
Y195500D02*
D03*
Y190500D02*
D03*
Y185500D02*
D03*
Y180500D02*
D03*
Y175500D02*
D03*
Y170500D02*
D03*
Y165500D02*
D03*
X298000Y205500D02*
D03*
Y245500D02*
D03*
Y240500D02*
D03*
Y235500D02*
D03*
Y230500D02*
D03*
Y225500D02*
D03*
Y220500D02*
D03*
Y215500D02*
D03*
Y210500D02*
D03*
X290500Y205500D02*
D03*
Y245500D02*
D03*
Y240500D02*
D03*
Y235500D02*
D03*
Y230500D02*
D03*
Y225500D02*
D03*
Y220500D02*
D03*
Y215500D02*
D03*
Y210500D02*
D03*
X283000Y205500D02*
D03*
Y245500D02*
D03*
Y240500D02*
D03*
Y235500D02*
D03*
Y230500D02*
D03*
Y225500D02*
D03*
Y220500D02*
D03*
Y215500D02*
D03*
Y210500D02*
D03*
X276000Y205500D02*
D03*
Y245500D02*
D03*
Y240500D02*
D03*
Y235500D02*
D03*
Y230500D02*
D03*
Y225500D02*
D03*
Y220500D02*
D03*
Y215500D02*
D03*
Y210500D02*
D03*
X298000Y250000D02*
D03*
Y290000D02*
D03*
Y285000D02*
D03*
Y280000D02*
D03*
Y275000D02*
D03*
Y270000D02*
D03*
Y265000D02*
D03*
Y260000D02*
D03*
Y255000D02*
D03*
X290500Y250000D02*
D03*
Y290000D02*
D03*
Y285000D02*
D03*
Y280000D02*
D03*
Y275000D02*
D03*
Y270000D02*
D03*
Y265000D02*
D03*
Y260000D02*
D03*
Y255000D02*
D03*
X283000Y250000D02*
D03*
Y290000D02*
D03*
Y285000D02*
D03*
Y280000D02*
D03*
Y275000D02*
D03*
Y270000D02*
D03*
Y265000D02*
D03*
Y260000D02*
D03*
Y255000D02*
D03*
X276000Y250000D02*
D03*
Y290000D02*
D03*
Y285000D02*
D03*
Y280000D02*
D03*
Y275000D02*
D03*
Y270000D02*
D03*
Y265000D02*
D03*
Y260000D02*
D03*
Y255000D02*
D03*
X276002Y299934D02*
D03*
Y304934D02*
D03*
Y309934D02*
D03*
Y314934D02*
D03*
Y319934D02*
D03*
Y324934D02*
D03*
Y329934D02*
D03*
Y334934D02*
D03*
Y294934D02*
D03*
X283002Y299934D02*
D03*
Y304934D02*
D03*
Y309934D02*
D03*
Y314934D02*
D03*
Y319934D02*
D03*
Y324934D02*
D03*
Y329934D02*
D03*
Y334934D02*
D03*
Y294934D02*
D03*
X290502Y299934D02*
D03*
Y304934D02*
D03*
Y309934D02*
D03*
Y314934D02*
D03*
Y319934D02*
D03*
Y324934D02*
D03*
Y329934D02*
D03*
Y334934D02*
D03*
Y294934D02*
D03*
X298002Y299934D02*
D03*
Y304934D02*
D03*
Y309934D02*
D03*
Y314934D02*
D03*
Y319934D02*
D03*
Y324934D02*
D03*
Y329934D02*
D03*
Y334934D02*
D03*
Y294934D02*
D03*
X322500Y363397D02*
D03*
X327500D02*
D03*
X332500D02*
D03*
X337500D02*
D03*
X342500D02*
D03*
X347500D02*
D03*
X352500D02*
D03*
Y358897D02*
D03*
X347500D02*
D03*
X342500D02*
D03*
X337500D02*
D03*
X332500D02*
D03*
X327500D02*
D03*
X322500D02*
D03*
X352500Y354397D02*
D03*
X347500D02*
D03*
X342500D02*
D03*
X337500D02*
D03*
X332500D02*
D03*
X327500D02*
D03*
X322500D02*
D03*
X323000Y305397D02*
D03*
X328000D02*
D03*
X333000D02*
D03*
X338000D02*
D03*
X343000D02*
D03*
X348000D02*
D03*
X353000D02*
D03*
X358000D02*
D03*
Y300897D02*
D03*
X353000D02*
D03*
X348000D02*
D03*
X343000D02*
D03*
X338000D02*
D03*
X333000D02*
D03*
X328000D02*
D03*
X323000D02*
D03*
X358000Y296397D02*
D03*
X353000D02*
D03*
X348000D02*
D03*
X343000D02*
D03*
X338000D02*
D03*
X333000D02*
D03*
X328000D02*
D03*
X323000D02*
D03*
X306897Y309500D02*
D03*
Y349500D02*
D03*
Y344500D02*
D03*
Y339500D02*
D03*
Y334500D02*
D03*
Y329500D02*
D03*
Y324500D02*
D03*
Y319500D02*
D03*
Y314500D02*
D03*
X311397Y309500D02*
D03*
Y349500D02*
D03*
Y344500D02*
D03*
Y339500D02*
D03*
Y334500D02*
D03*
Y329500D02*
D03*
Y324500D02*
D03*
Y319500D02*
D03*
Y314500D02*
D03*
X315897D02*
D03*
Y319500D02*
D03*
Y324500D02*
D03*
Y329500D02*
D03*
Y334500D02*
D03*
Y339500D02*
D03*
Y344500D02*
D03*
Y349500D02*
D03*
Y309500D02*
D03*
D42*
X247500Y376500D02*
D03*
X427500D02*
D03*
X607500D02*
D03*
Y166500D02*
D03*
X427500D02*
D03*
X247500D02*
D03*
M02*
