G04*
G04 #@! TF.GenerationSoftware,Altium Limited,Altium Designer,21.4.1 (30)*
G04*
G04 Layer_Physical_Order=1*
G04 Layer_Color=255*
%FSLAX25Y25*%
%MOIN*%
G70*
G04*
G04 #@! TF.SameCoordinates,FB31E628-B40C-45E7-AE42-562EE5F46966*
G04*
G04*
G04 #@! TF.FilePolarity,Positive*
G04*
G01*
G75*
%ADD16R,0.05363X0.04558*%
%ADD18R,0.06717X0.04545*%
%ADD19R,0.04545X0.06717*%
%ADD20R,0.05512X0.06457*%
%ADD22C,0.06890*%
%ADD23R,0.06890X0.06890*%
%ADD25C,0.04921*%
%ADD26R,0.04921X0.04921*%
G04:AMPARAMS|DCode=29|XSize=37.4mil|YSize=151.58mil|CornerRadius=2.06mil|HoleSize=0mil|Usage=FLASHONLY|Rotation=270.000|XOffset=0mil|YOffset=0mil|HoleType=Round|Shape=RoundedRectangle|*
%AMROUNDEDRECTD29*
21,1,0.03740,0.14746,0,0,270.0*
21,1,0.03329,0.15158,0,0,270.0*
1,1,0.00411,-0.07373,-0.01664*
1,1,0.00411,-0.07373,0.01664*
1,1,0.00411,0.07373,0.01664*
1,1,0.00411,0.07373,-0.01664*
%
%ADD29ROUNDEDRECTD29*%
G04:AMPARAMS|DCode=30|XSize=421.26mil|YSize=311.02mil|CornerRadius=1.56mil|HoleSize=0mil|Usage=FLASHONLY|Rotation=270.000|XOffset=0mil|YOffset=0mil|HoleType=Round|Shape=RoundedRectangle|*
%AMROUNDEDRECTD30*
21,1,0.42126,0.30791,0,0,270.0*
21,1,0.41815,0.31102,0,0,270.0*
1,1,0.00311,-0.15396,-0.20908*
1,1,0.00311,-0.15396,0.20908*
1,1,0.00311,0.15396,0.20908*
1,1,0.00311,0.15396,-0.20908*
%
%ADD30ROUNDEDRECTD30*%
%ADD31R,0.12992X0.04331*%
%ADD32R,0.04331X0.12992*%
%ADD33R,0.04724X0.05709*%
%ADD34C,0.01200*%
%ADD35C,0.05000*%
%ADD36C,0.03000*%
%ADD37C,0.02000*%
%ADD38C,0.06000*%
%ADD39C,0.01500*%
%ADD40C,0.05000*%
%ADD41C,0.03000*%
%ADD42C,0.23622*%
G36*
X622471Y120029D02*
X234029Y120029D01*
X234029Y468971D01*
X622471Y468971D01*
X622471Y120029D01*
D02*
G37*
%LPC*%
G36*
X355085Y459445D02*
X353915D01*
X352784Y459142D01*
X351771Y458557D01*
X350943Y457729D01*
X350358Y456716D01*
X350055Y455585D01*
Y454415D01*
X350358Y453284D01*
X350943Y452271D01*
X351771Y451443D01*
X352784Y450858D01*
X353915Y450555D01*
X355085D01*
X356216Y450858D01*
X357229Y451443D01*
X358057Y452271D01*
X358642Y453284D01*
X358945Y454415D01*
Y455585D01*
X358642Y456716D01*
X358057Y457729D01*
X357229Y458557D01*
X356216Y459142D01*
X355085Y459445D01*
D02*
G37*
G36*
X305085D02*
X303915D01*
X302784Y459142D01*
X301771Y458557D01*
X300943Y457729D01*
X300358Y456716D01*
X300055Y455585D01*
Y454415D01*
X300358Y453284D01*
X300943Y452271D01*
X301771Y451443D01*
X302784Y450858D01*
X303915Y450555D01*
X305085D01*
X306216Y450858D01*
X307229Y451443D01*
X308057Y452271D01*
X308642Y453284D01*
X308945Y454415D01*
Y455585D01*
X308642Y456716D01*
X308057Y457729D01*
X307229Y458557D01*
X306216Y459142D01*
X305085Y459445D01*
D02*
G37*
G36*
X546527Y432000D02*
X545473D01*
X544456Y431727D01*
X543544Y431201D01*
X542799Y430456D01*
X542273Y429544D01*
X542000Y428527D01*
Y427473D01*
X542273Y426456D01*
X542799Y425544D01*
X543544Y424799D01*
X544456Y424273D01*
X545473Y424000D01*
X546527D01*
X547544Y424273D01*
X548456Y424799D01*
X549201Y425544D01*
X549727Y426456D01*
X550000Y427473D01*
Y428527D01*
X549727Y429544D01*
X549201Y430456D01*
X548456Y431201D01*
X547544Y431727D01*
X546527Y432000D01*
D02*
G37*
G36*
X473027D02*
X471973D01*
X470956Y431727D01*
X470044Y431201D01*
X469299Y430456D01*
X468773Y429544D01*
X468500Y428527D01*
Y427473D01*
X468773Y426456D01*
X469299Y425544D01*
X470044Y424799D01*
X470956Y424273D01*
X471973Y424000D01*
X473027D01*
X474044Y424273D01*
X474956Y424799D01*
X475701Y425544D01*
X476227Y426456D01*
X476500Y427473D01*
Y428527D01*
X476227Y429544D01*
X475701Y430456D01*
X474956Y431201D01*
X474044Y431727D01*
X473027Y432000D01*
D02*
G37*
G36*
X420461Y425961D02*
X413539D01*
Y419039D01*
X420461D01*
Y425961D01*
D02*
G37*
G36*
X333945Y434445D02*
X325055D01*
Y425555D01*
X333945D01*
Y428369D01*
X342324D01*
X357913Y412779D01*
Y408526D01*
X357452Y408334D01*
X357229Y408557D01*
X356216Y409142D01*
X355085Y409445D01*
X353915D01*
X352784Y409142D01*
X351771Y408557D01*
X350943Y407729D01*
X350358Y406716D01*
X350055Y405585D01*
Y404415D01*
X350358Y403284D01*
X350943Y402271D01*
X351771Y401443D01*
X352784Y400858D01*
X353915Y400555D01*
X355085D01*
X356216Y400858D01*
X357229Y401443D01*
X357452Y401666D01*
X357913Y401474D01*
Y329270D01*
X358038Y328646D01*
X358391Y328116D01*
X369307Y317201D01*
Y314950D01*
X369401Y314479D01*
X369667Y314081D01*
X370066Y313814D01*
X370536Y313720D01*
X385282D01*
X385753Y313814D01*
X386152Y314081D01*
X386418Y314479D01*
X386512Y314950D01*
Y318279D01*
X386418Y318749D01*
X386152Y319148D01*
X385753Y319414D01*
X385282Y319508D01*
X371614D01*
X371171Y319951D01*
X371362Y320413D01*
X385282D01*
X385753Y320507D01*
X386152Y320773D01*
X386418Y321172D01*
X386512Y321643D01*
Y324972D01*
X386418Y325442D01*
X386152Y325841D01*
X385753Y326107D01*
X385282Y326201D01*
X371614D01*
X363631Y334184D01*
Y334835D01*
X364131Y334969D01*
X364199Y334851D01*
X364851Y334199D01*
X365649Y333738D01*
X366539Y333500D01*
X367461D01*
X368351Y333738D01*
X369149Y334199D01*
X369165Y334215D01*
X369662Y334166D01*
X369667Y334159D01*
X370066Y333893D01*
X370536Y333799D01*
X385282D01*
X385753Y333893D01*
X386152Y334159D01*
X386244Y334297D01*
X397504D01*
Y333555D01*
X412496D01*
Y339886D01*
X404796D01*
Y342869D01*
X405400D01*
X405699Y342351D01*
X406351Y341699D01*
X407149Y341238D01*
X408039Y341000D01*
X408961D01*
X409851Y341238D01*
X410649Y341699D01*
X411301Y342351D01*
X411762Y343149D01*
X412000Y344039D01*
Y344961D01*
X411762Y345851D01*
X411301Y346649D01*
X410649Y347301D01*
X409851Y347762D01*
X408961Y348000D01*
X408039D01*
X407149Y347762D01*
X406351Y347301D01*
X405699Y346649D01*
X405400Y346131D01*
X404796D01*
Y347859D01*
X398251D01*
Y339886D01*
X397504D01*
Y339395D01*
X394749D01*
Y347859D01*
X388204D01*
Y345017D01*
X386512D01*
Y345050D01*
X386418Y345521D01*
X386152Y345919D01*
X385753Y346186D01*
X385282Y346280D01*
X382560D01*
X382296Y346779D01*
X382500Y347539D01*
Y348461D01*
X382261Y349351D01*
X381801Y350149D01*
X381149Y350801D01*
X380351Y351261D01*
X379461Y351500D01*
X378539D01*
X377649Y351261D01*
X376851Y350801D01*
X376199Y350149D01*
X375739Y349351D01*
X375500Y348461D01*
Y347539D01*
X375704Y346779D01*
X375440Y346280D01*
X370536D01*
X370066Y346186D01*
X369667Y345919D01*
X369401Y345521D01*
X369307Y345050D01*
Y341722D01*
X369401Y341251D01*
X369667Y340852D01*
X370066Y340586D01*
X370536Y340492D01*
X385282D01*
X385753Y340586D01*
X386152Y340852D01*
X386418Y341251D01*
X386512Y341722D01*
Y341755D01*
X388204D01*
Y339395D01*
X385899D01*
X385753Y339493D01*
X385282Y339587D01*
X370536D01*
X370066Y339493D01*
X369701Y339249D01*
X369149Y339801D01*
X368351Y340262D01*
X367461Y340500D01*
X366539D01*
X365649Y340262D01*
X364851Y339801D01*
X364199Y339149D01*
X364131Y339031D01*
X363631Y339165D01*
Y384769D01*
X372508Y393646D01*
X376925D01*
Y399047D01*
X377613Y399735D01*
X378075Y399544D01*
Y393646D01*
X384799D01*
Y394598D01*
X385261Y394789D01*
X385351Y394699D01*
X386149Y394238D01*
X387039Y394000D01*
X387961D01*
X388851Y394238D01*
X389649Y394699D01*
X390301Y395351D01*
X390761Y396149D01*
X391000Y397039D01*
Y397961D01*
X390761Y398851D01*
X390301Y399649D01*
X389649Y400301D01*
X388851Y400762D01*
X387961Y401000D01*
X387039D01*
X386149Y400762D01*
X385351Y400301D01*
X385261Y400211D01*
X384799Y400402D01*
Y401354D01*
X379886D01*
X379694Y401816D01*
X388747Y410869D01*
X393946D01*
X394231Y410375D01*
X394875Y409731D01*
X395664Y409275D01*
X396544Y409039D01*
X397456D01*
X398336Y409275D01*
X399125Y409731D01*
X399769Y410375D01*
X400225Y411164D01*
X400461Y412044D01*
Y412956D01*
X400225Y413836D01*
X399769Y414625D01*
X399125Y415269D01*
X398336Y415725D01*
X397456Y415961D01*
X396544D01*
X395664Y415725D01*
X394875Y415269D01*
X394231Y414625D01*
X393946Y414131D01*
X388071D01*
X387447Y414007D01*
X386917Y413654D01*
X374618Y401354D01*
X370201D01*
Y395953D01*
X361638Y387390D01*
X361176Y387581D01*
Y413455D01*
X361052Y414079D01*
X360698Y414609D01*
X344153Y431153D01*
X343624Y431507D01*
X343000Y431631D01*
X333945D01*
Y434445D01*
D02*
G37*
G36*
X305085Y409445D02*
X303915D01*
X302784Y409142D01*
X301771Y408557D01*
X300943Y407729D01*
X300358Y406716D01*
X300055Y405585D01*
Y404415D01*
X300358Y403284D01*
X300943Y402271D01*
X301771Y401443D01*
X302784Y400858D01*
X303915Y400555D01*
X305085D01*
X306216Y400858D01*
X307229Y401443D01*
X308057Y402271D01*
X308642Y403284D01*
X308945Y404415D01*
Y405585D01*
X308642Y406716D01*
X308057Y407729D01*
X307229Y408557D01*
X306216Y409142D01*
X305085Y409445D01*
D02*
G37*
G36*
X608508Y389311D02*
X606492D01*
X604500Y388996D01*
X602582Y388372D01*
X600786Y387457D01*
X599154Y386272D01*
X597728Y384846D01*
X596543Y383214D01*
X595628Y381418D01*
X595004Y379500D01*
X594689Y377508D01*
Y375492D01*
X595004Y373500D01*
X595628Y371582D01*
X596543Y369786D01*
X597728Y368154D01*
X599154Y366728D01*
X600786Y365543D01*
X602582Y364628D01*
X604500Y364004D01*
X606492Y363689D01*
X608508D01*
X610500Y364004D01*
X612418Y364628D01*
X614214Y365543D01*
X615846Y366728D01*
X617272Y368154D01*
X618457Y369786D01*
X619372Y371582D01*
X619996Y373500D01*
X620311Y375492D01*
Y377508D01*
X619996Y379500D01*
X619372Y381418D01*
X618457Y383214D01*
X617272Y384846D01*
X615846Y386272D01*
X614214Y387457D01*
X612418Y388372D01*
X610500Y388996D01*
X608508Y389311D01*
D02*
G37*
G36*
X417456Y405961D02*
X416544D01*
X415664Y405725D01*
X414875Y405269D01*
X414231Y404625D01*
X413775Y403836D01*
X413539Y402956D01*
Y402044D01*
X413775Y401164D01*
X414231Y400375D01*
X414875Y399731D01*
X415369Y399446D01*
Y387007D01*
X412935Y384574D01*
X412582Y384044D01*
X412458Y383420D01*
Y362515D01*
X412582Y361891D01*
X412935Y361362D01*
X414912Y359385D01*
Y340113D01*
X414778Y340057D01*
X414047Y339496D01*
X413486Y338765D01*
X413133Y337914D01*
X413013Y337000D01*
Y317810D01*
X405000D01*
X404086Y317689D01*
X403496Y317445D01*
X397504D01*
Y311114D01*
X403496D01*
X404086Y310870D01*
X405000Y310749D01*
X413513D01*
Y292000D01*
Y222879D01*
X413496Y222386D01*
X413013Y222386D01*
X409011D01*
X408946Y222886D01*
X409351Y222994D01*
X410149Y223455D01*
X410801Y224107D01*
X411262Y224905D01*
X411500Y225795D01*
Y226717D01*
X411262Y227607D01*
X410801Y228405D01*
X410149Y229057D01*
X409351Y229517D01*
X408461Y229756D01*
X407539D01*
X406649Y229517D01*
X405851Y229057D01*
X405296Y228501D01*
X404895Y228611D01*
X404796Y228678D01*
Y230359D01*
X398251D01*
Y222549D01*
X394749D01*
Y230359D01*
X388204D01*
Y227560D01*
X386512D01*
Y227593D01*
X386418Y228064D01*
X386152Y228463D01*
X385753Y228729D01*
X385282Y228823D01*
X381426D01*
X381235Y229285D01*
X381301Y229351D01*
X381762Y230149D01*
X382000Y231039D01*
Y231961D01*
X381762Y232851D01*
X381301Y233649D01*
X380649Y234301D01*
X379851Y234762D01*
X378961Y235000D01*
X378039D01*
X377149Y234762D01*
X376351Y234301D01*
X375699Y233649D01*
X375238Y232851D01*
X375000Y231961D01*
Y231039D01*
X375238Y230149D01*
X375699Y229351D01*
X375765Y229285D01*
X375574Y228823D01*
X370536D01*
X370066Y228729D01*
X369667Y228463D01*
X369401Y228064D01*
X369307Y227593D01*
Y224265D01*
X369401Y223794D01*
X369667Y223395D01*
X370066Y223129D01*
X370536Y223035D01*
X384264D01*
X384314Y222535D01*
X383406Y222355D01*
X383070Y222130D01*
X370536D01*
X370066Y222036D01*
X369667Y221770D01*
X369401Y221371D01*
X369307Y220901D01*
Y218650D01*
X367577Y216920D01*
X367224Y216390D01*
X367099Y215766D01*
Y209320D01*
X367224Y208696D01*
X367577Y208167D01*
X369307Y206437D01*
Y204186D01*
X369401Y203716D01*
X369667Y203317D01*
X370066Y203050D01*
X370536Y202957D01*
X385282D01*
X385753Y203050D01*
X386152Y203317D01*
X386418Y203716D01*
X386512Y204186D01*
Y207515D01*
X386418Y207985D01*
X386152Y208384D01*
X385753Y208650D01*
X385282Y208744D01*
X371614D01*
X370362Y209996D01*
Y215090D01*
X371614Y216342D01*
X385282D01*
X385753Y216436D01*
X386152Y216703D01*
X386418Y217101D01*
X386488Y217451D01*
X398504D01*
Y216055D01*
X413013D01*
X413496Y216055D01*
X413513Y215562D01*
Y204000D01*
Y200030D01*
X407298D01*
X406914Y200189D01*
X406000Y200310D01*
X405086Y200189D01*
X404496Y199945D01*
X398504D01*
Y193614D01*
X404291D01*
X404514Y193443D01*
X405366Y193090D01*
X406280Y192970D01*
X406280Y192970D01*
X413513D01*
Y189006D01*
X404504Y179996D01*
X403943Y179265D01*
X403590Y178414D01*
X403470Y177500D01*
Y159539D01*
X398189D01*
Y161728D01*
X390677D01*
Y153272D01*
X398189D01*
Y155461D01*
X403470D01*
Y144539D01*
X398189D01*
Y146728D01*
X390677D01*
Y138272D01*
X398189D01*
Y140461D01*
X403470D01*
Y131386D01*
X403273Y131044D01*
X403000Y130027D01*
Y128973D01*
X403273Y127956D01*
X403799Y127044D01*
X404544Y126299D01*
X405456Y125773D01*
X406473Y125500D01*
X407527D01*
X408544Y125773D01*
X409456Y126299D01*
X410201Y127044D01*
X410727Y127956D01*
X411000Y128973D01*
Y130027D01*
X410727Y131044D01*
X410530Y131386D01*
Y142500D01*
Y157500D01*
Y176038D01*
X419539Y185047D01*
X419539Y185047D01*
X420101Y185778D01*
X420453Y186630D01*
X420574Y187543D01*
X420574Y187543D01*
Y192504D01*
X423445D01*
Y207496D01*
X420574D01*
Y289961D01*
X423504D01*
Y289055D01*
X438496D01*
Y295386D01*
X423504D01*
Y294039D01*
X420574D01*
Y311504D01*
X421945D01*
Y326496D01*
X420074D01*
Y337000D01*
X419953Y337914D01*
X419601Y338765D01*
X419039Y339496D01*
X418308Y340057D01*
X418175Y340113D01*
Y360061D01*
X418050Y360685D01*
X417697Y361214D01*
X415720Y363191D01*
Y370329D01*
X416207Y370446D01*
X416543Y369786D01*
X417728Y368154D01*
X419154Y366728D01*
X420786Y365543D01*
X422582Y364628D01*
X424500Y364004D01*
X426492Y363689D01*
X428508D01*
X430500Y364004D01*
X432418Y364628D01*
X434214Y365543D01*
X435846Y366728D01*
X437272Y368154D01*
X438457Y369786D01*
X439372Y371582D01*
X439996Y373500D01*
X440311Y375492D01*
Y377508D01*
X439996Y379500D01*
X439372Y381418D01*
X438457Y383214D01*
X437272Y384846D01*
X435846Y386272D01*
X434214Y387457D01*
X432418Y388372D01*
X430500Y388996D01*
X428508Y389311D01*
X426492D01*
X424500Y388996D01*
X422582Y388372D01*
X420786Y387457D01*
X419154Y386272D01*
X419121Y386238D01*
X418936Y386273D01*
X418631Y386456D01*
Y399446D01*
X419125Y399731D01*
X419769Y400375D01*
X420225Y401164D01*
X420461Y402044D01*
Y402956D01*
X420225Y403836D01*
X419769Y404625D01*
X419125Y405269D01*
X418336Y405725D01*
X417456Y405961D01*
D02*
G37*
G36*
X248508Y389311D02*
X246492D01*
X244500Y388996D01*
X242582Y388372D01*
X240786Y387457D01*
X239154Y386272D01*
X237728Y384846D01*
X236543Y383214D01*
X235628Y381418D01*
X235004Y379500D01*
X234689Y377508D01*
Y375492D01*
X235004Y373500D01*
X235628Y371582D01*
X236543Y369786D01*
X237728Y368154D01*
X239154Y366728D01*
X240786Y365543D01*
X242582Y364628D01*
X244500Y364004D01*
X246492Y363689D01*
X248508D01*
X250500Y364004D01*
X252418Y364628D01*
X254214Y365543D01*
X255846Y366728D01*
X257272Y368154D01*
X258457Y369786D01*
X259372Y371582D01*
X259996Y373500D01*
X260311Y375492D01*
Y377508D01*
X259996Y379500D01*
X259372Y381418D01*
X258457Y383214D01*
X257272Y384846D01*
X255846Y386272D01*
X254214Y387457D01*
X252418Y388372D01*
X250500Y388996D01*
X248508Y389311D01*
D02*
G37*
G36*
X489461Y348000D02*
X488539D01*
X487649Y347762D01*
X486851Y347301D01*
X486199Y346649D01*
X485855Y346053D01*
X482684D01*
X482599Y346477D01*
X482333Y346876D01*
X481934Y347143D01*
X481464Y347236D01*
X466717D01*
X466247Y347143D01*
X465848Y346876D01*
X465582Y346477D01*
X465488Y346007D01*
Y342678D01*
X465582Y342208D01*
X465848Y341809D01*
X466247Y341542D01*
X466717Y341449D01*
X481464D01*
X481934Y341542D01*
X482333Y341809D01*
X482599Y342208D01*
X482693Y342678D01*
Y342790D01*
X485946D01*
X486199Y342351D01*
X486851Y341699D01*
X487649Y341238D01*
X488539Y341000D01*
X489461D01*
X490351Y341238D01*
X491149Y341699D01*
X491801Y342351D01*
X492262Y343149D01*
X492500Y344039D01*
Y344961D01*
X492262Y345851D01*
X491801Y346649D01*
X491149Y347301D01*
X490351Y347762D01*
X489461Y348000D01*
D02*
G37*
G36*
X474090Y332588D02*
X460480D01*
X459856Y332464D01*
X459326Y332110D01*
X458870Y331653D01*
X458516Y331124D01*
X458392Y330500D01*
X458516Y329876D01*
X458870Y329346D01*
X459399Y328993D01*
X460023Y328869D01*
X460647Y328993D01*
X461145Y329325D01*
X474090D01*
X474715Y329450D01*
X475244Y329803D01*
X475598Y330332D01*
X475722Y330957D01*
X475598Y331581D01*
X475244Y332110D01*
X474715Y332464D01*
X474090Y332588D01*
D02*
G37*
G36*
X391477Y331631D02*
X377909D01*
X377285Y331507D01*
X376756Y331153D01*
X376402Y330624D01*
X376278Y330000D01*
X376402Y329376D01*
X376756Y328847D01*
X377285Y328493D01*
X377909Y328369D01*
X391477D01*
X392101Y328493D01*
X392630Y328847D01*
X392984Y329376D01*
X393108Y330000D01*
X392984Y330624D01*
X392630Y331153D01*
X392101Y331507D01*
X391477Y331631D01*
D02*
G37*
G36*
X481464Y340543D02*
X466717D01*
X466247Y340450D01*
X465848Y340183D01*
X465582Y339784D01*
X465488Y339314D01*
Y335985D01*
X465582Y335515D01*
X465848Y335116D01*
X466247Y334850D01*
X466717Y334756D01*
X480386D01*
X481638Y333504D01*
Y328410D01*
X480386Y327157D01*
X466717D01*
X466247Y327064D01*
X465848Y326797D01*
X465582Y326399D01*
X465512Y326049D01*
X453711D01*
X453249Y326141D01*
X453249Y326549D01*
Y334859D01*
X446704D01*
Y332922D01*
X446605Y332855D01*
X446204Y332745D01*
X445649Y333301D01*
X444851Y333762D01*
X443961Y334000D01*
X443039D01*
X442149Y333762D01*
X441351Y333301D01*
X440699Y332649D01*
X440239Y331851D01*
X440000Y330961D01*
Y330039D01*
X440239Y329149D01*
X440699Y328351D01*
X441351Y327699D01*
X442149Y327238D01*
X443039Y327000D01*
X443961D01*
X444851Y327238D01*
X445649Y327699D01*
X446204Y328255D01*
X446605Y328145D01*
X446704Y328078D01*
X446704Y326141D01*
X446243Y326049D01*
X444386D01*
Y326496D01*
X438055D01*
Y311504D01*
X444386D01*
Y320951D01*
X453706D01*
X454141Y320796D01*
X454141Y320451D01*
Y314251D01*
X462859D01*
Y315939D01*
X465488D01*
Y315907D01*
X465582Y315436D01*
X465848Y315037D01*
X466247Y314771D01*
X466717Y314677D01*
X471074D01*
X471266Y314215D01*
X471199Y314149D01*
X470739Y313351D01*
X470500Y312461D01*
Y311539D01*
X470739Y310649D01*
X471199Y309851D01*
X471851Y309199D01*
X472649Y308738D01*
X473539Y308500D01*
X474461D01*
X475351Y308738D01*
X476149Y309199D01*
X476801Y309851D01*
X477261Y310649D01*
X477500Y311539D01*
Y312461D01*
X477261Y313351D01*
X476801Y314149D01*
X476734Y314215D01*
X476926Y314677D01*
X481464D01*
X481934Y314771D01*
X482333Y315037D01*
X482599Y315436D01*
X482693Y315907D01*
Y319235D01*
X482599Y319706D01*
X482333Y320105D01*
X481934Y320371D01*
X481464Y320465D01*
X467735D01*
X467686Y320965D01*
X468594Y321145D01*
X468930Y321370D01*
X481464D01*
X481934Y321464D01*
X482333Y321730D01*
X482599Y322129D01*
X482693Y322599D01*
Y324850D01*
X484423Y326580D01*
X484776Y327110D01*
X484901Y327734D01*
Y334179D01*
X484776Y334804D01*
X484423Y335333D01*
X482693Y337063D01*
Y339314D01*
X482599Y339784D01*
X482333Y340183D01*
X481934Y340450D01*
X481464Y340543D01*
D02*
G37*
G36*
X462859Y310749D02*
X454141D01*
Y308631D01*
X453600D01*
X453301Y309149D01*
X452649Y309801D01*
X451851Y310262D01*
X450961Y310500D01*
X450039D01*
X449149Y310262D01*
X448351Y309801D01*
X447699Y309149D01*
X447238Y308351D01*
X447000Y307461D01*
Y306539D01*
X447238Y305649D01*
X447699Y304851D01*
X448351Y304199D01*
X449149Y303738D01*
X450039Y303500D01*
X450961D01*
X451851Y303738D01*
X452649Y304199D01*
X453301Y304851D01*
X453600Y305369D01*
X454141D01*
Y304204D01*
X462859D01*
Y310749D01*
D02*
G37*
G36*
X396859Y323249D02*
X388141D01*
Y316704D01*
X390869D01*
Y310100D01*
X390351Y309801D01*
X389699Y309149D01*
X389239Y308351D01*
X389000Y307461D01*
Y306539D01*
X389239Y305649D01*
X389699Y304851D01*
X390351Y304199D01*
X391149Y303738D01*
X392039Y303500D01*
X392961D01*
X393851Y303738D01*
X394649Y304199D01*
X395301Y304851D01*
X395761Y305649D01*
X396000Y306539D01*
Y307461D01*
X395761Y308351D01*
X395301Y309149D01*
X394649Y309801D01*
X394131Y310100D01*
Y316704D01*
X396859D01*
Y323249D01*
D02*
G37*
G36*
X450181Y273036D02*
X442819D01*
Y271668D01*
X438496D01*
Y272945D01*
X423504D01*
Y266614D01*
X438496D01*
Y267589D01*
X442819D01*
Y266478D01*
Y259964D01*
X443807D01*
X444015Y259464D01*
X443699Y259149D01*
X443238Y258351D01*
X443000Y257461D01*
Y256539D01*
X443238Y255649D01*
X443699Y254851D01*
X444351Y254199D01*
X445149Y253738D01*
X446039Y253500D01*
X446961D01*
X447851Y253738D01*
X448649Y254199D01*
X449301Y254851D01*
X449761Y255649D01*
X450000Y256539D01*
Y257461D01*
X449761Y258351D01*
X449301Y259149D01*
X448985Y259464D01*
X449193Y259964D01*
X450181D01*
Y266478D01*
Y273036D01*
D02*
G37*
G36*
X489461Y228000D02*
X488539D01*
X487649Y227762D01*
X486851Y227301D01*
X486199Y226649D01*
X485855Y226053D01*
X483184D01*
X483099Y226477D01*
X482833Y226876D01*
X482434Y227143D01*
X481964Y227236D01*
X467217D01*
X466747Y227143D01*
X466348Y226876D01*
X466082Y226477D01*
X465988Y226007D01*
Y222678D01*
X466082Y222208D01*
X466348Y221809D01*
X466747Y221542D01*
X467217Y221449D01*
X481964D01*
X482434Y221542D01*
X482833Y221809D01*
X483099Y222208D01*
X483193Y222678D01*
Y222790D01*
X485946D01*
X486199Y222351D01*
X486851Y221699D01*
X487649Y221238D01*
X488539Y221000D01*
X489461D01*
X490351Y221238D01*
X491149Y221699D01*
X491801Y222351D01*
X492262Y223149D01*
X492500Y224039D01*
Y224961D01*
X492262Y225851D01*
X491801Y226649D01*
X491149Y227301D01*
X490351Y227762D01*
X489461Y228000D01*
D02*
G37*
G36*
X391933Y214175D02*
X377909D01*
X377285Y214051D01*
X376756Y213697D01*
X376402Y213168D01*
X376278Y212543D01*
X376402Y211919D01*
X376756Y211390D01*
X377285Y211036D01*
X377909Y210912D01*
X391759D01*
X391977Y210869D01*
X392601Y210993D01*
X393130Y211347D01*
X393484Y211876D01*
X393608Y212500D01*
X393484Y213124D01*
X393130Y213653D01*
X393087Y213697D01*
X392558Y214051D01*
X391933Y214175D01*
D02*
G37*
G36*
X460023Y212631D02*
X459399Y212507D01*
X458870Y212154D01*
X458516Y211624D01*
X458392Y211000D01*
X458516Y210376D01*
X458870Y209846D01*
X458913Y209803D01*
X459442Y209450D01*
X460067Y209325D01*
X460067Y209325D01*
X474590D01*
X475215Y209450D01*
X475744Y209803D01*
X476098Y210332D01*
X476222Y210957D01*
X476098Y211581D01*
X475744Y212110D01*
X475215Y212464D01*
X474590Y212588D01*
X460241D01*
X460023Y212631D01*
D02*
G37*
G36*
X481964Y220543D02*
X467217D01*
X466747Y220450D01*
X466348Y220183D01*
X466082Y219784D01*
X465988Y219314D01*
Y215985D01*
X466082Y215515D01*
X466348Y215116D01*
X466747Y214849D01*
X467217Y214756D01*
X480886D01*
X482138Y213504D01*
Y208410D01*
X480886Y207157D01*
X467217D01*
X466747Y207064D01*
X466348Y206797D01*
X466270Y206681D01*
X453249D01*
Y215359D01*
X446704D01*
Y213422D01*
X446605Y213355D01*
X446204Y213245D01*
X445649Y213801D01*
X444851Y214262D01*
X443961Y214500D01*
X443039D01*
X442149Y214262D01*
X441351Y213801D01*
X440699Y213149D01*
X440239Y212351D01*
X440000Y211461D01*
Y210539D01*
X440239Y209649D01*
X440699Y208851D01*
X441351Y208199D01*
X441703Y207996D01*
X441569Y207496D01*
X439555D01*
Y192504D01*
X445886D01*
Y201583D01*
X446704D01*
Y193141D01*
X448369D01*
Y192100D01*
X447851Y191801D01*
X447199Y191149D01*
X446738Y190351D01*
X446500Y189461D01*
Y188539D01*
X446738Y187649D01*
X447199Y186851D01*
X447851Y186199D01*
X448649Y185739D01*
X449539Y185500D01*
X450461D01*
X451351Y185739D01*
X452149Y186199D01*
X452801Y186851D01*
X453262Y187649D01*
X453500Y188539D01*
Y189461D01*
X453262Y190351D01*
X452801Y191149D01*
X452149Y191801D01*
X451631Y192100D01*
Y193141D01*
X453249D01*
Y201583D01*
X456751D01*
Y193141D01*
X463296D01*
Y195940D01*
X465988D01*
Y195906D01*
X466082Y195436D01*
X466348Y195037D01*
X466747Y194771D01*
X467217Y194677D01*
X472553D01*
X472727Y194177D01*
X472199Y193649D01*
X471738Y192851D01*
X471500Y191961D01*
Y191039D01*
X471738Y190149D01*
X472199Y189351D01*
X472851Y188699D01*
X473649Y188239D01*
X474539Y188000D01*
X475461D01*
X476351Y188239D01*
X477149Y188699D01*
X477801Y189351D01*
X478262Y190149D01*
X478500Y191039D01*
Y191961D01*
X478262Y192851D01*
X477801Y193649D01*
X477273Y194177D01*
X477447Y194677D01*
X481964D01*
X482434Y194771D01*
X482833Y195037D01*
X483099Y195436D01*
X483193Y195906D01*
Y199235D01*
X483099Y199706D01*
X482833Y200104D01*
X482434Y200371D01*
X481964Y200465D01*
X467217D01*
X466747Y200371D01*
X466348Y200104D01*
X466082Y199706D01*
X465988Y199235D01*
Y199202D01*
X463296D01*
Y201583D01*
X466569D01*
X466747Y201464D01*
X467217Y201370D01*
X481964D01*
X482434Y201464D01*
X482833Y201730D01*
X483099Y202129D01*
X483193Y202599D01*
Y204850D01*
X484923Y206580D01*
X485277Y207110D01*
X485401Y207734D01*
Y214179D01*
X485277Y214804D01*
X484923Y215333D01*
X483193Y217063D01*
Y219314D01*
X483099Y219784D01*
X482833Y220183D01*
X482434Y220450D01*
X481964Y220543D01*
D02*
G37*
G36*
X363461Y203000D02*
X362539D01*
X361649Y202762D01*
X360851Y202301D01*
X360199Y201649D01*
X359738Y200851D01*
X359500Y199961D01*
Y199039D01*
X359738Y198149D01*
X360199Y197351D01*
X360851Y196699D01*
X361649Y196239D01*
X362539Y196000D01*
X363461D01*
X364351Y196239D01*
X365149Y196699D01*
X365801Y197351D01*
X366001Y197697D01*
X369307D01*
Y197493D01*
X369401Y197023D01*
X369667Y196624D01*
X370066Y196357D01*
X370536Y196264D01*
X385282D01*
X385753Y196357D01*
X386152Y196624D01*
X386418Y197023D01*
X386512Y197493D01*
Y200822D01*
X386418Y201292D01*
X386152Y201691D01*
X385753Y201958D01*
X385282Y202051D01*
X370536D01*
X370066Y201958D01*
X369667Y201691D01*
X369401Y201292D01*
X369335Y200960D01*
X366198D01*
X365801Y201649D01*
X365149Y202301D01*
X364351Y202762D01*
X363461Y203000D01*
D02*
G37*
G36*
X397859Y205749D02*
X389141D01*
Y199204D01*
X391869D01*
Y192600D01*
X391351Y192301D01*
X390699Y191649D01*
X390238Y190851D01*
X390000Y189961D01*
Y189039D01*
X390238Y188149D01*
X390699Y187351D01*
X391351Y186699D01*
X392149Y186239D01*
X393039Y186000D01*
X393961D01*
X394851Y186239D01*
X395649Y186699D01*
X396301Y187351D01*
X396761Y188149D01*
X397000Y189039D01*
Y189961D01*
X396761Y190851D01*
X396301Y191649D01*
X395649Y192301D01*
X395131Y192600D01*
Y199204D01*
X397859D01*
Y205749D01*
D02*
G37*
G36*
X608508Y179311D02*
X606492D01*
X604500Y178996D01*
X602582Y178372D01*
X600786Y177457D01*
X599154Y176272D01*
X597728Y174846D01*
X596543Y173214D01*
X595628Y171418D01*
X595004Y169500D01*
X594689Y167508D01*
Y165492D01*
X595004Y163500D01*
X595628Y161582D01*
X596543Y159786D01*
X597728Y158154D01*
X599154Y156728D01*
X600786Y155543D01*
X602582Y154628D01*
X604500Y154004D01*
X606492Y153689D01*
X608508D01*
X610500Y154004D01*
X612418Y154628D01*
X614214Y155543D01*
X615846Y156728D01*
X617272Y158154D01*
X618457Y159786D01*
X619372Y161582D01*
X619996Y163500D01*
X620311Y165492D01*
Y167508D01*
X619996Y169500D01*
X619372Y171418D01*
X618457Y173214D01*
X617272Y174846D01*
X615846Y176272D01*
X614214Y177457D01*
X612418Y178372D01*
X610500Y178996D01*
X608508Y179311D01*
D02*
G37*
G36*
X428508D02*
X426492D01*
X424500Y178996D01*
X422582Y178372D01*
X420786Y177457D01*
X419154Y176272D01*
X417728Y174846D01*
X416543Y173214D01*
X415628Y171418D01*
X415004Y169500D01*
X414689Y167508D01*
Y165492D01*
X415004Y163500D01*
X415628Y161582D01*
X416543Y159786D01*
X417728Y158154D01*
X419154Y156728D01*
X420786Y155543D01*
X422582Y154628D01*
X424500Y154004D01*
X426492Y153689D01*
X428508D01*
X430500Y154004D01*
X432418Y154628D01*
X434214Y155543D01*
X435846Y156728D01*
X437272Y158154D01*
X438457Y159786D01*
X439372Y161582D01*
X439996Y163500D01*
X440311Y165492D01*
Y167508D01*
X439996Y169500D01*
X439372Y171418D01*
X438457Y173214D01*
X437272Y174846D01*
X435846Y176272D01*
X434214Y177457D01*
X432418Y178372D01*
X430500Y178996D01*
X428508Y179311D01*
D02*
G37*
G36*
X248508D02*
X246492D01*
X244500Y178996D01*
X242582Y178372D01*
X240786Y177457D01*
X239154Y176272D01*
X237728Y174846D01*
X236543Y173214D01*
X235628Y171418D01*
X235004Y169500D01*
X234689Y167508D01*
Y165492D01*
X235004Y163500D01*
X235628Y161582D01*
X236543Y159786D01*
X237728Y158154D01*
X239154Y156728D01*
X240786Y155543D01*
X242582Y154628D01*
X244500Y154004D01*
X246492Y153689D01*
X248508D01*
X250500Y154004D01*
X252418Y154628D01*
X254214Y155543D01*
X255846Y156728D01*
X257272Y158154D01*
X258457Y159786D01*
X259372Y161582D01*
X259996Y163500D01*
X260311Y165492D01*
Y167508D01*
X259996Y169500D01*
X259372Y171418D01*
X258457Y173214D01*
X257272Y174846D01*
X255846Y176272D01*
X254214Y177457D01*
X252418Y178372D01*
X250500Y178996D01*
X248508Y179311D01*
D02*
G37*
G36*
X379961Y169500D02*
X379039D01*
X378149Y169262D01*
X377351Y168801D01*
X376699Y168149D01*
X376238Y167351D01*
X376000Y166461D01*
Y165539D01*
X376238Y164649D01*
X376699Y163851D01*
X377351Y163199D01*
X377869Y162900D01*
Y161728D01*
X374811D01*
Y153272D01*
X382323D01*
Y161728D01*
X381131D01*
Y162900D01*
X381649Y163199D01*
X382301Y163851D01*
X382762Y164649D01*
X383000Y165539D01*
Y166461D01*
X382762Y167351D01*
X382301Y168149D01*
X381649Y168801D01*
X380851Y169262D01*
X379961Y169500D01*
D02*
G37*
G36*
X424527Y133500D02*
X423473D01*
X422456Y133227D01*
X421544Y132701D01*
X420799Y131956D01*
X420273Y131044D01*
X420000Y130027D01*
Y128973D01*
X420273Y127956D01*
X420799Y127044D01*
X421544Y126299D01*
X422456Y125773D01*
X423473Y125500D01*
X424527D01*
X425544Y125773D01*
X426456Y126299D01*
X427201Y127044D01*
X427727Y127956D01*
X428000Y128973D01*
Y130027D01*
X427727Y131044D01*
X427201Y131956D01*
X426456Y132701D01*
X425544Y133227D01*
X424527Y133500D01*
D02*
G37*
%LPD*%
D16*
X446500Y269757D02*
D03*
Y263243D02*
D03*
D18*
X458500Y307477D02*
D03*
Y317523D02*
D03*
X392500Y319977D02*
D03*
Y330023D02*
D03*
X393500Y202477D02*
D03*
Y212523D02*
D03*
D19*
X449977Y330500D02*
D03*
X460023D02*
D03*
X401523Y343500D02*
D03*
X391477D02*
D03*
X449977Y197500D02*
D03*
X460023D02*
D03*
X449977Y211000D02*
D03*
X460023D02*
D03*
X401523Y226000D02*
D03*
X391477D02*
D03*
D20*
X394433Y157500D02*
D03*
X378567D02*
D03*
Y142500D02*
D03*
X394433D02*
D03*
D22*
X354500Y405000D02*
D03*
X304500D02*
D03*
X354500Y455000D02*
D03*
X304500D02*
D03*
D23*
X329500Y430000D02*
D03*
D25*
X397000Y412500D02*
D03*
X417000Y402500D02*
D03*
D26*
Y422500D02*
D03*
D29*
X377909Y316614D02*
D03*
Y323307D02*
D03*
Y330000D02*
D03*
Y336693D02*
D03*
Y343386D02*
D03*
X474090Y317571D02*
D03*
Y324264D02*
D03*
Y330957D02*
D03*
Y337650D02*
D03*
Y344342D02*
D03*
X474590Y197571D02*
D03*
Y204264D02*
D03*
Y210957D02*
D03*
Y217650D02*
D03*
Y224342D02*
D03*
X377909Y225929D02*
D03*
Y219236D02*
D03*
Y212543D02*
D03*
Y205850D02*
D03*
Y199158D02*
D03*
D30*
X337161Y330000D02*
D03*
X514839Y330957D02*
D03*
X515339Y210957D02*
D03*
X337161Y212543D02*
D03*
D31*
X431000Y269779D02*
D03*
Y292220D02*
D03*
X406000Y219220D02*
D03*
Y196780D02*
D03*
X405000Y336720D02*
D03*
Y314280D02*
D03*
D32*
X441221Y319000D02*
D03*
X418780D02*
D03*
X442721Y200000D02*
D03*
X420280D02*
D03*
D33*
X373563Y397500D02*
D03*
X381437D02*
D03*
D34*
X393500Y189500D02*
Y202477D01*
X450000Y189000D02*
Y197477D01*
X449977Y197500D02*
X450000Y197477D01*
X458023Y307000D02*
X458500Y307477D01*
X450500Y307000D02*
X458023D01*
X392500D02*
Y319977D01*
X379500Y157500D02*
Y166000D01*
X378567Y157500D02*
X379500D01*
X378500Y225929D02*
X391406D01*
X378500D02*
Y231500D01*
X377909Y225929D02*
X378500D01*
X475000Y191500D02*
Y197571D01*
X474590D02*
X475000D01*
X460094Y317571D02*
X474000D01*
Y312000D02*
Y317571D01*
X474090D01*
X379000Y343386D02*
Y348000D01*
Y343386D02*
X391363D01*
X377909D02*
X379000D01*
X381437Y397500D02*
X387500D01*
X401523Y226000D02*
X401779Y226256D01*
X408000D01*
X443500Y211000D02*
X449977D01*
X446500Y257000D02*
Y263243D01*
X443500Y330500D02*
X449977D01*
X401523Y343500D02*
X402523Y344500D01*
X408500D01*
X414089Y383420D02*
X417000Y386331D01*
X414089Y362515D02*
Y383420D01*
Y362515D02*
X416543Y360061D01*
Y337000D02*
Y360061D01*
X417000Y386331D02*
Y402500D01*
X373563Y397992D02*
X388071Y412500D01*
X397000D01*
X373563Y397500D02*
Y397992D01*
Y397008D02*
Y397500D01*
X362000Y385445D02*
X373563Y397008D01*
X362000Y333508D02*
Y385445D01*
X359545Y329270D02*
Y413455D01*
Y329270D02*
X372201Y316614D01*
X362000Y333508D02*
X372201Y323307D01*
X367154Y336846D02*
X377756D01*
X367000Y337000D02*
X367154Y336846D01*
X377756D02*
X377909Y336693D01*
X343000Y430000D02*
X359545Y413455D01*
X372201Y323307D02*
X377909D01*
X372201Y316614D02*
X377909D01*
X329500Y430000D02*
X343000D01*
X479799Y337650D02*
X483269Y334179D01*
X474090Y324264D02*
X479799D01*
X483269Y327734D01*
Y334179D01*
X474090Y337650D02*
X479799D01*
X480299Y204264D02*
X483769Y207734D01*
X474590Y204264D02*
X480299D01*
X483769Y207734D02*
Y214179D01*
X480299Y217650D02*
X483769Y214179D01*
X474590Y217650D02*
X480299D01*
X368731Y209320D02*
X372201Y205850D01*
X368731Y209320D02*
Y215766D01*
X372201Y219236D01*
X377909D01*
X372201Y205850D02*
X377909D01*
X474669Y224421D02*
X488921D01*
X474590Y224342D02*
X474669Y224421D01*
X488921D02*
X489000Y224500D01*
X488921Y344421D02*
X489000Y344500D01*
X474090Y344342D02*
X474169Y344421D01*
X488921D01*
X377909Y336693D02*
X378063Y336846D01*
X363171Y199329D02*
X377738D01*
X363000Y199500D02*
X363171Y199329D01*
X377738D02*
X377909Y199158D01*
X391406Y225929D02*
X391477Y226000D01*
X391933Y212543D02*
X391977Y212500D01*
X377909Y212543D02*
X391933D01*
X460094Y197571D02*
X474590D01*
X460023Y197500D02*
X460094Y197571D01*
X460023Y211000D02*
X460067Y210957D01*
X474590D01*
X460480Y330957D02*
X474090D01*
X460023Y330500D02*
X460480Y330957D01*
X460023Y317500D02*
X460094Y317571D01*
X391363Y343386D02*
X391477Y343500D01*
X377909Y330000D02*
X391477D01*
D35*
X417043Y196500D02*
Y204000D01*
Y187543D02*
Y196500D01*
X406000Y196780D02*
X406280Y196500D01*
X417043D01*
X405000Y314280D02*
X416543D01*
X416543Y314280D02*
Y337000D01*
X416543Y314280D02*
X416543Y314280D01*
X417043Y292000D02*
Y314280D01*
X407000Y177500D02*
X417043Y187543D01*
X407000Y157500D02*
Y177500D01*
Y142500D02*
Y157500D01*
Y129500D02*
Y142500D01*
X417043Y204000D02*
Y292000D01*
Y204000D02*
X417043Y204000D01*
D36*
X443500D02*
X443632Y204132D01*
X474459D01*
X409303Y336846D02*
X409457Y337000D01*
X378063Y336846D02*
X409303D01*
X384382Y220000D02*
X402280D01*
X383618Y219236D02*
X384382Y220000D01*
X377909Y219236D02*
X383618D01*
X474459Y204132D02*
X474590Y204264D01*
X441543Y323500D02*
X467618D01*
X468382Y324264D01*
X474090D01*
D37*
X394433Y142500D02*
X407000D01*
X394433Y157500D02*
X407000D01*
X417043Y292000D02*
X426457D01*
X434172Y269628D02*
X446372D01*
X434043Y269500D02*
X434172Y269628D01*
X446372D02*
X446500Y269757D01*
D38*
X424000Y129500D02*
D03*
X407000D02*
D03*
X546000Y428000D02*
D03*
X509250D02*
D03*
X472500D02*
D03*
D39*
X507000Y349500D02*
D03*
Y344214D02*
D03*
Y338929D02*
D03*
Y333643D02*
D03*
Y328357D02*
D03*
Y323071D02*
D03*
Y317786D02*
D03*
Y312500D02*
D03*
X512000D02*
D03*
Y317786D02*
D03*
Y323071D02*
D03*
Y328357D02*
D03*
Y333643D02*
D03*
Y338929D02*
D03*
Y344214D02*
D03*
Y349500D02*
D03*
X517000Y312500D02*
D03*
Y317786D02*
D03*
Y323071D02*
D03*
Y328357D02*
D03*
Y333643D02*
D03*
Y338929D02*
D03*
Y344214D02*
D03*
Y349500D02*
D03*
X522000Y312500D02*
D03*
Y317786D02*
D03*
Y323071D02*
D03*
Y328357D02*
D03*
Y333643D02*
D03*
Y338929D02*
D03*
Y344214D02*
D03*
Y349500D02*
D03*
X527500Y312500D02*
D03*
Y317786D02*
D03*
Y323071D02*
D03*
Y328357D02*
D03*
Y333643D02*
D03*
Y338929D02*
D03*
Y344214D02*
D03*
Y349500D02*
D03*
X508000Y229500D02*
D03*
Y224214D02*
D03*
Y218929D02*
D03*
Y213643D02*
D03*
Y208357D02*
D03*
Y203071D02*
D03*
Y197786D02*
D03*
Y192500D02*
D03*
X513000D02*
D03*
Y197786D02*
D03*
Y203071D02*
D03*
Y208357D02*
D03*
Y213643D02*
D03*
Y218929D02*
D03*
Y224214D02*
D03*
Y229500D02*
D03*
X518000Y192500D02*
D03*
Y197786D02*
D03*
Y203071D02*
D03*
Y208357D02*
D03*
Y213643D02*
D03*
Y218929D02*
D03*
Y224214D02*
D03*
Y229500D02*
D03*
X523000Y192500D02*
D03*
Y197786D02*
D03*
Y203071D02*
D03*
Y208357D02*
D03*
Y213643D02*
D03*
Y218929D02*
D03*
Y224214D02*
D03*
Y229500D02*
D03*
X528500Y192500D02*
D03*
Y197786D02*
D03*
Y203071D02*
D03*
Y208357D02*
D03*
Y213643D02*
D03*
Y218929D02*
D03*
Y224214D02*
D03*
Y229500D02*
D03*
X325000Y231000D02*
D03*
Y225714D02*
D03*
Y220428D02*
D03*
Y215143D02*
D03*
Y209857D02*
D03*
Y204571D02*
D03*
Y199286D02*
D03*
Y194000D02*
D03*
X330000D02*
D03*
Y199286D02*
D03*
Y204571D02*
D03*
Y209857D02*
D03*
Y215143D02*
D03*
Y220428D02*
D03*
Y225714D02*
D03*
Y231000D02*
D03*
X335000Y194000D02*
D03*
Y199286D02*
D03*
Y204571D02*
D03*
Y209857D02*
D03*
Y215143D02*
D03*
Y220428D02*
D03*
Y225714D02*
D03*
Y231000D02*
D03*
X340000Y194000D02*
D03*
Y199286D02*
D03*
Y204571D02*
D03*
Y209857D02*
D03*
Y215143D02*
D03*
Y220428D02*
D03*
Y225714D02*
D03*
Y231000D02*
D03*
X345500Y194000D02*
D03*
Y199286D02*
D03*
Y204571D02*
D03*
Y209857D02*
D03*
Y215143D02*
D03*
Y220428D02*
D03*
Y225714D02*
D03*
Y231000D02*
D03*
X345000Y348500D02*
D03*
Y343214D02*
D03*
Y337929D02*
D03*
Y332643D02*
D03*
Y327357D02*
D03*
Y322071D02*
D03*
Y316786D02*
D03*
Y311500D02*
D03*
X339500Y348500D02*
D03*
Y343214D02*
D03*
Y337929D02*
D03*
Y332643D02*
D03*
Y327357D02*
D03*
Y322071D02*
D03*
Y316786D02*
D03*
Y311500D02*
D03*
X334500Y348500D02*
D03*
Y343214D02*
D03*
Y337929D02*
D03*
Y332643D02*
D03*
Y327357D02*
D03*
Y322071D02*
D03*
Y316786D02*
D03*
Y311500D02*
D03*
X329500Y348500D02*
D03*
Y343214D02*
D03*
Y337929D02*
D03*
Y332643D02*
D03*
Y327357D02*
D03*
Y322071D02*
D03*
Y316786D02*
D03*
Y311500D02*
D03*
X324500D02*
D03*
Y316786D02*
D03*
Y322071D02*
D03*
Y327357D02*
D03*
Y332643D02*
D03*
Y337929D02*
D03*
Y343214D02*
D03*
Y348500D02*
D03*
D40*
X393500Y189500D02*
D03*
X450000Y189000D02*
D03*
X450500Y307000D02*
D03*
X392500D02*
D03*
X379500Y166000D02*
D03*
X378500Y231500D02*
D03*
X475000Y191500D02*
D03*
X474000Y312000D02*
D03*
X379000Y348000D02*
D03*
X387500Y397500D02*
D03*
X408000Y226256D02*
D03*
X443500Y211000D02*
D03*
X446500Y257000D02*
D03*
X443500Y330500D02*
D03*
X408500Y344500D02*
D03*
X367000Y337000D02*
D03*
X489000Y224500D02*
D03*
Y344500D02*
D03*
X363000Y199500D02*
D03*
D41*
X534603Y351500D02*
D03*
Y311500D02*
D03*
Y316500D02*
D03*
Y321500D02*
D03*
Y326500D02*
D03*
Y331500D02*
D03*
Y336500D02*
D03*
Y341500D02*
D03*
Y346500D02*
D03*
X539103D02*
D03*
Y341500D02*
D03*
Y336500D02*
D03*
Y331500D02*
D03*
Y326500D02*
D03*
Y321500D02*
D03*
Y316500D02*
D03*
Y311500D02*
D03*
Y351500D02*
D03*
X543603Y346500D02*
D03*
Y341500D02*
D03*
Y336500D02*
D03*
Y331500D02*
D03*
Y326500D02*
D03*
Y321500D02*
D03*
Y316500D02*
D03*
Y311500D02*
D03*
Y351500D02*
D03*
X527500Y364603D02*
D03*
X522500D02*
D03*
X517500D02*
D03*
X512500D02*
D03*
X507500D02*
D03*
X502500D02*
D03*
X497500D02*
D03*
X492500D02*
D03*
X527500Y360103D02*
D03*
X522500D02*
D03*
X517500D02*
D03*
X512500D02*
D03*
X507500D02*
D03*
X502500D02*
D03*
X497500D02*
D03*
X492500D02*
D03*
Y355603D02*
D03*
X497500D02*
D03*
X502500D02*
D03*
X507500D02*
D03*
X512500D02*
D03*
X517500D02*
D03*
X522500D02*
D03*
X527500D02*
D03*
X528000Y306603D02*
D03*
X523000D02*
D03*
X518000D02*
D03*
X513000D02*
D03*
X508000D02*
D03*
X503000D02*
D03*
X498000D02*
D03*
X528000Y302103D02*
D03*
X523000D02*
D03*
X518000D02*
D03*
X513000D02*
D03*
X508000D02*
D03*
X503000D02*
D03*
X498000D02*
D03*
Y297603D02*
D03*
X503000D02*
D03*
X508000D02*
D03*
X513000D02*
D03*
X518000D02*
D03*
X523000D02*
D03*
X528000D02*
D03*
X535103Y231500D02*
D03*
Y191500D02*
D03*
Y196500D02*
D03*
Y201500D02*
D03*
Y206500D02*
D03*
Y211500D02*
D03*
Y216500D02*
D03*
Y221500D02*
D03*
Y226500D02*
D03*
X539603D02*
D03*
Y221500D02*
D03*
Y216500D02*
D03*
Y211500D02*
D03*
Y206500D02*
D03*
Y201500D02*
D03*
Y196500D02*
D03*
Y191500D02*
D03*
Y231500D02*
D03*
X544103Y226500D02*
D03*
Y221500D02*
D03*
Y216500D02*
D03*
Y211500D02*
D03*
Y206500D02*
D03*
Y201500D02*
D03*
Y196500D02*
D03*
Y191500D02*
D03*
Y231500D02*
D03*
X528000Y244603D02*
D03*
X523000D02*
D03*
X518000D02*
D03*
X513000D02*
D03*
X508000D02*
D03*
X503000D02*
D03*
X498000D02*
D03*
X493000D02*
D03*
X528000Y240103D02*
D03*
X523000D02*
D03*
X518000D02*
D03*
X513000D02*
D03*
X508000D02*
D03*
X503000D02*
D03*
X498000D02*
D03*
X493000D02*
D03*
Y235603D02*
D03*
X498000D02*
D03*
X503000D02*
D03*
X508000D02*
D03*
X513000D02*
D03*
X518000D02*
D03*
X523000D02*
D03*
X528000D02*
D03*
X528500Y186603D02*
D03*
X523500D02*
D03*
X518500D02*
D03*
X513500D02*
D03*
X508500D02*
D03*
X503500D02*
D03*
X498500D02*
D03*
X528500Y182103D02*
D03*
X523500D02*
D03*
X518500D02*
D03*
X513500D02*
D03*
X508500D02*
D03*
X503500D02*
D03*
X498500D02*
D03*
Y177603D02*
D03*
X503500D02*
D03*
X508500D02*
D03*
X513500D02*
D03*
X518500D02*
D03*
X523500D02*
D03*
X528500D02*
D03*
X317397Y192500D02*
D03*
Y232500D02*
D03*
Y227500D02*
D03*
Y222500D02*
D03*
Y217500D02*
D03*
Y212500D02*
D03*
Y207500D02*
D03*
Y202500D02*
D03*
Y197500D02*
D03*
X312897D02*
D03*
Y202500D02*
D03*
Y207500D02*
D03*
Y212500D02*
D03*
Y217500D02*
D03*
Y222500D02*
D03*
Y227500D02*
D03*
Y232500D02*
D03*
Y192500D02*
D03*
X308397Y197500D02*
D03*
Y202500D02*
D03*
Y207500D02*
D03*
Y212500D02*
D03*
Y217500D02*
D03*
Y222500D02*
D03*
Y227500D02*
D03*
Y232500D02*
D03*
Y192500D02*
D03*
X324500Y179397D02*
D03*
X329500D02*
D03*
X334500D02*
D03*
X339500D02*
D03*
X344500D02*
D03*
X349500D02*
D03*
X354500D02*
D03*
X359500D02*
D03*
X324500Y183897D02*
D03*
X329500D02*
D03*
X334500D02*
D03*
X339500D02*
D03*
X344500D02*
D03*
X349500D02*
D03*
X354500D02*
D03*
X359500D02*
D03*
Y188397D02*
D03*
X354500D02*
D03*
X349500D02*
D03*
X344500D02*
D03*
X339500D02*
D03*
X334500D02*
D03*
X329500D02*
D03*
X324500D02*
D03*
X324000Y237397D02*
D03*
X329000D02*
D03*
X334000D02*
D03*
X339000D02*
D03*
X344000D02*
D03*
X349000D02*
D03*
X354000D02*
D03*
X324000Y241897D02*
D03*
X329000D02*
D03*
X334000D02*
D03*
X339000D02*
D03*
X344000D02*
D03*
X349000D02*
D03*
X354000D02*
D03*
Y246397D02*
D03*
X349000D02*
D03*
X344000D02*
D03*
X339000D02*
D03*
X334000D02*
D03*
X329000D02*
D03*
X324000D02*
D03*
X579002Y294434D02*
D03*
Y334434D02*
D03*
Y329434D02*
D03*
Y324434D02*
D03*
Y319434D02*
D03*
Y314434D02*
D03*
Y309434D02*
D03*
Y304434D02*
D03*
Y299434D02*
D03*
X571502Y294434D02*
D03*
Y334434D02*
D03*
Y329434D02*
D03*
Y324434D02*
D03*
Y319434D02*
D03*
Y314434D02*
D03*
Y309434D02*
D03*
Y304434D02*
D03*
Y299434D02*
D03*
X564002Y294434D02*
D03*
Y334434D02*
D03*
Y329434D02*
D03*
Y324434D02*
D03*
Y319434D02*
D03*
Y314434D02*
D03*
Y309434D02*
D03*
Y304434D02*
D03*
Y299434D02*
D03*
X557002Y294434D02*
D03*
Y334434D02*
D03*
Y329434D02*
D03*
Y324434D02*
D03*
Y319434D02*
D03*
Y314434D02*
D03*
Y309434D02*
D03*
Y304434D02*
D03*
Y299434D02*
D03*
X557000Y254500D02*
D03*
Y259500D02*
D03*
Y264500D02*
D03*
Y269500D02*
D03*
Y274500D02*
D03*
Y279500D02*
D03*
Y284500D02*
D03*
Y289500D02*
D03*
Y249500D02*
D03*
X564000Y254500D02*
D03*
Y259500D02*
D03*
Y264500D02*
D03*
Y269500D02*
D03*
Y274500D02*
D03*
Y279500D02*
D03*
Y284500D02*
D03*
Y289500D02*
D03*
Y249500D02*
D03*
X571500Y254500D02*
D03*
Y259500D02*
D03*
Y264500D02*
D03*
Y269500D02*
D03*
Y274500D02*
D03*
Y279500D02*
D03*
Y284500D02*
D03*
Y289500D02*
D03*
Y249500D02*
D03*
X579000Y254500D02*
D03*
Y259500D02*
D03*
Y264500D02*
D03*
Y269500D02*
D03*
Y274500D02*
D03*
Y279500D02*
D03*
Y284500D02*
D03*
Y289500D02*
D03*
Y249500D02*
D03*
X557000Y210000D02*
D03*
Y215000D02*
D03*
Y220000D02*
D03*
Y225000D02*
D03*
Y230000D02*
D03*
Y235000D02*
D03*
Y240000D02*
D03*
Y245000D02*
D03*
Y205000D02*
D03*
X564000Y210000D02*
D03*
Y215000D02*
D03*
Y220000D02*
D03*
Y225000D02*
D03*
Y230000D02*
D03*
Y235000D02*
D03*
Y240000D02*
D03*
Y245000D02*
D03*
Y205000D02*
D03*
X571500Y210000D02*
D03*
Y215000D02*
D03*
Y220000D02*
D03*
Y225000D02*
D03*
Y230000D02*
D03*
Y235000D02*
D03*
Y240000D02*
D03*
Y245000D02*
D03*
Y205000D02*
D03*
X579000Y210000D02*
D03*
Y215000D02*
D03*
Y220000D02*
D03*
Y225000D02*
D03*
Y230000D02*
D03*
Y235000D02*
D03*
Y240000D02*
D03*
Y245000D02*
D03*
Y205000D02*
D03*
X557000Y165000D02*
D03*
Y170000D02*
D03*
Y175000D02*
D03*
Y180000D02*
D03*
Y185000D02*
D03*
Y190000D02*
D03*
Y195000D02*
D03*
Y200000D02*
D03*
Y160000D02*
D03*
X564000Y165000D02*
D03*
Y170000D02*
D03*
Y175000D02*
D03*
Y180000D02*
D03*
Y185000D02*
D03*
Y190000D02*
D03*
Y195000D02*
D03*
Y200000D02*
D03*
Y160000D02*
D03*
X571500Y165000D02*
D03*
Y170000D02*
D03*
Y175000D02*
D03*
Y180000D02*
D03*
Y185000D02*
D03*
Y190000D02*
D03*
Y195000D02*
D03*
Y200000D02*
D03*
Y160000D02*
D03*
X579000Y165000D02*
D03*
Y170000D02*
D03*
Y175000D02*
D03*
Y180000D02*
D03*
Y185000D02*
D03*
Y190000D02*
D03*
Y195000D02*
D03*
Y200000D02*
D03*
Y160000D02*
D03*
X557000Y344500D02*
D03*
Y349500D02*
D03*
Y354500D02*
D03*
Y359500D02*
D03*
Y364500D02*
D03*
Y369500D02*
D03*
Y374500D02*
D03*
Y379500D02*
D03*
Y339500D02*
D03*
X564000Y344500D02*
D03*
Y349500D02*
D03*
Y354500D02*
D03*
Y359500D02*
D03*
Y364500D02*
D03*
Y369500D02*
D03*
Y374500D02*
D03*
Y379500D02*
D03*
Y339500D02*
D03*
X571500Y344500D02*
D03*
Y349500D02*
D03*
Y354500D02*
D03*
Y359500D02*
D03*
Y364500D02*
D03*
Y369500D02*
D03*
Y374500D02*
D03*
Y379500D02*
D03*
Y339500D02*
D03*
X579000Y344500D02*
D03*
Y349500D02*
D03*
Y354500D02*
D03*
Y359500D02*
D03*
Y364500D02*
D03*
Y369500D02*
D03*
Y374500D02*
D03*
Y379500D02*
D03*
Y339500D02*
D03*
X298000Y340000D02*
D03*
Y380000D02*
D03*
Y375000D02*
D03*
Y370000D02*
D03*
Y365000D02*
D03*
Y360000D02*
D03*
Y355000D02*
D03*
Y350000D02*
D03*
Y345000D02*
D03*
X290500Y340000D02*
D03*
Y380000D02*
D03*
Y375000D02*
D03*
Y370000D02*
D03*
Y365000D02*
D03*
Y360000D02*
D03*
Y355000D02*
D03*
Y350000D02*
D03*
Y345000D02*
D03*
X283000Y340000D02*
D03*
Y380000D02*
D03*
Y375000D02*
D03*
Y370000D02*
D03*
Y365000D02*
D03*
Y360000D02*
D03*
Y355000D02*
D03*
Y350000D02*
D03*
Y345000D02*
D03*
X276000Y340000D02*
D03*
Y380000D02*
D03*
Y375000D02*
D03*
Y370000D02*
D03*
Y365000D02*
D03*
Y360000D02*
D03*
Y355000D02*
D03*
Y350000D02*
D03*
Y345000D02*
D03*
X298000Y160500D02*
D03*
Y200500D02*
D03*
Y195500D02*
D03*
Y190500D02*
D03*
Y185500D02*
D03*
Y180500D02*
D03*
Y175500D02*
D03*
Y170500D02*
D03*
Y165500D02*
D03*
X290500Y160500D02*
D03*
Y200500D02*
D03*
Y195500D02*
D03*
Y190500D02*
D03*
Y185500D02*
D03*
Y180500D02*
D03*
Y175500D02*
D03*
Y170500D02*
D03*
Y165500D02*
D03*
X283000Y160500D02*
D03*
Y200500D02*
D03*
Y195500D02*
D03*
Y190500D02*
D03*
Y185500D02*
D03*
Y180500D02*
D03*
Y175500D02*
D03*
Y170500D02*
D03*
Y165500D02*
D03*
X276000Y160500D02*
D03*
Y200500D02*
D03*
Y195500D02*
D03*
Y190500D02*
D03*
Y185500D02*
D03*
Y180500D02*
D03*
Y175500D02*
D03*
Y170500D02*
D03*
Y165500D02*
D03*
X298000Y205500D02*
D03*
Y245500D02*
D03*
Y240500D02*
D03*
Y235500D02*
D03*
Y230500D02*
D03*
Y225500D02*
D03*
Y220500D02*
D03*
Y215500D02*
D03*
Y210500D02*
D03*
X290500Y205500D02*
D03*
Y245500D02*
D03*
Y240500D02*
D03*
Y235500D02*
D03*
Y230500D02*
D03*
Y225500D02*
D03*
Y220500D02*
D03*
Y215500D02*
D03*
Y210500D02*
D03*
X283000Y205500D02*
D03*
Y245500D02*
D03*
Y240500D02*
D03*
Y235500D02*
D03*
Y230500D02*
D03*
Y225500D02*
D03*
Y220500D02*
D03*
Y215500D02*
D03*
Y210500D02*
D03*
X276000Y205500D02*
D03*
Y245500D02*
D03*
Y240500D02*
D03*
Y235500D02*
D03*
Y230500D02*
D03*
Y225500D02*
D03*
Y220500D02*
D03*
Y215500D02*
D03*
Y210500D02*
D03*
X298000Y250000D02*
D03*
Y290000D02*
D03*
Y285000D02*
D03*
Y280000D02*
D03*
Y275000D02*
D03*
Y270000D02*
D03*
Y265000D02*
D03*
Y260000D02*
D03*
Y255000D02*
D03*
X290500Y250000D02*
D03*
Y290000D02*
D03*
Y285000D02*
D03*
Y280000D02*
D03*
Y275000D02*
D03*
Y270000D02*
D03*
Y265000D02*
D03*
Y260000D02*
D03*
Y255000D02*
D03*
X283000Y250000D02*
D03*
Y290000D02*
D03*
Y285000D02*
D03*
Y280000D02*
D03*
Y275000D02*
D03*
Y270000D02*
D03*
Y265000D02*
D03*
Y260000D02*
D03*
Y255000D02*
D03*
X276000Y250000D02*
D03*
Y290000D02*
D03*
Y285000D02*
D03*
Y280000D02*
D03*
Y275000D02*
D03*
Y270000D02*
D03*
Y265000D02*
D03*
Y260000D02*
D03*
Y255000D02*
D03*
X276002Y299934D02*
D03*
Y304934D02*
D03*
Y309934D02*
D03*
Y314934D02*
D03*
Y319934D02*
D03*
Y324934D02*
D03*
Y329934D02*
D03*
Y334934D02*
D03*
Y294934D02*
D03*
X283002Y299934D02*
D03*
Y304934D02*
D03*
Y309934D02*
D03*
Y314934D02*
D03*
Y319934D02*
D03*
Y324934D02*
D03*
Y329934D02*
D03*
Y334934D02*
D03*
Y294934D02*
D03*
X290502Y299934D02*
D03*
Y304934D02*
D03*
Y309934D02*
D03*
Y314934D02*
D03*
Y319934D02*
D03*
Y324934D02*
D03*
Y329934D02*
D03*
Y334934D02*
D03*
Y294934D02*
D03*
X298002Y299934D02*
D03*
Y304934D02*
D03*
Y309934D02*
D03*
Y314934D02*
D03*
Y319934D02*
D03*
Y324934D02*
D03*
Y329934D02*
D03*
Y334934D02*
D03*
Y294934D02*
D03*
X322500Y363397D02*
D03*
X327500D02*
D03*
X332500D02*
D03*
X337500D02*
D03*
X342500D02*
D03*
X347500D02*
D03*
X352500D02*
D03*
Y358897D02*
D03*
X347500D02*
D03*
X342500D02*
D03*
X337500D02*
D03*
X332500D02*
D03*
X327500D02*
D03*
X322500D02*
D03*
X352500Y354397D02*
D03*
X347500D02*
D03*
X342500D02*
D03*
X337500D02*
D03*
X332500D02*
D03*
X327500D02*
D03*
X322500D02*
D03*
X323000Y305397D02*
D03*
X328000D02*
D03*
X333000D02*
D03*
X338000D02*
D03*
X343000D02*
D03*
X348000D02*
D03*
X353000D02*
D03*
X358000D02*
D03*
Y300897D02*
D03*
X353000D02*
D03*
X348000D02*
D03*
X343000D02*
D03*
X338000D02*
D03*
X333000D02*
D03*
X328000D02*
D03*
X323000D02*
D03*
X358000Y296397D02*
D03*
X353000D02*
D03*
X348000D02*
D03*
X343000D02*
D03*
X338000D02*
D03*
X333000D02*
D03*
X328000D02*
D03*
X323000D02*
D03*
X306897Y309500D02*
D03*
Y349500D02*
D03*
Y344500D02*
D03*
Y339500D02*
D03*
Y334500D02*
D03*
Y329500D02*
D03*
Y324500D02*
D03*
Y319500D02*
D03*
Y314500D02*
D03*
X311397Y309500D02*
D03*
Y349500D02*
D03*
Y344500D02*
D03*
Y339500D02*
D03*
Y334500D02*
D03*
Y329500D02*
D03*
Y324500D02*
D03*
Y319500D02*
D03*
Y314500D02*
D03*
X315897D02*
D03*
Y319500D02*
D03*
Y324500D02*
D03*
Y329500D02*
D03*
Y334500D02*
D03*
Y339500D02*
D03*
Y344500D02*
D03*
Y349500D02*
D03*
Y309500D02*
D03*
D42*
X247500Y376500D02*
D03*
X427500D02*
D03*
X607500D02*
D03*
Y166500D02*
D03*
X427500D02*
D03*
X247500D02*
D03*
M02*
