G04*
G04 #@! TF.GenerationSoftware,Altium Limited,Altium Designer,21.4.1 (30)*
G04*
G04 Layer_Physical_Order=2*
G04 Layer_Color=36540*
%FSLAX25Y25*%
%MOIN*%
G70*
G04*
G04 #@! TF.SameCoordinates,FB31E628-B40C-45E7-AE42-562EE5F46966*
G04*
G04*
G04 #@! TF.FilePolarity,Positive*
G04*
G01*
G75*
%ADD34C,0.01200*%
%ADD38C,0.06000*%
%ADD40C,0.05000*%
G36*
X622471Y120029D02*
X234029Y120029D01*
X234029Y468971D01*
X622471Y468971D01*
X622471Y120029D01*
D02*
G37*
%LPC*%
G36*
X355085Y459445D02*
X353915D01*
X352784Y459142D01*
X351771Y458557D01*
X350943Y457729D01*
X350358Y456716D01*
X350055Y455585D01*
Y454415D01*
X350358Y453284D01*
X350943Y452271D01*
X351771Y451443D01*
X352784Y450858D01*
X353915Y450555D01*
X355085D01*
X356216Y450858D01*
X357229Y451443D01*
X358057Y452271D01*
X358642Y453284D01*
X358945Y454415D01*
Y455585D01*
X358642Y456716D01*
X358057Y457729D01*
X357229Y458557D01*
X356216Y459142D01*
X355085Y459445D01*
D02*
G37*
G36*
X305085D02*
X303915D01*
X302784Y459142D01*
X301771Y458557D01*
X300943Y457729D01*
X300358Y456716D01*
X300055Y455585D01*
Y454415D01*
X300358Y453284D01*
X300943Y452271D01*
X301771Y451443D01*
X302784Y450858D01*
X303915Y450555D01*
X305085D01*
X306216Y450858D01*
X307229Y451443D01*
X308057Y452271D01*
X308642Y453284D01*
X308945Y454415D01*
Y455585D01*
X308642Y456716D01*
X308057Y457729D01*
X307229Y458557D01*
X306216Y459142D01*
X305085Y459445D01*
D02*
G37*
G36*
X333945Y434445D02*
X325055D01*
Y425555D01*
X333945D01*
Y434445D01*
D02*
G37*
G36*
X509777Y432000D02*
X508723D01*
X507706Y431727D01*
X506794Y431201D01*
X506049Y430456D01*
X505523Y429544D01*
X505250Y428527D01*
Y427473D01*
X505523Y426456D01*
X506049Y425544D01*
X506794Y424799D01*
X507706Y424273D01*
X508723Y424000D01*
X509777D01*
X510794Y424273D01*
X511706Y424799D01*
X512451Y425544D01*
X512977Y426456D01*
X513250Y427473D01*
Y428527D01*
X512977Y429544D01*
X512451Y430456D01*
X511706Y431201D01*
X510794Y431727D01*
X509777Y432000D01*
D02*
G37*
G36*
X473027D02*
X471973D01*
X470956Y431727D01*
X470044Y431201D01*
X469299Y430456D01*
X468773Y429544D01*
X468500Y428527D01*
Y427473D01*
X468773Y426456D01*
X469299Y425544D01*
X470044Y424799D01*
X470956Y424273D01*
X471973Y424000D01*
X473027D01*
X474044Y424273D01*
X474956Y424799D01*
X475701Y425544D01*
X476227Y426456D01*
X476500Y427473D01*
Y428527D01*
X476227Y429544D01*
X475701Y430456D01*
X474956Y431201D01*
X474044Y431727D01*
X473027Y432000D01*
D02*
G37*
G36*
X420461Y425961D02*
X413539D01*
Y419039D01*
X420461D01*
Y425961D01*
D02*
G37*
G36*
X397456Y415961D02*
X396544D01*
X395664Y415725D01*
X394875Y415269D01*
X394231Y414625D01*
X393775Y413836D01*
X393539Y412956D01*
Y412044D01*
X393775Y411164D01*
X394231Y410375D01*
X394875Y409731D01*
X395664Y409275D01*
X396544Y409039D01*
X397456D01*
X398336Y409275D01*
X399125Y409731D01*
X399769Y410375D01*
X400225Y411164D01*
X400461Y412044D01*
Y412956D01*
X400225Y413836D01*
X399769Y414625D01*
X399125Y415269D01*
X398336Y415725D01*
X397456Y415961D01*
D02*
G37*
G36*
X355085Y409445D02*
X353915D01*
X352784Y409142D01*
X351771Y408557D01*
X350943Y407729D01*
X350358Y406716D01*
X350055Y405585D01*
Y404415D01*
X350358Y403284D01*
X350943Y402271D01*
X351771Y401443D01*
X352784Y400858D01*
X353915Y400555D01*
X355085D01*
X356216Y400858D01*
X357229Y401443D01*
X358057Y402271D01*
X358642Y403284D01*
X358945Y404415D01*
Y405585D01*
X358642Y406716D01*
X358057Y407729D01*
X357229Y408557D01*
X356216Y409142D01*
X355085Y409445D01*
D02*
G37*
G36*
X305085D02*
X303915D01*
X302784Y409142D01*
X301771Y408557D01*
X300943Y407729D01*
X300358Y406716D01*
X300055Y405585D01*
Y404415D01*
X300358Y403284D01*
X300943Y402271D01*
X301771Y401443D01*
X302784Y400858D01*
X303915Y400555D01*
X305085D01*
X306216Y400858D01*
X307229Y401443D01*
X308057Y402271D01*
X308642Y403284D01*
X308945Y404415D01*
Y405585D01*
X308642Y406716D01*
X308057Y407729D01*
X307229Y408557D01*
X306216Y409142D01*
X305085Y409445D01*
D02*
G37*
G36*
X417456Y405961D02*
X416544D01*
X415664Y405725D01*
X414875Y405269D01*
X414231Y404625D01*
X413775Y403836D01*
X413539Y402956D01*
Y402044D01*
X413775Y401164D01*
X414231Y400375D01*
X414875Y399731D01*
X415664Y399275D01*
X416544Y399039D01*
X417456D01*
X418336Y399275D01*
X419125Y399731D01*
X419769Y400375D01*
X420225Y401164D01*
X420461Y402044D01*
Y402956D01*
X420225Y403836D01*
X419769Y404625D01*
X419125Y405269D01*
X418336Y405725D01*
X417456Y405961D01*
D02*
G37*
G36*
X387961Y401000D02*
X387039D01*
X386149Y400762D01*
X385351Y400301D01*
X384699Y399649D01*
X384239Y398851D01*
X384000Y397961D01*
Y397039D01*
X384239Y396149D01*
X384699Y395351D01*
X385351Y394699D01*
X386149Y394238D01*
X387039Y394000D01*
X387961D01*
X388851Y394238D01*
X389649Y394699D01*
X390301Y395351D01*
X390761Y396149D01*
X391000Y397039D01*
Y397961D01*
X390761Y398851D01*
X390301Y399649D01*
X389649Y400301D01*
X388851Y400762D01*
X387961Y401000D01*
D02*
G37*
G36*
X527997Y367103D02*
X527003D01*
X526084Y366722D01*
X525381Y366019D01*
X525250Y365704D01*
X524750D01*
X524619Y366019D01*
X523916Y366722D01*
X522997Y367103D01*
X522003D01*
X521084Y366722D01*
X520381Y366019D01*
X520250Y365704D01*
X519750D01*
X519619Y366019D01*
X518916Y366722D01*
X517997Y367103D01*
X517003D01*
X516084Y366722D01*
X515381Y366019D01*
X515250Y365704D01*
X514750D01*
X514619Y366019D01*
X513916Y366722D01*
X512997Y367103D01*
X512003D01*
X511084Y366722D01*
X510381Y366019D01*
X510250Y365704D01*
X509750D01*
X509619Y366019D01*
X508916Y366722D01*
X507997Y367103D01*
X507003D01*
X506084Y366722D01*
X505381Y366019D01*
X505250Y365704D01*
X504750D01*
X504619Y366019D01*
X503916Y366722D01*
X502997Y367103D01*
X502003D01*
X501084Y366722D01*
X500381Y366019D01*
X500250Y365704D01*
X499750D01*
X499619Y366019D01*
X498916Y366722D01*
X497997Y367103D01*
X497003D01*
X496084Y366722D01*
X495381Y366019D01*
X495250Y365704D01*
X494750D01*
X494619Y366019D01*
X493916Y366722D01*
X492997Y367103D01*
X492003D01*
X491084Y366722D01*
X490381Y366019D01*
X490000Y365100D01*
Y364106D01*
X490381Y363187D01*
X490888Y362680D01*
X491028Y362353D01*
X490888Y362026D01*
X490381Y361519D01*
X490000Y360600D01*
Y359606D01*
X490381Y358687D01*
X490888Y358180D01*
X491028Y357853D01*
X490888Y357526D01*
X490381Y357019D01*
X490000Y356100D01*
Y355106D01*
X490381Y354187D01*
X491084Y353484D01*
X492003Y353103D01*
X492997D01*
X493916Y353484D01*
X494619Y354187D01*
X494750Y354502D01*
X495250D01*
X495381Y354187D01*
X496084Y353484D01*
X497003Y353103D01*
X497997D01*
X498916Y353484D01*
X499619Y354187D01*
X499750Y354502D01*
X500250D01*
X500381Y354187D01*
X501084Y353484D01*
X502003Y353103D01*
X502997D01*
X503916Y353484D01*
X504619Y354187D01*
X504750Y354502D01*
X505250D01*
X505381Y354187D01*
X506084Y353484D01*
X507003Y353103D01*
X507997D01*
X508916Y353484D01*
X509619Y354187D01*
X509750Y354502D01*
X510250D01*
X510381Y354187D01*
X511084Y353484D01*
X512003Y353103D01*
X512997D01*
X513916Y353484D01*
X514619Y354187D01*
X514750Y354502D01*
X515250D01*
X515381Y354187D01*
X516084Y353484D01*
X517003Y353103D01*
X517997D01*
X518916Y353484D01*
X519619Y354187D01*
X519750Y354502D01*
X520250D01*
X520381Y354187D01*
X521084Y353484D01*
X522003Y353103D01*
X522997D01*
X523916Y353484D01*
X524619Y354187D01*
X524750Y354502D01*
X525250D01*
X525381Y354187D01*
X526084Y353484D01*
X527003Y353103D01*
X527997D01*
X528916Y353484D01*
X529619Y354187D01*
X530000Y355106D01*
Y356100D01*
X529619Y357019D01*
X529112Y357526D01*
X528972Y357853D01*
X529112Y358180D01*
X529619Y358687D01*
X530000Y359606D01*
Y360600D01*
X529619Y361519D01*
X529112Y362026D01*
X528972Y362353D01*
X529112Y362680D01*
X529619Y363187D01*
X530000Y364106D01*
Y365100D01*
X529619Y366019D01*
X528916Y366722D01*
X527997Y367103D01*
D02*
G37*
G36*
X352997Y365897D02*
X352003D01*
X351084Y365516D01*
X350381Y364813D01*
X350250Y364498D01*
X349750D01*
X349619Y364813D01*
X348916Y365516D01*
X347997Y365897D01*
X347003D01*
X346084Y365516D01*
X345381Y364813D01*
X345250Y364498D01*
X344750D01*
X344619Y364813D01*
X343916Y365516D01*
X342997Y365897D01*
X342003D01*
X341084Y365516D01*
X340381Y364813D01*
X340250Y364498D01*
X339750D01*
X339619Y364813D01*
X338916Y365516D01*
X337997Y365897D01*
X337003D01*
X336084Y365516D01*
X335381Y364813D01*
X335250Y364498D01*
X334750D01*
X334619Y364813D01*
X333916Y365516D01*
X332997Y365897D01*
X332003D01*
X331084Y365516D01*
X330381Y364813D01*
X330250Y364498D01*
X329750D01*
X329619Y364813D01*
X328916Y365516D01*
X327997Y365897D01*
X327003D01*
X326084Y365516D01*
X325381Y364813D01*
X325250Y364498D01*
X324750D01*
X324619Y364813D01*
X323916Y365516D01*
X322997Y365897D01*
X322003D01*
X321084Y365516D01*
X320381Y364813D01*
X320000Y363894D01*
Y362900D01*
X320381Y361981D01*
X320888Y361474D01*
X321028Y361147D01*
X320888Y360820D01*
X320381Y360313D01*
X320000Y359394D01*
Y358400D01*
X320381Y357481D01*
X320888Y356974D01*
X321028Y356647D01*
X320888Y356320D01*
X320381Y355813D01*
X320000Y354894D01*
Y353900D01*
X320381Y352981D01*
X321084Y352278D01*
X322003Y351897D01*
X322997D01*
X323916Y352278D01*
X324619Y352981D01*
X324750Y353296D01*
X325250D01*
X325381Y352981D01*
X326084Y352278D01*
X327003Y351897D01*
X327997D01*
X328916Y352278D01*
X329619Y352981D01*
X329750Y353296D01*
X330250D01*
X330381Y352981D01*
X331084Y352278D01*
X332003Y351897D01*
X332997D01*
X333916Y352278D01*
X334619Y352981D01*
X334750Y353296D01*
X335250D01*
X335381Y352981D01*
X336084Y352278D01*
X337003Y351897D01*
X337997D01*
X338916Y352278D01*
X339619Y352981D01*
X339750Y353296D01*
X340250D01*
X340381Y352981D01*
X341084Y352278D01*
X342003Y351897D01*
X342997D01*
X343916Y352278D01*
X344619Y352981D01*
X344750Y353296D01*
X345250D01*
X345381Y352981D01*
X346084Y352278D01*
X347003Y351897D01*
X347997D01*
X348916Y352278D01*
X349619Y352981D01*
X349750Y353296D01*
X350250D01*
X350381Y352981D01*
X351084Y352278D01*
X352003Y351897D01*
X352997D01*
X353916Y352278D01*
X354619Y352981D01*
X355000Y353900D01*
Y354894D01*
X354619Y355813D01*
X354112Y356320D01*
X353972Y356647D01*
X354112Y356974D01*
X354619Y357481D01*
X355000Y358400D01*
Y359394D01*
X354619Y360313D01*
X354112Y360820D01*
X353972Y361147D01*
X354112Y361474D01*
X354619Y361981D01*
X355000Y362900D01*
Y363894D01*
X354619Y364813D01*
X353916Y365516D01*
X352997Y365897D01*
D02*
G37*
G36*
X608508Y389311D02*
X606492D01*
X604500Y388996D01*
X602582Y388372D01*
X600786Y387457D01*
X599154Y386272D01*
X597728Y384846D01*
X596543Y383214D01*
X595628Y381418D01*
X595004Y379500D01*
X594689Y377508D01*
Y375492D01*
X595004Y373500D01*
X595628Y371582D01*
X596543Y369786D01*
X597728Y368154D01*
X599154Y366728D01*
X600786Y365543D01*
X602582Y364628D01*
X604500Y364004D01*
X606492Y363689D01*
X608508D01*
X610500Y364004D01*
X612418Y364628D01*
X614214Y365543D01*
X615846Y366728D01*
X617272Y368154D01*
X618457Y369786D01*
X619372Y371582D01*
X619996Y373500D01*
X620311Y375492D01*
Y377508D01*
X619996Y379500D01*
X619372Y381418D01*
X618457Y383214D01*
X617272Y384846D01*
X615846Y386272D01*
X614214Y387457D01*
X612418Y388372D01*
X610500Y388996D01*
X608508Y389311D01*
D02*
G37*
G36*
X428508D02*
X426492D01*
X424500Y388996D01*
X422582Y388372D01*
X420786Y387457D01*
X419154Y386272D01*
X417728Y384846D01*
X416543Y383214D01*
X415628Y381418D01*
X415004Y379500D01*
X414689Y377508D01*
Y375492D01*
X415004Y373500D01*
X415628Y371582D01*
X416543Y369786D01*
X417728Y368154D01*
X419154Y366728D01*
X420786Y365543D01*
X422582Y364628D01*
X424500Y364004D01*
X426492Y363689D01*
X428508D01*
X430500Y364004D01*
X432418Y364628D01*
X434214Y365543D01*
X435846Y366728D01*
X437272Y368154D01*
X438457Y369786D01*
X439372Y371582D01*
X439996Y373500D01*
X440311Y375492D01*
Y377508D01*
X439996Y379500D01*
X439372Y381418D01*
X438457Y383214D01*
X437272Y384846D01*
X435846Y386272D01*
X434214Y387457D01*
X432418Y388372D01*
X430500Y388996D01*
X428508Y389311D01*
D02*
G37*
G36*
X248508D02*
X246492D01*
X244500Y388996D01*
X242582Y388372D01*
X240786Y387457D01*
X239154Y386272D01*
X237728Y384846D01*
X236543Y383214D01*
X235628Y381418D01*
X235004Y379500D01*
X234689Y377508D01*
Y375492D01*
X235004Y373500D01*
X235628Y371582D01*
X236543Y369786D01*
X237728Y368154D01*
X239154Y366728D01*
X240786Y365543D01*
X242582Y364628D01*
X244500Y364004D01*
X246492Y363689D01*
X248508D01*
X250500Y364004D01*
X252418Y364628D01*
X254214Y365543D01*
X255846Y366728D01*
X257272Y368154D01*
X258457Y369786D01*
X259372Y371582D01*
X259996Y373500D01*
X260311Y375492D01*
Y377508D01*
X259996Y379500D01*
X259372Y381418D01*
X258457Y383214D01*
X257272Y384846D01*
X255846Y386272D01*
X254214Y387457D01*
X252418Y388372D01*
X250500Y388996D01*
X248508Y389311D01*
D02*
G37*
G36*
X544100Y354000D02*
X543106D01*
X542187Y353619D01*
X541680Y353112D01*
X541353Y352972D01*
X541026Y353112D01*
X540519Y353619D01*
X539600Y354000D01*
X538606D01*
X537687Y353619D01*
X537180Y353112D01*
X536853Y352972D01*
X536526Y353112D01*
X536019Y353619D01*
X535100Y354000D01*
X534106D01*
X533187Y353619D01*
X532484Y352916D01*
X532103Y351997D01*
Y351003D01*
X532484Y350084D01*
X533187Y349381D01*
X533502Y349250D01*
Y348750D01*
X533187Y348619D01*
X532484Y347916D01*
X532103Y346997D01*
Y346003D01*
X532484Y345084D01*
X533187Y344381D01*
X533502Y344250D01*
Y343750D01*
X533187Y343619D01*
X532484Y342916D01*
X532103Y341997D01*
Y341003D01*
X532484Y340084D01*
X533187Y339381D01*
X533502Y339250D01*
Y338750D01*
X533187Y338619D01*
X532484Y337916D01*
X532103Y336997D01*
Y336003D01*
X532484Y335084D01*
X533187Y334381D01*
X533502Y334250D01*
Y333750D01*
X533187Y333619D01*
X532484Y332916D01*
X532103Y331997D01*
Y331003D01*
X532484Y330084D01*
X533187Y329381D01*
X533502Y329250D01*
Y328750D01*
X533187Y328619D01*
X532484Y327916D01*
X532103Y326997D01*
Y326003D01*
X532484Y325084D01*
X533187Y324381D01*
X533502Y324250D01*
Y323750D01*
X533187Y323619D01*
X532484Y322916D01*
X532103Y321997D01*
Y321003D01*
X532484Y320084D01*
X533187Y319381D01*
X533502Y319250D01*
Y318750D01*
X533187Y318619D01*
X532484Y317916D01*
X532103Y316997D01*
Y316003D01*
X532484Y315084D01*
X533187Y314381D01*
X533502Y314250D01*
Y313750D01*
X533187Y313619D01*
X532484Y312916D01*
X532103Y311997D01*
Y311003D01*
X532484Y310084D01*
X533187Y309381D01*
X534106Y309000D01*
X535100D01*
X536019Y309381D01*
X536526Y309888D01*
X536853Y310028D01*
X537180Y309888D01*
X537687Y309381D01*
X538606Y309000D01*
X539600D01*
X540519Y309381D01*
X541026Y309888D01*
X541353Y310028D01*
X541680Y309888D01*
X542187Y309381D01*
X543106Y309000D01*
X544100D01*
X545019Y309381D01*
X545722Y310084D01*
X546103Y311003D01*
Y311997D01*
X545722Y312916D01*
X545019Y313619D01*
X544704Y313750D01*
Y314250D01*
X545019Y314381D01*
X545722Y315084D01*
X546103Y316003D01*
Y316997D01*
X545722Y317916D01*
X545019Y318619D01*
X544704Y318750D01*
Y319250D01*
X545019Y319381D01*
X545722Y320084D01*
X546103Y321003D01*
Y321997D01*
X545722Y322916D01*
X545019Y323619D01*
X544704Y323750D01*
Y324250D01*
X545019Y324381D01*
X545722Y325084D01*
X546103Y326003D01*
Y326997D01*
X545722Y327916D01*
X545019Y328619D01*
X544704Y328750D01*
Y329250D01*
X545019Y329381D01*
X545722Y330084D01*
X546103Y331003D01*
Y331997D01*
X545722Y332916D01*
X545019Y333619D01*
X544704Y333750D01*
Y334250D01*
X545019Y334381D01*
X545722Y335084D01*
X546103Y336003D01*
Y336997D01*
X545722Y337916D01*
X545019Y338619D01*
X544704Y338750D01*
Y339250D01*
X545019Y339381D01*
X545722Y340084D01*
X546103Y341003D01*
Y341997D01*
X545722Y342916D01*
X545019Y343619D01*
X544704Y343750D01*
Y344250D01*
X545019Y344381D01*
X545722Y345084D01*
X546103Y346003D01*
Y346997D01*
X545722Y347916D01*
X545019Y348619D01*
X544704Y348750D01*
Y349250D01*
X545019Y349381D01*
X545722Y350084D01*
X546103Y351003D01*
Y351997D01*
X545722Y352916D01*
X545019Y353619D01*
X544100Y354000D01*
D02*
G37*
G36*
X316394Y352000D02*
X315400D01*
X314481Y351619D01*
X313974Y351112D01*
X313647Y350972D01*
X313320Y351112D01*
X312813Y351619D01*
X311894Y352000D01*
X310900D01*
X309981Y351619D01*
X309474Y351112D01*
X309147Y350972D01*
X308820Y351112D01*
X308313Y351619D01*
X307394Y352000D01*
X306400D01*
X305481Y351619D01*
X304778Y350916D01*
X304397Y349997D01*
Y349003D01*
X304778Y348084D01*
X305481Y347381D01*
X305796Y347250D01*
Y346750D01*
X305481Y346619D01*
X304778Y345916D01*
X304397Y344997D01*
Y344003D01*
X304778Y343084D01*
X305481Y342381D01*
X305796Y342250D01*
Y341750D01*
X305481Y341619D01*
X304778Y340916D01*
X304397Y339997D01*
Y339003D01*
X304778Y338084D01*
X305481Y337381D01*
X305796Y337250D01*
Y336750D01*
X305481Y336619D01*
X304778Y335916D01*
X304397Y334997D01*
Y334003D01*
X304778Y333084D01*
X305481Y332381D01*
X305796Y332250D01*
Y331750D01*
X305481Y331619D01*
X304778Y330916D01*
X304397Y329997D01*
Y329003D01*
X304778Y328084D01*
X305481Y327381D01*
X305796Y327250D01*
Y326750D01*
X305481Y326619D01*
X304778Y325916D01*
X304397Y324997D01*
Y324003D01*
X304778Y323084D01*
X305481Y322381D01*
X305796Y322250D01*
Y321750D01*
X305481Y321619D01*
X304778Y320916D01*
X304397Y319997D01*
Y319003D01*
X304778Y318084D01*
X305481Y317381D01*
X305796Y317250D01*
Y316750D01*
X305481Y316619D01*
X304778Y315916D01*
X304397Y314997D01*
Y314003D01*
X304778Y313084D01*
X305481Y312381D01*
X305796Y312250D01*
Y311750D01*
X305481Y311619D01*
X304778Y310916D01*
X304397Y309997D01*
Y309003D01*
X304778Y308084D01*
X305481Y307381D01*
X306400Y307000D01*
X307394D01*
X308313Y307381D01*
X308820Y307888D01*
X309147Y308028D01*
X309474Y307888D01*
X309981Y307381D01*
X310900Y307000D01*
X311894D01*
X312813Y307381D01*
X313320Y307888D01*
X313647Y308028D01*
X313974Y307888D01*
X314481Y307381D01*
X315400Y307000D01*
X316394D01*
X317313Y307381D01*
X318016Y308084D01*
X318397Y309003D01*
Y309997D01*
X318016Y310916D01*
X317313Y311619D01*
X316998Y311750D01*
Y312250D01*
X317313Y312381D01*
X318016Y313084D01*
X318397Y314003D01*
Y314997D01*
X318016Y315916D01*
X317313Y316619D01*
X316998Y316750D01*
Y317250D01*
X317313Y317381D01*
X318016Y318084D01*
X318397Y319003D01*
Y319997D01*
X318016Y320916D01*
X317313Y321619D01*
X316998Y321750D01*
Y322250D01*
X317313Y322381D01*
X318016Y323084D01*
X318397Y324003D01*
Y324997D01*
X318016Y325916D01*
X317313Y326619D01*
X316998Y326750D01*
Y327250D01*
X317313Y327381D01*
X318016Y328084D01*
X318397Y329003D01*
Y329997D01*
X318016Y330916D01*
X317313Y331619D01*
X316998Y331750D01*
Y332250D01*
X317313Y332381D01*
X318016Y333084D01*
X318397Y334003D01*
Y334997D01*
X318016Y335916D01*
X317313Y336619D01*
X316998Y336750D01*
Y337250D01*
X317313Y337381D01*
X318016Y338084D01*
X318397Y339003D01*
Y339997D01*
X318016Y340916D01*
X317313Y341619D01*
X316998Y341750D01*
Y342250D01*
X317313Y342381D01*
X318016Y343084D01*
X318397Y344003D01*
Y344997D01*
X318016Y345916D01*
X317313Y346619D01*
X316998Y346750D01*
Y347250D01*
X317313Y347381D01*
X318016Y348084D01*
X318397Y349003D01*
Y349997D01*
X318016Y350916D01*
X317313Y351619D01*
X316394Y352000D01*
D02*
G37*
G36*
X527848Y351250D02*
X527152D01*
X526509Y350984D01*
X526016Y350491D01*
X525750Y349848D01*
Y349152D01*
X526016Y348509D01*
X526509Y348016D01*
X527152Y347750D01*
X527848D01*
X528491Y348016D01*
X528984Y348509D01*
X529250Y349152D01*
Y349848D01*
X528984Y350491D01*
X528491Y350984D01*
X527848Y351250D01*
D02*
G37*
G36*
X522348D02*
X521652D01*
X521009Y350984D01*
X520516Y350491D01*
X520250Y349848D01*
Y349152D01*
X520516Y348509D01*
X521009Y348016D01*
X521652Y347750D01*
X522348D01*
X522991Y348016D01*
X523484Y348509D01*
X523750Y349152D01*
Y349848D01*
X523484Y350491D01*
X522991Y350984D01*
X522348Y351250D01*
D02*
G37*
G36*
X517348D02*
X516652D01*
X516009Y350984D01*
X515516Y350491D01*
X515250Y349848D01*
Y349152D01*
X515516Y348509D01*
X516009Y348016D01*
X516652Y347750D01*
X517348D01*
X517991Y348016D01*
X518484Y348509D01*
X518750Y349152D01*
Y349848D01*
X518484Y350491D01*
X517991Y350984D01*
X517348Y351250D01*
D02*
G37*
G36*
X512348D02*
X511652D01*
X511009Y350984D01*
X510516Y350491D01*
X510250Y349848D01*
Y349152D01*
X510516Y348509D01*
X511009Y348016D01*
X511652Y347750D01*
X512348D01*
X512991Y348016D01*
X513484Y348509D01*
X513750Y349152D01*
Y349848D01*
X513484Y350491D01*
X512991Y350984D01*
X512348Y351250D01*
D02*
G37*
G36*
X507348D02*
X506652D01*
X506009Y350984D01*
X505516Y350491D01*
X505250Y349848D01*
Y349152D01*
X505516Y348509D01*
X506009Y348016D01*
X506652Y347750D01*
X507348D01*
X507991Y348016D01*
X508484Y348509D01*
X508750Y349152D01*
Y349848D01*
X508484Y350491D01*
X507991Y350984D01*
X507348Y351250D01*
D02*
G37*
G36*
X345348Y350250D02*
X344652D01*
X344009Y349984D01*
X343516Y349491D01*
X343250Y348848D01*
Y348152D01*
X343516Y347509D01*
X344009Y347016D01*
X344652Y346750D01*
X345348D01*
X345991Y347016D01*
X346484Y347509D01*
X346750Y348152D01*
Y348848D01*
X346484Y349491D01*
X345991Y349984D01*
X345348Y350250D01*
D02*
G37*
G36*
X339848D02*
X339152D01*
X338509Y349984D01*
X338016Y349491D01*
X337750Y348848D01*
Y348152D01*
X338016Y347509D01*
X338509Y347016D01*
X339152Y346750D01*
X339848D01*
X340491Y347016D01*
X340984Y347509D01*
X341250Y348152D01*
Y348848D01*
X340984Y349491D01*
X340491Y349984D01*
X339848Y350250D01*
D02*
G37*
G36*
X334848D02*
X334152D01*
X333509Y349984D01*
X333016Y349491D01*
X332750Y348848D01*
Y348152D01*
X333016Y347509D01*
X333509Y347016D01*
X334152Y346750D01*
X334848D01*
X335491Y347016D01*
X335984Y347509D01*
X336250Y348152D01*
Y348848D01*
X335984Y349491D01*
X335491Y349984D01*
X334848Y350250D01*
D02*
G37*
G36*
X329848D02*
X329152D01*
X328509Y349984D01*
X328016Y349491D01*
X327750Y348848D01*
Y348152D01*
X328016Y347509D01*
X328509Y347016D01*
X329152Y346750D01*
X329848D01*
X330491Y347016D01*
X330984Y347509D01*
X331250Y348152D01*
Y348848D01*
X330984Y349491D01*
X330491Y349984D01*
X329848Y350250D01*
D02*
G37*
G36*
X324848D02*
X324152D01*
X323509Y349984D01*
X323016Y349491D01*
X322750Y348848D01*
Y348152D01*
X323016Y347509D01*
X323509Y347016D01*
X324152Y346750D01*
X324848D01*
X325491Y347016D01*
X325984Y347509D01*
X326250Y348152D01*
Y348848D01*
X325984Y349491D01*
X325491Y349984D01*
X324848Y350250D01*
D02*
G37*
G36*
X527848Y345964D02*
X527152D01*
X526509Y345698D01*
X526016Y345205D01*
X525750Y344562D01*
Y343866D01*
X526016Y343223D01*
X526509Y342731D01*
X527152Y342464D01*
X527848D01*
X528491Y342731D01*
X528984Y343223D01*
X529250Y343866D01*
Y344562D01*
X528984Y345205D01*
X528491Y345698D01*
X527848Y345964D01*
D02*
G37*
G36*
X522348D02*
X521652D01*
X521009Y345698D01*
X520516Y345205D01*
X520250Y344562D01*
Y343866D01*
X520516Y343223D01*
X521009Y342731D01*
X521652Y342464D01*
X522348D01*
X522991Y342731D01*
X523484Y343223D01*
X523750Y343866D01*
Y344562D01*
X523484Y345205D01*
X522991Y345698D01*
X522348Y345964D01*
D02*
G37*
G36*
X517348D02*
X516652D01*
X516009Y345698D01*
X515516Y345205D01*
X515250Y344562D01*
Y343866D01*
X515516Y343223D01*
X516009Y342731D01*
X516652Y342464D01*
X517348D01*
X517991Y342731D01*
X518484Y343223D01*
X518750Y343866D01*
Y344562D01*
X518484Y345205D01*
X517991Y345698D01*
X517348Y345964D01*
D02*
G37*
G36*
X512348D02*
X511652D01*
X511009Y345698D01*
X510516Y345205D01*
X510250Y344562D01*
Y343866D01*
X510516Y343223D01*
X511009Y342731D01*
X511652Y342464D01*
X512348D01*
X512991Y342731D01*
X513484Y343223D01*
X513750Y343866D01*
Y344562D01*
X513484Y345205D01*
X512991Y345698D01*
X512348Y345964D01*
D02*
G37*
G36*
X507348D02*
X506652D01*
X506009Y345698D01*
X505516Y345205D01*
X505250Y344562D01*
Y343866D01*
X505516Y343223D01*
X506009Y342731D01*
X506652Y342464D01*
X507348D01*
X507991Y342731D01*
X508484Y343223D01*
X508750Y343866D01*
Y344562D01*
X508484Y345205D01*
X507991Y345698D01*
X507348Y345964D01*
D02*
G37*
G36*
X345348Y344964D02*
X344652D01*
X344009Y344698D01*
X343516Y344205D01*
X343250Y343562D01*
Y342866D01*
X343516Y342223D01*
X344009Y341731D01*
X344652Y341464D01*
X345348D01*
X345991Y341731D01*
X346484Y342223D01*
X346750Y342866D01*
Y343562D01*
X346484Y344205D01*
X345991Y344698D01*
X345348Y344964D01*
D02*
G37*
G36*
X339848D02*
X339152D01*
X338509Y344698D01*
X338016Y344205D01*
X337750Y343562D01*
Y342866D01*
X338016Y342223D01*
X338509Y341731D01*
X339152Y341464D01*
X339848D01*
X340491Y341731D01*
X340984Y342223D01*
X341250Y342866D01*
Y343562D01*
X340984Y344205D01*
X340491Y344698D01*
X339848Y344964D01*
D02*
G37*
G36*
X334848D02*
X334152D01*
X333509Y344698D01*
X333016Y344205D01*
X332750Y343562D01*
Y342866D01*
X333016Y342223D01*
X333509Y341731D01*
X334152Y341464D01*
X334848D01*
X335491Y341731D01*
X335984Y342223D01*
X336250Y342866D01*
Y343562D01*
X335984Y344205D01*
X335491Y344698D01*
X334848Y344964D01*
D02*
G37*
G36*
X329848D02*
X329152D01*
X328509Y344698D01*
X328016Y344205D01*
X327750Y343562D01*
Y342866D01*
X328016Y342223D01*
X328509Y341731D01*
X329152Y341464D01*
X329848D01*
X330491Y341731D01*
X330984Y342223D01*
X331250Y342866D01*
Y343562D01*
X330984Y344205D01*
X330491Y344698D01*
X329848Y344964D01*
D02*
G37*
G36*
X324848D02*
X324152D01*
X323509Y344698D01*
X323016Y344205D01*
X322750Y343562D01*
Y342866D01*
X323016Y342223D01*
X323509Y341731D01*
X324152Y341464D01*
X324848D01*
X325491Y341731D01*
X325984Y342223D01*
X326250Y342866D01*
Y343562D01*
X325984Y344205D01*
X325491Y344698D01*
X324848Y344964D01*
D02*
G37*
G36*
X408961Y348000D02*
X408039D01*
X407149Y347762D01*
X406351Y347301D01*
X405699Y346649D01*
X405238Y345851D01*
X405000Y344961D01*
Y344039D01*
X405238Y343149D01*
X405699Y342351D01*
X406351Y341699D01*
X407149Y341238D01*
X408039Y341000D01*
X408961D01*
X409851Y341238D01*
X410649Y341699D01*
X411301Y342351D01*
X411762Y343149D01*
X412000Y344039D01*
Y344961D01*
X411762Y345851D01*
X411301Y346649D01*
X410649Y347301D01*
X409851Y347762D01*
X408961Y348000D01*
D02*
G37*
G36*
X527848Y340679D02*
X527152D01*
X526509Y340412D01*
X526016Y339920D01*
X525750Y339277D01*
Y338580D01*
X526016Y337937D01*
X526509Y337445D01*
X527152Y337178D01*
X527848D01*
X528491Y337445D01*
X528984Y337937D01*
X529250Y338580D01*
Y339277D01*
X528984Y339920D01*
X528491Y340412D01*
X527848Y340679D01*
D02*
G37*
G36*
X522348D02*
X521652D01*
X521009Y340412D01*
X520516Y339920D01*
X520250Y339277D01*
Y338580D01*
X520516Y337937D01*
X521009Y337445D01*
X521652Y337178D01*
X522348D01*
X522991Y337445D01*
X523484Y337937D01*
X523750Y338580D01*
Y339277D01*
X523484Y339920D01*
X522991Y340412D01*
X522348Y340679D01*
D02*
G37*
G36*
X517348D02*
X516652D01*
X516009Y340412D01*
X515516Y339920D01*
X515250Y339277D01*
Y338580D01*
X515516Y337937D01*
X516009Y337445D01*
X516652Y337178D01*
X517348D01*
X517991Y337445D01*
X518484Y337937D01*
X518750Y338580D01*
Y339277D01*
X518484Y339920D01*
X517991Y340412D01*
X517348Y340679D01*
D02*
G37*
G36*
X512348D02*
X511652D01*
X511009Y340412D01*
X510516Y339920D01*
X510250Y339277D01*
Y338580D01*
X510516Y337937D01*
X511009Y337445D01*
X511652Y337178D01*
X512348D01*
X512991Y337445D01*
X513484Y337937D01*
X513750Y338580D01*
Y339277D01*
X513484Y339920D01*
X512991Y340412D01*
X512348Y340679D01*
D02*
G37*
G36*
X507348D02*
X506652D01*
X506009Y340412D01*
X505516Y339920D01*
X505250Y339277D01*
Y338580D01*
X505516Y337937D01*
X506009Y337445D01*
X506652Y337178D01*
X507348D01*
X507991Y337445D01*
X508484Y337937D01*
X508750Y338580D01*
Y339277D01*
X508484Y339920D01*
X507991Y340412D01*
X507348Y340679D01*
D02*
G37*
G36*
X345348Y339679D02*
X344652D01*
X344009Y339412D01*
X343516Y338920D01*
X343250Y338277D01*
Y337580D01*
X343516Y336937D01*
X344009Y336445D01*
X344652Y336178D01*
X345348D01*
X345991Y336445D01*
X346484Y336937D01*
X346750Y337580D01*
Y338277D01*
X346484Y338920D01*
X345991Y339412D01*
X345348Y339679D01*
D02*
G37*
G36*
X339848D02*
X339152D01*
X338509Y339412D01*
X338016Y338920D01*
X337750Y338277D01*
Y337580D01*
X338016Y336937D01*
X338509Y336445D01*
X339152Y336178D01*
X339848D01*
X340491Y336445D01*
X340984Y336937D01*
X341250Y337580D01*
Y338277D01*
X340984Y338920D01*
X340491Y339412D01*
X339848Y339679D01*
D02*
G37*
G36*
X334848D02*
X334152D01*
X333509Y339412D01*
X333016Y338920D01*
X332750Y338277D01*
Y337580D01*
X333016Y336937D01*
X333509Y336445D01*
X334152Y336178D01*
X334848D01*
X335491Y336445D01*
X335984Y336937D01*
X336250Y337580D01*
Y338277D01*
X335984Y338920D01*
X335491Y339412D01*
X334848Y339679D01*
D02*
G37*
G36*
X329848D02*
X329152D01*
X328509Y339412D01*
X328016Y338920D01*
X327750Y338277D01*
Y337580D01*
X328016Y336937D01*
X328509Y336445D01*
X329152Y336178D01*
X329848D01*
X330491Y336445D01*
X330984Y336937D01*
X331250Y337580D01*
Y338277D01*
X330984Y338920D01*
X330491Y339412D01*
X329848Y339679D01*
D02*
G37*
G36*
X324848D02*
X324152D01*
X323509Y339412D01*
X323016Y338920D01*
X322750Y338277D01*
Y337580D01*
X323016Y336937D01*
X323509Y336445D01*
X324152Y336178D01*
X324848D01*
X325491Y336445D01*
X325984Y336937D01*
X326250Y337580D01*
Y338277D01*
X325984Y338920D01*
X325491Y339412D01*
X324848Y339679D01*
D02*
G37*
G36*
X527848Y335393D02*
X527152D01*
X526509Y335126D01*
X526016Y334634D01*
X525750Y333991D01*
Y333295D01*
X526016Y332651D01*
X526509Y332159D01*
X527152Y331893D01*
X527848D01*
X528491Y332159D01*
X528984Y332651D01*
X529250Y333295D01*
Y333991D01*
X528984Y334634D01*
X528491Y335126D01*
X527848Y335393D01*
D02*
G37*
G36*
X522348D02*
X521652D01*
X521009Y335126D01*
X520516Y334634D01*
X520250Y333991D01*
Y333295D01*
X520516Y332651D01*
X521009Y332159D01*
X521652Y331893D01*
X522348D01*
X522991Y332159D01*
X523484Y332651D01*
X523750Y333295D01*
Y333991D01*
X523484Y334634D01*
X522991Y335126D01*
X522348Y335393D01*
D02*
G37*
G36*
X517348D02*
X516652D01*
X516009Y335126D01*
X515516Y334634D01*
X515250Y333991D01*
Y333295D01*
X515516Y332651D01*
X516009Y332159D01*
X516652Y331893D01*
X517348D01*
X517991Y332159D01*
X518484Y332651D01*
X518750Y333295D01*
Y333991D01*
X518484Y334634D01*
X517991Y335126D01*
X517348Y335393D01*
D02*
G37*
G36*
X512348D02*
X511652D01*
X511009Y335126D01*
X510516Y334634D01*
X510250Y333991D01*
Y333295D01*
X510516Y332651D01*
X511009Y332159D01*
X511652Y331893D01*
X512348D01*
X512991Y332159D01*
X513484Y332651D01*
X513750Y333295D01*
Y333991D01*
X513484Y334634D01*
X512991Y335126D01*
X512348Y335393D01*
D02*
G37*
G36*
X507348D02*
X506652D01*
X506009Y335126D01*
X505516Y334634D01*
X505250Y333991D01*
Y333295D01*
X505516Y332651D01*
X506009Y332159D01*
X506652Y331893D01*
X507348D01*
X507991Y332159D01*
X508484Y332651D01*
X508750Y333295D01*
Y333991D01*
X508484Y334634D01*
X507991Y335126D01*
X507348Y335393D01*
D02*
G37*
G36*
X345348Y334393D02*
X344652D01*
X344009Y334126D01*
X343516Y333634D01*
X343250Y332991D01*
Y332295D01*
X343516Y331651D01*
X344009Y331159D01*
X344652Y330893D01*
X345348D01*
X345991Y331159D01*
X346484Y331651D01*
X346750Y332295D01*
Y332991D01*
X346484Y333634D01*
X345991Y334126D01*
X345348Y334393D01*
D02*
G37*
G36*
X339848D02*
X339152D01*
X338509Y334126D01*
X338016Y333634D01*
X337750Y332991D01*
Y332295D01*
X338016Y331651D01*
X338509Y331159D01*
X339152Y330893D01*
X339848D01*
X340491Y331159D01*
X340984Y331651D01*
X341250Y332295D01*
Y332991D01*
X340984Y333634D01*
X340491Y334126D01*
X339848Y334393D01*
D02*
G37*
G36*
X334848D02*
X334152D01*
X333509Y334126D01*
X333016Y333634D01*
X332750Y332991D01*
Y332295D01*
X333016Y331651D01*
X333509Y331159D01*
X334152Y330893D01*
X334848D01*
X335491Y331159D01*
X335984Y331651D01*
X336250Y332295D01*
Y332991D01*
X335984Y333634D01*
X335491Y334126D01*
X334848Y334393D01*
D02*
G37*
G36*
X329848D02*
X329152D01*
X328509Y334126D01*
X328016Y333634D01*
X327750Y332991D01*
Y332295D01*
X328016Y331651D01*
X328509Y331159D01*
X329152Y330893D01*
X329848D01*
X330491Y331159D01*
X330984Y331651D01*
X331250Y332295D01*
Y332991D01*
X330984Y333634D01*
X330491Y334126D01*
X329848Y334393D01*
D02*
G37*
G36*
X324848D02*
X324152D01*
X323509Y334126D01*
X323016Y333634D01*
X322750Y332991D01*
Y332295D01*
X323016Y331651D01*
X323509Y331159D01*
X324152Y330893D01*
X324848D01*
X325491Y331159D01*
X325984Y331651D01*
X326250Y332295D01*
Y332991D01*
X325984Y333634D01*
X325491Y334126D01*
X324848Y334393D01*
D02*
G37*
G36*
X443961Y334000D02*
X443039D01*
X442149Y333762D01*
X441351Y333301D01*
X440699Y332649D01*
X440239Y331851D01*
X440000Y330961D01*
Y330039D01*
X440239Y329149D01*
X440699Y328351D01*
X441351Y327699D01*
X442149Y327238D01*
X443039Y327000D01*
X443961D01*
X444851Y327238D01*
X445649Y327699D01*
X446301Y328351D01*
X446762Y329149D01*
X447000Y330039D01*
Y330961D01*
X446762Y331851D01*
X446301Y332649D01*
X445649Y333301D01*
X444851Y333762D01*
X443961Y334000D01*
D02*
G37*
G36*
X527848Y330107D02*
X527152D01*
X526509Y329841D01*
X526016Y329348D01*
X525750Y328705D01*
Y328009D01*
X526016Y327366D01*
X526509Y326874D01*
X527152Y326607D01*
X527848D01*
X528491Y326874D01*
X528984Y327366D01*
X529250Y328009D01*
Y328705D01*
X528984Y329348D01*
X528491Y329841D01*
X527848Y330107D01*
D02*
G37*
G36*
X522348D02*
X521652D01*
X521009Y329841D01*
X520516Y329348D01*
X520250Y328705D01*
Y328009D01*
X520516Y327366D01*
X521009Y326874D01*
X521652Y326607D01*
X522348D01*
X522991Y326874D01*
X523484Y327366D01*
X523750Y328009D01*
Y328705D01*
X523484Y329348D01*
X522991Y329841D01*
X522348Y330107D01*
D02*
G37*
G36*
X517348D02*
X516652D01*
X516009Y329841D01*
X515516Y329348D01*
X515250Y328705D01*
Y328009D01*
X515516Y327366D01*
X516009Y326874D01*
X516652Y326607D01*
X517348D01*
X517991Y326874D01*
X518484Y327366D01*
X518750Y328009D01*
Y328705D01*
X518484Y329348D01*
X517991Y329841D01*
X517348Y330107D01*
D02*
G37*
G36*
X512348D02*
X511652D01*
X511009Y329841D01*
X510516Y329348D01*
X510250Y328705D01*
Y328009D01*
X510516Y327366D01*
X511009Y326874D01*
X511652Y326607D01*
X512348D01*
X512991Y326874D01*
X513484Y327366D01*
X513750Y328009D01*
Y328705D01*
X513484Y329348D01*
X512991Y329841D01*
X512348Y330107D01*
D02*
G37*
G36*
X507348D02*
X506652D01*
X506009Y329841D01*
X505516Y329348D01*
X505250Y328705D01*
Y328009D01*
X505516Y327366D01*
X506009Y326874D01*
X506652Y326607D01*
X507348D01*
X507991Y326874D01*
X508484Y327366D01*
X508750Y328009D01*
Y328705D01*
X508484Y329348D01*
X507991Y329841D01*
X507348Y330107D01*
D02*
G37*
G36*
X345348Y329107D02*
X344652D01*
X344009Y328841D01*
X343516Y328348D01*
X343250Y327705D01*
Y327009D01*
X343516Y326366D01*
X344009Y325874D01*
X344652Y325607D01*
X345348D01*
X345991Y325874D01*
X346484Y326366D01*
X346750Y327009D01*
Y327705D01*
X346484Y328348D01*
X345991Y328841D01*
X345348Y329107D01*
D02*
G37*
G36*
X339848D02*
X339152D01*
X338509Y328841D01*
X338016Y328348D01*
X337750Y327705D01*
Y327009D01*
X338016Y326366D01*
X338509Y325874D01*
X339152Y325607D01*
X339848D01*
X340491Y325874D01*
X340984Y326366D01*
X341250Y327009D01*
Y327705D01*
X340984Y328348D01*
X340491Y328841D01*
X339848Y329107D01*
D02*
G37*
G36*
X334848D02*
X334152D01*
X333509Y328841D01*
X333016Y328348D01*
X332750Y327705D01*
Y327009D01*
X333016Y326366D01*
X333509Y325874D01*
X334152Y325607D01*
X334848D01*
X335491Y325874D01*
X335984Y326366D01*
X336250Y327009D01*
Y327705D01*
X335984Y328348D01*
X335491Y328841D01*
X334848Y329107D01*
D02*
G37*
G36*
X329848D02*
X329152D01*
X328509Y328841D01*
X328016Y328348D01*
X327750Y327705D01*
Y327009D01*
X328016Y326366D01*
X328509Y325874D01*
X329152Y325607D01*
X329848D01*
X330491Y325874D01*
X330984Y326366D01*
X331250Y327009D01*
Y327705D01*
X330984Y328348D01*
X330491Y328841D01*
X329848Y329107D01*
D02*
G37*
G36*
X324848D02*
X324152D01*
X323509Y328841D01*
X323016Y328348D01*
X322750Y327705D01*
Y327009D01*
X323016Y326366D01*
X323509Y325874D01*
X324152Y325607D01*
X324848D01*
X325491Y325874D01*
X325984Y326366D01*
X326250Y327009D01*
Y327705D01*
X325984Y328348D01*
X325491Y328841D01*
X324848Y329107D01*
D02*
G37*
G36*
X527848Y324821D02*
X527152D01*
X526509Y324555D01*
X526016Y324063D01*
X525750Y323419D01*
Y322723D01*
X526016Y322080D01*
X526509Y321588D01*
X527152Y321321D01*
X527848D01*
X528491Y321588D01*
X528984Y322080D01*
X529250Y322723D01*
Y323419D01*
X528984Y324063D01*
X528491Y324555D01*
X527848Y324821D01*
D02*
G37*
G36*
X522348D02*
X521652D01*
X521009Y324555D01*
X520516Y324063D01*
X520250Y323419D01*
Y322723D01*
X520516Y322080D01*
X521009Y321588D01*
X521652Y321321D01*
X522348D01*
X522991Y321588D01*
X523484Y322080D01*
X523750Y322723D01*
Y323419D01*
X523484Y324063D01*
X522991Y324555D01*
X522348Y324821D01*
D02*
G37*
G36*
X517348D02*
X516652D01*
X516009Y324555D01*
X515516Y324063D01*
X515250Y323419D01*
Y322723D01*
X515516Y322080D01*
X516009Y321588D01*
X516652Y321321D01*
X517348D01*
X517991Y321588D01*
X518484Y322080D01*
X518750Y322723D01*
Y323419D01*
X518484Y324063D01*
X517991Y324555D01*
X517348Y324821D01*
D02*
G37*
G36*
X512348D02*
X511652D01*
X511009Y324555D01*
X510516Y324063D01*
X510250Y323419D01*
Y322723D01*
X510516Y322080D01*
X511009Y321588D01*
X511652Y321321D01*
X512348D01*
X512991Y321588D01*
X513484Y322080D01*
X513750Y322723D01*
Y323419D01*
X513484Y324063D01*
X512991Y324555D01*
X512348Y324821D01*
D02*
G37*
G36*
X507348D02*
X506652D01*
X506009Y324555D01*
X505516Y324063D01*
X505250Y323419D01*
Y322723D01*
X505516Y322080D01*
X506009Y321588D01*
X506652Y321321D01*
X507348D01*
X507991Y321588D01*
X508484Y322080D01*
X508750Y322723D01*
Y323419D01*
X508484Y324063D01*
X507991Y324555D01*
X507348Y324821D01*
D02*
G37*
G36*
X345348Y323821D02*
X344652D01*
X344009Y323555D01*
X343516Y323063D01*
X343250Y322420D01*
Y321723D01*
X343516Y321080D01*
X344009Y320588D01*
X344652Y320321D01*
X345348D01*
X345991Y320588D01*
X346484Y321080D01*
X346750Y321723D01*
Y322420D01*
X346484Y323063D01*
X345991Y323555D01*
X345348Y323821D01*
D02*
G37*
G36*
X339848D02*
X339152D01*
X338509Y323555D01*
X338016Y323063D01*
X337750Y322420D01*
Y321723D01*
X338016Y321080D01*
X338509Y320588D01*
X339152Y320321D01*
X339848D01*
X340491Y320588D01*
X340984Y321080D01*
X341250Y321723D01*
Y322420D01*
X340984Y323063D01*
X340491Y323555D01*
X339848Y323821D01*
D02*
G37*
G36*
X334848D02*
X334152D01*
X333509Y323555D01*
X333016Y323063D01*
X332750Y322420D01*
Y321723D01*
X333016Y321080D01*
X333509Y320588D01*
X334152Y320321D01*
X334848D01*
X335491Y320588D01*
X335984Y321080D01*
X336250Y321723D01*
Y322420D01*
X335984Y323063D01*
X335491Y323555D01*
X334848Y323821D01*
D02*
G37*
G36*
X329848D02*
X329152D01*
X328509Y323555D01*
X328016Y323063D01*
X327750Y322420D01*
Y321723D01*
X328016Y321080D01*
X328509Y320588D01*
X329152Y320321D01*
X329848D01*
X330491Y320588D01*
X330984Y321080D01*
X331250Y321723D01*
Y322420D01*
X330984Y323063D01*
X330491Y323555D01*
X329848Y323821D01*
D02*
G37*
G36*
X324848D02*
X324152D01*
X323509Y323555D01*
X323016Y323063D01*
X322750Y322420D01*
Y321723D01*
X323016Y321080D01*
X323509Y320588D01*
X324152Y320321D01*
X324848D01*
X325491Y320588D01*
X325984Y321080D01*
X326250Y321723D01*
Y322420D01*
X325984Y323063D01*
X325491Y323555D01*
X324848Y323821D01*
D02*
G37*
G36*
X527848Y319536D02*
X527152D01*
X526509Y319269D01*
X526016Y318777D01*
X525750Y318134D01*
Y317438D01*
X526016Y316794D01*
X526509Y316302D01*
X527152Y316036D01*
X527848D01*
X528491Y316302D01*
X528984Y316794D01*
X529250Y317438D01*
Y318134D01*
X528984Y318777D01*
X528491Y319269D01*
X527848Y319536D01*
D02*
G37*
G36*
X522348D02*
X521652D01*
X521009Y319269D01*
X520516Y318777D01*
X520250Y318134D01*
Y317438D01*
X520516Y316794D01*
X521009Y316302D01*
X521652Y316036D01*
X522348D01*
X522991Y316302D01*
X523484Y316794D01*
X523750Y317438D01*
Y318134D01*
X523484Y318777D01*
X522991Y319269D01*
X522348Y319536D01*
D02*
G37*
G36*
X517348D02*
X516652D01*
X516009Y319269D01*
X515516Y318777D01*
X515250Y318134D01*
Y317438D01*
X515516Y316794D01*
X516009Y316302D01*
X516652Y316036D01*
X517348D01*
X517991Y316302D01*
X518484Y316794D01*
X518750Y317438D01*
Y318134D01*
X518484Y318777D01*
X517991Y319269D01*
X517348Y319536D01*
D02*
G37*
G36*
X512348D02*
X511652D01*
X511009Y319269D01*
X510516Y318777D01*
X510250Y318134D01*
Y317438D01*
X510516Y316794D01*
X511009Y316302D01*
X511652Y316036D01*
X512348D01*
X512991Y316302D01*
X513484Y316794D01*
X513750Y317438D01*
Y318134D01*
X513484Y318777D01*
X512991Y319269D01*
X512348Y319536D01*
D02*
G37*
G36*
X507348D02*
X506652D01*
X506009Y319269D01*
X505516Y318777D01*
X505250Y318134D01*
Y317438D01*
X505516Y316794D01*
X506009Y316302D01*
X506652Y316036D01*
X507348D01*
X507991Y316302D01*
X508484Y316794D01*
X508750Y317438D01*
Y318134D01*
X508484Y318777D01*
X507991Y319269D01*
X507348Y319536D01*
D02*
G37*
G36*
X345348Y318536D02*
X344652D01*
X344009Y318269D01*
X343516Y317777D01*
X343250Y317134D01*
Y316438D01*
X343516Y315794D01*
X344009Y315302D01*
X344652Y315036D01*
X345348D01*
X345991Y315302D01*
X346484Y315794D01*
X346750Y316438D01*
Y317134D01*
X346484Y317777D01*
X345991Y318269D01*
X345348Y318536D01*
D02*
G37*
G36*
X339848D02*
X339152D01*
X338509Y318269D01*
X338016Y317777D01*
X337750Y317134D01*
Y316438D01*
X338016Y315794D01*
X338509Y315302D01*
X339152Y315036D01*
X339848D01*
X340491Y315302D01*
X340984Y315794D01*
X341250Y316438D01*
Y317134D01*
X340984Y317777D01*
X340491Y318269D01*
X339848Y318536D01*
D02*
G37*
G36*
X334848D02*
X334152D01*
X333509Y318269D01*
X333016Y317777D01*
X332750Y317134D01*
Y316438D01*
X333016Y315794D01*
X333509Y315302D01*
X334152Y315036D01*
X334848D01*
X335491Y315302D01*
X335984Y315794D01*
X336250Y316438D01*
Y317134D01*
X335984Y317777D01*
X335491Y318269D01*
X334848Y318536D01*
D02*
G37*
G36*
X329848D02*
X329152D01*
X328509Y318269D01*
X328016Y317777D01*
X327750Y317134D01*
Y316438D01*
X328016Y315794D01*
X328509Y315302D01*
X329152Y315036D01*
X329848D01*
X330491Y315302D01*
X330984Y315794D01*
X331250Y316438D01*
Y317134D01*
X330984Y317777D01*
X330491Y318269D01*
X329848Y318536D01*
D02*
G37*
G36*
X324848D02*
X324152D01*
X323509Y318269D01*
X323016Y317777D01*
X322750Y317134D01*
Y316438D01*
X323016Y315794D01*
X323509Y315302D01*
X324152Y315036D01*
X324848D01*
X325491Y315302D01*
X325984Y315794D01*
X326250Y316438D01*
Y317134D01*
X325984Y317777D01*
X325491Y318269D01*
X324848Y318536D01*
D02*
G37*
G36*
X527848Y314250D02*
X527152D01*
X526509Y313984D01*
X526016Y313491D01*
X525750Y312848D01*
Y312152D01*
X526016Y311509D01*
X526509Y311016D01*
X527152Y310750D01*
X527848D01*
X528491Y311016D01*
X528984Y311509D01*
X529250Y312152D01*
Y312848D01*
X528984Y313491D01*
X528491Y313984D01*
X527848Y314250D01*
D02*
G37*
G36*
X522348D02*
X521652D01*
X521009Y313984D01*
X520516Y313491D01*
X520250Y312848D01*
Y312152D01*
X520516Y311509D01*
X521009Y311016D01*
X521652Y310750D01*
X522348D01*
X522991Y311016D01*
X523484Y311509D01*
X523750Y312152D01*
Y312848D01*
X523484Y313491D01*
X522991Y313984D01*
X522348Y314250D01*
D02*
G37*
G36*
X517348D02*
X516652D01*
X516009Y313984D01*
X515516Y313491D01*
X515250Y312848D01*
Y312152D01*
X515516Y311509D01*
X516009Y311016D01*
X516652Y310750D01*
X517348D01*
X517991Y311016D01*
X518484Y311509D01*
X518750Y312152D01*
Y312848D01*
X518484Y313491D01*
X517991Y313984D01*
X517348Y314250D01*
D02*
G37*
G36*
X512348D02*
X511652D01*
X511009Y313984D01*
X510516Y313491D01*
X510250Y312848D01*
Y312152D01*
X510516Y311509D01*
X511009Y311016D01*
X511652Y310750D01*
X512348D01*
X512991Y311016D01*
X513484Y311509D01*
X513750Y312152D01*
Y312848D01*
X513484Y313491D01*
X512991Y313984D01*
X512348Y314250D01*
D02*
G37*
G36*
X507348D02*
X506652D01*
X506009Y313984D01*
X505516Y313491D01*
X505250Y312848D01*
Y312152D01*
X505516Y311509D01*
X506009Y311016D01*
X506652Y310750D01*
X507348D01*
X507991Y311016D01*
X508484Y311509D01*
X508750Y312152D01*
Y312848D01*
X508484Y313491D01*
X507991Y313984D01*
X507348Y314250D01*
D02*
G37*
G36*
X345348Y313250D02*
X344652D01*
X344009Y312984D01*
X343516Y312491D01*
X343250Y311848D01*
Y311152D01*
X343516Y310509D01*
X344009Y310016D01*
X344652Y309750D01*
X345348D01*
X345991Y310016D01*
X346484Y310509D01*
X346750Y311152D01*
Y311848D01*
X346484Y312491D01*
X345991Y312984D01*
X345348Y313250D01*
D02*
G37*
G36*
X339848D02*
X339152D01*
X338509Y312984D01*
X338016Y312491D01*
X337750Y311848D01*
Y311152D01*
X338016Y310509D01*
X338509Y310016D01*
X339152Y309750D01*
X339848D01*
X340491Y310016D01*
X340984Y310509D01*
X341250Y311152D01*
Y311848D01*
X340984Y312491D01*
X340491Y312984D01*
X339848Y313250D01*
D02*
G37*
G36*
X334848D02*
X334152D01*
X333509Y312984D01*
X333016Y312491D01*
X332750Y311848D01*
Y311152D01*
X333016Y310509D01*
X333509Y310016D01*
X334152Y309750D01*
X334848D01*
X335491Y310016D01*
X335984Y310509D01*
X336250Y311152D01*
Y311848D01*
X335984Y312491D01*
X335491Y312984D01*
X334848Y313250D01*
D02*
G37*
G36*
X329848D02*
X329152D01*
X328509Y312984D01*
X328016Y312491D01*
X327750Y311848D01*
Y311152D01*
X328016Y310509D01*
X328509Y310016D01*
X329152Y309750D01*
X329848D01*
X330491Y310016D01*
X330984Y310509D01*
X331250Y311152D01*
Y311848D01*
X330984Y312491D01*
X330491Y312984D01*
X329848Y313250D01*
D02*
G37*
G36*
X324848D02*
X324152D01*
X323509Y312984D01*
X323016Y312491D01*
X322750Y311848D01*
Y311152D01*
X323016Y310509D01*
X323509Y310016D01*
X324152Y309750D01*
X324848D01*
X325491Y310016D01*
X325984Y310509D01*
X326250Y311152D01*
Y311848D01*
X325984Y312491D01*
X325491Y312984D01*
X324848Y313250D01*
D02*
G37*
G36*
X528497Y309103D02*
X527503D01*
X526584Y308722D01*
X525881Y308019D01*
X525750Y307704D01*
X525250D01*
X525119Y308019D01*
X524416Y308722D01*
X523497Y309103D01*
X522503D01*
X521584Y308722D01*
X520881Y308019D01*
X520750Y307704D01*
X520250D01*
X520119Y308019D01*
X519416Y308722D01*
X518497Y309103D01*
X517503D01*
X516584Y308722D01*
X515881Y308019D01*
X515750Y307704D01*
X515250D01*
X515119Y308019D01*
X514416Y308722D01*
X513497Y309103D01*
X512503D01*
X511584Y308722D01*
X510881Y308019D01*
X510750Y307704D01*
X510250D01*
X510119Y308019D01*
X509416Y308722D01*
X508497Y309103D01*
X507503D01*
X506584Y308722D01*
X505881Y308019D01*
X505750Y307704D01*
X505250D01*
X505119Y308019D01*
X504416Y308722D01*
X503497Y309103D01*
X502503D01*
X501584Y308722D01*
X500881Y308019D01*
X500750Y307704D01*
X500250D01*
X500119Y308019D01*
X499416Y308722D01*
X498497Y309103D01*
X497503D01*
X496584Y308722D01*
X495881Y308019D01*
X495500Y307100D01*
Y306106D01*
X495881Y305187D01*
X496388Y304680D01*
X496528Y304353D01*
X496388Y304026D01*
X495881Y303519D01*
X495500Y302600D01*
Y301606D01*
X495881Y300687D01*
X496388Y300180D01*
X496528Y299853D01*
X496388Y299526D01*
X495881Y299019D01*
X495500Y298100D01*
Y297106D01*
X495881Y296187D01*
X496584Y295484D01*
X497503Y295103D01*
X498497D01*
X499416Y295484D01*
X500119Y296187D01*
X500250Y296502D01*
X500750D01*
X500881Y296187D01*
X501584Y295484D01*
X502503Y295103D01*
X503497D01*
X504416Y295484D01*
X505119Y296187D01*
X505250Y296502D01*
X505750D01*
X505881Y296187D01*
X506584Y295484D01*
X507503Y295103D01*
X508497D01*
X509416Y295484D01*
X510119Y296187D01*
X510250Y296502D01*
X510750D01*
X510881Y296187D01*
X511584Y295484D01*
X512503Y295103D01*
X513497D01*
X514416Y295484D01*
X515119Y296187D01*
X515250Y296502D01*
X515750D01*
X515881Y296187D01*
X516584Y295484D01*
X517503Y295103D01*
X518497D01*
X519416Y295484D01*
X520119Y296187D01*
X520250Y296502D01*
X520750D01*
X520881Y296187D01*
X521584Y295484D01*
X522503Y295103D01*
X523497D01*
X524416Y295484D01*
X525119Y296187D01*
X525250Y296502D01*
X525750D01*
X525881Y296187D01*
X526584Y295484D01*
X527503Y295103D01*
X528497D01*
X529416Y295484D01*
X530119Y296187D01*
X530500Y297106D01*
Y298100D01*
X530119Y299019D01*
X529612Y299526D01*
X529472Y299853D01*
X529612Y300180D01*
X530119Y300687D01*
X530500Y301606D01*
Y302600D01*
X530119Y303519D01*
X529612Y304026D01*
X529472Y304353D01*
X529612Y304680D01*
X530119Y305187D01*
X530500Y306106D01*
Y307100D01*
X530119Y308019D01*
X529416Y308722D01*
X528497Y309103D01*
D02*
G37*
G36*
X358497Y307897D02*
X357503D01*
X356584Y307516D01*
X355881Y306813D01*
X355750Y306498D01*
X355250D01*
X355119Y306813D01*
X354416Y307516D01*
X353497Y307897D01*
X352503D01*
X351584Y307516D01*
X350881Y306813D01*
X350750Y306498D01*
X350250D01*
X350119Y306813D01*
X349416Y307516D01*
X348497Y307897D01*
X347503D01*
X346584Y307516D01*
X345881Y306813D01*
X345750Y306498D01*
X345250D01*
X345119Y306813D01*
X344416Y307516D01*
X343497Y307897D01*
X342503D01*
X341584Y307516D01*
X340881Y306813D01*
X340750Y306498D01*
X340250D01*
X340119Y306813D01*
X339416Y307516D01*
X338497Y307897D01*
X337503D01*
X336584Y307516D01*
X335881Y306813D01*
X335750Y306498D01*
X335250D01*
X335119Y306813D01*
X334416Y307516D01*
X333497Y307897D01*
X332503D01*
X331584Y307516D01*
X330881Y306813D01*
X330750Y306498D01*
X330250D01*
X330119Y306813D01*
X329416Y307516D01*
X328497Y307897D01*
X327503D01*
X326584Y307516D01*
X325881Y306813D01*
X325750Y306498D01*
X325250D01*
X325119Y306813D01*
X324416Y307516D01*
X323497Y307897D01*
X322503D01*
X321584Y307516D01*
X320881Y306813D01*
X320500Y305894D01*
Y304900D01*
X320881Y303981D01*
X321388Y303474D01*
X321528Y303147D01*
X321388Y302820D01*
X320881Y302313D01*
X320500Y301394D01*
Y300400D01*
X320881Y299481D01*
X321388Y298974D01*
X321528Y298647D01*
X321388Y298320D01*
X320881Y297813D01*
X320500Y296894D01*
Y295900D01*
X320881Y294981D01*
X321584Y294278D01*
X322503Y293897D01*
X323497D01*
X324416Y294278D01*
X325119Y294981D01*
X325250Y295296D01*
X325750D01*
X325881Y294981D01*
X326584Y294278D01*
X327503Y293897D01*
X328497D01*
X329416Y294278D01*
X330119Y294981D01*
X330250Y295296D01*
X330750D01*
X330881Y294981D01*
X331584Y294278D01*
X332503Y293897D01*
X333497D01*
X334416Y294278D01*
X335119Y294981D01*
X335250Y295296D01*
X335750D01*
X335881Y294981D01*
X336584Y294278D01*
X337503Y293897D01*
X338497D01*
X339416Y294278D01*
X340119Y294981D01*
X340250Y295296D01*
X340750D01*
X340881Y294981D01*
X341584Y294278D01*
X342503Y293897D01*
X343497D01*
X344416Y294278D01*
X345119Y294981D01*
X345250Y295296D01*
X345750D01*
X345881Y294981D01*
X346584Y294278D01*
X347503Y293897D01*
X348497D01*
X349416Y294278D01*
X350119Y294981D01*
X350250Y295296D01*
X350750D01*
X350881Y294981D01*
X351584Y294278D01*
X352503Y293897D01*
X353497D01*
X354416Y294278D01*
X355119Y294981D01*
X355250Y295296D01*
X355750D01*
X355881Y294981D01*
X356584Y294278D01*
X357503Y293897D01*
X358497D01*
X359416Y294278D01*
X360119Y294981D01*
X360500Y295900D01*
Y296894D01*
X360119Y297813D01*
X359612Y298320D01*
X359472Y298647D01*
X359612Y298974D01*
X360119Y299481D01*
X360500Y300400D01*
Y301394D01*
X360119Y302313D01*
X359612Y302820D01*
X359472Y303147D01*
X359612Y303474D01*
X360119Y303981D01*
X360500Y304900D01*
Y305894D01*
X360119Y306813D01*
X359416Y307516D01*
X358497Y307897D01*
D02*
G37*
G36*
X450961Y310500D02*
X450039D01*
X449149Y310262D01*
X448351Y309801D01*
X447699Y309149D01*
X447238Y308351D01*
X447000Y307461D01*
Y306539D01*
X447238Y305649D01*
X447699Y304851D01*
X448351Y304199D01*
X449149Y303738D01*
X450039Y303500D01*
X450961D01*
X451851Y303738D01*
X452649Y304199D01*
X453301Y304851D01*
X453761Y305649D01*
X454000Y306539D01*
Y307461D01*
X453761Y308351D01*
X453301Y309149D01*
X452649Y309801D01*
X451851Y310262D01*
X450961Y310500D01*
D02*
G37*
G36*
X392961D02*
X392039D01*
X391149Y310262D01*
X390351Y309801D01*
X389699Y309149D01*
X389239Y308351D01*
X389000Y307461D01*
Y306539D01*
X389239Y305649D01*
X389699Y304851D01*
X390351Y304199D01*
X391149Y303738D01*
X392039Y303500D01*
X392961D01*
X393851Y303738D01*
X394649Y304199D01*
X395301Y304851D01*
X395761Y305649D01*
X396000Y306539D01*
Y307461D01*
X395761Y308351D01*
X395301Y309149D01*
X394649Y309801D01*
X393851Y310262D01*
X392961Y310500D01*
D02*
G37*
G36*
X446961Y260500D02*
X446039D01*
X445149Y260262D01*
X444351Y259801D01*
X443699Y259149D01*
X443238Y258351D01*
X443000Y257461D01*
Y256539D01*
X443238Y255649D01*
X443699Y254851D01*
X444351Y254199D01*
X445149Y253738D01*
X446039Y253500D01*
X446961D01*
X447851Y253738D01*
X448649Y254199D01*
X449301Y254851D01*
X449761Y255649D01*
X450000Y256539D01*
Y257461D01*
X449761Y258351D01*
X449301Y259149D01*
X448649Y259801D01*
X447851Y260262D01*
X446961Y260500D01*
D02*
G37*
G36*
X354497Y248897D02*
X353503D01*
X352584Y248516D01*
X351881Y247813D01*
X351750Y247498D01*
X351250D01*
X351119Y247813D01*
X350416Y248516D01*
X349497Y248897D01*
X348503D01*
X347584Y248516D01*
X346881Y247813D01*
X346750Y247498D01*
X346250D01*
X346119Y247813D01*
X345416Y248516D01*
X344497Y248897D01*
X343503D01*
X342584Y248516D01*
X341881Y247813D01*
X341750Y247498D01*
X341250D01*
X341119Y247813D01*
X340416Y248516D01*
X339497Y248897D01*
X338503D01*
X337584Y248516D01*
X336881Y247813D01*
X336750Y247498D01*
X336250D01*
X336119Y247813D01*
X335416Y248516D01*
X334497Y248897D01*
X333503D01*
X332584Y248516D01*
X331881Y247813D01*
X331750Y247498D01*
X331250D01*
X331119Y247813D01*
X330416Y248516D01*
X329497Y248897D01*
X328503D01*
X327584Y248516D01*
X326881Y247813D01*
X326750Y247498D01*
X326250D01*
X326119Y247813D01*
X325416Y248516D01*
X324497Y248897D01*
X323503D01*
X322584Y248516D01*
X321881Y247813D01*
X321500Y246894D01*
Y245900D01*
X321881Y244981D01*
X322388Y244474D01*
X322528Y244147D01*
X322388Y243820D01*
X321881Y243313D01*
X321500Y242394D01*
Y241400D01*
X321881Y240481D01*
X322388Y239974D01*
X322528Y239647D01*
X322388Y239320D01*
X321881Y238813D01*
X321500Y237894D01*
Y236900D01*
X321881Y235981D01*
X322584Y235278D01*
X323503Y234897D01*
X324497D01*
X325416Y235278D01*
X326119Y235981D01*
X326250Y236296D01*
X326750D01*
X326881Y235981D01*
X327584Y235278D01*
X328503Y234897D01*
X329497D01*
X330416Y235278D01*
X331119Y235981D01*
X331250Y236296D01*
X331750D01*
X331881Y235981D01*
X332584Y235278D01*
X333503Y234897D01*
X334497D01*
X335416Y235278D01*
X336119Y235981D01*
X336250Y236296D01*
X336750D01*
X336881Y235981D01*
X337584Y235278D01*
X338503Y234897D01*
X339497D01*
X340416Y235278D01*
X341119Y235981D01*
X341250Y236296D01*
X341750D01*
X341881Y235981D01*
X342584Y235278D01*
X343503Y234897D01*
X344497D01*
X345416Y235278D01*
X346119Y235981D01*
X346250Y236296D01*
X346750D01*
X346881Y235981D01*
X347584Y235278D01*
X348503Y234897D01*
X349497D01*
X350416Y235278D01*
X351119Y235981D01*
X351250Y236296D01*
X351750D01*
X351881Y235981D01*
X352584Y235278D01*
X353503Y234897D01*
X354497D01*
X355416Y235278D01*
X356119Y235981D01*
X356500Y236900D01*
Y237894D01*
X356119Y238813D01*
X355612Y239320D01*
X355472Y239647D01*
X355612Y239974D01*
X356119Y240481D01*
X356500Y241400D01*
Y242394D01*
X356119Y243313D01*
X355612Y243820D01*
X355472Y244147D01*
X355612Y244474D01*
X356119Y244981D01*
X356500Y245900D01*
Y246894D01*
X356119Y247813D01*
X355416Y248516D01*
X354497Y248897D01*
D02*
G37*
G36*
X317894Y235000D02*
X316900D01*
X315981Y234619D01*
X315474Y234112D01*
X315147Y233972D01*
X314820Y234112D01*
X314313Y234619D01*
X313394Y235000D01*
X312400D01*
X311481Y234619D01*
X310974Y234112D01*
X310647Y233972D01*
X310320Y234112D01*
X309813Y234619D01*
X308894Y235000D01*
X307900D01*
X306981Y234619D01*
X306278Y233916D01*
X305897Y232997D01*
Y232003D01*
X306278Y231084D01*
X306981Y230381D01*
X307296Y230250D01*
Y229750D01*
X306981Y229619D01*
X306278Y228916D01*
X305897Y227997D01*
Y227003D01*
X306278Y226084D01*
X306981Y225381D01*
X307296Y225250D01*
Y224750D01*
X306981Y224619D01*
X306278Y223916D01*
X305897Y222997D01*
Y222003D01*
X306278Y221084D01*
X306981Y220381D01*
X307296Y220250D01*
Y219750D01*
X306981Y219619D01*
X306278Y218916D01*
X305897Y217997D01*
Y217003D01*
X306278Y216084D01*
X306981Y215381D01*
X307296Y215250D01*
Y214750D01*
X306981Y214619D01*
X306278Y213916D01*
X305897Y212997D01*
Y212003D01*
X306278Y211084D01*
X306981Y210381D01*
X307296Y210250D01*
Y209750D01*
X306981Y209619D01*
X306278Y208916D01*
X305897Y207997D01*
Y207003D01*
X306278Y206084D01*
X306981Y205381D01*
X307296Y205250D01*
Y204750D01*
X306981Y204619D01*
X306278Y203916D01*
X305897Y202997D01*
Y202003D01*
X306278Y201084D01*
X306981Y200381D01*
X307296Y200250D01*
Y199750D01*
X306981Y199619D01*
X306278Y198916D01*
X305897Y197997D01*
Y197003D01*
X306278Y196084D01*
X306981Y195381D01*
X307296Y195250D01*
Y194750D01*
X306981Y194619D01*
X306278Y193916D01*
X305897Y192997D01*
Y192003D01*
X306278Y191084D01*
X306981Y190381D01*
X307900Y190000D01*
X308894D01*
X309813Y190381D01*
X310320Y190888D01*
X310647Y191028D01*
X310974Y190888D01*
X311481Y190381D01*
X312400Y190000D01*
X313394D01*
X314313Y190381D01*
X314820Y190888D01*
X315147Y191028D01*
X315474Y190888D01*
X315981Y190381D01*
X316900Y190000D01*
X317894D01*
X318813Y190381D01*
X319516Y191084D01*
X319897Y192003D01*
Y192997D01*
X319516Y193916D01*
X318813Y194619D01*
X318498Y194750D01*
Y195250D01*
X318813Y195381D01*
X319516Y196084D01*
X319897Y197003D01*
Y197997D01*
X319516Y198916D01*
X318813Y199619D01*
X318498Y199750D01*
Y200250D01*
X318813Y200381D01*
X319516Y201084D01*
X319897Y202003D01*
Y202997D01*
X319516Y203916D01*
X318813Y204619D01*
X318498Y204750D01*
Y205250D01*
X318813Y205381D01*
X319516Y206084D01*
X319897Y207003D01*
Y207997D01*
X319516Y208916D01*
X318813Y209619D01*
X318498Y209750D01*
Y210250D01*
X318813Y210381D01*
X319516Y211084D01*
X319897Y212003D01*
Y212997D01*
X319516Y213916D01*
X318813Y214619D01*
X318498Y214750D01*
Y215250D01*
X318813Y215381D01*
X319516Y216084D01*
X319897Y217003D01*
Y217997D01*
X319516Y218916D01*
X318813Y219619D01*
X318498Y219750D01*
Y220250D01*
X318813Y220381D01*
X319516Y221084D01*
X319897Y222003D01*
Y222997D01*
X319516Y223916D01*
X318813Y224619D01*
X318498Y224750D01*
Y225250D01*
X318813Y225381D01*
X319516Y226084D01*
X319897Y227003D01*
Y227997D01*
X319516Y228916D01*
X318813Y229619D01*
X318498Y229750D01*
Y230250D01*
X318813Y230381D01*
X319516Y231084D01*
X319897Y232003D01*
Y232997D01*
X319516Y233916D01*
X318813Y234619D01*
X317894Y235000D01*
D02*
G37*
G36*
X481500Y354131D02*
X373000D01*
X372376Y354007D01*
X371847Y353654D01*
X365119Y346926D01*
X364766Y346397D01*
X364642Y345773D01*
Y339591D01*
X364199Y339149D01*
X363738Y338351D01*
X363500Y337461D01*
Y336539D01*
X363555Y336334D01*
X361846Y334625D01*
X361493Y334096D01*
X361369Y333472D01*
Y202600D01*
X360851Y202301D01*
X360199Y201649D01*
X359738Y200851D01*
X359500Y199961D01*
Y199039D01*
X359738Y198149D01*
X360199Y197351D01*
X360851Y196699D01*
X361649Y196239D01*
X362539Y196000D01*
X363461D01*
X364351Y196239D01*
X365149Y196699D01*
X365801Y197351D01*
X366262Y198149D01*
X366500Y199039D01*
Y199961D01*
X366262Y200851D01*
X365801Y201649D01*
X365149Y202301D01*
X364631Y202600D01*
Y332796D01*
X365601Y333766D01*
X365649Y333738D01*
X366539Y333500D01*
X367461D01*
X368351Y333738D01*
X369149Y334199D01*
X369801Y334851D01*
X370262Y335649D01*
X370500Y336539D01*
Y337461D01*
X370262Y338351D01*
X369801Y339149D01*
X369149Y339801D01*
X368351Y340262D01*
X367904Y340381D01*
Y345097D01*
X373676Y350869D01*
X480824D01*
X485776Y345917D01*
X485739Y345851D01*
X485500Y344961D01*
Y344039D01*
X485739Y343149D01*
X486199Y342351D01*
X486851Y341699D01*
X487369Y341400D01*
Y227600D01*
X486851Y227301D01*
X486199Y226649D01*
X485739Y225851D01*
X485500Y224961D01*
Y224039D01*
X485739Y223149D01*
X486199Y222351D01*
X486851Y221699D01*
X487649Y221238D01*
X488539Y221000D01*
X489461D01*
X490351Y221238D01*
X491149Y221699D01*
X491801Y222351D01*
X492262Y223149D01*
X492500Y224039D01*
Y224961D01*
X492262Y225851D01*
X491801Y226649D01*
X491149Y227301D01*
X490631Y227600D01*
Y233729D01*
X491131Y233936D01*
X491584Y233484D01*
X492503Y233103D01*
X493497D01*
X494416Y233484D01*
X495119Y234187D01*
X495250Y234502D01*
X495750D01*
X495881Y234187D01*
X496584Y233484D01*
X497503Y233103D01*
X498497D01*
X499416Y233484D01*
X500119Y234187D01*
X500250Y234502D01*
X500750D01*
X500881Y234187D01*
X501584Y233484D01*
X502503Y233103D01*
X503497D01*
X504416Y233484D01*
X505119Y234187D01*
X505250Y234502D01*
X505750D01*
X505881Y234187D01*
X506584Y233484D01*
X507503Y233103D01*
X508497D01*
X509416Y233484D01*
X510119Y234187D01*
X510250Y234502D01*
X510750D01*
X510881Y234187D01*
X511584Y233484D01*
X512503Y233103D01*
X513497D01*
X514416Y233484D01*
X515119Y234187D01*
X515250Y234502D01*
X515750D01*
X515881Y234187D01*
X516584Y233484D01*
X517503Y233103D01*
X518497D01*
X519416Y233484D01*
X520119Y234187D01*
X520250Y234502D01*
X520750D01*
X520881Y234187D01*
X521584Y233484D01*
X522503Y233103D01*
X523497D01*
X524416Y233484D01*
X525119Y234187D01*
X525250Y234502D01*
X525750D01*
X525881Y234187D01*
X526584Y233484D01*
X527503Y233103D01*
X528497D01*
X529416Y233484D01*
X530119Y234187D01*
X530500Y235106D01*
Y236100D01*
X530119Y237019D01*
X529612Y237526D01*
X529472Y237853D01*
X529612Y238180D01*
X530119Y238687D01*
X530500Y239606D01*
Y240600D01*
X530119Y241519D01*
X529612Y242026D01*
X529472Y242353D01*
X529612Y242680D01*
X530119Y243187D01*
X530500Y244106D01*
Y245100D01*
X530119Y246019D01*
X529416Y246722D01*
X528497Y247103D01*
X527503D01*
X526584Y246722D01*
X525881Y246019D01*
X525750Y245704D01*
X525250D01*
X525119Y246019D01*
X524416Y246722D01*
X523497Y247103D01*
X522503D01*
X521584Y246722D01*
X520881Y246019D01*
X520750Y245704D01*
X520250D01*
X520119Y246019D01*
X519416Y246722D01*
X518497Y247103D01*
X517503D01*
X516584Y246722D01*
X515881Y246019D01*
X515750Y245704D01*
X515250D01*
X515119Y246019D01*
X514416Y246722D01*
X513497Y247103D01*
X512503D01*
X511584Y246722D01*
X510881Y246019D01*
X510750Y245704D01*
X510250D01*
X510119Y246019D01*
X509416Y246722D01*
X508497Y247103D01*
X507503D01*
X506584Y246722D01*
X505881Y246019D01*
X505750Y245704D01*
X505250D01*
X505119Y246019D01*
X504416Y246722D01*
X503497Y247103D01*
X502503D01*
X501584Y246722D01*
X500881Y246019D01*
X500750Y245704D01*
X500250D01*
X500119Y246019D01*
X499416Y246722D01*
X498497Y247103D01*
X497503D01*
X496584Y246722D01*
X495881Y246019D01*
X495750Y245704D01*
X495250D01*
X495119Y246019D01*
X494416Y246722D01*
X493497Y247103D01*
X492503D01*
X491584Y246722D01*
X491131Y246270D01*
X490631Y246477D01*
Y341400D01*
X491149Y341699D01*
X491801Y342351D01*
X492262Y343149D01*
X492500Y344039D01*
Y344961D01*
X492262Y345851D01*
X491801Y346649D01*
X491149Y347301D01*
X490351Y347762D01*
X489461Y348000D01*
X488539D01*
X488356Y347951D01*
X482654Y353654D01*
X482124Y354007D01*
X481500Y354131D01*
D02*
G37*
G36*
X544600Y234000D02*
X543606D01*
X542687Y233619D01*
X542180Y233112D01*
X541853Y232972D01*
X541526Y233112D01*
X541019Y233619D01*
X540100Y234000D01*
X539106D01*
X538187Y233619D01*
X537680Y233112D01*
X537353Y232972D01*
X537026Y233112D01*
X536519Y233619D01*
X535600Y234000D01*
X534606D01*
X533687Y233619D01*
X532984Y232916D01*
X532603Y231997D01*
Y231003D01*
X532984Y230084D01*
X533687Y229381D01*
X534002Y229250D01*
Y228750D01*
X533687Y228619D01*
X532984Y227916D01*
X532603Y226997D01*
Y226003D01*
X532984Y225084D01*
X533687Y224381D01*
X534002Y224250D01*
Y223750D01*
X533687Y223619D01*
X532984Y222916D01*
X532603Y221997D01*
Y221003D01*
X532984Y220084D01*
X533687Y219381D01*
X534002Y219250D01*
Y218750D01*
X533687Y218619D01*
X532984Y217916D01*
X532603Y216997D01*
Y216003D01*
X532984Y215084D01*
X533687Y214381D01*
X534002Y214250D01*
Y213750D01*
X533687Y213619D01*
X532984Y212916D01*
X532603Y211997D01*
Y211003D01*
X532984Y210084D01*
X533687Y209381D01*
X534002Y209250D01*
Y208750D01*
X533687Y208619D01*
X532984Y207916D01*
X532603Y206997D01*
Y206003D01*
X532984Y205084D01*
X533687Y204381D01*
X534002Y204250D01*
Y203750D01*
X533687Y203619D01*
X532984Y202916D01*
X532603Y201997D01*
Y201003D01*
X532984Y200084D01*
X533687Y199381D01*
X534002Y199250D01*
Y198750D01*
X533687Y198619D01*
X532984Y197916D01*
X532603Y196997D01*
Y196003D01*
X532984Y195084D01*
X533687Y194381D01*
X534002Y194250D01*
Y193750D01*
X533687Y193619D01*
X532984Y192916D01*
X532603Y191997D01*
Y191003D01*
X532984Y190084D01*
X533687Y189381D01*
X534606Y189000D01*
X535600D01*
X536519Y189381D01*
X537026Y189888D01*
X537353Y190028D01*
X537680Y189888D01*
X538187Y189381D01*
X539106Y189000D01*
X540100D01*
X541019Y189381D01*
X541526Y189888D01*
X541853Y190028D01*
X542180Y189888D01*
X542687Y189381D01*
X543606Y189000D01*
X544600D01*
X545519Y189381D01*
X546222Y190084D01*
X546603Y191003D01*
Y191997D01*
X546222Y192916D01*
X545519Y193619D01*
X545204Y193750D01*
Y194250D01*
X545519Y194381D01*
X546222Y195084D01*
X546603Y196003D01*
Y196997D01*
X546222Y197916D01*
X545519Y198619D01*
X545204Y198750D01*
Y199250D01*
X545519Y199381D01*
X546222Y200084D01*
X546603Y201003D01*
Y201997D01*
X546222Y202916D01*
X545519Y203619D01*
X545204Y203750D01*
Y204250D01*
X545519Y204381D01*
X546222Y205084D01*
X546603Y206003D01*
Y206997D01*
X546222Y207916D01*
X545519Y208619D01*
X545204Y208750D01*
Y209250D01*
X545519Y209381D01*
X546222Y210084D01*
X546603Y211003D01*
Y211997D01*
X546222Y212916D01*
X545519Y213619D01*
X545204Y213750D01*
Y214250D01*
X545519Y214381D01*
X546222Y215084D01*
X546603Y216003D01*
Y216997D01*
X546222Y217916D01*
X545519Y218619D01*
X545204Y218750D01*
Y219250D01*
X545519Y219381D01*
X546222Y220084D01*
X546603Y221003D01*
Y221997D01*
X546222Y222916D01*
X545519Y223619D01*
X545204Y223750D01*
Y224250D01*
X545519Y224381D01*
X546222Y225084D01*
X546603Y226003D01*
Y226997D01*
X546222Y227916D01*
X545519Y228619D01*
X545204Y228750D01*
Y229250D01*
X545519Y229381D01*
X546222Y230084D01*
X546603Y231003D01*
Y231997D01*
X546222Y232916D01*
X545519Y233619D01*
X544600Y234000D01*
D02*
G37*
G36*
X345848Y232750D02*
X345152D01*
X344509Y232484D01*
X344016Y231991D01*
X343750Y231348D01*
Y230652D01*
X344016Y230009D01*
X344509Y229516D01*
X345152Y229250D01*
X345848D01*
X346491Y229516D01*
X346984Y230009D01*
X347250Y230652D01*
Y231348D01*
X346984Y231991D01*
X346491Y232484D01*
X345848Y232750D01*
D02*
G37*
G36*
X340348D02*
X339652D01*
X339009Y232484D01*
X338516Y231991D01*
X338250Y231348D01*
Y230652D01*
X338516Y230009D01*
X339009Y229516D01*
X339652Y229250D01*
X340348D01*
X340991Y229516D01*
X341484Y230009D01*
X341750Y230652D01*
Y231348D01*
X341484Y231991D01*
X340991Y232484D01*
X340348Y232750D01*
D02*
G37*
G36*
X335348D02*
X334652D01*
X334009Y232484D01*
X333516Y231991D01*
X333250Y231348D01*
Y230652D01*
X333516Y230009D01*
X334009Y229516D01*
X334652Y229250D01*
X335348D01*
X335991Y229516D01*
X336484Y230009D01*
X336750Y230652D01*
Y231348D01*
X336484Y231991D01*
X335991Y232484D01*
X335348Y232750D01*
D02*
G37*
G36*
X330348D02*
X329652D01*
X329009Y232484D01*
X328516Y231991D01*
X328250Y231348D01*
Y230652D01*
X328516Y230009D01*
X329009Y229516D01*
X329652Y229250D01*
X330348D01*
X330991Y229516D01*
X331484Y230009D01*
X331750Y230652D01*
Y231348D01*
X331484Y231991D01*
X330991Y232484D01*
X330348Y232750D01*
D02*
G37*
G36*
X325348D02*
X324652D01*
X324009Y232484D01*
X323516Y231991D01*
X323250Y231348D01*
Y230652D01*
X323516Y230009D01*
X324009Y229516D01*
X324652Y229250D01*
X325348D01*
X325991Y229516D01*
X326484Y230009D01*
X326750Y230652D01*
Y231348D01*
X326484Y231991D01*
X325991Y232484D01*
X325348Y232750D01*
D02*
G37*
G36*
X528848Y231250D02*
X528152D01*
X527509Y230983D01*
X527016Y230491D01*
X526750Y229848D01*
Y229152D01*
X527016Y228509D01*
X527509Y228016D01*
X528152Y227750D01*
X528848D01*
X529491Y228016D01*
X529984Y228509D01*
X530250Y229152D01*
Y229848D01*
X529984Y230491D01*
X529491Y230983D01*
X528848Y231250D01*
D02*
G37*
G36*
X523348D02*
X522652D01*
X522009Y230983D01*
X521516Y230491D01*
X521250Y229848D01*
Y229152D01*
X521516Y228509D01*
X522009Y228016D01*
X522652Y227750D01*
X523348D01*
X523991Y228016D01*
X524484Y228509D01*
X524750Y229152D01*
Y229848D01*
X524484Y230491D01*
X523991Y230983D01*
X523348Y231250D01*
D02*
G37*
G36*
X518348D02*
X517652D01*
X517009Y230983D01*
X516516Y230491D01*
X516250Y229848D01*
Y229152D01*
X516516Y228509D01*
X517009Y228016D01*
X517652Y227750D01*
X518348D01*
X518991Y228016D01*
X519484Y228509D01*
X519750Y229152D01*
Y229848D01*
X519484Y230491D01*
X518991Y230983D01*
X518348Y231250D01*
D02*
G37*
G36*
X513348D02*
X512652D01*
X512009Y230983D01*
X511516Y230491D01*
X511250Y229848D01*
Y229152D01*
X511516Y228509D01*
X512009Y228016D01*
X512652Y227750D01*
X513348D01*
X513991Y228016D01*
X514484Y228509D01*
X514750Y229152D01*
Y229848D01*
X514484Y230491D01*
X513991Y230983D01*
X513348Y231250D01*
D02*
G37*
G36*
X508348D02*
X507652D01*
X507009Y230983D01*
X506516Y230491D01*
X506250Y229848D01*
Y229152D01*
X506516Y228509D01*
X507009Y228016D01*
X507652Y227750D01*
X508348D01*
X508991Y228016D01*
X509484Y228509D01*
X509750Y229152D01*
Y229848D01*
X509484Y230491D01*
X508991Y230983D01*
X508348Y231250D01*
D02*
G37*
G36*
X345848Y227464D02*
X345152D01*
X344509Y227198D01*
X344016Y226706D01*
X343750Y226062D01*
Y225366D01*
X344016Y224723D01*
X344509Y224231D01*
X345152Y223964D01*
X345848D01*
X346491Y224231D01*
X346984Y224723D01*
X347250Y225366D01*
Y226062D01*
X346984Y226706D01*
X346491Y227198D01*
X345848Y227464D01*
D02*
G37*
G36*
X340348D02*
X339652D01*
X339009Y227198D01*
X338516Y226706D01*
X338250Y226062D01*
Y225366D01*
X338516Y224723D01*
X339009Y224231D01*
X339652Y223964D01*
X340348D01*
X340991Y224231D01*
X341484Y224723D01*
X341750Y225366D01*
Y226062D01*
X341484Y226706D01*
X340991Y227198D01*
X340348Y227464D01*
D02*
G37*
G36*
X335348D02*
X334652D01*
X334009Y227198D01*
X333516Y226706D01*
X333250Y226062D01*
Y225366D01*
X333516Y224723D01*
X334009Y224231D01*
X334652Y223964D01*
X335348D01*
X335991Y224231D01*
X336484Y224723D01*
X336750Y225366D01*
Y226062D01*
X336484Y226706D01*
X335991Y227198D01*
X335348Y227464D01*
D02*
G37*
G36*
X330348D02*
X329652D01*
X329009Y227198D01*
X328516Y226706D01*
X328250Y226062D01*
Y225366D01*
X328516Y224723D01*
X329009Y224231D01*
X329652Y223964D01*
X330348D01*
X330991Y224231D01*
X331484Y224723D01*
X331750Y225366D01*
Y226062D01*
X331484Y226706D01*
X330991Y227198D01*
X330348Y227464D01*
D02*
G37*
G36*
X325348D02*
X324652D01*
X324009Y227198D01*
X323516Y226706D01*
X323250Y226062D01*
Y225366D01*
X323516Y224723D01*
X324009Y224231D01*
X324652Y223964D01*
X325348D01*
X325991Y224231D01*
X326484Y224723D01*
X326750Y225366D01*
Y226062D01*
X326484Y226706D01*
X325991Y227198D01*
X325348Y227464D01*
D02*
G37*
G36*
X408461Y229756D02*
X407539D01*
X406649Y229517D01*
X405851Y229057D01*
X405199Y228405D01*
X404739Y227607D01*
X404500Y226717D01*
Y225795D01*
X404739Y224905D01*
X405199Y224107D01*
X405851Y223455D01*
X406649Y222994D01*
X407539Y222756D01*
X408461D01*
X409351Y222994D01*
X410149Y223455D01*
X410801Y224107D01*
X411262Y224905D01*
X411500Y225795D01*
Y226717D01*
X411262Y227607D01*
X410801Y228405D01*
X410149Y229057D01*
X409351Y229517D01*
X408461Y229756D01*
D02*
G37*
G36*
X528848Y225964D02*
X528152D01*
X527509Y225698D01*
X527016Y225205D01*
X526750Y224562D01*
Y223866D01*
X527016Y223223D01*
X527509Y222731D01*
X528152Y222464D01*
X528848D01*
X529491Y222731D01*
X529984Y223223D01*
X530250Y223866D01*
Y224562D01*
X529984Y225205D01*
X529491Y225698D01*
X528848Y225964D01*
D02*
G37*
G36*
X523348D02*
X522652D01*
X522009Y225698D01*
X521516Y225205D01*
X521250Y224562D01*
Y223866D01*
X521516Y223223D01*
X522009Y222731D01*
X522652Y222464D01*
X523348D01*
X523991Y222731D01*
X524484Y223223D01*
X524750Y223866D01*
Y224562D01*
X524484Y225205D01*
X523991Y225698D01*
X523348Y225964D01*
D02*
G37*
G36*
X518348D02*
X517652D01*
X517009Y225698D01*
X516516Y225205D01*
X516250Y224562D01*
Y223866D01*
X516516Y223223D01*
X517009Y222731D01*
X517652Y222464D01*
X518348D01*
X518991Y222731D01*
X519484Y223223D01*
X519750Y223866D01*
Y224562D01*
X519484Y225205D01*
X518991Y225698D01*
X518348Y225964D01*
D02*
G37*
G36*
X513348D02*
X512652D01*
X512009Y225698D01*
X511516Y225205D01*
X511250Y224562D01*
Y223866D01*
X511516Y223223D01*
X512009Y222731D01*
X512652Y222464D01*
X513348D01*
X513991Y222731D01*
X514484Y223223D01*
X514750Y223866D01*
Y224562D01*
X514484Y225205D01*
X513991Y225698D01*
X513348Y225964D01*
D02*
G37*
G36*
X508348D02*
X507652D01*
X507009Y225698D01*
X506516Y225205D01*
X506250Y224562D01*
Y223866D01*
X506516Y223223D01*
X507009Y222731D01*
X507652Y222464D01*
X508348D01*
X508991Y222731D01*
X509484Y223223D01*
X509750Y223866D01*
Y224562D01*
X509484Y225205D01*
X508991Y225698D01*
X508348Y225964D01*
D02*
G37*
G36*
X345848Y222179D02*
X345152D01*
X344509Y221912D01*
X344016Y221420D01*
X343750Y220777D01*
Y220080D01*
X344016Y219437D01*
X344509Y218945D01*
X345152Y218678D01*
X345848D01*
X346491Y218945D01*
X346984Y219437D01*
X347250Y220080D01*
Y220777D01*
X346984Y221420D01*
X346491Y221912D01*
X345848Y222179D01*
D02*
G37*
G36*
X340348D02*
X339652D01*
X339009Y221912D01*
X338516Y221420D01*
X338250Y220777D01*
Y220080D01*
X338516Y219437D01*
X339009Y218945D01*
X339652Y218678D01*
X340348D01*
X340991Y218945D01*
X341484Y219437D01*
X341750Y220080D01*
Y220777D01*
X341484Y221420D01*
X340991Y221912D01*
X340348Y222179D01*
D02*
G37*
G36*
X335348D02*
X334652D01*
X334009Y221912D01*
X333516Y221420D01*
X333250Y220777D01*
Y220080D01*
X333516Y219437D01*
X334009Y218945D01*
X334652Y218678D01*
X335348D01*
X335991Y218945D01*
X336484Y219437D01*
X336750Y220080D01*
Y220777D01*
X336484Y221420D01*
X335991Y221912D01*
X335348Y222179D01*
D02*
G37*
G36*
X330348D02*
X329652D01*
X329009Y221912D01*
X328516Y221420D01*
X328250Y220777D01*
Y220080D01*
X328516Y219437D01*
X329009Y218945D01*
X329652Y218678D01*
X330348D01*
X330991Y218945D01*
X331484Y219437D01*
X331750Y220080D01*
Y220777D01*
X331484Y221420D01*
X330991Y221912D01*
X330348Y222179D01*
D02*
G37*
G36*
X325348D02*
X324652D01*
X324009Y221912D01*
X323516Y221420D01*
X323250Y220777D01*
Y220080D01*
X323516Y219437D01*
X324009Y218945D01*
X324652Y218678D01*
X325348D01*
X325991Y218945D01*
X326484Y219437D01*
X326750Y220080D01*
Y220777D01*
X326484Y221420D01*
X325991Y221912D01*
X325348Y222179D01*
D02*
G37*
G36*
X528848Y220678D02*
X528152D01*
X527509Y220412D01*
X527016Y219920D01*
X526750Y219277D01*
Y218581D01*
X527016Y217937D01*
X527509Y217445D01*
X528152Y217179D01*
X528848D01*
X529491Y217445D01*
X529984Y217937D01*
X530250Y218581D01*
Y219277D01*
X529984Y219920D01*
X529491Y220412D01*
X528848Y220678D01*
D02*
G37*
G36*
X523348D02*
X522652D01*
X522009Y220412D01*
X521516Y219920D01*
X521250Y219277D01*
Y218581D01*
X521516Y217937D01*
X522009Y217445D01*
X522652Y217179D01*
X523348D01*
X523991Y217445D01*
X524484Y217937D01*
X524750Y218581D01*
Y219277D01*
X524484Y219920D01*
X523991Y220412D01*
X523348Y220678D01*
D02*
G37*
G36*
X518348D02*
X517652D01*
X517009Y220412D01*
X516516Y219920D01*
X516250Y219277D01*
Y218581D01*
X516516Y217937D01*
X517009Y217445D01*
X517652Y217179D01*
X518348D01*
X518991Y217445D01*
X519484Y217937D01*
X519750Y218581D01*
Y219277D01*
X519484Y219920D01*
X518991Y220412D01*
X518348Y220678D01*
D02*
G37*
G36*
X513348D02*
X512652D01*
X512009Y220412D01*
X511516Y219920D01*
X511250Y219277D01*
Y218581D01*
X511516Y217937D01*
X512009Y217445D01*
X512652Y217179D01*
X513348D01*
X513991Y217445D01*
X514484Y217937D01*
X514750Y218581D01*
Y219277D01*
X514484Y219920D01*
X513991Y220412D01*
X513348Y220678D01*
D02*
G37*
G36*
X508348D02*
X507652D01*
X507009Y220412D01*
X506516Y219920D01*
X506250Y219277D01*
Y218581D01*
X506516Y217937D01*
X507009Y217445D01*
X507652Y217179D01*
X508348D01*
X508991Y217445D01*
X509484Y217937D01*
X509750Y218581D01*
Y219277D01*
X509484Y219920D01*
X508991Y220412D01*
X508348Y220678D01*
D02*
G37*
G36*
X345848Y216893D02*
X345152D01*
X344509Y216626D01*
X344016Y216134D01*
X343750Y215491D01*
Y214795D01*
X344016Y214152D01*
X344509Y213659D01*
X345152Y213393D01*
X345848D01*
X346491Y213659D01*
X346984Y214152D01*
X347250Y214795D01*
Y215491D01*
X346984Y216134D01*
X346491Y216626D01*
X345848Y216893D01*
D02*
G37*
G36*
X340348D02*
X339652D01*
X339009Y216626D01*
X338516Y216134D01*
X338250Y215491D01*
Y214795D01*
X338516Y214152D01*
X339009Y213659D01*
X339652Y213393D01*
X340348D01*
X340991Y213659D01*
X341484Y214152D01*
X341750Y214795D01*
Y215491D01*
X341484Y216134D01*
X340991Y216626D01*
X340348Y216893D01*
D02*
G37*
G36*
X335348D02*
X334652D01*
X334009Y216626D01*
X333516Y216134D01*
X333250Y215491D01*
Y214795D01*
X333516Y214152D01*
X334009Y213659D01*
X334652Y213393D01*
X335348D01*
X335991Y213659D01*
X336484Y214152D01*
X336750Y214795D01*
Y215491D01*
X336484Y216134D01*
X335991Y216626D01*
X335348Y216893D01*
D02*
G37*
G36*
X330348D02*
X329652D01*
X329009Y216626D01*
X328516Y216134D01*
X328250Y215491D01*
Y214795D01*
X328516Y214152D01*
X329009Y213659D01*
X329652Y213393D01*
X330348D01*
X330991Y213659D01*
X331484Y214152D01*
X331750Y214795D01*
Y215491D01*
X331484Y216134D01*
X330991Y216626D01*
X330348Y216893D01*
D02*
G37*
G36*
X325348D02*
X324652D01*
X324009Y216626D01*
X323516Y216134D01*
X323250Y215491D01*
Y214795D01*
X323516Y214152D01*
X324009Y213659D01*
X324652Y213393D01*
X325348D01*
X325991Y213659D01*
X326484Y214152D01*
X326750Y214795D01*
Y215491D01*
X326484Y216134D01*
X325991Y216626D01*
X325348Y216893D01*
D02*
G37*
G36*
X528848Y215393D02*
X528152D01*
X527509Y215126D01*
X527016Y214634D01*
X526750Y213991D01*
Y213295D01*
X527016Y212651D01*
X527509Y212159D01*
X528152Y211893D01*
X528848D01*
X529491Y212159D01*
X529984Y212651D01*
X530250Y213295D01*
Y213991D01*
X529984Y214634D01*
X529491Y215126D01*
X528848Y215393D01*
D02*
G37*
G36*
X523348D02*
X522652D01*
X522009Y215126D01*
X521516Y214634D01*
X521250Y213991D01*
Y213295D01*
X521516Y212651D01*
X522009Y212159D01*
X522652Y211893D01*
X523348D01*
X523991Y212159D01*
X524484Y212651D01*
X524750Y213295D01*
Y213991D01*
X524484Y214634D01*
X523991Y215126D01*
X523348Y215393D01*
D02*
G37*
G36*
X518348D02*
X517652D01*
X517009Y215126D01*
X516516Y214634D01*
X516250Y213991D01*
Y213295D01*
X516516Y212651D01*
X517009Y212159D01*
X517652Y211893D01*
X518348D01*
X518991Y212159D01*
X519484Y212651D01*
X519750Y213295D01*
Y213991D01*
X519484Y214634D01*
X518991Y215126D01*
X518348Y215393D01*
D02*
G37*
G36*
X513348D02*
X512652D01*
X512009Y215126D01*
X511516Y214634D01*
X511250Y213991D01*
Y213295D01*
X511516Y212651D01*
X512009Y212159D01*
X512652Y211893D01*
X513348D01*
X513991Y212159D01*
X514484Y212651D01*
X514750Y213295D01*
Y213991D01*
X514484Y214634D01*
X513991Y215126D01*
X513348Y215393D01*
D02*
G37*
G36*
X508348D02*
X507652D01*
X507009Y215126D01*
X506516Y214634D01*
X506250Y213991D01*
Y213295D01*
X506516Y212651D01*
X507009Y212159D01*
X507652Y211893D01*
X508348D01*
X508991Y212159D01*
X509484Y212651D01*
X509750Y213295D01*
Y213991D01*
X509484Y214634D01*
X508991Y215126D01*
X508348Y215393D01*
D02*
G37*
G36*
X345848Y211607D02*
X345152D01*
X344509Y211341D01*
X344016Y210848D01*
X343750Y210205D01*
Y209509D01*
X344016Y208866D01*
X344509Y208374D01*
X345152Y208107D01*
X345848D01*
X346491Y208374D01*
X346984Y208866D01*
X347250Y209509D01*
Y210205D01*
X346984Y210848D01*
X346491Y211341D01*
X345848Y211607D01*
D02*
G37*
G36*
X340348D02*
X339652D01*
X339009Y211341D01*
X338516Y210848D01*
X338250Y210205D01*
Y209509D01*
X338516Y208866D01*
X339009Y208374D01*
X339652Y208107D01*
X340348D01*
X340991Y208374D01*
X341484Y208866D01*
X341750Y209509D01*
Y210205D01*
X341484Y210848D01*
X340991Y211341D01*
X340348Y211607D01*
D02*
G37*
G36*
X335348D02*
X334652D01*
X334009Y211341D01*
X333516Y210848D01*
X333250Y210205D01*
Y209509D01*
X333516Y208866D01*
X334009Y208374D01*
X334652Y208107D01*
X335348D01*
X335991Y208374D01*
X336484Y208866D01*
X336750Y209509D01*
Y210205D01*
X336484Y210848D01*
X335991Y211341D01*
X335348Y211607D01*
D02*
G37*
G36*
X330348D02*
X329652D01*
X329009Y211341D01*
X328516Y210848D01*
X328250Y210205D01*
Y209509D01*
X328516Y208866D01*
X329009Y208374D01*
X329652Y208107D01*
X330348D01*
X330991Y208374D01*
X331484Y208866D01*
X331750Y209509D01*
Y210205D01*
X331484Y210848D01*
X330991Y211341D01*
X330348Y211607D01*
D02*
G37*
G36*
X325348D02*
X324652D01*
X324009Y211341D01*
X323516Y210848D01*
X323250Y210205D01*
Y209509D01*
X323516Y208866D01*
X324009Y208374D01*
X324652Y208107D01*
X325348D01*
X325991Y208374D01*
X326484Y208866D01*
X326750Y209509D01*
Y210205D01*
X326484Y210848D01*
X325991Y211341D01*
X325348Y211607D01*
D02*
G37*
G36*
X443961Y214500D02*
X443039D01*
X442149Y214262D01*
X441351Y213801D01*
X440699Y213149D01*
X440239Y212351D01*
X440000Y211461D01*
Y210539D01*
X440239Y209649D01*
X440699Y208851D01*
X441351Y208199D01*
X442149Y207738D01*
X443039Y207500D01*
X443961D01*
X444851Y207738D01*
X445649Y208199D01*
X446301Y208851D01*
X446762Y209649D01*
X447000Y210539D01*
Y211461D01*
X446762Y212351D01*
X446301Y213149D01*
X445649Y213801D01*
X444851Y214262D01*
X443961Y214500D01*
D02*
G37*
G36*
X528848Y210107D02*
X528152D01*
X527509Y209841D01*
X527016Y209348D01*
X526750Y208705D01*
Y208009D01*
X527016Y207366D01*
X527509Y206874D01*
X528152Y206607D01*
X528848D01*
X529491Y206874D01*
X529984Y207366D01*
X530250Y208009D01*
Y208705D01*
X529984Y209348D01*
X529491Y209841D01*
X528848Y210107D01*
D02*
G37*
G36*
X523348D02*
X522652D01*
X522009Y209841D01*
X521516Y209348D01*
X521250Y208705D01*
Y208009D01*
X521516Y207366D01*
X522009Y206874D01*
X522652Y206607D01*
X523348D01*
X523991Y206874D01*
X524484Y207366D01*
X524750Y208009D01*
Y208705D01*
X524484Y209348D01*
X523991Y209841D01*
X523348Y210107D01*
D02*
G37*
G36*
X518348D02*
X517652D01*
X517009Y209841D01*
X516516Y209348D01*
X516250Y208705D01*
Y208009D01*
X516516Y207366D01*
X517009Y206874D01*
X517652Y206607D01*
X518348D01*
X518991Y206874D01*
X519484Y207366D01*
X519750Y208009D01*
Y208705D01*
X519484Y209348D01*
X518991Y209841D01*
X518348Y210107D01*
D02*
G37*
G36*
X513348D02*
X512652D01*
X512009Y209841D01*
X511516Y209348D01*
X511250Y208705D01*
Y208009D01*
X511516Y207366D01*
X512009Y206874D01*
X512652Y206607D01*
X513348D01*
X513991Y206874D01*
X514484Y207366D01*
X514750Y208009D01*
Y208705D01*
X514484Y209348D01*
X513991Y209841D01*
X513348Y210107D01*
D02*
G37*
G36*
X508348D02*
X507652D01*
X507009Y209841D01*
X506516Y209348D01*
X506250Y208705D01*
Y208009D01*
X506516Y207366D01*
X507009Y206874D01*
X507652Y206607D01*
X508348D01*
X508991Y206874D01*
X509484Y207366D01*
X509750Y208009D01*
Y208705D01*
X509484Y209348D01*
X508991Y209841D01*
X508348Y210107D01*
D02*
G37*
G36*
X345848Y206321D02*
X345152D01*
X344509Y206055D01*
X344016Y205563D01*
X343750Y204920D01*
Y204223D01*
X344016Y203580D01*
X344509Y203088D01*
X345152Y202821D01*
X345848D01*
X346491Y203088D01*
X346984Y203580D01*
X347250Y204223D01*
Y204920D01*
X346984Y205563D01*
X346491Y206055D01*
X345848Y206321D01*
D02*
G37*
G36*
X340348D02*
X339652D01*
X339009Y206055D01*
X338516Y205563D01*
X338250Y204920D01*
Y204223D01*
X338516Y203580D01*
X339009Y203088D01*
X339652Y202821D01*
X340348D01*
X340991Y203088D01*
X341484Y203580D01*
X341750Y204223D01*
Y204920D01*
X341484Y205563D01*
X340991Y206055D01*
X340348Y206321D01*
D02*
G37*
G36*
X335348D02*
X334652D01*
X334009Y206055D01*
X333516Y205563D01*
X333250Y204920D01*
Y204223D01*
X333516Y203580D01*
X334009Y203088D01*
X334652Y202821D01*
X335348D01*
X335991Y203088D01*
X336484Y203580D01*
X336750Y204223D01*
Y204920D01*
X336484Y205563D01*
X335991Y206055D01*
X335348Y206321D01*
D02*
G37*
G36*
X330348D02*
X329652D01*
X329009Y206055D01*
X328516Y205563D01*
X328250Y204920D01*
Y204223D01*
X328516Y203580D01*
X329009Y203088D01*
X329652Y202821D01*
X330348D01*
X330991Y203088D01*
X331484Y203580D01*
X331750Y204223D01*
Y204920D01*
X331484Y205563D01*
X330991Y206055D01*
X330348Y206321D01*
D02*
G37*
G36*
X325348D02*
X324652D01*
X324009Y206055D01*
X323516Y205563D01*
X323250Y204920D01*
Y204223D01*
X323516Y203580D01*
X324009Y203088D01*
X324652Y202821D01*
X325348D01*
X325991Y203088D01*
X326484Y203580D01*
X326750Y204223D01*
Y204920D01*
X326484Y205563D01*
X325991Y206055D01*
X325348Y206321D01*
D02*
G37*
G36*
X528848Y204821D02*
X528152D01*
X527509Y204555D01*
X527016Y204063D01*
X526750Y203419D01*
Y202723D01*
X527016Y202080D01*
X527509Y201588D01*
X528152Y201321D01*
X528848D01*
X529491Y201588D01*
X529984Y202080D01*
X530250Y202723D01*
Y203419D01*
X529984Y204063D01*
X529491Y204555D01*
X528848Y204821D01*
D02*
G37*
G36*
X523348D02*
X522652D01*
X522009Y204555D01*
X521516Y204063D01*
X521250Y203419D01*
Y202723D01*
X521516Y202080D01*
X522009Y201588D01*
X522652Y201321D01*
X523348D01*
X523991Y201588D01*
X524484Y202080D01*
X524750Y202723D01*
Y203419D01*
X524484Y204063D01*
X523991Y204555D01*
X523348Y204821D01*
D02*
G37*
G36*
X518348D02*
X517652D01*
X517009Y204555D01*
X516516Y204063D01*
X516250Y203419D01*
Y202723D01*
X516516Y202080D01*
X517009Y201588D01*
X517652Y201321D01*
X518348D01*
X518991Y201588D01*
X519484Y202080D01*
X519750Y202723D01*
Y203419D01*
X519484Y204063D01*
X518991Y204555D01*
X518348Y204821D01*
D02*
G37*
G36*
X513348D02*
X512652D01*
X512009Y204555D01*
X511516Y204063D01*
X511250Y203419D01*
Y202723D01*
X511516Y202080D01*
X512009Y201588D01*
X512652Y201321D01*
X513348D01*
X513991Y201588D01*
X514484Y202080D01*
X514750Y202723D01*
Y203419D01*
X514484Y204063D01*
X513991Y204555D01*
X513348Y204821D01*
D02*
G37*
G36*
X508348D02*
X507652D01*
X507009Y204555D01*
X506516Y204063D01*
X506250Y203419D01*
Y202723D01*
X506516Y202080D01*
X507009Y201588D01*
X507652Y201321D01*
X508348D01*
X508991Y201588D01*
X509484Y202080D01*
X509750Y202723D01*
Y203419D01*
X509484Y204063D01*
X508991Y204555D01*
X508348Y204821D01*
D02*
G37*
G36*
X345848Y201036D02*
X345152D01*
X344509Y200769D01*
X344016Y200277D01*
X343750Y199634D01*
Y198938D01*
X344016Y198294D01*
X344509Y197802D01*
X345152Y197536D01*
X345848D01*
X346491Y197802D01*
X346984Y198294D01*
X347250Y198938D01*
Y199634D01*
X346984Y200277D01*
X346491Y200769D01*
X345848Y201036D01*
D02*
G37*
G36*
X340348D02*
X339652D01*
X339009Y200769D01*
X338516Y200277D01*
X338250Y199634D01*
Y198938D01*
X338516Y198294D01*
X339009Y197802D01*
X339652Y197536D01*
X340348D01*
X340991Y197802D01*
X341484Y198294D01*
X341750Y198938D01*
Y199634D01*
X341484Y200277D01*
X340991Y200769D01*
X340348Y201036D01*
D02*
G37*
G36*
X335348D02*
X334652D01*
X334009Y200769D01*
X333516Y200277D01*
X333250Y199634D01*
Y198938D01*
X333516Y198294D01*
X334009Y197802D01*
X334652Y197536D01*
X335348D01*
X335991Y197802D01*
X336484Y198294D01*
X336750Y198938D01*
Y199634D01*
X336484Y200277D01*
X335991Y200769D01*
X335348Y201036D01*
D02*
G37*
G36*
X330348D02*
X329652D01*
X329009Y200769D01*
X328516Y200277D01*
X328250Y199634D01*
Y198938D01*
X328516Y198294D01*
X329009Y197802D01*
X329652Y197536D01*
X330348D01*
X330991Y197802D01*
X331484Y198294D01*
X331750Y198938D01*
Y199634D01*
X331484Y200277D01*
X330991Y200769D01*
X330348Y201036D01*
D02*
G37*
G36*
X325348D02*
X324652D01*
X324009Y200769D01*
X323516Y200277D01*
X323250Y199634D01*
Y198938D01*
X323516Y198294D01*
X324009Y197802D01*
X324652Y197536D01*
X325348D01*
X325991Y197802D01*
X326484Y198294D01*
X326750Y198938D01*
Y199634D01*
X326484Y200277D01*
X325991Y200769D01*
X325348Y201036D01*
D02*
G37*
G36*
X528848Y199536D02*
X528152D01*
X527509Y199269D01*
X527016Y198777D01*
X526750Y198134D01*
Y197438D01*
X527016Y196794D01*
X527509Y196302D01*
X528152Y196036D01*
X528848D01*
X529491Y196302D01*
X529984Y196794D01*
X530250Y197438D01*
Y198134D01*
X529984Y198777D01*
X529491Y199269D01*
X528848Y199536D01*
D02*
G37*
G36*
X523348D02*
X522652D01*
X522009Y199269D01*
X521516Y198777D01*
X521250Y198134D01*
Y197438D01*
X521516Y196794D01*
X522009Y196302D01*
X522652Y196036D01*
X523348D01*
X523991Y196302D01*
X524484Y196794D01*
X524750Y197438D01*
Y198134D01*
X524484Y198777D01*
X523991Y199269D01*
X523348Y199536D01*
D02*
G37*
G36*
X518348D02*
X517652D01*
X517009Y199269D01*
X516516Y198777D01*
X516250Y198134D01*
Y197438D01*
X516516Y196794D01*
X517009Y196302D01*
X517652Y196036D01*
X518348D01*
X518991Y196302D01*
X519484Y196794D01*
X519750Y197438D01*
Y198134D01*
X519484Y198777D01*
X518991Y199269D01*
X518348Y199536D01*
D02*
G37*
G36*
X513348D02*
X512652D01*
X512009Y199269D01*
X511516Y198777D01*
X511250Y198134D01*
Y197438D01*
X511516Y196794D01*
X512009Y196302D01*
X512652Y196036D01*
X513348D01*
X513991Y196302D01*
X514484Y196794D01*
X514750Y197438D01*
Y198134D01*
X514484Y198777D01*
X513991Y199269D01*
X513348Y199536D01*
D02*
G37*
G36*
X508348D02*
X507652D01*
X507009Y199269D01*
X506516Y198777D01*
X506250Y198134D01*
Y197438D01*
X506516Y196794D01*
X507009Y196302D01*
X507652Y196036D01*
X508348D01*
X508991Y196302D01*
X509484Y196794D01*
X509750Y197438D01*
Y198134D01*
X509484Y198777D01*
X508991Y199269D01*
X508348Y199536D01*
D02*
G37*
G36*
X345848Y195750D02*
X345152D01*
X344509Y195484D01*
X344016Y194991D01*
X343750Y194348D01*
Y193652D01*
X344016Y193009D01*
X344509Y192516D01*
X345152Y192250D01*
X345848D01*
X346491Y192516D01*
X346984Y193009D01*
X347250Y193652D01*
Y194348D01*
X346984Y194991D01*
X346491Y195484D01*
X345848Y195750D01*
D02*
G37*
G36*
X340348D02*
X339652D01*
X339009Y195484D01*
X338516Y194991D01*
X338250Y194348D01*
Y193652D01*
X338516Y193009D01*
X339009Y192516D01*
X339652Y192250D01*
X340348D01*
X340991Y192516D01*
X341484Y193009D01*
X341750Y193652D01*
Y194348D01*
X341484Y194991D01*
X340991Y195484D01*
X340348Y195750D01*
D02*
G37*
G36*
X335348D02*
X334652D01*
X334009Y195484D01*
X333516Y194991D01*
X333250Y194348D01*
Y193652D01*
X333516Y193009D01*
X334009Y192516D01*
X334652Y192250D01*
X335348D01*
X335991Y192516D01*
X336484Y193009D01*
X336750Y193652D01*
Y194348D01*
X336484Y194991D01*
X335991Y195484D01*
X335348Y195750D01*
D02*
G37*
G36*
X330348D02*
X329652D01*
X329009Y195484D01*
X328516Y194991D01*
X328250Y194348D01*
Y193652D01*
X328516Y193009D01*
X329009Y192516D01*
X329652Y192250D01*
X330348D01*
X330991Y192516D01*
X331484Y193009D01*
X331750Y193652D01*
Y194348D01*
X331484Y194991D01*
X330991Y195484D01*
X330348Y195750D01*
D02*
G37*
G36*
X325348D02*
X324652D01*
X324009Y195484D01*
X323516Y194991D01*
X323250Y194348D01*
Y193652D01*
X323516Y193009D01*
X324009Y192516D01*
X324652Y192250D01*
X325348D01*
X325991Y192516D01*
X326484Y193009D01*
X326750Y193652D01*
Y194348D01*
X326484Y194991D01*
X325991Y195484D01*
X325348Y195750D01*
D02*
G37*
G36*
X528848Y194250D02*
X528152D01*
X527509Y193984D01*
X527016Y193491D01*
X526750Y192848D01*
Y192152D01*
X527016Y191509D01*
X527509Y191016D01*
X528152Y190750D01*
X528848D01*
X529491Y191016D01*
X529984Y191509D01*
X530250Y192152D01*
Y192848D01*
X529984Y193491D01*
X529491Y193984D01*
X528848Y194250D01*
D02*
G37*
G36*
X523348D02*
X522652D01*
X522009Y193984D01*
X521516Y193491D01*
X521250Y192848D01*
Y192152D01*
X521516Y191509D01*
X522009Y191016D01*
X522652Y190750D01*
X523348D01*
X523991Y191016D01*
X524484Y191509D01*
X524750Y192152D01*
Y192848D01*
X524484Y193491D01*
X523991Y193984D01*
X523348Y194250D01*
D02*
G37*
G36*
X518348D02*
X517652D01*
X517009Y193984D01*
X516516Y193491D01*
X516250Y192848D01*
Y192152D01*
X516516Y191509D01*
X517009Y191016D01*
X517652Y190750D01*
X518348D01*
X518991Y191016D01*
X519484Y191509D01*
X519750Y192152D01*
Y192848D01*
X519484Y193491D01*
X518991Y193984D01*
X518348Y194250D01*
D02*
G37*
G36*
X513348D02*
X512652D01*
X512009Y193984D01*
X511516Y193491D01*
X511250Y192848D01*
Y192152D01*
X511516Y191509D01*
X512009Y191016D01*
X512652Y190750D01*
X513348D01*
X513991Y191016D01*
X514484Y191509D01*
X514750Y192152D01*
Y192848D01*
X514484Y193491D01*
X513991Y193984D01*
X513348Y194250D01*
D02*
G37*
G36*
X508348D02*
X507652D01*
X507009Y193984D01*
X506516Y193491D01*
X506250Y192848D01*
Y192152D01*
X506516Y191509D01*
X507009Y191016D01*
X507652Y190750D01*
X508348D01*
X508991Y191016D01*
X509484Y191509D01*
X509750Y192152D01*
Y192848D01*
X509484Y193491D01*
X508991Y193984D01*
X508348Y194250D01*
D02*
G37*
G36*
X359997Y190897D02*
X359003D01*
X358084Y190516D01*
X357381Y189813D01*
X357250Y189498D01*
X356750D01*
X356619Y189813D01*
X355916Y190516D01*
X354997Y190897D01*
X354003D01*
X353084Y190516D01*
X352381Y189813D01*
X352250Y189498D01*
X351750D01*
X351619Y189813D01*
X350916Y190516D01*
X349997Y190897D01*
X349003D01*
X348084Y190516D01*
X347381Y189813D01*
X347250Y189498D01*
X346750D01*
X346619Y189813D01*
X345916Y190516D01*
X344997Y190897D01*
X344003D01*
X343084Y190516D01*
X342381Y189813D01*
X342250Y189498D01*
X341750D01*
X341619Y189813D01*
X340916Y190516D01*
X339997Y190897D01*
X339003D01*
X338084Y190516D01*
X337381Y189813D01*
X337250Y189498D01*
X336750D01*
X336619Y189813D01*
X335916Y190516D01*
X334997Y190897D01*
X334003D01*
X333084Y190516D01*
X332381Y189813D01*
X332250Y189498D01*
X331750D01*
X331619Y189813D01*
X330916Y190516D01*
X329997Y190897D01*
X329003D01*
X328084Y190516D01*
X327381Y189813D01*
X327250Y189498D01*
X326750D01*
X326619Y189813D01*
X325916Y190516D01*
X324997Y190897D01*
X324003D01*
X323084Y190516D01*
X322381Y189813D01*
X322000Y188894D01*
Y187900D01*
X322381Y186981D01*
X322888Y186474D01*
X323028Y186147D01*
X322888Y185820D01*
X322381Y185313D01*
X322000Y184394D01*
Y183400D01*
X322381Y182481D01*
X322888Y181974D01*
X323028Y181647D01*
X322888Y181320D01*
X322381Y180813D01*
X322000Y179894D01*
Y178900D01*
X322381Y177981D01*
X323084Y177278D01*
X324003Y176897D01*
X324997D01*
X325916Y177278D01*
X326619Y177981D01*
X326750Y178296D01*
X327250D01*
X327381Y177981D01*
X328084Y177278D01*
X329003Y176897D01*
X329997D01*
X330916Y177278D01*
X331619Y177981D01*
X331750Y178296D01*
X332250D01*
X332381Y177981D01*
X333084Y177278D01*
X334003Y176897D01*
X334997D01*
X335916Y177278D01*
X336619Y177981D01*
X336750Y178296D01*
X337250D01*
X337381Y177981D01*
X338084Y177278D01*
X339003Y176897D01*
X339997D01*
X340916Y177278D01*
X341619Y177981D01*
X341750Y178296D01*
X342250D01*
X342381Y177981D01*
X343084Y177278D01*
X344003Y176897D01*
X344997D01*
X345916Y177278D01*
X346619Y177981D01*
X346750Y178296D01*
X347250D01*
X347381Y177981D01*
X348084Y177278D01*
X349003Y176897D01*
X349997D01*
X350916Y177278D01*
X351619Y177981D01*
X351750Y178296D01*
X352250D01*
X352381Y177981D01*
X353084Y177278D01*
X354003Y176897D01*
X354997D01*
X355916Y177278D01*
X356619Y177981D01*
X356750Y178296D01*
X357250D01*
X357381Y177981D01*
X358084Y177278D01*
X359003Y176897D01*
X359997D01*
X360916Y177278D01*
X361619Y177981D01*
X362000Y178900D01*
Y179894D01*
X361619Y180813D01*
X361112Y181320D01*
X360972Y181647D01*
X361112Y181974D01*
X361619Y182481D01*
X362000Y183400D01*
Y184394D01*
X361619Y185313D01*
X361112Y185820D01*
X360972Y186147D01*
X361112Y186474D01*
X361619Y186981D01*
X362000Y187900D01*
Y188894D01*
X361619Y189813D01*
X360916Y190516D01*
X359997Y190897D01*
D02*
G37*
G36*
X528997Y189103D02*
X528003D01*
X527084Y188722D01*
X526381Y188019D01*
X526250Y187704D01*
X525750D01*
X525619Y188019D01*
X524916Y188722D01*
X523997Y189103D01*
X523003D01*
X522084Y188722D01*
X521381Y188019D01*
X521250Y187704D01*
X520750D01*
X520619Y188019D01*
X519916Y188722D01*
X518997Y189103D01*
X518003D01*
X517084Y188722D01*
X516381Y188019D01*
X516250Y187704D01*
X515750D01*
X515619Y188019D01*
X514916Y188722D01*
X513997Y189103D01*
X513003D01*
X512084Y188722D01*
X511381Y188019D01*
X511250Y187704D01*
X510750D01*
X510619Y188019D01*
X509916Y188722D01*
X508997Y189103D01*
X508003D01*
X507084Y188722D01*
X506381Y188019D01*
X506250Y187704D01*
X505750D01*
X505619Y188019D01*
X504916Y188722D01*
X503997Y189103D01*
X503003D01*
X502084Y188722D01*
X501381Y188019D01*
X501250Y187704D01*
X500750D01*
X500619Y188019D01*
X499916Y188722D01*
X498997Y189103D01*
X498003D01*
X497084Y188722D01*
X496381Y188019D01*
X496000Y187100D01*
Y186106D01*
X496381Y185187D01*
X496888Y184680D01*
X497028Y184353D01*
X496888Y184026D01*
X496381Y183519D01*
X496000Y182600D01*
Y181606D01*
X496381Y180687D01*
X496888Y180180D01*
X497028Y179853D01*
X496888Y179526D01*
X496381Y179019D01*
X496000Y178100D01*
Y177106D01*
X496381Y176187D01*
X497084Y175484D01*
X498003Y175103D01*
X498997D01*
X499916Y175484D01*
X500619Y176187D01*
X500750Y176502D01*
X501250D01*
X501381Y176187D01*
X502084Y175484D01*
X503003Y175103D01*
X503997D01*
X504916Y175484D01*
X505619Y176187D01*
X505750Y176502D01*
X506250D01*
X506381Y176187D01*
X507084Y175484D01*
X508003Y175103D01*
X508997D01*
X509916Y175484D01*
X510619Y176187D01*
X510750Y176502D01*
X511250D01*
X511381Y176187D01*
X512084Y175484D01*
X513003Y175103D01*
X513997D01*
X514916Y175484D01*
X515619Y176187D01*
X515750Y176502D01*
X516250D01*
X516381Y176187D01*
X517084Y175484D01*
X518003Y175103D01*
X518997D01*
X519916Y175484D01*
X520619Y176187D01*
X520750Y176502D01*
X521250D01*
X521381Y176187D01*
X522084Y175484D01*
X523003Y175103D01*
X523997D01*
X524916Y175484D01*
X525619Y176187D01*
X525750Y176502D01*
X526250D01*
X526381Y176187D01*
X527084Y175484D01*
X528003Y175103D01*
X528997D01*
X529916Y175484D01*
X530619Y176187D01*
X531000Y177106D01*
Y178100D01*
X530619Y179019D01*
X530112Y179526D01*
X529972Y179853D01*
X530112Y180180D01*
X530619Y180687D01*
X531000Y181606D01*
Y182600D01*
X530619Y183519D01*
X530112Y184026D01*
X529972Y184353D01*
X530112Y184680D01*
X530619Y185187D01*
X531000Y186106D01*
Y187100D01*
X530619Y188019D01*
X529916Y188722D01*
X528997Y189103D01*
D02*
G37*
G36*
X393961Y193000D02*
X393039D01*
X392149Y192762D01*
X391351Y192301D01*
X390699Y191649D01*
X390238Y190851D01*
X390000Y189961D01*
Y189039D01*
X390238Y188149D01*
X390699Y187351D01*
X391351Y186699D01*
X392149Y186239D01*
X393039Y186000D01*
X393961D01*
X394851Y186239D01*
X395649Y186699D01*
X396301Y187351D01*
X396761Y188149D01*
X397000Y189039D01*
Y189961D01*
X396761Y190851D01*
X396301Y191649D01*
X395649Y192301D01*
X394851Y192762D01*
X393961Y193000D01*
D02*
G37*
G36*
X450461Y192500D02*
X449539D01*
X448649Y192262D01*
X447851Y191801D01*
X447199Y191149D01*
X446738Y190351D01*
X446500Y189461D01*
Y188539D01*
X446738Y187649D01*
X447199Y186851D01*
X447851Y186199D01*
X448649Y185739D01*
X449539Y185500D01*
X450461D01*
X451351Y185739D01*
X452149Y186199D01*
X452801Y186851D01*
X453262Y187649D01*
X453500Y188539D01*
Y189461D01*
X453262Y190351D01*
X452801Y191149D01*
X452149Y191801D01*
X451351Y192262D01*
X450461Y192500D01*
D02*
G37*
G36*
X298497Y382500D02*
X297503D01*
X296584Y382119D01*
X295881Y381416D01*
X295500Y380497D01*
Y379503D01*
X295881Y378584D01*
X296584Y377881D01*
X296899Y377750D01*
Y377250D01*
X296584Y377119D01*
X295881Y376416D01*
X295500Y375497D01*
Y374503D01*
X295881Y373584D01*
X296584Y372881D01*
X296899Y372750D01*
Y372250D01*
X296584Y372119D01*
X295881Y371416D01*
X295500Y370497D01*
Y369503D01*
X295881Y368584D01*
X296584Y367881D01*
X296899Y367750D01*
Y367250D01*
X296584Y367119D01*
X295881Y366416D01*
X295500Y365497D01*
Y364503D01*
X295881Y363584D01*
X296584Y362881D01*
X296899Y362750D01*
Y362250D01*
X296584Y362119D01*
X295881Y361416D01*
X295500Y360497D01*
Y359503D01*
X295881Y358584D01*
X296584Y357881D01*
X296899Y357750D01*
Y357250D01*
X296584Y357119D01*
X295881Y356416D01*
X295500Y355497D01*
Y354503D01*
X295881Y353584D01*
X296584Y352881D01*
X296899Y352750D01*
Y352250D01*
X296584Y352119D01*
X295881Y351416D01*
X295500Y350497D01*
Y349503D01*
X295881Y348584D01*
X296584Y347881D01*
X296899Y347750D01*
Y347250D01*
X296584Y347119D01*
X295881Y346416D01*
X295500Y345497D01*
Y344503D01*
X295881Y343584D01*
X296584Y342881D01*
X296899Y342750D01*
Y342250D01*
X296584Y342119D01*
X295881Y341416D01*
X295500Y340497D01*
Y339503D01*
X295881Y338584D01*
X296584Y337881D01*
X296931Y337737D01*
Y337196D01*
X296586Y337053D01*
X295883Y336350D01*
X295502Y335431D01*
Y334436D01*
X295883Y333518D01*
X296586Y332814D01*
X296901Y332684D01*
Y332184D01*
X296586Y332053D01*
X295883Y331350D01*
X295502Y330431D01*
Y329436D01*
X295883Y328518D01*
X296586Y327814D01*
X296901Y327684D01*
Y327184D01*
X296586Y327053D01*
X295883Y326350D01*
X295502Y325431D01*
Y324436D01*
X295883Y323517D01*
X296586Y322814D01*
X296901Y322684D01*
Y322184D01*
X296586Y322053D01*
X295883Y321350D01*
X295502Y320431D01*
Y319436D01*
X295883Y318517D01*
X296586Y317814D01*
X296901Y317684D01*
Y317184D01*
X296586Y317053D01*
X295883Y316350D01*
X295502Y315431D01*
Y314436D01*
X295883Y313517D01*
X296586Y312814D01*
X296901Y312684D01*
Y312184D01*
X296586Y312053D01*
X295883Y311350D01*
X295502Y310431D01*
Y309436D01*
X295883Y308518D01*
X296586Y307814D01*
X296901Y307684D01*
Y307184D01*
X296586Y307053D01*
X295883Y306350D01*
X295502Y305431D01*
Y304436D01*
X295883Y303518D01*
X296586Y302814D01*
X296901Y302684D01*
Y302184D01*
X296586Y302053D01*
X295883Y301350D01*
X295502Y300431D01*
Y299436D01*
X295883Y298517D01*
X296586Y297814D01*
X296901Y297684D01*
Y297184D01*
X296586Y297053D01*
X295883Y296350D01*
X295502Y295431D01*
Y294436D01*
X295883Y293517D01*
X296586Y292814D01*
X296820Y292717D01*
Y292217D01*
X296584Y292119D01*
X295881Y291416D01*
X295500Y290497D01*
Y289503D01*
X295881Y288584D01*
X296584Y287881D01*
X296899Y287750D01*
Y287250D01*
X296584Y287119D01*
X295881Y286416D01*
X295500Y285497D01*
Y284503D01*
X295881Y283584D01*
X296584Y282881D01*
X296899Y282750D01*
Y282250D01*
X296584Y282119D01*
X295881Y281416D01*
X295500Y280497D01*
Y279503D01*
X295881Y278584D01*
X296584Y277881D01*
X296899Y277750D01*
Y277250D01*
X296584Y277119D01*
X295881Y276416D01*
X295500Y275497D01*
Y274503D01*
X295881Y273584D01*
X296584Y272881D01*
X296899Y272750D01*
Y272250D01*
X296584Y272119D01*
X295881Y271416D01*
X295500Y270497D01*
Y269503D01*
X295881Y268584D01*
X296584Y267881D01*
X296899Y267750D01*
Y267250D01*
X296584Y267119D01*
X295881Y266416D01*
X295500Y265497D01*
Y264503D01*
X295881Y263584D01*
X296584Y262881D01*
X296899Y262750D01*
Y262250D01*
X296584Y262119D01*
X295881Y261416D01*
X295500Y260497D01*
Y259503D01*
X295881Y258584D01*
X296584Y257881D01*
X296899Y257750D01*
Y257250D01*
X296584Y257119D01*
X295881Y256416D01*
X295500Y255497D01*
Y254503D01*
X295881Y253584D01*
X296584Y252881D01*
X296899Y252750D01*
Y252250D01*
X296584Y252119D01*
X295881Y251416D01*
X295500Y250497D01*
Y249503D01*
X295881Y248584D01*
X296388Y248077D01*
X296528Y247750D01*
X296388Y247423D01*
X295881Y246916D01*
X295500Y245997D01*
Y245003D01*
X295881Y244084D01*
X296584Y243381D01*
X296899Y243250D01*
Y242750D01*
X296584Y242619D01*
X295881Y241916D01*
X295500Y240997D01*
Y240003D01*
X295881Y239084D01*
X296584Y238381D01*
X296899Y238250D01*
Y237750D01*
X296584Y237619D01*
X295881Y236916D01*
X295500Y235997D01*
Y235003D01*
X295881Y234084D01*
X296584Y233381D01*
X296899Y233250D01*
Y232750D01*
X296584Y232619D01*
X295881Y231916D01*
X295500Y230997D01*
Y230003D01*
X295881Y229084D01*
X296584Y228381D01*
X296899Y228250D01*
Y227750D01*
X296584Y227619D01*
X295881Y226916D01*
X295500Y225997D01*
Y225003D01*
X295881Y224084D01*
X296584Y223381D01*
X296899Y223250D01*
Y222750D01*
X296584Y222619D01*
X295881Y221916D01*
X295500Y220997D01*
Y220003D01*
X295881Y219084D01*
X296584Y218381D01*
X296899Y218250D01*
Y217750D01*
X296584Y217619D01*
X295881Y216916D01*
X295500Y215997D01*
Y215003D01*
X295881Y214084D01*
X296584Y213381D01*
X296899Y213250D01*
Y212750D01*
X296584Y212619D01*
X295881Y211916D01*
X295500Y210997D01*
Y210003D01*
X295881Y209084D01*
X296584Y208381D01*
X296899Y208250D01*
Y207750D01*
X296584Y207619D01*
X295881Y206916D01*
X295500Y205997D01*
Y205003D01*
X295881Y204084D01*
X296584Y203381D01*
X296899Y203250D01*
Y202750D01*
X296584Y202619D01*
X295881Y201916D01*
X295500Y200997D01*
Y200003D01*
X295881Y199084D01*
X296584Y198381D01*
X296899Y198250D01*
Y197750D01*
X296584Y197619D01*
X295881Y196916D01*
X295500Y195997D01*
Y195003D01*
X295881Y194084D01*
X296584Y193381D01*
X296899Y193250D01*
Y192750D01*
X296584Y192619D01*
X295881Y191916D01*
X295500Y190997D01*
Y190003D01*
X295881Y189084D01*
X296584Y188381D01*
X296899Y188250D01*
Y187750D01*
X296584Y187619D01*
X295881Y186916D01*
X295500Y185997D01*
Y185003D01*
X295881Y184084D01*
X296584Y183381D01*
X296899Y183250D01*
Y182750D01*
X296584Y182619D01*
X295881Y181916D01*
X295500Y180997D01*
Y180003D01*
X295881Y179084D01*
X296584Y178381D01*
X296899Y178250D01*
Y177750D01*
X296584Y177619D01*
X295881Y176916D01*
X295500Y175997D01*
Y175003D01*
X295881Y174084D01*
X296584Y173381D01*
X296899Y173250D01*
Y172750D01*
X296584Y172619D01*
X295881Y171916D01*
X295500Y170997D01*
Y170003D01*
X295881Y169084D01*
X296584Y168381D01*
X296899Y168250D01*
Y167750D01*
X296584Y167619D01*
X295881Y166916D01*
X295500Y165997D01*
Y165003D01*
X295881Y164084D01*
X296584Y163381D01*
X296899Y163250D01*
Y162750D01*
X296584Y162619D01*
X295881Y161916D01*
X295500Y160997D01*
Y160003D01*
X295881Y159084D01*
X296584Y158381D01*
X297503Y158000D01*
X298497D01*
X299416Y158381D01*
X300119Y159084D01*
X300500Y160003D01*
Y160997D01*
X300119Y161916D01*
X299416Y162619D01*
X299101Y162750D01*
Y163250D01*
X299416Y163381D01*
X300119Y164084D01*
X300500Y165003D01*
Y165997D01*
X300119Y166916D01*
X299416Y167619D01*
X299101Y167750D01*
Y168250D01*
X299416Y168381D01*
X300119Y169084D01*
X300500Y170003D01*
Y170997D01*
X300119Y171916D01*
X299416Y172619D01*
X299101Y172750D01*
Y173250D01*
X299416Y173381D01*
X300119Y174084D01*
X300500Y175003D01*
Y175997D01*
X300119Y176916D01*
X299416Y177619D01*
X299101Y177750D01*
Y178250D01*
X299416Y178381D01*
X300119Y179084D01*
X300500Y180003D01*
Y180997D01*
X300119Y181916D01*
X299416Y182619D01*
X299101Y182750D01*
Y183250D01*
X299416Y183381D01*
X300119Y184084D01*
X300500Y185003D01*
Y185997D01*
X300119Y186916D01*
X299416Y187619D01*
X299101Y187750D01*
Y188250D01*
X299416Y188381D01*
X300119Y189084D01*
X300500Y190003D01*
Y190997D01*
X300119Y191916D01*
X299416Y192619D01*
X299101Y192750D01*
Y193250D01*
X299416Y193381D01*
X300119Y194084D01*
X300500Y195003D01*
Y195997D01*
X300119Y196916D01*
X299416Y197619D01*
X299101Y197750D01*
Y198250D01*
X299416Y198381D01*
X300119Y199084D01*
X300500Y200003D01*
Y200997D01*
X300119Y201916D01*
X299416Y202619D01*
X299101Y202750D01*
Y203250D01*
X299416Y203381D01*
X300119Y204084D01*
X300500Y205003D01*
Y205997D01*
X300119Y206916D01*
X299416Y207619D01*
X299101Y207750D01*
Y208250D01*
X299416Y208381D01*
X300119Y209084D01*
X300500Y210003D01*
Y210997D01*
X300119Y211916D01*
X299416Y212619D01*
X299101Y212750D01*
Y213250D01*
X299416Y213381D01*
X300119Y214084D01*
X300500Y215003D01*
Y215997D01*
X300119Y216916D01*
X299416Y217619D01*
X299101Y217750D01*
Y218250D01*
X299416Y218381D01*
X300119Y219084D01*
X300500Y220003D01*
Y220997D01*
X300119Y221916D01*
X299416Y222619D01*
X299101Y222750D01*
Y223250D01*
X299416Y223381D01*
X300119Y224084D01*
X300500Y225003D01*
Y225997D01*
X300119Y226916D01*
X299416Y227619D01*
X299101Y227750D01*
Y228250D01*
X299416Y228381D01*
X300119Y229084D01*
X300500Y230003D01*
Y230997D01*
X300119Y231916D01*
X299416Y232619D01*
X299101Y232750D01*
Y233250D01*
X299416Y233381D01*
X300119Y234084D01*
X300500Y235003D01*
Y235997D01*
X300119Y236916D01*
X299416Y237619D01*
X299101Y237750D01*
Y238250D01*
X299416Y238381D01*
X300119Y239084D01*
X300500Y240003D01*
Y240997D01*
X300119Y241916D01*
X299416Y242619D01*
X299101Y242750D01*
Y243250D01*
X299416Y243381D01*
X300119Y244084D01*
X300500Y245003D01*
Y245997D01*
X300119Y246916D01*
X299612Y247423D01*
X299472Y247750D01*
X299612Y248077D01*
X300119Y248584D01*
X300500Y249503D01*
Y250497D01*
X300119Y251416D01*
X299416Y252119D01*
X299101Y252250D01*
Y252750D01*
X299416Y252881D01*
X300119Y253584D01*
X300500Y254503D01*
Y255497D01*
X300119Y256416D01*
X299416Y257119D01*
X299101Y257250D01*
Y257750D01*
X299416Y257881D01*
X300119Y258584D01*
X300500Y259503D01*
Y260497D01*
X300119Y261416D01*
X299416Y262119D01*
X299101Y262250D01*
Y262750D01*
X299416Y262881D01*
X300119Y263584D01*
X300500Y264503D01*
Y265497D01*
X300119Y266416D01*
X299416Y267119D01*
X299101Y267250D01*
Y267750D01*
X299416Y267881D01*
X300119Y268584D01*
X300500Y269503D01*
Y270497D01*
X300119Y271416D01*
X299416Y272119D01*
X299101Y272250D01*
Y272750D01*
X299416Y272881D01*
X300119Y273584D01*
X300500Y274503D01*
Y275497D01*
X300119Y276416D01*
X299416Y277119D01*
X299101Y277250D01*
Y277750D01*
X299416Y277881D01*
X300119Y278584D01*
X300500Y279503D01*
Y280497D01*
X300119Y281416D01*
X299416Y282119D01*
X299101Y282250D01*
Y282750D01*
X299416Y282881D01*
X300119Y283584D01*
X300500Y284503D01*
Y285497D01*
X300119Y286416D01*
X299416Y287119D01*
X299101Y287250D01*
Y287750D01*
X299416Y287881D01*
X300119Y288584D01*
X300500Y289503D01*
Y290497D01*
X300119Y291416D01*
X299416Y292119D01*
X299182Y292216D01*
Y292716D01*
X299418Y292814D01*
X300121Y293517D01*
X300502Y294436D01*
Y295431D01*
X300121Y296350D01*
X299418Y297053D01*
X299103Y297184D01*
Y297684D01*
X299418Y297814D01*
X300121Y298517D01*
X300502Y299436D01*
Y300431D01*
X300121Y301350D01*
X299418Y302053D01*
X299103Y302184D01*
Y302684D01*
X299418Y302814D01*
X300121Y303518D01*
X300502Y304436D01*
Y305431D01*
X300121Y306350D01*
X299418Y307053D01*
X299103Y307184D01*
Y307684D01*
X299418Y307814D01*
X300121Y308518D01*
X300502Y309436D01*
Y310431D01*
X300121Y311350D01*
X299418Y312053D01*
X299103Y312184D01*
Y312684D01*
X299418Y312814D01*
X300121Y313517D01*
X300502Y314436D01*
Y315431D01*
X300121Y316350D01*
X299418Y317053D01*
X299103Y317184D01*
Y317684D01*
X299418Y317814D01*
X300121Y318517D01*
X300502Y319436D01*
Y320431D01*
X300121Y321350D01*
X299418Y322053D01*
X299103Y322184D01*
Y322684D01*
X299418Y322814D01*
X300121Y323517D01*
X300502Y324436D01*
Y325431D01*
X300121Y326350D01*
X299418Y327053D01*
X299103Y327184D01*
Y327684D01*
X299418Y327814D01*
X300121Y328518D01*
X300502Y329436D01*
Y330431D01*
X300121Y331350D01*
X299418Y332053D01*
X299103Y332184D01*
Y332684D01*
X299418Y332814D01*
X300121Y333518D01*
X300502Y334436D01*
Y335431D01*
X300121Y336350D01*
X299418Y337053D01*
X299071Y337197D01*
Y337738D01*
X299416Y337881D01*
X300119Y338584D01*
X300500Y339503D01*
Y340497D01*
X300119Y341416D01*
X299416Y342119D01*
X299101Y342250D01*
Y342750D01*
X299416Y342881D01*
X300119Y343584D01*
X300500Y344503D01*
Y345497D01*
X300119Y346416D01*
X299416Y347119D01*
X299101Y347250D01*
Y347750D01*
X299416Y347881D01*
X300119Y348584D01*
X300500Y349503D01*
Y350497D01*
X300119Y351416D01*
X299416Y352119D01*
X299101Y352250D01*
Y352750D01*
X299416Y352881D01*
X300119Y353584D01*
X300500Y354503D01*
Y355497D01*
X300119Y356416D01*
X299416Y357119D01*
X299101Y357250D01*
Y357750D01*
X299416Y357881D01*
X300119Y358584D01*
X300500Y359503D01*
Y360497D01*
X300119Y361416D01*
X299416Y362119D01*
X299101Y362250D01*
Y362750D01*
X299416Y362881D01*
X300119Y363584D01*
X300500Y364503D01*
Y365497D01*
X300119Y366416D01*
X299416Y367119D01*
X299101Y367250D01*
Y367750D01*
X299416Y367881D01*
X300119Y368584D01*
X300500Y369503D01*
Y370497D01*
X300119Y371416D01*
X299416Y372119D01*
X299101Y372250D01*
Y372750D01*
X299416Y372881D01*
X300119Y373584D01*
X300500Y374503D01*
Y375497D01*
X300119Y376416D01*
X299416Y377119D01*
X299101Y377250D01*
Y377750D01*
X299416Y377881D01*
X300119Y378584D01*
X300500Y379503D01*
Y380497D01*
X300119Y381416D01*
X299416Y382119D01*
X298497Y382500D01*
D02*
G37*
G36*
X290997D02*
X290003D01*
X289084Y382119D01*
X288381Y381416D01*
X288000Y380497D01*
Y379503D01*
X288381Y378584D01*
X289084Y377881D01*
X289399Y377750D01*
Y377250D01*
X289084Y377119D01*
X288381Y376416D01*
X288000Y375497D01*
Y374503D01*
X288381Y373584D01*
X289084Y372881D01*
X289399Y372750D01*
Y372250D01*
X289084Y372119D01*
X288381Y371416D01*
X288000Y370497D01*
Y369503D01*
X288381Y368584D01*
X289084Y367881D01*
X289399Y367750D01*
Y367250D01*
X289084Y367119D01*
X288381Y366416D01*
X288000Y365497D01*
Y364503D01*
X288381Y363584D01*
X289084Y362881D01*
X289399Y362750D01*
Y362250D01*
X289084Y362119D01*
X288381Y361416D01*
X288000Y360497D01*
Y359503D01*
X288381Y358584D01*
X289084Y357881D01*
X289399Y357750D01*
Y357250D01*
X289084Y357119D01*
X288381Y356416D01*
X288000Y355497D01*
Y354503D01*
X288381Y353584D01*
X289084Y352881D01*
X289399Y352750D01*
Y352250D01*
X289084Y352119D01*
X288381Y351416D01*
X288000Y350497D01*
Y349503D01*
X288381Y348584D01*
X289084Y347881D01*
X289399Y347750D01*
Y347250D01*
X289084Y347119D01*
X288381Y346416D01*
X288000Y345497D01*
Y344503D01*
X288381Y343584D01*
X289084Y342881D01*
X289399Y342750D01*
Y342250D01*
X289084Y342119D01*
X288381Y341416D01*
X288000Y340497D01*
Y339503D01*
X288381Y338584D01*
X289084Y337881D01*
X289430Y337737D01*
Y337196D01*
X289086Y337053D01*
X288383Y336350D01*
X288002Y335431D01*
Y334436D01*
X288383Y333518D01*
X289086Y332814D01*
X289401Y332684D01*
Y332184D01*
X289086Y332053D01*
X288383Y331350D01*
X288002Y330431D01*
Y329436D01*
X288383Y328518D01*
X289086Y327814D01*
X289401Y327684D01*
Y327184D01*
X289086Y327053D01*
X288383Y326350D01*
X288002Y325431D01*
Y324436D01*
X288383Y323517D01*
X289086Y322814D01*
X289401Y322684D01*
Y322184D01*
X289086Y322053D01*
X288383Y321350D01*
X288002Y320431D01*
Y319436D01*
X288383Y318517D01*
X289086Y317814D01*
X289401Y317684D01*
Y317184D01*
X289086Y317053D01*
X288383Y316350D01*
X288002Y315431D01*
Y314436D01*
X288383Y313517D01*
X289086Y312814D01*
X289401Y312684D01*
Y312184D01*
X289086Y312053D01*
X288383Y311350D01*
X288002Y310431D01*
Y309436D01*
X288383Y308518D01*
X289086Y307814D01*
X289401Y307684D01*
Y307184D01*
X289086Y307053D01*
X288383Y306350D01*
X288002Y305431D01*
Y304436D01*
X288383Y303518D01*
X289086Y302814D01*
X289401Y302684D01*
Y302184D01*
X289086Y302053D01*
X288383Y301350D01*
X288002Y300431D01*
Y299436D01*
X288383Y298517D01*
X289086Y297814D01*
X289401Y297684D01*
Y297184D01*
X289086Y297053D01*
X288383Y296350D01*
X288002Y295431D01*
Y294436D01*
X288383Y293517D01*
X289086Y292814D01*
X289320Y292717D01*
Y292217D01*
X289084Y292119D01*
X288381Y291416D01*
X288000Y290497D01*
Y289503D01*
X288381Y288584D01*
X289084Y287881D01*
X289399Y287750D01*
Y287250D01*
X289084Y287119D01*
X288381Y286416D01*
X288000Y285497D01*
Y284503D01*
X288381Y283584D01*
X289084Y282881D01*
X289399Y282750D01*
Y282250D01*
X289084Y282119D01*
X288381Y281416D01*
X288000Y280497D01*
Y279503D01*
X288381Y278584D01*
X289084Y277881D01*
X289399Y277750D01*
Y277250D01*
X289084Y277119D01*
X288381Y276416D01*
X288000Y275497D01*
Y274503D01*
X288381Y273584D01*
X289084Y272881D01*
X289399Y272750D01*
Y272250D01*
X289084Y272119D01*
X288381Y271416D01*
X288000Y270497D01*
Y269503D01*
X288381Y268584D01*
X289084Y267881D01*
X289399Y267750D01*
Y267250D01*
X289084Y267119D01*
X288381Y266416D01*
X288000Y265497D01*
Y264503D01*
X288381Y263584D01*
X289084Y262881D01*
X289399Y262750D01*
Y262250D01*
X289084Y262119D01*
X288381Y261416D01*
X288000Y260497D01*
Y259503D01*
X288381Y258584D01*
X289084Y257881D01*
X289399Y257750D01*
Y257250D01*
X289084Y257119D01*
X288381Y256416D01*
X288000Y255497D01*
Y254503D01*
X288381Y253584D01*
X289084Y252881D01*
X289399Y252750D01*
Y252250D01*
X289084Y252119D01*
X288381Y251416D01*
X288000Y250497D01*
Y249503D01*
X288381Y248584D01*
X288888Y248077D01*
X289028Y247750D01*
X288888Y247423D01*
X288381Y246916D01*
X288000Y245997D01*
Y245003D01*
X288381Y244084D01*
X289084Y243381D01*
X289399Y243250D01*
Y242750D01*
X289084Y242619D01*
X288381Y241916D01*
X288000Y240997D01*
Y240003D01*
X288381Y239084D01*
X289084Y238381D01*
X289399Y238250D01*
Y237750D01*
X289084Y237619D01*
X288381Y236916D01*
X288000Y235997D01*
Y235003D01*
X288381Y234084D01*
X289084Y233381D01*
X289399Y233250D01*
Y232750D01*
X289084Y232619D01*
X288381Y231916D01*
X288000Y230997D01*
Y230003D01*
X288381Y229084D01*
X289084Y228381D01*
X289399Y228250D01*
Y227750D01*
X289084Y227619D01*
X288381Y226916D01*
X288000Y225997D01*
Y225003D01*
X288381Y224084D01*
X289084Y223381D01*
X289399Y223250D01*
Y222750D01*
X289084Y222619D01*
X288381Y221916D01*
X288000Y220997D01*
Y220003D01*
X288381Y219084D01*
X289084Y218381D01*
X289399Y218250D01*
Y217750D01*
X289084Y217619D01*
X288381Y216916D01*
X288000Y215997D01*
Y215003D01*
X288381Y214084D01*
X289084Y213381D01*
X289399Y213250D01*
Y212750D01*
X289084Y212619D01*
X288381Y211916D01*
X288000Y210997D01*
Y210003D01*
X288381Y209084D01*
X289084Y208381D01*
X289399Y208250D01*
Y207750D01*
X289084Y207619D01*
X288381Y206916D01*
X288000Y205997D01*
Y205003D01*
X288381Y204084D01*
X289084Y203381D01*
X289399Y203250D01*
Y202750D01*
X289084Y202619D01*
X288381Y201916D01*
X288000Y200997D01*
Y200003D01*
X288381Y199084D01*
X289084Y198381D01*
X289399Y198250D01*
Y197750D01*
X289084Y197619D01*
X288381Y196916D01*
X288000Y195997D01*
Y195003D01*
X288381Y194084D01*
X289084Y193381D01*
X289399Y193250D01*
Y192750D01*
X289084Y192619D01*
X288381Y191916D01*
X288000Y190997D01*
Y190003D01*
X288381Y189084D01*
X289084Y188381D01*
X289399Y188250D01*
Y187750D01*
X289084Y187619D01*
X288381Y186916D01*
X288000Y185997D01*
Y185003D01*
X288381Y184084D01*
X289084Y183381D01*
X289399Y183250D01*
Y182750D01*
X289084Y182619D01*
X288381Y181916D01*
X288000Y180997D01*
Y180003D01*
X288381Y179084D01*
X289084Y178381D01*
X289399Y178250D01*
Y177750D01*
X289084Y177619D01*
X288381Y176916D01*
X288000Y175997D01*
Y175003D01*
X288381Y174084D01*
X289084Y173381D01*
X289399Y173250D01*
Y172750D01*
X289084Y172619D01*
X288381Y171916D01*
X288000Y170997D01*
Y170003D01*
X288381Y169084D01*
X289084Y168381D01*
X289399Y168250D01*
Y167750D01*
X289084Y167619D01*
X288381Y166916D01*
X288000Y165997D01*
Y165003D01*
X288381Y164084D01*
X289084Y163381D01*
X289399Y163250D01*
Y162750D01*
X289084Y162619D01*
X288381Y161916D01*
X288000Y160997D01*
Y160003D01*
X288381Y159084D01*
X289084Y158381D01*
X290003Y158000D01*
X290997D01*
X291916Y158381D01*
X292619Y159084D01*
X293000Y160003D01*
Y160997D01*
X292619Y161916D01*
X291916Y162619D01*
X291601Y162750D01*
Y163250D01*
X291916Y163381D01*
X292619Y164084D01*
X293000Y165003D01*
Y165997D01*
X292619Y166916D01*
X291916Y167619D01*
X291601Y167750D01*
Y168250D01*
X291916Y168381D01*
X292619Y169084D01*
X293000Y170003D01*
Y170997D01*
X292619Y171916D01*
X291916Y172619D01*
X291601Y172750D01*
Y173250D01*
X291916Y173381D01*
X292619Y174084D01*
X293000Y175003D01*
Y175997D01*
X292619Y176916D01*
X291916Y177619D01*
X291601Y177750D01*
Y178250D01*
X291916Y178381D01*
X292619Y179084D01*
X293000Y180003D01*
Y180997D01*
X292619Y181916D01*
X291916Y182619D01*
X291601Y182750D01*
Y183250D01*
X291916Y183381D01*
X292619Y184084D01*
X293000Y185003D01*
Y185997D01*
X292619Y186916D01*
X291916Y187619D01*
X291601Y187750D01*
Y188250D01*
X291916Y188381D01*
X292619Y189084D01*
X293000Y190003D01*
Y190997D01*
X292619Y191916D01*
X291916Y192619D01*
X291601Y192750D01*
Y193250D01*
X291916Y193381D01*
X292619Y194084D01*
X293000Y195003D01*
Y195997D01*
X292619Y196916D01*
X291916Y197619D01*
X291601Y197750D01*
Y198250D01*
X291916Y198381D01*
X292619Y199084D01*
X293000Y200003D01*
Y200997D01*
X292619Y201916D01*
X291916Y202619D01*
X291601Y202750D01*
Y203250D01*
X291916Y203381D01*
X292619Y204084D01*
X293000Y205003D01*
Y205997D01*
X292619Y206916D01*
X291916Y207619D01*
X291601Y207750D01*
Y208250D01*
X291916Y208381D01*
X292619Y209084D01*
X293000Y210003D01*
Y210997D01*
X292619Y211916D01*
X291916Y212619D01*
X291601Y212750D01*
Y213250D01*
X291916Y213381D01*
X292619Y214084D01*
X293000Y215003D01*
Y215997D01*
X292619Y216916D01*
X291916Y217619D01*
X291601Y217750D01*
Y218250D01*
X291916Y218381D01*
X292619Y219084D01*
X293000Y220003D01*
Y220997D01*
X292619Y221916D01*
X291916Y222619D01*
X291601Y222750D01*
Y223250D01*
X291916Y223381D01*
X292619Y224084D01*
X293000Y225003D01*
Y225997D01*
X292619Y226916D01*
X291916Y227619D01*
X291601Y227750D01*
Y228250D01*
X291916Y228381D01*
X292619Y229084D01*
X293000Y230003D01*
Y230997D01*
X292619Y231916D01*
X291916Y232619D01*
X291601Y232750D01*
Y233250D01*
X291916Y233381D01*
X292619Y234084D01*
X293000Y235003D01*
Y235997D01*
X292619Y236916D01*
X291916Y237619D01*
X291601Y237750D01*
Y238250D01*
X291916Y238381D01*
X292619Y239084D01*
X293000Y240003D01*
Y240997D01*
X292619Y241916D01*
X291916Y242619D01*
X291601Y242750D01*
Y243250D01*
X291916Y243381D01*
X292619Y244084D01*
X293000Y245003D01*
Y245997D01*
X292619Y246916D01*
X292112Y247423D01*
X291972Y247750D01*
X292112Y248077D01*
X292619Y248584D01*
X293000Y249503D01*
Y250497D01*
X292619Y251416D01*
X291916Y252119D01*
X291601Y252250D01*
Y252750D01*
X291916Y252881D01*
X292619Y253584D01*
X293000Y254503D01*
Y255497D01*
X292619Y256416D01*
X291916Y257119D01*
X291601Y257250D01*
Y257750D01*
X291916Y257881D01*
X292619Y258584D01*
X293000Y259503D01*
Y260497D01*
X292619Y261416D01*
X291916Y262119D01*
X291601Y262250D01*
Y262750D01*
X291916Y262881D01*
X292619Y263584D01*
X293000Y264503D01*
Y265497D01*
X292619Y266416D01*
X291916Y267119D01*
X291601Y267250D01*
Y267750D01*
X291916Y267881D01*
X292619Y268584D01*
X293000Y269503D01*
Y270497D01*
X292619Y271416D01*
X291916Y272119D01*
X291601Y272250D01*
Y272750D01*
X291916Y272881D01*
X292619Y273584D01*
X293000Y274503D01*
Y275497D01*
X292619Y276416D01*
X291916Y277119D01*
X291601Y277250D01*
Y277750D01*
X291916Y277881D01*
X292619Y278584D01*
X293000Y279503D01*
Y280497D01*
X292619Y281416D01*
X291916Y282119D01*
X291601Y282250D01*
Y282750D01*
X291916Y282881D01*
X292619Y283584D01*
X293000Y284503D01*
Y285497D01*
X292619Y286416D01*
X291916Y287119D01*
X291601Y287250D01*
Y287750D01*
X291916Y287881D01*
X292619Y288584D01*
X293000Y289503D01*
Y290497D01*
X292619Y291416D01*
X291916Y292119D01*
X291682Y292216D01*
Y292716D01*
X291918Y292814D01*
X292621Y293517D01*
X293002Y294436D01*
Y295431D01*
X292621Y296350D01*
X291918Y297053D01*
X291603Y297184D01*
Y297684D01*
X291918Y297814D01*
X292621Y298517D01*
X293002Y299436D01*
Y300431D01*
X292621Y301350D01*
X291918Y302053D01*
X291603Y302184D01*
Y302684D01*
X291918Y302814D01*
X292621Y303518D01*
X293002Y304436D01*
Y305431D01*
X292621Y306350D01*
X291918Y307053D01*
X291603Y307184D01*
Y307684D01*
X291918Y307814D01*
X292621Y308518D01*
X293002Y309436D01*
Y310431D01*
X292621Y311350D01*
X291918Y312053D01*
X291603Y312184D01*
Y312684D01*
X291918Y312814D01*
X292621Y313517D01*
X293002Y314436D01*
Y315431D01*
X292621Y316350D01*
X291918Y317053D01*
X291603Y317184D01*
Y317684D01*
X291918Y317814D01*
X292621Y318517D01*
X293002Y319436D01*
Y320431D01*
X292621Y321350D01*
X291918Y322053D01*
X291603Y322184D01*
Y322684D01*
X291918Y322814D01*
X292621Y323517D01*
X293002Y324436D01*
Y325431D01*
X292621Y326350D01*
X291918Y327053D01*
X291603Y327184D01*
Y327684D01*
X291918Y327814D01*
X292621Y328518D01*
X293002Y329436D01*
Y330431D01*
X292621Y331350D01*
X291918Y332053D01*
X291603Y332184D01*
Y332684D01*
X291918Y332814D01*
X292621Y333518D01*
X293002Y334436D01*
Y335431D01*
X292621Y336350D01*
X291918Y337053D01*
X291571Y337197D01*
Y337738D01*
X291916Y337881D01*
X292619Y338584D01*
X293000Y339503D01*
Y340497D01*
X292619Y341416D01*
X291916Y342119D01*
X291601Y342250D01*
Y342750D01*
X291916Y342881D01*
X292619Y343584D01*
X293000Y344503D01*
Y345497D01*
X292619Y346416D01*
X291916Y347119D01*
X291601Y347250D01*
Y347750D01*
X291916Y347881D01*
X292619Y348584D01*
X293000Y349503D01*
Y350497D01*
X292619Y351416D01*
X291916Y352119D01*
X291601Y352250D01*
Y352750D01*
X291916Y352881D01*
X292619Y353584D01*
X293000Y354503D01*
Y355497D01*
X292619Y356416D01*
X291916Y357119D01*
X291601Y357250D01*
Y357750D01*
X291916Y357881D01*
X292619Y358584D01*
X293000Y359503D01*
Y360497D01*
X292619Y361416D01*
X291916Y362119D01*
X291601Y362250D01*
Y362750D01*
X291916Y362881D01*
X292619Y363584D01*
X293000Y364503D01*
Y365497D01*
X292619Y366416D01*
X291916Y367119D01*
X291601Y367250D01*
Y367750D01*
X291916Y367881D01*
X292619Y368584D01*
X293000Y369503D01*
Y370497D01*
X292619Y371416D01*
X291916Y372119D01*
X291601Y372250D01*
Y372750D01*
X291916Y372881D01*
X292619Y373584D01*
X293000Y374503D01*
Y375497D01*
X292619Y376416D01*
X291916Y377119D01*
X291601Y377250D01*
Y377750D01*
X291916Y377881D01*
X292619Y378584D01*
X293000Y379503D01*
Y380497D01*
X292619Y381416D01*
X291916Y382119D01*
X290997Y382500D01*
D02*
G37*
G36*
X283497D02*
X282503D01*
X281584Y382119D01*
X280881Y381416D01*
X280500Y380497D01*
Y379503D01*
X280881Y378584D01*
X281584Y377881D01*
X281899Y377750D01*
Y377250D01*
X281584Y377119D01*
X280881Y376416D01*
X280500Y375497D01*
Y374503D01*
X280881Y373584D01*
X281584Y372881D01*
X281899Y372750D01*
Y372250D01*
X281584Y372119D01*
X280881Y371416D01*
X280500Y370497D01*
Y369503D01*
X280881Y368584D01*
X281584Y367881D01*
X281899Y367750D01*
Y367250D01*
X281584Y367119D01*
X280881Y366416D01*
X280500Y365497D01*
Y364503D01*
X280881Y363584D01*
X281584Y362881D01*
X281899Y362750D01*
Y362250D01*
X281584Y362119D01*
X280881Y361416D01*
X280500Y360497D01*
Y359503D01*
X280881Y358584D01*
X281584Y357881D01*
X281899Y357750D01*
Y357250D01*
X281584Y357119D01*
X280881Y356416D01*
X280500Y355497D01*
Y354503D01*
X280881Y353584D01*
X281584Y352881D01*
X281899Y352750D01*
Y352250D01*
X281584Y352119D01*
X280881Y351416D01*
X280500Y350497D01*
Y349503D01*
X280881Y348584D01*
X281584Y347881D01*
X281899Y347750D01*
Y347250D01*
X281584Y347119D01*
X280881Y346416D01*
X280500Y345497D01*
Y344503D01*
X280881Y343584D01*
X281584Y342881D01*
X281899Y342750D01*
Y342250D01*
X281584Y342119D01*
X280881Y341416D01*
X280500Y340497D01*
Y339503D01*
X280881Y338584D01*
X281584Y337881D01*
X281930Y337737D01*
Y337196D01*
X281586Y337053D01*
X280883Y336350D01*
X280502Y335431D01*
Y334436D01*
X280883Y333518D01*
X281586Y332814D01*
X281901Y332684D01*
Y332184D01*
X281586Y332053D01*
X280883Y331350D01*
X280502Y330431D01*
Y329436D01*
X280883Y328518D01*
X281586Y327814D01*
X281901Y327684D01*
Y327184D01*
X281586Y327053D01*
X280883Y326350D01*
X280502Y325431D01*
Y324436D01*
X280883Y323517D01*
X281586Y322814D01*
X281901Y322684D01*
Y322184D01*
X281586Y322053D01*
X280883Y321350D01*
X280502Y320431D01*
Y319436D01*
X280883Y318517D01*
X281586Y317814D01*
X281901Y317684D01*
Y317184D01*
X281586Y317053D01*
X280883Y316350D01*
X280502Y315431D01*
Y314436D01*
X280883Y313517D01*
X281586Y312814D01*
X281901Y312684D01*
Y312184D01*
X281586Y312053D01*
X280883Y311350D01*
X280502Y310431D01*
Y309436D01*
X280883Y308518D01*
X281586Y307814D01*
X281901Y307684D01*
Y307184D01*
X281586Y307053D01*
X280883Y306350D01*
X280502Y305431D01*
Y304436D01*
X280883Y303518D01*
X281586Y302814D01*
X281901Y302684D01*
Y302184D01*
X281586Y302053D01*
X280883Y301350D01*
X280502Y300431D01*
Y299436D01*
X280883Y298517D01*
X281586Y297814D01*
X281901Y297684D01*
Y297184D01*
X281586Y297053D01*
X280883Y296350D01*
X280502Y295431D01*
Y294436D01*
X280883Y293517D01*
X281586Y292814D01*
X281820Y292717D01*
Y292217D01*
X281584Y292119D01*
X280881Y291416D01*
X280500Y290497D01*
Y289503D01*
X280881Y288584D01*
X281584Y287881D01*
X281899Y287750D01*
Y287250D01*
X281584Y287119D01*
X280881Y286416D01*
X280500Y285497D01*
Y284503D01*
X280881Y283584D01*
X281584Y282881D01*
X281899Y282750D01*
Y282250D01*
X281584Y282119D01*
X280881Y281416D01*
X280500Y280497D01*
Y279503D01*
X280881Y278584D01*
X281584Y277881D01*
X281899Y277750D01*
Y277250D01*
X281584Y277119D01*
X280881Y276416D01*
X280500Y275497D01*
Y274503D01*
X280881Y273584D01*
X281584Y272881D01*
X281899Y272750D01*
Y272250D01*
X281584Y272119D01*
X280881Y271416D01*
X280500Y270497D01*
Y269503D01*
X280881Y268584D01*
X281584Y267881D01*
X281899Y267750D01*
Y267250D01*
X281584Y267119D01*
X280881Y266416D01*
X280500Y265497D01*
Y264503D01*
X280881Y263584D01*
X281584Y262881D01*
X281899Y262750D01*
Y262250D01*
X281584Y262119D01*
X280881Y261416D01*
X280500Y260497D01*
Y259503D01*
X280881Y258584D01*
X281584Y257881D01*
X281899Y257750D01*
Y257250D01*
X281584Y257119D01*
X280881Y256416D01*
X280500Y255497D01*
Y254503D01*
X280881Y253584D01*
X281584Y252881D01*
X281899Y252750D01*
Y252250D01*
X281584Y252119D01*
X280881Y251416D01*
X280500Y250497D01*
Y249503D01*
X280881Y248584D01*
X281388Y248077D01*
X281528Y247750D01*
X281388Y247423D01*
X280881Y246916D01*
X280500Y245997D01*
Y245003D01*
X280881Y244084D01*
X281584Y243381D01*
X281899Y243250D01*
Y242750D01*
X281584Y242619D01*
X280881Y241916D01*
X280500Y240997D01*
Y240003D01*
X280881Y239084D01*
X281584Y238381D01*
X281899Y238250D01*
Y237750D01*
X281584Y237619D01*
X280881Y236916D01*
X280500Y235997D01*
Y235003D01*
X280881Y234084D01*
X281584Y233381D01*
X281899Y233250D01*
Y232750D01*
X281584Y232619D01*
X280881Y231916D01*
X280500Y230997D01*
Y230003D01*
X280881Y229084D01*
X281584Y228381D01*
X281899Y228250D01*
Y227750D01*
X281584Y227619D01*
X280881Y226916D01*
X280500Y225997D01*
Y225003D01*
X280881Y224084D01*
X281584Y223381D01*
X281899Y223250D01*
Y222750D01*
X281584Y222619D01*
X280881Y221916D01*
X280500Y220997D01*
Y220003D01*
X280881Y219084D01*
X281584Y218381D01*
X281899Y218250D01*
Y217750D01*
X281584Y217619D01*
X280881Y216916D01*
X280500Y215997D01*
Y215003D01*
X280881Y214084D01*
X281584Y213381D01*
X281899Y213250D01*
Y212750D01*
X281584Y212619D01*
X280881Y211916D01*
X280500Y210997D01*
Y210003D01*
X280881Y209084D01*
X281584Y208381D01*
X281899Y208250D01*
Y207750D01*
X281584Y207619D01*
X280881Y206916D01*
X280500Y205997D01*
Y205003D01*
X280881Y204084D01*
X281584Y203381D01*
X281899Y203250D01*
Y202750D01*
X281584Y202619D01*
X280881Y201916D01*
X280500Y200997D01*
Y200003D01*
X280881Y199084D01*
X281584Y198381D01*
X281899Y198250D01*
Y197750D01*
X281584Y197619D01*
X280881Y196916D01*
X280500Y195997D01*
Y195003D01*
X280881Y194084D01*
X281584Y193381D01*
X281899Y193250D01*
Y192750D01*
X281584Y192619D01*
X280881Y191916D01*
X280500Y190997D01*
Y190003D01*
X280881Y189084D01*
X281584Y188381D01*
X281899Y188250D01*
Y187750D01*
X281584Y187619D01*
X280881Y186916D01*
X280500Y185997D01*
Y185003D01*
X280881Y184084D01*
X281584Y183381D01*
X281899Y183250D01*
Y182750D01*
X281584Y182619D01*
X280881Y181916D01*
X280500Y180997D01*
Y180003D01*
X280881Y179084D01*
X281584Y178381D01*
X281899Y178250D01*
Y177750D01*
X281584Y177619D01*
X280881Y176916D01*
X280500Y175997D01*
Y175003D01*
X280881Y174084D01*
X281584Y173381D01*
X281899Y173250D01*
Y172750D01*
X281584Y172619D01*
X280881Y171916D01*
X280500Y170997D01*
Y170003D01*
X280881Y169084D01*
X281584Y168381D01*
X281899Y168250D01*
Y167750D01*
X281584Y167619D01*
X280881Y166916D01*
X280500Y165997D01*
Y165003D01*
X280881Y164084D01*
X281584Y163381D01*
X281899Y163250D01*
Y162750D01*
X281584Y162619D01*
X280881Y161916D01*
X280500Y160997D01*
Y160003D01*
X280881Y159084D01*
X281584Y158381D01*
X282503Y158000D01*
X283497D01*
X284416Y158381D01*
X285119Y159084D01*
X285500Y160003D01*
Y160997D01*
X285119Y161916D01*
X284416Y162619D01*
X284101Y162750D01*
Y163250D01*
X284416Y163381D01*
X285119Y164084D01*
X285500Y165003D01*
Y165997D01*
X285119Y166916D01*
X284416Y167619D01*
X284101Y167750D01*
Y168250D01*
X284416Y168381D01*
X285119Y169084D01*
X285500Y170003D01*
Y170997D01*
X285119Y171916D01*
X284416Y172619D01*
X284101Y172750D01*
Y173250D01*
X284416Y173381D01*
X285119Y174084D01*
X285500Y175003D01*
Y175997D01*
X285119Y176916D01*
X284416Y177619D01*
X284101Y177750D01*
Y178250D01*
X284416Y178381D01*
X285119Y179084D01*
X285500Y180003D01*
Y180997D01*
X285119Y181916D01*
X284416Y182619D01*
X284101Y182750D01*
Y183250D01*
X284416Y183381D01*
X285119Y184084D01*
X285500Y185003D01*
Y185997D01*
X285119Y186916D01*
X284416Y187619D01*
X284101Y187750D01*
Y188250D01*
X284416Y188381D01*
X285119Y189084D01*
X285500Y190003D01*
Y190997D01*
X285119Y191916D01*
X284416Y192619D01*
X284101Y192750D01*
Y193250D01*
X284416Y193381D01*
X285119Y194084D01*
X285500Y195003D01*
Y195997D01*
X285119Y196916D01*
X284416Y197619D01*
X284101Y197750D01*
Y198250D01*
X284416Y198381D01*
X285119Y199084D01*
X285500Y200003D01*
Y200997D01*
X285119Y201916D01*
X284416Y202619D01*
X284101Y202750D01*
Y203250D01*
X284416Y203381D01*
X285119Y204084D01*
X285500Y205003D01*
Y205997D01*
X285119Y206916D01*
X284416Y207619D01*
X284101Y207750D01*
Y208250D01*
X284416Y208381D01*
X285119Y209084D01*
X285500Y210003D01*
Y210997D01*
X285119Y211916D01*
X284416Y212619D01*
X284101Y212750D01*
Y213250D01*
X284416Y213381D01*
X285119Y214084D01*
X285500Y215003D01*
Y215997D01*
X285119Y216916D01*
X284416Y217619D01*
X284101Y217750D01*
Y218250D01*
X284416Y218381D01*
X285119Y219084D01*
X285500Y220003D01*
Y220997D01*
X285119Y221916D01*
X284416Y222619D01*
X284101Y222750D01*
Y223250D01*
X284416Y223381D01*
X285119Y224084D01*
X285500Y225003D01*
Y225997D01*
X285119Y226916D01*
X284416Y227619D01*
X284101Y227750D01*
Y228250D01*
X284416Y228381D01*
X285119Y229084D01*
X285500Y230003D01*
Y230997D01*
X285119Y231916D01*
X284416Y232619D01*
X284101Y232750D01*
Y233250D01*
X284416Y233381D01*
X285119Y234084D01*
X285500Y235003D01*
Y235997D01*
X285119Y236916D01*
X284416Y237619D01*
X284101Y237750D01*
Y238250D01*
X284416Y238381D01*
X285119Y239084D01*
X285500Y240003D01*
Y240997D01*
X285119Y241916D01*
X284416Y242619D01*
X284101Y242750D01*
Y243250D01*
X284416Y243381D01*
X285119Y244084D01*
X285500Y245003D01*
Y245997D01*
X285119Y246916D01*
X284612Y247423D01*
X284472Y247750D01*
X284612Y248077D01*
X285119Y248584D01*
X285500Y249503D01*
Y250497D01*
X285119Y251416D01*
X284416Y252119D01*
X284101Y252250D01*
Y252750D01*
X284416Y252881D01*
X285119Y253584D01*
X285500Y254503D01*
Y255497D01*
X285119Y256416D01*
X284416Y257119D01*
X284101Y257250D01*
Y257750D01*
X284416Y257881D01*
X285119Y258584D01*
X285500Y259503D01*
Y260497D01*
X285119Y261416D01*
X284416Y262119D01*
X284101Y262250D01*
Y262750D01*
X284416Y262881D01*
X285119Y263584D01*
X285500Y264503D01*
Y265497D01*
X285119Y266416D01*
X284416Y267119D01*
X284101Y267250D01*
Y267750D01*
X284416Y267881D01*
X285119Y268584D01*
X285500Y269503D01*
Y270497D01*
X285119Y271416D01*
X284416Y272119D01*
X284101Y272250D01*
Y272750D01*
X284416Y272881D01*
X285119Y273584D01*
X285500Y274503D01*
Y275497D01*
X285119Y276416D01*
X284416Y277119D01*
X284101Y277250D01*
Y277750D01*
X284416Y277881D01*
X285119Y278584D01*
X285500Y279503D01*
Y280497D01*
X285119Y281416D01*
X284416Y282119D01*
X284101Y282250D01*
Y282750D01*
X284416Y282881D01*
X285119Y283584D01*
X285500Y284503D01*
Y285497D01*
X285119Y286416D01*
X284416Y287119D01*
X284101Y287250D01*
Y287750D01*
X284416Y287881D01*
X285119Y288584D01*
X285500Y289503D01*
Y290497D01*
X285119Y291416D01*
X284416Y292119D01*
X284182Y292216D01*
Y292716D01*
X284418Y292814D01*
X285121Y293517D01*
X285502Y294436D01*
Y295431D01*
X285121Y296350D01*
X284418Y297053D01*
X284103Y297184D01*
Y297684D01*
X284418Y297814D01*
X285121Y298517D01*
X285502Y299436D01*
Y300431D01*
X285121Y301350D01*
X284418Y302053D01*
X284103Y302184D01*
Y302684D01*
X284418Y302814D01*
X285121Y303518D01*
X285502Y304436D01*
Y305431D01*
X285121Y306350D01*
X284418Y307053D01*
X284103Y307184D01*
Y307684D01*
X284418Y307814D01*
X285121Y308518D01*
X285502Y309436D01*
Y310431D01*
X285121Y311350D01*
X284418Y312053D01*
X284103Y312184D01*
Y312684D01*
X284418Y312814D01*
X285121Y313517D01*
X285502Y314436D01*
Y315431D01*
X285121Y316350D01*
X284418Y317053D01*
X284103Y317184D01*
Y317684D01*
X284418Y317814D01*
X285121Y318517D01*
X285502Y319436D01*
Y320431D01*
X285121Y321350D01*
X284418Y322053D01*
X284103Y322184D01*
Y322684D01*
X284418Y322814D01*
X285121Y323517D01*
X285502Y324436D01*
Y325431D01*
X285121Y326350D01*
X284418Y327053D01*
X284103Y327184D01*
Y327684D01*
X284418Y327814D01*
X285121Y328518D01*
X285502Y329436D01*
Y330431D01*
X285121Y331350D01*
X284418Y332053D01*
X284103Y332184D01*
Y332684D01*
X284418Y332814D01*
X285121Y333518D01*
X285502Y334436D01*
Y335431D01*
X285121Y336350D01*
X284418Y337053D01*
X284071Y337197D01*
Y337738D01*
X284416Y337881D01*
X285119Y338584D01*
X285500Y339503D01*
Y340497D01*
X285119Y341416D01*
X284416Y342119D01*
X284101Y342250D01*
Y342750D01*
X284416Y342881D01*
X285119Y343584D01*
X285500Y344503D01*
Y345497D01*
X285119Y346416D01*
X284416Y347119D01*
X284101Y347250D01*
Y347750D01*
X284416Y347881D01*
X285119Y348584D01*
X285500Y349503D01*
Y350497D01*
X285119Y351416D01*
X284416Y352119D01*
X284101Y352250D01*
Y352750D01*
X284416Y352881D01*
X285119Y353584D01*
X285500Y354503D01*
Y355497D01*
X285119Y356416D01*
X284416Y357119D01*
X284101Y357250D01*
Y357750D01*
X284416Y357881D01*
X285119Y358584D01*
X285500Y359503D01*
Y360497D01*
X285119Y361416D01*
X284416Y362119D01*
X284101Y362250D01*
Y362750D01*
X284416Y362881D01*
X285119Y363584D01*
X285500Y364503D01*
Y365497D01*
X285119Y366416D01*
X284416Y367119D01*
X284101Y367250D01*
Y367750D01*
X284416Y367881D01*
X285119Y368584D01*
X285500Y369503D01*
Y370497D01*
X285119Y371416D01*
X284416Y372119D01*
X284101Y372250D01*
Y372750D01*
X284416Y372881D01*
X285119Y373584D01*
X285500Y374503D01*
Y375497D01*
X285119Y376416D01*
X284416Y377119D01*
X284101Y377250D01*
Y377750D01*
X284416Y377881D01*
X285119Y378584D01*
X285500Y379503D01*
Y380497D01*
X285119Y381416D01*
X284416Y382119D01*
X283497Y382500D01*
D02*
G37*
G36*
X276497D02*
X275503D01*
X274584Y382119D01*
X273881Y381416D01*
X273500Y380497D01*
Y379503D01*
X273881Y378584D01*
X274584Y377881D01*
X274899Y377750D01*
Y377250D01*
X274584Y377119D01*
X273881Y376416D01*
X273500Y375497D01*
Y374503D01*
X273881Y373584D01*
X274584Y372881D01*
X274899Y372750D01*
Y372250D01*
X274584Y372119D01*
X273881Y371416D01*
X273500Y370497D01*
Y369503D01*
X273881Y368584D01*
X274584Y367881D01*
X274899Y367750D01*
Y367250D01*
X274584Y367119D01*
X273881Y366416D01*
X273500Y365497D01*
Y364503D01*
X273881Y363584D01*
X274584Y362881D01*
X274899Y362750D01*
Y362250D01*
X274584Y362119D01*
X273881Y361416D01*
X273500Y360497D01*
Y359503D01*
X273881Y358584D01*
X274584Y357881D01*
X274899Y357750D01*
Y357250D01*
X274584Y357119D01*
X273881Y356416D01*
X273500Y355497D01*
Y354503D01*
X273881Y353584D01*
X274584Y352881D01*
X274899Y352750D01*
Y352250D01*
X274584Y352119D01*
X273881Y351416D01*
X273500Y350497D01*
Y349503D01*
X273881Y348584D01*
X274584Y347881D01*
X274899Y347750D01*
Y347250D01*
X274584Y347119D01*
X273881Y346416D01*
X273500Y345497D01*
Y344503D01*
X273881Y343584D01*
X274584Y342881D01*
X274899Y342750D01*
Y342250D01*
X274584Y342119D01*
X273881Y341416D01*
X273500Y340497D01*
Y339503D01*
X273881Y338584D01*
X274584Y337881D01*
X274931Y337737D01*
Y337196D01*
X274586Y337053D01*
X273883Y336350D01*
X273502Y335431D01*
Y334436D01*
X273883Y333518D01*
X274586Y332814D01*
X274901Y332684D01*
Y332184D01*
X274586Y332053D01*
X273883Y331350D01*
X273502Y330431D01*
Y329436D01*
X273883Y328518D01*
X274586Y327814D01*
X274901Y327684D01*
Y327184D01*
X274586Y327053D01*
X273883Y326350D01*
X273502Y325431D01*
Y324436D01*
X273883Y323517D01*
X274586Y322814D01*
X274901Y322684D01*
Y322184D01*
X274586Y322053D01*
X273883Y321350D01*
X273502Y320431D01*
Y319436D01*
X273883Y318517D01*
X274586Y317814D01*
X274901Y317684D01*
Y317184D01*
X274586Y317053D01*
X273883Y316350D01*
X273502Y315431D01*
Y314436D01*
X273883Y313517D01*
X274586Y312814D01*
X274901Y312684D01*
Y312184D01*
X274586Y312053D01*
X273883Y311350D01*
X273502Y310431D01*
Y309436D01*
X273883Y308518D01*
X274586Y307814D01*
X274901Y307684D01*
Y307184D01*
X274586Y307053D01*
X273883Y306350D01*
X273502Y305431D01*
Y304436D01*
X273883Y303518D01*
X274586Y302814D01*
X274901Y302684D01*
Y302184D01*
X274586Y302053D01*
X273883Y301350D01*
X273502Y300431D01*
Y299436D01*
X273883Y298517D01*
X274586Y297814D01*
X274901Y297684D01*
Y297184D01*
X274586Y297053D01*
X273883Y296350D01*
X273502Y295431D01*
Y294436D01*
X273883Y293517D01*
X274586Y292814D01*
X274820Y292717D01*
Y292217D01*
X274584Y292119D01*
X273881Y291416D01*
X273500Y290497D01*
Y289503D01*
X273881Y288584D01*
X274584Y287881D01*
X274899Y287750D01*
Y287250D01*
X274584Y287119D01*
X273881Y286416D01*
X273500Y285497D01*
Y284503D01*
X273881Y283584D01*
X274584Y282881D01*
X274899Y282750D01*
Y282250D01*
X274584Y282119D01*
X273881Y281416D01*
X273500Y280497D01*
Y279503D01*
X273881Y278584D01*
X274584Y277881D01*
X274899Y277750D01*
Y277250D01*
X274584Y277119D01*
X273881Y276416D01*
X273500Y275497D01*
Y274503D01*
X273881Y273584D01*
X274584Y272881D01*
X274899Y272750D01*
Y272250D01*
X274584Y272119D01*
X273881Y271416D01*
X273500Y270497D01*
Y269503D01*
X273881Y268584D01*
X274584Y267881D01*
X274899Y267750D01*
Y267250D01*
X274584Y267119D01*
X273881Y266416D01*
X273500Y265497D01*
Y264503D01*
X273881Y263584D01*
X274584Y262881D01*
X274899Y262750D01*
Y262250D01*
X274584Y262119D01*
X273881Y261416D01*
X273500Y260497D01*
Y259503D01*
X273881Y258584D01*
X274584Y257881D01*
X274899Y257750D01*
Y257250D01*
X274584Y257119D01*
X273881Y256416D01*
X273500Y255497D01*
Y254503D01*
X273881Y253584D01*
X274584Y252881D01*
X274899Y252750D01*
Y252250D01*
X274584Y252119D01*
X273881Y251416D01*
X273500Y250497D01*
Y249503D01*
X273881Y248584D01*
X274388Y248077D01*
X274528Y247750D01*
X274388Y247423D01*
X273881Y246916D01*
X273500Y245997D01*
Y245003D01*
X273881Y244084D01*
X274584Y243381D01*
X274899Y243250D01*
Y242750D01*
X274584Y242619D01*
X273881Y241916D01*
X273500Y240997D01*
Y240003D01*
X273881Y239084D01*
X274584Y238381D01*
X274899Y238250D01*
Y237750D01*
X274584Y237619D01*
X273881Y236916D01*
X273500Y235997D01*
Y235003D01*
X273881Y234084D01*
X274584Y233381D01*
X274899Y233250D01*
Y232750D01*
X274584Y232619D01*
X273881Y231916D01*
X273500Y230997D01*
Y230003D01*
X273881Y229084D01*
X274584Y228381D01*
X274899Y228250D01*
Y227750D01*
X274584Y227619D01*
X273881Y226916D01*
X273500Y225997D01*
Y225003D01*
X273881Y224084D01*
X274584Y223381D01*
X274899Y223250D01*
Y222750D01*
X274584Y222619D01*
X273881Y221916D01*
X273500Y220997D01*
Y220003D01*
X273881Y219084D01*
X274584Y218381D01*
X274899Y218250D01*
Y217750D01*
X274584Y217619D01*
X273881Y216916D01*
X273500Y215997D01*
Y215003D01*
X273881Y214084D01*
X274584Y213381D01*
X274899Y213250D01*
Y212750D01*
X274584Y212619D01*
X273881Y211916D01*
X273500Y210997D01*
Y210003D01*
X273881Y209084D01*
X274584Y208381D01*
X274899Y208250D01*
Y207750D01*
X274584Y207619D01*
X273881Y206916D01*
X273500Y205997D01*
Y205003D01*
X273881Y204084D01*
X274584Y203381D01*
X274899Y203250D01*
Y202750D01*
X274584Y202619D01*
X273881Y201916D01*
X273500Y200997D01*
Y200003D01*
X273881Y199084D01*
X274584Y198381D01*
X274899Y198250D01*
Y197750D01*
X274584Y197619D01*
X273881Y196916D01*
X273500Y195997D01*
Y195003D01*
X273881Y194084D01*
X274584Y193381D01*
X274899Y193250D01*
Y192750D01*
X274584Y192619D01*
X273881Y191916D01*
X273500Y190997D01*
Y190003D01*
X273881Y189084D01*
X274584Y188381D01*
X274899Y188250D01*
Y187750D01*
X274584Y187619D01*
X273881Y186916D01*
X273500Y185997D01*
Y185003D01*
X273881Y184084D01*
X274584Y183381D01*
X274899Y183250D01*
Y182750D01*
X274584Y182619D01*
X273881Y181916D01*
X273500Y180997D01*
Y180003D01*
X273881Y179084D01*
X274584Y178381D01*
X274899Y178250D01*
Y177750D01*
X274584Y177619D01*
X273881Y176916D01*
X273500Y175997D01*
Y175003D01*
X273881Y174084D01*
X274584Y173381D01*
X274899Y173250D01*
Y172750D01*
X274584Y172619D01*
X273881Y171916D01*
X273500Y170997D01*
Y170003D01*
X273881Y169084D01*
X274584Y168381D01*
X274899Y168250D01*
Y167750D01*
X274584Y167619D01*
X273881Y166916D01*
X273500Y165997D01*
Y165003D01*
X273881Y164084D01*
X274584Y163381D01*
X274899Y163250D01*
Y162750D01*
X274584Y162619D01*
X273881Y161916D01*
X273500Y160997D01*
Y160003D01*
X273881Y159084D01*
X274584Y158381D01*
X275503Y158000D01*
X276497D01*
X277416Y158381D01*
X278119Y159084D01*
X278500Y160003D01*
Y160997D01*
X278119Y161916D01*
X277416Y162619D01*
X277101Y162750D01*
Y163250D01*
X277416Y163381D01*
X278119Y164084D01*
X278500Y165003D01*
Y165997D01*
X278119Y166916D01*
X277416Y167619D01*
X277101Y167750D01*
Y168250D01*
X277416Y168381D01*
X278119Y169084D01*
X278500Y170003D01*
Y170997D01*
X278119Y171916D01*
X277416Y172619D01*
X277101Y172750D01*
Y173250D01*
X277416Y173381D01*
X278119Y174084D01*
X278500Y175003D01*
Y175997D01*
X278119Y176916D01*
X277416Y177619D01*
X277101Y177750D01*
Y178250D01*
X277416Y178381D01*
X278119Y179084D01*
X278500Y180003D01*
Y180997D01*
X278119Y181916D01*
X277416Y182619D01*
X277101Y182750D01*
Y183250D01*
X277416Y183381D01*
X278119Y184084D01*
X278500Y185003D01*
Y185997D01*
X278119Y186916D01*
X277416Y187619D01*
X277101Y187750D01*
Y188250D01*
X277416Y188381D01*
X278119Y189084D01*
X278500Y190003D01*
Y190997D01*
X278119Y191916D01*
X277416Y192619D01*
X277101Y192750D01*
Y193250D01*
X277416Y193381D01*
X278119Y194084D01*
X278500Y195003D01*
Y195997D01*
X278119Y196916D01*
X277416Y197619D01*
X277101Y197750D01*
Y198250D01*
X277416Y198381D01*
X278119Y199084D01*
X278500Y200003D01*
Y200997D01*
X278119Y201916D01*
X277416Y202619D01*
X277101Y202750D01*
Y203250D01*
X277416Y203381D01*
X278119Y204084D01*
X278500Y205003D01*
Y205997D01*
X278119Y206916D01*
X277416Y207619D01*
X277101Y207750D01*
Y208250D01*
X277416Y208381D01*
X278119Y209084D01*
X278500Y210003D01*
Y210997D01*
X278119Y211916D01*
X277416Y212619D01*
X277101Y212750D01*
Y213250D01*
X277416Y213381D01*
X278119Y214084D01*
X278500Y215003D01*
Y215997D01*
X278119Y216916D01*
X277416Y217619D01*
X277101Y217750D01*
Y218250D01*
X277416Y218381D01*
X278119Y219084D01*
X278500Y220003D01*
Y220997D01*
X278119Y221916D01*
X277416Y222619D01*
X277101Y222750D01*
Y223250D01*
X277416Y223381D01*
X278119Y224084D01*
X278500Y225003D01*
Y225997D01*
X278119Y226916D01*
X277416Y227619D01*
X277101Y227750D01*
Y228250D01*
X277416Y228381D01*
X278119Y229084D01*
X278500Y230003D01*
Y230997D01*
X278119Y231916D01*
X277416Y232619D01*
X277101Y232750D01*
Y233250D01*
X277416Y233381D01*
X278119Y234084D01*
X278500Y235003D01*
Y235997D01*
X278119Y236916D01*
X277416Y237619D01*
X277101Y237750D01*
Y238250D01*
X277416Y238381D01*
X278119Y239084D01*
X278500Y240003D01*
Y240997D01*
X278119Y241916D01*
X277416Y242619D01*
X277101Y242750D01*
Y243250D01*
X277416Y243381D01*
X278119Y244084D01*
X278500Y245003D01*
Y245997D01*
X278119Y246916D01*
X277612Y247423D01*
X277472Y247750D01*
X277612Y248077D01*
X278119Y248584D01*
X278500Y249503D01*
Y250497D01*
X278119Y251416D01*
X277416Y252119D01*
X277101Y252250D01*
Y252750D01*
X277416Y252881D01*
X278119Y253584D01*
X278500Y254503D01*
Y255497D01*
X278119Y256416D01*
X277416Y257119D01*
X277101Y257250D01*
Y257750D01*
X277416Y257881D01*
X278119Y258584D01*
X278500Y259503D01*
Y260497D01*
X278119Y261416D01*
X277416Y262119D01*
X277101Y262250D01*
Y262750D01*
X277416Y262881D01*
X278119Y263584D01*
X278500Y264503D01*
Y265497D01*
X278119Y266416D01*
X277416Y267119D01*
X277101Y267250D01*
Y267750D01*
X277416Y267881D01*
X278119Y268584D01*
X278500Y269503D01*
Y270497D01*
X278119Y271416D01*
X277416Y272119D01*
X277101Y272250D01*
Y272750D01*
X277416Y272881D01*
X278119Y273584D01*
X278500Y274503D01*
Y275497D01*
X278119Y276416D01*
X277416Y277119D01*
X277101Y277250D01*
Y277750D01*
X277416Y277881D01*
X278119Y278584D01*
X278500Y279503D01*
Y280497D01*
X278119Y281416D01*
X277416Y282119D01*
X277101Y282250D01*
Y282750D01*
X277416Y282881D01*
X278119Y283584D01*
X278500Y284503D01*
Y285497D01*
X278119Y286416D01*
X277416Y287119D01*
X277101Y287250D01*
Y287750D01*
X277416Y287881D01*
X278119Y288584D01*
X278500Y289503D01*
Y290497D01*
X278119Y291416D01*
X277416Y292119D01*
X277182Y292216D01*
Y292716D01*
X277418Y292814D01*
X278121Y293517D01*
X278502Y294436D01*
Y295431D01*
X278121Y296350D01*
X277418Y297053D01*
X277103Y297184D01*
Y297684D01*
X277418Y297814D01*
X278121Y298517D01*
X278502Y299436D01*
Y300431D01*
X278121Y301350D01*
X277418Y302053D01*
X277103Y302184D01*
Y302684D01*
X277418Y302814D01*
X278121Y303518D01*
X278502Y304436D01*
Y305431D01*
X278121Y306350D01*
X277418Y307053D01*
X277103Y307184D01*
Y307684D01*
X277418Y307814D01*
X278121Y308518D01*
X278502Y309436D01*
Y310431D01*
X278121Y311350D01*
X277418Y312053D01*
X277103Y312184D01*
Y312684D01*
X277418Y312814D01*
X278121Y313517D01*
X278502Y314436D01*
Y315431D01*
X278121Y316350D01*
X277418Y317053D01*
X277103Y317184D01*
Y317684D01*
X277418Y317814D01*
X278121Y318517D01*
X278502Y319436D01*
Y320431D01*
X278121Y321350D01*
X277418Y322053D01*
X277103Y322184D01*
Y322684D01*
X277418Y322814D01*
X278121Y323517D01*
X278502Y324436D01*
Y325431D01*
X278121Y326350D01*
X277418Y327053D01*
X277103Y327184D01*
Y327684D01*
X277418Y327814D01*
X278121Y328518D01*
X278502Y329436D01*
Y330431D01*
X278121Y331350D01*
X277418Y332053D01*
X277103Y332184D01*
Y332684D01*
X277418Y332814D01*
X278121Y333518D01*
X278502Y334436D01*
Y335431D01*
X278121Y336350D01*
X277418Y337053D01*
X277071Y337197D01*
Y337738D01*
X277416Y337881D01*
X278119Y338584D01*
X278500Y339503D01*
Y340497D01*
X278119Y341416D01*
X277416Y342119D01*
X277101Y342250D01*
Y342750D01*
X277416Y342881D01*
X278119Y343584D01*
X278500Y344503D01*
Y345497D01*
X278119Y346416D01*
X277416Y347119D01*
X277101Y347250D01*
Y347750D01*
X277416Y347881D01*
X278119Y348584D01*
X278500Y349503D01*
Y350497D01*
X278119Y351416D01*
X277416Y352119D01*
X277101Y352250D01*
Y352750D01*
X277416Y352881D01*
X278119Y353584D01*
X278500Y354503D01*
Y355497D01*
X278119Y356416D01*
X277416Y357119D01*
X277101Y357250D01*
Y357750D01*
X277416Y357881D01*
X278119Y358584D01*
X278500Y359503D01*
Y360497D01*
X278119Y361416D01*
X277416Y362119D01*
X277101Y362250D01*
Y362750D01*
X277416Y362881D01*
X278119Y363584D01*
X278500Y364503D01*
Y365497D01*
X278119Y366416D01*
X277416Y367119D01*
X277101Y367250D01*
Y367750D01*
X277416Y367881D01*
X278119Y368584D01*
X278500Y369503D01*
Y370497D01*
X278119Y371416D01*
X277416Y372119D01*
X277101Y372250D01*
Y372750D01*
X277416Y372881D01*
X278119Y373584D01*
X278500Y374503D01*
Y375497D01*
X278119Y376416D01*
X277416Y377119D01*
X277101Y377250D01*
Y377750D01*
X277416Y377881D01*
X278119Y378584D01*
X278500Y379503D01*
Y380497D01*
X278119Y381416D01*
X277416Y382119D01*
X276497Y382500D01*
D02*
G37*
G36*
X579497Y382000D02*
X578503D01*
X577584Y381619D01*
X576881Y380916D01*
X576500Y379997D01*
Y379003D01*
X576881Y378084D01*
X577584Y377381D01*
X577899Y377250D01*
Y376750D01*
X577584Y376619D01*
X576881Y375916D01*
X576500Y374997D01*
Y374003D01*
X576881Y373084D01*
X577584Y372381D01*
X577899Y372250D01*
Y371750D01*
X577584Y371619D01*
X576881Y370916D01*
X576500Y369997D01*
Y369003D01*
X576881Y368084D01*
X577584Y367381D01*
X577899Y367250D01*
Y366750D01*
X577584Y366619D01*
X576881Y365916D01*
X576500Y364997D01*
Y364003D01*
X576881Y363084D01*
X577584Y362381D01*
X577899Y362250D01*
Y361750D01*
X577584Y361619D01*
X576881Y360916D01*
X576500Y359997D01*
Y359003D01*
X576881Y358084D01*
X577584Y357381D01*
X577899Y357250D01*
Y356750D01*
X577584Y356619D01*
X576881Y355916D01*
X576500Y354997D01*
Y354003D01*
X576881Y353084D01*
X577584Y352381D01*
X577899Y352250D01*
Y351750D01*
X577584Y351619D01*
X576881Y350916D01*
X576500Y349997D01*
Y349003D01*
X576881Y348084D01*
X577584Y347381D01*
X577899Y347250D01*
Y346750D01*
X577584Y346619D01*
X576881Y345916D01*
X576500Y344997D01*
Y344003D01*
X576881Y343084D01*
X577584Y342381D01*
X577899Y342250D01*
Y341750D01*
X577584Y341619D01*
X576881Y340916D01*
X576500Y339997D01*
Y339003D01*
X576881Y338084D01*
X577584Y337381D01*
X577930Y337237D01*
Y336696D01*
X577586Y336553D01*
X576883Y335850D01*
X576502Y334931D01*
Y333936D01*
X576883Y333017D01*
X577586Y332314D01*
X577901Y332184D01*
Y331684D01*
X577586Y331553D01*
X576883Y330850D01*
X576502Y329931D01*
Y328936D01*
X576883Y328017D01*
X577586Y327314D01*
X577901Y327184D01*
Y326684D01*
X577586Y326553D01*
X576883Y325850D01*
X576502Y324931D01*
Y323936D01*
X576883Y323018D01*
X577586Y322314D01*
X577901Y322184D01*
Y321684D01*
X577586Y321553D01*
X576883Y320850D01*
X576502Y319931D01*
Y318936D01*
X576883Y318018D01*
X577586Y317314D01*
X577901Y317184D01*
Y316684D01*
X577586Y316553D01*
X576883Y315850D01*
X576502Y314931D01*
Y313936D01*
X576883Y313018D01*
X577586Y312314D01*
X577901Y312184D01*
Y311684D01*
X577586Y311553D01*
X576883Y310850D01*
X576502Y309931D01*
Y308936D01*
X576883Y308017D01*
X577586Y307314D01*
X577901Y307184D01*
Y306684D01*
X577586Y306553D01*
X576883Y305850D01*
X576502Y304931D01*
Y303936D01*
X576883Y303017D01*
X577586Y302314D01*
X577901Y302184D01*
Y301684D01*
X577586Y301553D01*
X576883Y300850D01*
X576502Y299931D01*
Y298936D01*
X576883Y298018D01*
X577586Y297314D01*
X577901Y297184D01*
Y296684D01*
X577586Y296553D01*
X576883Y295850D01*
X576502Y294931D01*
Y293936D01*
X576883Y293018D01*
X577586Y292314D01*
X577820Y292217D01*
Y291717D01*
X577584Y291619D01*
X576881Y290916D01*
X576500Y289997D01*
Y289003D01*
X576881Y288084D01*
X577584Y287381D01*
X577899Y287250D01*
Y286750D01*
X577584Y286619D01*
X576881Y285916D01*
X576500Y284997D01*
Y284003D01*
X576881Y283084D01*
X577584Y282381D01*
X577899Y282250D01*
Y281750D01*
X577584Y281619D01*
X576881Y280916D01*
X576500Y279997D01*
Y279003D01*
X576881Y278084D01*
X577584Y277381D01*
X577899Y277250D01*
Y276750D01*
X577584Y276619D01*
X576881Y275916D01*
X576500Y274997D01*
Y274003D01*
X576881Y273084D01*
X577584Y272381D01*
X577899Y272250D01*
Y271750D01*
X577584Y271619D01*
X576881Y270916D01*
X576500Y269997D01*
Y269003D01*
X576881Y268084D01*
X577584Y267381D01*
X577899Y267250D01*
Y266750D01*
X577584Y266619D01*
X576881Y265916D01*
X576500Y264997D01*
Y264003D01*
X576881Y263084D01*
X577584Y262381D01*
X577899Y262250D01*
Y261750D01*
X577584Y261619D01*
X576881Y260916D01*
X576500Y259997D01*
Y259003D01*
X576881Y258084D01*
X577584Y257381D01*
X577899Y257250D01*
Y256750D01*
X577584Y256619D01*
X576881Y255916D01*
X576500Y254997D01*
Y254003D01*
X576881Y253084D01*
X577584Y252381D01*
X577899Y252250D01*
Y251750D01*
X577584Y251619D01*
X576881Y250916D01*
X576500Y249997D01*
Y249003D01*
X576881Y248084D01*
X577388Y247577D01*
X577528Y247250D01*
X577388Y246923D01*
X576881Y246416D01*
X576500Y245497D01*
Y244503D01*
X576881Y243584D01*
X577584Y242881D01*
X577899Y242750D01*
Y242250D01*
X577584Y242119D01*
X576881Y241416D01*
X576500Y240497D01*
Y239503D01*
X576881Y238584D01*
X577584Y237881D01*
X577899Y237750D01*
Y237250D01*
X577584Y237119D01*
X576881Y236416D01*
X576500Y235497D01*
Y234503D01*
X576881Y233584D01*
X577584Y232881D01*
X577899Y232750D01*
Y232250D01*
X577584Y232119D01*
X576881Y231416D01*
X576500Y230497D01*
Y229503D01*
X576881Y228584D01*
X577584Y227881D01*
X577899Y227750D01*
Y227250D01*
X577584Y227119D01*
X576881Y226416D01*
X576500Y225497D01*
Y224503D01*
X576881Y223584D01*
X577584Y222881D01*
X577899Y222750D01*
Y222250D01*
X577584Y222119D01*
X576881Y221416D01*
X576500Y220497D01*
Y219503D01*
X576881Y218584D01*
X577584Y217881D01*
X577899Y217750D01*
Y217250D01*
X577584Y217119D01*
X576881Y216416D01*
X576500Y215497D01*
Y214503D01*
X576881Y213584D01*
X577584Y212881D01*
X577899Y212750D01*
Y212250D01*
X577584Y212119D01*
X576881Y211416D01*
X576500Y210497D01*
Y209503D01*
X576881Y208584D01*
X577584Y207881D01*
X577899Y207750D01*
Y207250D01*
X577584Y207119D01*
X576881Y206416D01*
X576500Y205497D01*
Y204503D01*
X576881Y203584D01*
X577584Y202881D01*
X577899Y202750D01*
Y202250D01*
X577584Y202119D01*
X576881Y201416D01*
X576500Y200497D01*
Y199503D01*
X576881Y198584D01*
X577584Y197881D01*
X577899Y197750D01*
Y197250D01*
X577584Y197119D01*
X576881Y196416D01*
X576500Y195497D01*
Y194503D01*
X576881Y193584D01*
X577584Y192881D01*
X577899Y192750D01*
Y192250D01*
X577584Y192119D01*
X576881Y191416D01*
X576500Y190497D01*
Y189503D01*
X576881Y188584D01*
X577584Y187881D01*
X577899Y187750D01*
Y187250D01*
X577584Y187119D01*
X576881Y186416D01*
X576500Y185497D01*
Y184503D01*
X576881Y183584D01*
X577584Y182881D01*
X577899Y182750D01*
Y182250D01*
X577584Y182119D01*
X576881Y181416D01*
X576500Y180497D01*
Y179503D01*
X576881Y178584D01*
X577584Y177881D01*
X577899Y177750D01*
Y177250D01*
X577584Y177119D01*
X576881Y176416D01*
X576500Y175497D01*
Y174503D01*
X576881Y173584D01*
X577584Y172881D01*
X577899Y172750D01*
Y172250D01*
X577584Y172119D01*
X576881Y171416D01*
X576500Y170497D01*
Y169503D01*
X576881Y168584D01*
X577584Y167881D01*
X577899Y167750D01*
Y167250D01*
X577584Y167119D01*
X576881Y166416D01*
X576500Y165497D01*
Y164503D01*
X576881Y163584D01*
X577584Y162881D01*
X577899Y162750D01*
Y162250D01*
X577584Y162119D01*
X576881Y161416D01*
X576500Y160497D01*
Y159503D01*
X576881Y158584D01*
X577584Y157881D01*
X578503Y157500D01*
X579497D01*
X580416Y157881D01*
X581119Y158584D01*
X581500Y159503D01*
Y160497D01*
X581119Y161416D01*
X580416Y162119D01*
X580101Y162250D01*
Y162750D01*
X580416Y162881D01*
X581119Y163584D01*
X581500Y164503D01*
Y165497D01*
X581119Y166416D01*
X580416Y167119D01*
X580101Y167250D01*
Y167750D01*
X580416Y167881D01*
X581119Y168584D01*
X581500Y169503D01*
Y170497D01*
X581119Y171416D01*
X580416Y172119D01*
X580101Y172250D01*
Y172750D01*
X580416Y172881D01*
X581119Y173584D01*
X581500Y174503D01*
Y175497D01*
X581119Y176416D01*
X580416Y177119D01*
X580101Y177250D01*
Y177750D01*
X580416Y177881D01*
X581119Y178584D01*
X581500Y179503D01*
Y180497D01*
X581119Y181416D01*
X580416Y182119D01*
X580101Y182250D01*
Y182750D01*
X580416Y182881D01*
X581119Y183584D01*
X581500Y184503D01*
Y185497D01*
X581119Y186416D01*
X580416Y187119D01*
X580101Y187250D01*
Y187750D01*
X580416Y187881D01*
X581119Y188584D01*
X581500Y189503D01*
Y190497D01*
X581119Y191416D01*
X580416Y192119D01*
X580101Y192250D01*
Y192750D01*
X580416Y192881D01*
X581119Y193584D01*
X581500Y194503D01*
Y195497D01*
X581119Y196416D01*
X580416Y197119D01*
X580101Y197250D01*
Y197750D01*
X580416Y197881D01*
X581119Y198584D01*
X581500Y199503D01*
Y200497D01*
X581119Y201416D01*
X580416Y202119D01*
X580101Y202250D01*
Y202750D01*
X580416Y202881D01*
X581119Y203584D01*
X581500Y204503D01*
Y205497D01*
X581119Y206416D01*
X580416Y207119D01*
X580101Y207250D01*
Y207750D01*
X580416Y207881D01*
X581119Y208584D01*
X581500Y209503D01*
Y210497D01*
X581119Y211416D01*
X580416Y212119D01*
X580101Y212250D01*
Y212750D01*
X580416Y212881D01*
X581119Y213584D01*
X581500Y214503D01*
Y215497D01*
X581119Y216416D01*
X580416Y217119D01*
X580101Y217250D01*
Y217750D01*
X580416Y217881D01*
X581119Y218584D01*
X581500Y219503D01*
Y220497D01*
X581119Y221416D01*
X580416Y222119D01*
X580101Y222250D01*
Y222750D01*
X580416Y222881D01*
X581119Y223584D01*
X581500Y224503D01*
Y225497D01*
X581119Y226416D01*
X580416Y227119D01*
X580101Y227250D01*
Y227750D01*
X580416Y227881D01*
X581119Y228584D01*
X581500Y229503D01*
Y230497D01*
X581119Y231416D01*
X580416Y232119D01*
X580101Y232250D01*
Y232750D01*
X580416Y232881D01*
X581119Y233584D01*
X581500Y234503D01*
Y235497D01*
X581119Y236416D01*
X580416Y237119D01*
X580101Y237250D01*
Y237750D01*
X580416Y237881D01*
X581119Y238584D01*
X581500Y239503D01*
Y240497D01*
X581119Y241416D01*
X580416Y242119D01*
X580101Y242250D01*
Y242750D01*
X580416Y242881D01*
X581119Y243584D01*
X581500Y244503D01*
Y245497D01*
X581119Y246416D01*
X580612Y246923D01*
X580472Y247250D01*
X580612Y247577D01*
X581119Y248084D01*
X581500Y249003D01*
Y249997D01*
X581119Y250916D01*
X580416Y251619D01*
X580101Y251750D01*
Y252250D01*
X580416Y252381D01*
X581119Y253084D01*
X581500Y254003D01*
Y254997D01*
X581119Y255916D01*
X580416Y256619D01*
X580101Y256750D01*
Y257250D01*
X580416Y257381D01*
X581119Y258084D01*
X581500Y259003D01*
Y259997D01*
X581119Y260916D01*
X580416Y261619D01*
X580101Y261750D01*
Y262250D01*
X580416Y262381D01*
X581119Y263084D01*
X581500Y264003D01*
Y264997D01*
X581119Y265916D01*
X580416Y266619D01*
X580101Y266750D01*
Y267250D01*
X580416Y267381D01*
X581119Y268084D01*
X581500Y269003D01*
Y269997D01*
X581119Y270916D01*
X580416Y271619D01*
X580101Y271750D01*
Y272250D01*
X580416Y272381D01*
X581119Y273084D01*
X581500Y274003D01*
Y274997D01*
X581119Y275916D01*
X580416Y276619D01*
X580101Y276750D01*
Y277250D01*
X580416Y277381D01*
X581119Y278084D01*
X581500Y279003D01*
Y279997D01*
X581119Y280916D01*
X580416Y281619D01*
X580101Y281750D01*
Y282250D01*
X580416Y282381D01*
X581119Y283084D01*
X581500Y284003D01*
Y284997D01*
X581119Y285916D01*
X580416Y286619D01*
X580101Y286750D01*
Y287250D01*
X580416Y287381D01*
X581119Y288084D01*
X581500Y289003D01*
Y289997D01*
X581119Y290916D01*
X580416Y291619D01*
X580182Y291716D01*
Y292216D01*
X580418Y292314D01*
X581121Y293018D01*
X581502Y293936D01*
Y294931D01*
X581121Y295850D01*
X580418Y296553D01*
X580103Y296684D01*
Y297184D01*
X580418Y297314D01*
X581121Y298018D01*
X581502Y298936D01*
Y299931D01*
X581121Y300850D01*
X580418Y301553D01*
X580103Y301684D01*
Y302184D01*
X580418Y302314D01*
X581121Y303017D01*
X581502Y303936D01*
Y304931D01*
X581121Y305850D01*
X580418Y306553D01*
X580103Y306684D01*
Y307184D01*
X580418Y307314D01*
X581121Y308017D01*
X581502Y308936D01*
Y309931D01*
X581121Y310850D01*
X580418Y311553D01*
X580103Y311684D01*
Y312184D01*
X580418Y312314D01*
X581121Y313018D01*
X581502Y313936D01*
Y314931D01*
X581121Y315850D01*
X580418Y316553D01*
X580103Y316684D01*
Y317184D01*
X580418Y317314D01*
X581121Y318018D01*
X581502Y318936D01*
Y319931D01*
X581121Y320850D01*
X580418Y321553D01*
X580103Y321684D01*
Y322184D01*
X580418Y322314D01*
X581121Y323018D01*
X581502Y323936D01*
Y324931D01*
X581121Y325850D01*
X580418Y326553D01*
X580103Y326684D01*
Y327184D01*
X580418Y327314D01*
X581121Y328017D01*
X581502Y328936D01*
Y329931D01*
X581121Y330850D01*
X580418Y331553D01*
X580103Y331684D01*
Y332184D01*
X580418Y332314D01*
X581121Y333017D01*
X581502Y333936D01*
Y334931D01*
X581121Y335850D01*
X580418Y336553D01*
X580071Y336697D01*
Y337238D01*
X580416Y337381D01*
X581119Y338084D01*
X581500Y339003D01*
Y339997D01*
X581119Y340916D01*
X580416Y341619D01*
X580101Y341750D01*
Y342250D01*
X580416Y342381D01*
X581119Y343084D01*
X581500Y344003D01*
Y344997D01*
X581119Y345916D01*
X580416Y346619D01*
X580101Y346750D01*
Y347250D01*
X580416Y347381D01*
X581119Y348084D01*
X581500Y349003D01*
Y349997D01*
X581119Y350916D01*
X580416Y351619D01*
X580101Y351750D01*
Y352250D01*
X580416Y352381D01*
X581119Y353084D01*
X581500Y354003D01*
Y354997D01*
X581119Y355916D01*
X580416Y356619D01*
X580101Y356750D01*
Y357250D01*
X580416Y357381D01*
X581119Y358084D01*
X581500Y359003D01*
Y359997D01*
X581119Y360916D01*
X580416Y361619D01*
X580101Y361750D01*
Y362250D01*
X580416Y362381D01*
X581119Y363084D01*
X581500Y364003D01*
Y364997D01*
X581119Y365916D01*
X580416Y366619D01*
X580101Y366750D01*
Y367250D01*
X580416Y367381D01*
X581119Y368084D01*
X581500Y369003D01*
Y369997D01*
X581119Y370916D01*
X580416Y371619D01*
X580101Y371750D01*
Y372250D01*
X580416Y372381D01*
X581119Y373084D01*
X581500Y374003D01*
Y374997D01*
X581119Y375916D01*
X580416Y376619D01*
X580101Y376750D01*
Y377250D01*
X580416Y377381D01*
X581119Y378084D01*
X581500Y379003D01*
Y379997D01*
X581119Y380916D01*
X580416Y381619D01*
X579497Y382000D01*
D02*
G37*
G36*
X571997D02*
X571003D01*
X570084Y381619D01*
X569381Y380916D01*
X569000Y379997D01*
Y379003D01*
X569381Y378084D01*
X570084Y377381D01*
X570399Y377250D01*
Y376750D01*
X570084Y376619D01*
X569381Y375916D01*
X569000Y374997D01*
Y374003D01*
X569381Y373084D01*
X570084Y372381D01*
X570399Y372250D01*
Y371750D01*
X570084Y371619D01*
X569381Y370916D01*
X569000Y369997D01*
Y369003D01*
X569381Y368084D01*
X570084Y367381D01*
X570399Y367250D01*
Y366750D01*
X570084Y366619D01*
X569381Y365916D01*
X569000Y364997D01*
Y364003D01*
X569381Y363084D01*
X570084Y362381D01*
X570399Y362250D01*
Y361750D01*
X570084Y361619D01*
X569381Y360916D01*
X569000Y359997D01*
Y359003D01*
X569381Y358084D01*
X570084Y357381D01*
X570399Y357250D01*
Y356750D01*
X570084Y356619D01*
X569381Y355916D01*
X569000Y354997D01*
Y354003D01*
X569381Y353084D01*
X570084Y352381D01*
X570399Y352250D01*
Y351750D01*
X570084Y351619D01*
X569381Y350916D01*
X569000Y349997D01*
Y349003D01*
X569381Y348084D01*
X570084Y347381D01*
X570399Y347250D01*
Y346750D01*
X570084Y346619D01*
X569381Y345916D01*
X569000Y344997D01*
Y344003D01*
X569381Y343084D01*
X570084Y342381D01*
X570399Y342250D01*
Y341750D01*
X570084Y341619D01*
X569381Y340916D01*
X569000Y339997D01*
Y339003D01*
X569381Y338084D01*
X570084Y337381D01*
X570431Y337237D01*
Y336696D01*
X570086Y336553D01*
X569382Y335850D01*
X569002Y334931D01*
Y333936D01*
X569382Y333017D01*
X570086Y332314D01*
X570401Y332184D01*
Y331684D01*
X570086Y331553D01*
X569382Y330850D01*
X569002Y329931D01*
Y328936D01*
X569382Y328017D01*
X570086Y327314D01*
X570401Y327184D01*
Y326684D01*
X570086Y326553D01*
X569382Y325850D01*
X569002Y324931D01*
Y323936D01*
X569382Y323018D01*
X570086Y322314D01*
X570401Y322184D01*
Y321684D01*
X570086Y321553D01*
X569382Y320850D01*
X569002Y319931D01*
Y318936D01*
X569382Y318018D01*
X570086Y317314D01*
X570401Y317184D01*
Y316684D01*
X570086Y316553D01*
X569382Y315850D01*
X569002Y314931D01*
Y313936D01*
X569382Y313018D01*
X570086Y312314D01*
X570401Y312184D01*
Y311684D01*
X570086Y311553D01*
X569382Y310850D01*
X569002Y309931D01*
Y308936D01*
X569382Y308017D01*
X570086Y307314D01*
X570401Y307184D01*
Y306684D01*
X570086Y306553D01*
X569382Y305850D01*
X569002Y304931D01*
Y303936D01*
X569382Y303017D01*
X570086Y302314D01*
X570401Y302184D01*
Y301684D01*
X570086Y301553D01*
X569382Y300850D01*
X569002Y299931D01*
Y298936D01*
X569382Y298018D01*
X570086Y297314D01*
X570401Y297184D01*
Y296684D01*
X570086Y296553D01*
X569382Y295850D01*
X569002Y294931D01*
Y293936D01*
X569382Y293018D01*
X570086Y292314D01*
X570320Y292217D01*
Y291717D01*
X570084Y291619D01*
X569381Y290916D01*
X569000Y289997D01*
Y289003D01*
X569381Y288084D01*
X570084Y287381D01*
X570399Y287250D01*
Y286750D01*
X570084Y286619D01*
X569381Y285916D01*
X569000Y284997D01*
Y284003D01*
X569381Y283084D01*
X570084Y282381D01*
X570399Y282250D01*
Y281750D01*
X570084Y281619D01*
X569381Y280916D01*
X569000Y279997D01*
Y279003D01*
X569381Y278084D01*
X570084Y277381D01*
X570399Y277250D01*
Y276750D01*
X570084Y276619D01*
X569381Y275916D01*
X569000Y274997D01*
Y274003D01*
X569381Y273084D01*
X570084Y272381D01*
X570399Y272250D01*
Y271750D01*
X570084Y271619D01*
X569381Y270916D01*
X569000Y269997D01*
Y269003D01*
X569381Y268084D01*
X570084Y267381D01*
X570399Y267250D01*
Y266750D01*
X570084Y266619D01*
X569381Y265916D01*
X569000Y264997D01*
Y264003D01*
X569381Y263084D01*
X570084Y262381D01*
X570399Y262250D01*
Y261750D01*
X570084Y261619D01*
X569381Y260916D01*
X569000Y259997D01*
Y259003D01*
X569381Y258084D01*
X570084Y257381D01*
X570399Y257250D01*
Y256750D01*
X570084Y256619D01*
X569381Y255916D01*
X569000Y254997D01*
Y254003D01*
X569381Y253084D01*
X570084Y252381D01*
X570399Y252250D01*
Y251750D01*
X570084Y251619D01*
X569381Y250916D01*
X569000Y249997D01*
Y249003D01*
X569381Y248084D01*
X569888Y247577D01*
X570028Y247250D01*
X569888Y246923D01*
X569381Y246416D01*
X569000Y245497D01*
Y244503D01*
X569381Y243584D01*
X570084Y242881D01*
X570399Y242750D01*
Y242250D01*
X570084Y242119D01*
X569381Y241416D01*
X569000Y240497D01*
Y239503D01*
X569381Y238584D01*
X570084Y237881D01*
X570399Y237750D01*
Y237250D01*
X570084Y237119D01*
X569381Y236416D01*
X569000Y235497D01*
Y234503D01*
X569381Y233584D01*
X570084Y232881D01*
X570399Y232750D01*
Y232250D01*
X570084Y232119D01*
X569381Y231416D01*
X569000Y230497D01*
Y229503D01*
X569381Y228584D01*
X570084Y227881D01*
X570399Y227750D01*
Y227250D01*
X570084Y227119D01*
X569381Y226416D01*
X569000Y225497D01*
Y224503D01*
X569381Y223584D01*
X570084Y222881D01*
X570399Y222750D01*
Y222250D01*
X570084Y222119D01*
X569381Y221416D01*
X569000Y220497D01*
Y219503D01*
X569381Y218584D01*
X570084Y217881D01*
X570399Y217750D01*
Y217250D01*
X570084Y217119D01*
X569381Y216416D01*
X569000Y215497D01*
Y214503D01*
X569381Y213584D01*
X570084Y212881D01*
X570399Y212750D01*
Y212250D01*
X570084Y212119D01*
X569381Y211416D01*
X569000Y210497D01*
Y209503D01*
X569381Y208584D01*
X570084Y207881D01*
X570399Y207750D01*
Y207250D01*
X570084Y207119D01*
X569381Y206416D01*
X569000Y205497D01*
Y204503D01*
X569381Y203584D01*
X570084Y202881D01*
X570399Y202750D01*
Y202250D01*
X570084Y202119D01*
X569381Y201416D01*
X569000Y200497D01*
Y199503D01*
X569381Y198584D01*
X570084Y197881D01*
X570399Y197750D01*
Y197250D01*
X570084Y197119D01*
X569381Y196416D01*
X569000Y195497D01*
Y194503D01*
X569381Y193584D01*
X570084Y192881D01*
X570399Y192750D01*
Y192250D01*
X570084Y192119D01*
X569381Y191416D01*
X569000Y190497D01*
Y189503D01*
X569381Y188584D01*
X570084Y187881D01*
X570399Y187750D01*
Y187250D01*
X570084Y187119D01*
X569381Y186416D01*
X569000Y185497D01*
Y184503D01*
X569381Y183584D01*
X570084Y182881D01*
X570399Y182750D01*
Y182250D01*
X570084Y182119D01*
X569381Y181416D01*
X569000Y180497D01*
Y179503D01*
X569381Y178584D01*
X570084Y177881D01*
X570399Y177750D01*
Y177250D01*
X570084Y177119D01*
X569381Y176416D01*
X569000Y175497D01*
Y174503D01*
X569381Y173584D01*
X570084Y172881D01*
X570399Y172750D01*
Y172250D01*
X570084Y172119D01*
X569381Y171416D01*
X569000Y170497D01*
Y169503D01*
X569381Y168584D01*
X570084Y167881D01*
X570399Y167750D01*
Y167250D01*
X570084Y167119D01*
X569381Y166416D01*
X569000Y165497D01*
Y164503D01*
X569381Y163584D01*
X570084Y162881D01*
X570399Y162750D01*
Y162250D01*
X570084Y162119D01*
X569381Y161416D01*
X569000Y160497D01*
Y159503D01*
X569381Y158584D01*
X570084Y157881D01*
X571003Y157500D01*
X571997D01*
X572916Y157881D01*
X573619Y158584D01*
X574000Y159503D01*
Y160497D01*
X573619Y161416D01*
X572916Y162119D01*
X572601Y162250D01*
Y162750D01*
X572916Y162881D01*
X573619Y163584D01*
X574000Y164503D01*
Y165497D01*
X573619Y166416D01*
X572916Y167119D01*
X572601Y167250D01*
Y167750D01*
X572916Y167881D01*
X573619Y168584D01*
X574000Y169503D01*
Y170497D01*
X573619Y171416D01*
X572916Y172119D01*
X572601Y172250D01*
Y172750D01*
X572916Y172881D01*
X573619Y173584D01*
X574000Y174503D01*
Y175497D01*
X573619Y176416D01*
X572916Y177119D01*
X572601Y177250D01*
Y177750D01*
X572916Y177881D01*
X573619Y178584D01*
X574000Y179503D01*
Y180497D01*
X573619Y181416D01*
X572916Y182119D01*
X572601Y182250D01*
Y182750D01*
X572916Y182881D01*
X573619Y183584D01*
X574000Y184503D01*
Y185497D01*
X573619Y186416D01*
X572916Y187119D01*
X572601Y187250D01*
Y187750D01*
X572916Y187881D01*
X573619Y188584D01*
X574000Y189503D01*
Y190497D01*
X573619Y191416D01*
X572916Y192119D01*
X572601Y192250D01*
Y192750D01*
X572916Y192881D01*
X573619Y193584D01*
X574000Y194503D01*
Y195497D01*
X573619Y196416D01*
X572916Y197119D01*
X572601Y197250D01*
Y197750D01*
X572916Y197881D01*
X573619Y198584D01*
X574000Y199503D01*
Y200497D01*
X573619Y201416D01*
X572916Y202119D01*
X572601Y202250D01*
Y202750D01*
X572916Y202881D01*
X573619Y203584D01*
X574000Y204503D01*
Y205497D01*
X573619Y206416D01*
X572916Y207119D01*
X572601Y207250D01*
Y207750D01*
X572916Y207881D01*
X573619Y208584D01*
X574000Y209503D01*
Y210497D01*
X573619Y211416D01*
X572916Y212119D01*
X572601Y212250D01*
Y212750D01*
X572916Y212881D01*
X573619Y213584D01*
X574000Y214503D01*
Y215497D01*
X573619Y216416D01*
X572916Y217119D01*
X572601Y217250D01*
Y217750D01*
X572916Y217881D01*
X573619Y218584D01*
X574000Y219503D01*
Y220497D01*
X573619Y221416D01*
X572916Y222119D01*
X572601Y222250D01*
Y222750D01*
X572916Y222881D01*
X573619Y223584D01*
X574000Y224503D01*
Y225497D01*
X573619Y226416D01*
X572916Y227119D01*
X572601Y227250D01*
Y227750D01*
X572916Y227881D01*
X573619Y228584D01*
X574000Y229503D01*
Y230497D01*
X573619Y231416D01*
X572916Y232119D01*
X572601Y232250D01*
Y232750D01*
X572916Y232881D01*
X573619Y233584D01*
X574000Y234503D01*
Y235497D01*
X573619Y236416D01*
X572916Y237119D01*
X572601Y237250D01*
Y237750D01*
X572916Y237881D01*
X573619Y238584D01*
X574000Y239503D01*
Y240497D01*
X573619Y241416D01*
X572916Y242119D01*
X572601Y242250D01*
Y242750D01*
X572916Y242881D01*
X573619Y243584D01*
X574000Y244503D01*
Y245497D01*
X573619Y246416D01*
X573112Y246923D01*
X572972Y247250D01*
X573112Y247577D01*
X573619Y248084D01*
X574000Y249003D01*
Y249997D01*
X573619Y250916D01*
X572916Y251619D01*
X572601Y251750D01*
Y252250D01*
X572916Y252381D01*
X573619Y253084D01*
X574000Y254003D01*
Y254997D01*
X573619Y255916D01*
X572916Y256619D01*
X572601Y256750D01*
Y257250D01*
X572916Y257381D01*
X573619Y258084D01*
X574000Y259003D01*
Y259997D01*
X573619Y260916D01*
X572916Y261619D01*
X572601Y261750D01*
Y262250D01*
X572916Y262381D01*
X573619Y263084D01*
X574000Y264003D01*
Y264997D01*
X573619Y265916D01*
X572916Y266619D01*
X572601Y266750D01*
Y267250D01*
X572916Y267381D01*
X573619Y268084D01*
X574000Y269003D01*
Y269997D01*
X573619Y270916D01*
X572916Y271619D01*
X572601Y271750D01*
Y272250D01*
X572916Y272381D01*
X573619Y273084D01*
X574000Y274003D01*
Y274997D01*
X573619Y275916D01*
X572916Y276619D01*
X572601Y276750D01*
Y277250D01*
X572916Y277381D01*
X573619Y278084D01*
X574000Y279003D01*
Y279997D01*
X573619Y280916D01*
X572916Y281619D01*
X572601Y281750D01*
Y282250D01*
X572916Y282381D01*
X573619Y283084D01*
X574000Y284003D01*
Y284997D01*
X573619Y285916D01*
X572916Y286619D01*
X572601Y286750D01*
Y287250D01*
X572916Y287381D01*
X573619Y288084D01*
X574000Y289003D01*
Y289997D01*
X573619Y290916D01*
X572916Y291619D01*
X572682Y291716D01*
Y292216D01*
X572918Y292314D01*
X573621Y293018D01*
X574002Y293936D01*
Y294931D01*
X573621Y295850D01*
X572918Y296553D01*
X572603Y296684D01*
Y297184D01*
X572918Y297314D01*
X573621Y298018D01*
X574002Y298936D01*
Y299931D01*
X573621Y300850D01*
X572918Y301553D01*
X572603Y301684D01*
Y302184D01*
X572918Y302314D01*
X573621Y303017D01*
X574002Y303936D01*
Y304931D01*
X573621Y305850D01*
X572918Y306553D01*
X572603Y306684D01*
Y307184D01*
X572918Y307314D01*
X573621Y308017D01*
X574002Y308936D01*
Y309931D01*
X573621Y310850D01*
X572918Y311553D01*
X572603Y311684D01*
Y312184D01*
X572918Y312314D01*
X573621Y313018D01*
X574002Y313936D01*
Y314931D01*
X573621Y315850D01*
X572918Y316553D01*
X572603Y316684D01*
Y317184D01*
X572918Y317314D01*
X573621Y318018D01*
X574002Y318936D01*
Y319931D01*
X573621Y320850D01*
X572918Y321553D01*
X572603Y321684D01*
Y322184D01*
X572918Y322314D01*
X573621Y323018D01*
X574002Y323936D01*
Y324931D01*
X573621Y325850D01*
X572918Y326553D01*
X572603Y326684D01*
Y327184D01*
X572918Y327314D01*
X573621Y328017D01*
X574002Y328936D01*
Y329931D01*
X573621Y330850D01*
X572918Y331553D01*
X572603Y331684D01*
Y332184D01*
X572918Y332314D01*
X573621Y333017D01*
X574002Y333936D01*
Y334931D01*
X573621Y335850D01*
X572918Y336553D01*
X572571Y336697D01*
Y337238D01*
X572916Y337381D01*
X573619Y338084D01*
X574000Y339003D01*
Y339997D01*
X573619Y340916D01*
X572916Y341619D01*
X572601Y341750D01*
Y342250D01*
X572916Y342381D01*
X573619Y343084D01*
X574000Y344003D01*
Y344997D01*
X573619Y345916D01*
X572916Y346619D01*
X572601Y346750D01*
Y347250D01*
X572916Y347381D01*
X573619Y348084D01*
X574000Y349003D01*
Y349997D01*
X573619Y350916D01*
X572916Y351619D01*
X572601Y351750D01*
Y352250D01*
X572916Y352381D01*
X573619Y353084D01*
X574000Y354003D01*
Y354997D01*
X573619Y355916D01*
X572916Y356619D01*
X572601Y356750D01*
Y357250D01*
X572916Y357381D01*
X573619Y358084D01*
X574000Y359003D01*
Y359997D01*
X573619Y360916D01*
X572916Y361619D01*
X572601Y361750D01*
Y362250D01*
X572916Y362381D01*
X573619Y363084D01*
X574000Y364003D01*
Y364997D01*
X573619Y365916D01*
X572916Y366619D01*
X572601Y366750D01*
Y367250D01*
X572916Y367381D01*
X573619Y368084D01*
X574000Y369003D01*
Y369997D01*
X573619Y370916D01*
X572916Y371619D01*
X572601Y371750D01*
Y372250D01*
X572916Y372381D01*
X573619Y373084D01*
X574000Y374003D01*
Y374997D01*
X573619Y375916D01*
X572916Y376619D01*
X572601Y376750D01*
Y377250D01*
X572916Y377381D01*
X573619Y378084D01*
X574000Y379003D01*
Y379997D01*
X573619Y380916D01*
X572916Y381619D01*
X571997Y382000D01*
D02*
G37*
G36*
X564497D02*
X563503D01*
X562584Y381619D01*
X561881Y380916D01*
X561500Y379997D01*
Y379003D01*
X561881Y378084D01*
X562584Y377381D01*
X562899Y377250D01*
Y376750D01*
X562584Y376619D01*
X561881Y375916D01*
X561500Y374997D01*
Y374003D01*
X561881Y373084D01*
X562584Y372381D01*
X562899Y372250D01*
Y371750D01*
X562584Y371619D01*
X561881Y370916D01*
X561500Y369997D01*
Y369003D01*
X561881Y368084D01*
X562584Y367381D01*
X562899Y367250D01*
Y366750D01*
X562584Y366619D01*
X561881Y365916D01*
X561500Y364997D01*
Y364003D01*
X561881Y363084D01*
X562584Y362381D01*
X562899Y362250D01*
Y361750D01*
X562584Y361619D01*
X561881Y360916D01*
X561500Y359997D01*
Y359003D01*
X561881Y358084D01*
X562584Y357381D01*
X562899Y357250D01*
Y356750D01*
X562584Y356619D01*
X561881Y355916D01*
X561500Y354997D01*
Y354003D01*
X561881Y353084D01*
X562584Y352381D01*
X562899Y352250D01*
Y351750D01*
X562584Y351619D01*
X561881Y350916D01*
X561500Y349997D01*
Y349003D01*
X561881Y348084D01*
X562584Y347381D01*
X562899Y347250D01*
Y346750D01*
X562584Y346619D01*
X561881Y345916D01*
X561500Y344997D01*
Y344003D01*
X561881Y343084D01*
X562584Y342381D01*
X562899Y342250D01*
Y341750D01*
X562584Y341619D01*
X561881Y340916D01*
X561500Y339997D01*
Y339003D01*
X561881Y338084D01*
X562584Y337381D01*
X562930Y337237D01*
Y336696D01*
X562586Y336553D01*
X561882Y335850D01*
X561502Y334931D01*
Y333936D01*
X561882Y333017D01*
X562586Y332314D01*
X562901Y332184D01*
Y331684D01*
X562586Y331553D01*
X561882Y330850D01*
X561502Y329931D01*
Y328936D01*
X561882Y328017D01*
X562586Y327314D01*
X562901Y327184D01*
Y326684D01*
X562586Y326553D01*
X561882Y325850D01*
X561502Y324931D01*
Y323936D01*
X561882Y323018D01*
X562586Y322314D01*
X562901Y322184D01*
Y321684D01*
X562586Y321553D01*
X561882Y320850D01*
X561502Y319931D01*
Y318936D01*
X561882Y318018D01*
X562586Y317314D01*
X562901Y317184D01*
Y316684D01*
X562586Y316553D01*
X561882Y315850D01*
X561502Y314931D01*
Y313936D01*
X561882Y313018D01*
X562586Y312314D01*
X562901Y312184D01*
Y311684D01*
X562586Y311553D01*
X561882Y310850D01*
X561502Y309931D01*
Y308936D01*
X561882Y308017D01*
X562586Y307314D01*
X562901Y307184D01*
Y306684D01*
X562586Y306553D01*
X561882Y305850D01*
X561502Y304931D01*
Y303936D01*
X561882Y303017D01*
X562586Y302314D01*
X562901Y302184D01*
Y301684D01*
X562586Y301553D01*
X561882Y300850D01*
X561502Y299931D01*
Y298936D01*
X561882Y298018D01*
X562586Y297314D01*
X562901Y297184D01*
Y296684D01*
X562586Y296553D01*
X561882Y295850D01*
X561502Y294931D01*
Y293936D01*
X561882Y293018D01*
X562586Y292314D01*
X562820Y292217D01*
Y291717D01*
X562584Y291619D01*
X561881Y290916D01*
X561500Y289997D01*
Y289003D01*
X561881Y288084D01*
X562584Y287381D01*
X562899Y287250D01*
Y286750D01*
X562584Y286619D01*
X561881Y285916D01*
X561500Y284997D01*
Y284003D01*
X561881Y283084D01*
X562584Y282381D01*
X562899Y282250D01*
Y281750D01*
X562584Y281619D01*
X561881Y280916D01*
X561500Y279997D01*
Y279003D01*
X561881Y278084D01*
X562584Y277381D01*
X562899Y277250D01*
Y276750D01*
X562584Y276619D01*
X561881Y275916D01*
X561500Y274997D01*
Y274003D01*
X561881Y273084D01*
X562584Y272381D01*
X562899Y272250D01*
Y271750D01*
X562584Y271619D01*
X561881Y270916D01*
X561500Y269997D01*
Y269003D01*
X561881Y268084D01*
X562584Y267381D01*
X562899Y267250D01*
Y266750D01*
X562584Y266619D01*
X561881Y265916D01*
X561500Y264997D01*
Y264003D01*
X561881Y263084D01*
X562584Y262381D01*
X562899Y262250D01*
Y261750D01*
X562584Y261619D01*
X561881Y260916D01*
X561500Y259997D01*
Y259003D01*
X561881Y258084D01*
X562584Y257381D01*
X562899Y257250D01*
Y256750D01*
X562584Y256619D01*
X561881Y255916D01*
X561500Y254997D01*
Y254003D01*
X561881Y253084D01*
X562584Y252381D01*
X562899Y252250D01*
Y251750D01*
X562584Y251619D01*
X561881Y250916D01*
X561500Y249997D01*
Y249003D01*
X561881Y248084D01*
X562388Y247577D01*
X562528Y247250D01*
X562388Y246923D01*
X561881Y246416D01*
X561500Y245497D01*
Y244503D01*
X561881Y243584D01*
X562584Y242881D01*
X562899Y242750D01*
Y242250D01*
X562584Y242119D01*
X561881Y241416D01*
X561500Y240497D01*
Y239503D01*
X561881Y238584D01*
X562584Y237881D01*
X562899Y237750D01*
Y237250D01*
X562584Y237119D01*
X561881Y236416D01*
X561500Y235497D01*
Y234503D01*
X561881Y233584D01*
X562584Y232881D01*
X562899Y232750D01*
Y232250D01*
X562584Y232119D01*
X561881Y231416D01*
X561500Y230497D01*
Y229503D01*
X561881Y228584D01*
X562584Y227881D01*
X562899Y227750D01*
Y227250D01*
X562584Y227119D01*
X561881Y226416D01*
X561500Y225497D01*
Y224503D01*
X561881Y223584D01*
X562584Y222881D01*
X562899Y222750D01*
Y222250D01*
X562584Y222119D01*
X561881Y221416D01*
X561500Y220497D01*
Y219503D01*
X561881Y218584D01*
X562584Y217881D01*
X562899Y217750D01*
Y217250D01*
X562584Y217119D01*
X561881Y216416D01*
X561500Y215497D01*
Y214503D01*
X561881Y213584D01*
X562584Y212881D01*
X562899Y212750D01*
Y212250D01*
X562584Y212119D01*
X561881Y211416D01*
X561500Y210497D01*
Y209503D01*
X561881Y208584D01*
X562584Y207881D01*
X562899Y207750D01*
Y207250D01*
X562584Y207119D01*
X561881Y206416D01*
X561500Y205497D01*
Y204503D01*
X561881Y203584D01*
X562584Y202881D01*
X562899Y202750D01*
Y202250D01*
X562584Y202119D01*
X561881Y201416D01*
X561500Y200497D01*
Y199503D01*
X561881Y198584D01*
X562584Y197881D01*
X562899Y197750D01*
Y197250D01*
X562584Y197119D01*
X561881Y196416D01*
X561500Y195497D01*
Y194503D01*
X561881Y193584D01*
X562584Y192881D01*
X562899Y192750D01*
Y192250D01*
X562584Y192119D01*
X561881Y191416D01*
X561500Y190497D01*
Y189503D01*
X561881Y188584D01*
X562584Y187881D01*
X562899Y187750D01*
Y187250D01*
X562584Y187119D01*
X561881Y186416D01*
X561500Y185497D01*
Y184503D01*
X561881Y183584D01*
X562584Y182881D01*
X562899Y182750D01*
Y182250D01*
X562584Y182119D01*
X561881Y181416D01*
X561500Y180497D01*
Y179503D01*
X561881Y178584D01*
X562584Y177881D01*
X562899Y177750D01*
Y177250D01*
X562584Y177119D01*
X561881Y176416D01*
X561500Y175497D01*
Y174503D01*
X561881Y173584D01*
X562584Y172881D01*
X562899Y172750D01*
Y172250D01*
X562584Y172119D01*
X561881Y171416D01*
X561500Y170497D01*
Y169503D01*
X561881Y168584D01*
X562584Y167881D01*
X562899Y167750D01*
Y167250D01*
X562584Y167119D01*
X561881Y166416D01*
X561500Y165497D01*
Y164503D01*
X561881Y163584D01*
X562584Y162881D01*
X562899Y162750D01*
Y162250D01*
X562584Y162119D01*
X561881Y161416D01*
X561500Y160497D01*
Y159503D01*
X561881Y158584D01*
X562584Y157881D01*
X563503Y157500D01*
X564497D01*
X565416Y157881D01*
X566119Y158584D01*
X566500Y159503D01*
Y160497D01*
X566119Y161416D01*
X565416Y162119D01*
X565101Y162250D01*
Y162750D01*
X565416Y162881D01*
X566119Y163584D01*
X566500Y164503D01*
Y165497D01*
X566119Y166416D01*
X565416Y167119D01*
X565101Y167250D01*
Y167750D01*
X565416Y167881D01*
X566119Y168584D01*
X566500Y169503D01*
Y170497D01*
X566119Y171416D01*
X565416Y172119D01*
X565101Y172250D01*
Y172750D01*
X565416Y172881D01*
X566119Y173584D01*
X566500Y174503D01*
Y175497D01*
X566119Y176416D01*
X565416Y177119D01*
X565101Y177250D01*
Y177750D01*
X565416Y177881D01*
X566119Y178584D01*
X566500Y179503D01*
Y180497D01*
X566119Y181416D01*
X565416Y182119D01*
X565101Y182250D01*
Y182750D01*
X565416Y182881D01*
X566119Y183584D01*
X566500Y184503D01*
Y185497D01*
X566119Y186416D01*
X565416Y187119D01*
X565101Y187250D01*
Y187750D01*
X565416Y187881D01*
X566119Y188584D01*
X566500Y189503D01*
Y190497D01*
X566119Y191416D01*
X565416Y192119D01*
X565101Y192250D01*
Y192750D01*
X565416Y192881D01*
X566119Y193584D01*
X566500Y194503D01*
Y195497D01*
X566119Y196416D01*
X565416Y197119D01*
X565101Y197250D01*
Y197750D01*
X565416Y197881D01*
X566119Y198584D01*
X566500Y199503D01*
Y200497D01*
X566119Y201416D01*
X565416Y202119D01*
X565101Y202250D01*
Y202750D01*
X565416Y202881D01*
X566119Y203584D01*
X566500Y204503D01*
Y205497D01*
X566119Y206416D01*
X565416Y207119D01*
X565101Y207250D01*
Y207750D01*
X565416Y207881D01*
X566119Y208584D01*
X566500Y209503D01*
Y210497D01*
X566119Y211416D01*
X565416Y212119D01*
X565101Y212250D01*
Y212750D01*
X565416Y212881D01*
X566119Y213584D01*
X566500Y214503D01*
Y215497D01*
X566119Y216416D01*
X565416Y217119D01*
X565101Y217250D01*
Y217750D01*
X565416Y217881D01*
X566119Y218584D01*
X566500Y219503D01*
Y220497D01*
X566119Y221416D01*
X565416Y222119D01*
X565101Y222250D01*
Y222750D01*
X565416Y222881D01*
X566119Y223584D01*
X566500Y224503D01*
Y225497D01*
X566119Y226416D01*
X565416Y227119D01*
X565101Y227250D01*
Y227750D01*
X565416Y227881D01*
X566119Y228584D01*
X566500Y229503D01*
Y230497D01*
X566119Y231416D01*
X565416Y232119D01*
X565101Y232250D01*
Y232750D01*
X565416Y232881D01*
X566119Y233584D01*
X566500Y234503D01*
Y235497D01*
X566119Y236416D01*
X565416Y237119D01*
X565101Y237250D01*
Y237750D01*
X565416Y237881D01*
X566119Y238584D01*
X566500Y239503D01*
Y240497D01*
X566119Y241416D01*
X565416Y242119D01*
X565101Y242250D01*
Y242750D01*
X565416Y242881D01*
X566119Y243584D01*
X566500Y244503D01*
Y245497D01*
X566119Y246416D01*
X565612Y246923D01*
X565472Y247250D01*
X565612Y247577D01*
X566119Y248084D01*
X566500Y249003D01*
Y249997D01*
X566119Y250916D01*
X565416Y251619D01*
X565101Y251750D01*
Y252250D01*
X565416Y252381D01*
X566119Y253084D01*
X566500Y254003D01*
Y254997D01*
X566119Y255916D01*
X565416Y256619D01*
X565101Y256750D01*
Y257250D01*
X565416Y257381D01*
X566119Y258084D01*
X566500Y259003D01*
Y259997D01*
X566119Y260916D01*
X565416Y261619D01*
X565101Y261750D01*
Y262250D01*
X565416Y262381D01*
X566119Y263084D01*
X566500Y264003D01*
Y264997D01*
X566119Y265916D01*
X565416Y266619D01*
X565101Y266750D01*
Y267250D01*
X565416Y267381D01*
X566119Y268084D01*
X566500Y269003D01*
Y269997D01*
X566119Y270916D01*
X565416Y271619D01*
X565101Y271750D01*
Y272250D01*
X565416Y272381D01*
X566119Y273084D01*
X566500Y274003D01*
Y274997D01*
X566119Y275916D01*
X565416Y276619D01*
X565101Y276750D01*
Y277250D01*
X565416Y277381D01*
X566119Y278084D01*
X566500Y279003D01*
Y279997D01*
X566119Y280916D01*
X565416Y281619D01*
X565101Y281750D01*
Y282250D01*
X565416Y282381D01*
X566119Y283084D01*
X566500Y284003D01*
Y284997D01*
X566119Y285916D01*
X565416Y286619D01*
X565101Y286750D01*
Y287250D01*
X565416Y287381D01*
X566119Y288084D01*
X566500Y289003D01*
Y289997D01*
X566119Y290916D01*
X565416Y291619D01*
X565182Y291716D01*
Y292216D01*
X565418Y292314D01*
X566121Y293018D01*
X566502Y293936D01*
Y294931D01*
X566121Y295850D01*
X565418Y296553D01*
X565103Y296684D01*
Y297184D01*
X565418Y297314D01*
X566121Y298018D01*
X566502Y298936D01*
Y299931D01*
X566121Y300850D01*
X565418Y301553D01*
X565103Y301684D01*
Y302184D01*
X565418Y302314D01*
X566121Y303017D01*
X566502Y303936D01*
Y304931D01*
X566121Y305850D01*
X565418Y306553D01*
X565103Y306684D01*
Y307184D01*
X565418Y307314D01*
X566121Y308017D01*
X566502Y308936D01*
Y309931D01*
X566121Y310850D01*
X565418Y311553D01*
X565103Y311684D01*
Y312184D01*
X565418Y312314D01*
X566121Y313018D01*
X566502Y313936D01*
Y314931D01*
X566121Y315850D01*
X565418Y316553D01*
X565103Y316684D01*
Y317184D01*
X565418Y317314D01*
X566121Y318018D01*
X566502Y318936D01*
Y319931D01*
X566121Y320850D01*
X565418Y321553D01*
X565103Y321684D01*
Y322184D01*
X565418Y322314D01*
X566121Y323018D01*
X566502Y323936D01*
Y324931D01*
X566121Y325850D01*
X565418Y326553D01*
X565103Y326684D01*
Y327184D01*
X565418Y327314D01*
X566121Y328017D01*
X566502Y328936D01*
Y329931D01*
X566121Y330850D01*
X565418Y331553D01*
X565103Y331684D01*
Y332184D01*
X565418Y332314D01*
X566121Y333017D01*
X566502Y333936D01*
Y334931D01*
X566121Y335850D01*
X565418Y336553D01*
X565071Y336697D01*
Y337238D01*
X565416Y337381D01*
X566119Y338084D01*
X566500Y339003D01*
Y339997D01*
X566119Y340916D01*
X565416Y341619D01*
X565101Y341750D01*
Y342250D01*
X565416Y342381D01*
X566119Y343084D01*
X566500Y344003D01*
Y344997D01*
X566119Y345916D01*
X565416Y346619D01*
X565101Y346750D01*
Y347250D01*
X565416Y347381D01*
X566119Y348084D01*
X566500Y349003D01*
Y349997D01*
X566119Y350916D01*
X565416Y351619D01*
X565101Y351750D01*
Y352250D01*
X565416Y352381D01*
X566119Y353084D01*
X566500Y354003D01*
Y354997D01*
X566119Y355916D01*
X565416Y356619D01*
X565101Y356750D01*
Y357250D01*
X565416Y357381D01*
X566119Y358084D01*
X566500Y359003D01*
Y359997D01*
X566119Y360916D01*
X565416Y361619D01*
X565101Y361750D01*
Y362250D01*
X565416Y362381D01*
X566119Y363084D01*
X566500Y364003D01*
Y364997D01*
X566119Y365916D01*
X565416Y366619D01*
X565101Y366750D01*
Y367250D01*
X565416Y367381D01*
X566119Y368084D01*
X566500Y369003D01*
Y369997D01*
X566119Y370916D01*
X565416Y371619D01*
X565101Y371750D01*
Y372250D01*
X565416Y372381D01*
X566119Y373084D01*
X566500Y374003D01*
Y374997D01*
X566119Y375916D01*
X565416Y376619D01*
X565101Y376750D01*
Y377250D01*
X565416Y377381D01*
X566119Y378084D01*
X566500Y379003D01*
Y379997D01*
X566119Y380916D01*
X565416Y381619D01*
X564497Y382000D01*
D02*
G37*
G36*
X557497D02*
X556503D01*
X555584Y381619D01*
X554881Y380916D01*
X554500Y379997D01*
Y379003D01*
X554881Y378084D01*
X555584Y377381D01*
X555899Y377250D01*
Y376750D01*
X555584Y376619D01*
X554881Y375916D01*
X554500Y374997D01*
Y374003D01*
X554881Y373084D01*
X555584Y372381D01*
X555899Y372250D01*
Y371750D01*
X555584Y371619D01*
X554881Y370916D01*
X554500Y369997D01*
Y369003D01*
X554881Y368084D01*
X555584Y367381D01*
X555899Y367250D01*
Y366750D01*
X555584Y366619D01*
X554881Y365916D01*
X554500Y364997D01*
Y364003D01*
X554881Y363084D01*
X555584Y362381D01*
X555899Y362250D01*
Y361750D01*
X555584Y361619D01*
X554881Y360916D01*
X554500Y359997D01*
Y359003D01*
X554881Y358084D01*
X555584Y357381D01*
X555899Y357250D01*
Y356750D01*
X555584Y356619D01*
X554881Y355916D01*
X554500Y354997D01*
Y354003D01*
X554881Y353084D01*
X555584Y352381D01*
X555899Y352250D01*
Y351750D01*
X555584Y351619D01*
X554881Y350916D01*
X554500Y349997D01*
Y349003D01*
X554881Y348084D01*
X555584Y347381D01*
X555899Y347250D01*
Y346750D01*
X555584Y346619D01*
X554881Y345916D01*
X554500Y344997D01*
Y344003D01*
X554881Y343084D01*
X555584Y342381D01*
X555899Y342250D01*
Y341750D01*
X555584Y341619D01*
X554881Y340916D01*
X554500Y339997D01*
Y339003D01*
X554881Y338084D01*
X555584Y337381D01*
X555931Y337237D01*
Y336696D01*
X555586Y336553D01*
X554882Y335850D01*
X554502Y334931D01*
Y333936D01*
X554882Y333017D01*
X555586Y332314D01*
X555901Y332184D01*
Y331684D01*
X555586Y331553D01*
X554882Y330850D01*
X554502Y329931D01*
Y328936D01*
X554882Y328017D01*
X555586Y327314D01*
X555901Y327184D01*
Y326684D01*
X555586Y326553D01*
X554882Y325850D01*
X554502Y324931D01*
Y323936D01*
X554882Y323018D01*
X555586Y322314D01*
X555901Y322184D01*
Y321684D01*
X555586Y321553D01*
X554882Y320850D01*
X554502Y319931D01*
Y318936D01*
X554882Y318018D01*
X555586Y317314D01*
X555901Y317184D01*
Y316684D01*
X555586Y316553D01*
X554882Y315850D01*
X554502Y314931D01*
Y313936D01*
X554882Y313018D01*
X555586Y312314D01*
X555901Y312184D01*
Y311684D01*
X555586Y311553D01*
X554882Y310850D01*
X554502Y309931D01*
Y308936D01*
X554882Y308017D01*
X555586Y307314D01*
X555901Y307184D01*
Y306684D01*
X555586Y306553D01*
X554882Y305850D01*
X554502Y304931D01*
Y303936D01*
X554882Y303017D01*
X555586Y302314D01*
X555901Y302184D01*
Y301684D01*
X555586Y301553D01*
X554882Y300850D01*
X554502Y299931D01*
Y298936D01*
X554882Y298018D01*
X555586Y297314D01*
X555901Y297184D01*
Y296684D01*
X555586Y296553D01*
X554882Y295850D01*
X554502Y294931D01*
Y293936D01*
X554882Y293018D01*
X555586Y292314D01*
X555820Y292217D01*
Y291717D01*
X555584Y291619D01*
X554881Y290916D01*
X554500Y289997D01*
Y289003D01*
X554881Y288084D01*
X555584Y287381D01*
X555899Y287250D01*
Y286750D01*
X555584Y286619D01*
X554881Y285916D01*
X554500Y284997D01*
Y284003D01*
X554881Y283084D01*
X555584Y282381D01*
X555899Y282250D01*
Y281750D01*
X555584Y281619D01*
X554881Y280916D01*
X554500Y279997D01*
Y279003D01*
X554881Y278084D01*
X555584Y277381D01*
X555899Y277250D01*
Y276750D01*
X555584Y276619D01*
X554881Y275916D01*
X554500Y274997D01*
Y274003D01*
X554881Y273084D01*
X555584Y272381D01*
X555899Y272250D01*
Y271750D01*
X555584Y271619D01*
X554881Y270916D01*
X554500Y269997D01*
Y269003D01*
X554881Y268084D01*
X555584Y267381D01*
X555899Y267250D01*
Y266750D01*
X555584Y266619D01*
X554881Y265916D01*
X554500Y264997D01*
Y264003D01*
X554881Y263084D01*
X555584Y262381D01*
X555899Y262250D01*
Y261750D01*
X555584Y261619D01*
X554881Y260916D01*
X554500Y259997D01*
Y259003D01*
X554881Y258084D01*
X555584Y257381D01*
X555899Y257250D01*
Y256750D01*
X555584Y256619D01*
X554881Y255916D01*
X554500Y254997D01*
Y254003D01*
X554881Y253084D01*
X555584Y252381D01*
X555899Y252250D01*
Y251750D01*
X555584Y251619D01*
X554881Y250916D01*
X554500Y249997D01*
Y249003D01*
X554881Y248084D01*
X555388Y247577D01*
X555528Y247250D01*
X555388Y246923D01*
X554881Y246416D01*
X554500Y245497D01*
Y244503D01*
X554881Y243584D01*
X555584Y242881D01*
X555899Y242750D01*
Y242250D01*
X555584Y242119D01*
X554881Y241416D01*
X554500Y240497D01*
Y239503D01*
X554881Y238584D01*
X555584Y237881D01*
X555899Y237750D01*
Y237250D01*
X555584Y237119D01*
X554881Y236416D01*
X554500Y235497D01*
Y234503D01*
X554881Y233584D01*
X555584Y232881D01*
X555899Y232750D01*
Y232250D01*
X555584Y232119D01*
X554881Y231416D01*
X554500Y230497D01*
Y229503D01*
X554881Y228584D01*
X555584Y227881D01*
X555899Y227750D01*
Y227250D01*
X555584Y227119D01*
X554881Y226416D01*
X554500Y225497D01*
Y224503D01*
X554881Y223584D01*
X555584Y222881D01*
X555899Y222750D01*
Y222250D01*
X555584Y222119D01*
X554881Y221416D01*
X554500Y220497D01*
Y219503D01*
X554881Y218584D01*
X555584Y217881D01*
X555899Y217750D01*
Y217250D01*
X555584Y217119D01*
X554881Y216416D01*
X554500Y215497D01*
Y214503D01*
X554881Y213584D01*
X555584Y212881D01*
X555899Y212750D01*
Y212250D01*
X555584Y212119D01*
X554881Y211416D01*
X554500Y210497D01*
Y209503D01*
X554881Y208584D01*
X555584Y207881D01*
X555899Y207750D01*
Y207250D01*
X555584Y207119D01*
X554881Y206416D01*
X554500Y205497D01*
Y204503D01*
X554881Y203584D01*
X555584Y202881D01*
X555899Y202750D01*
Y202250D01*
X555584Y202119D01*
X554881Y201416D01*
X554500Y200497D01*
Y199503D01*
X554881Y198584D01*
X555584Y197881D01*
X555899Y197750D01*
Y197250D01*
X555584Y197119D01*
X554881Y196416D01*
X554500Y195497D01*
Y194503D01*
X554881Y193584D01*
X555584Y192881D01*
X555899Y192750D01*
Y192250D01*
X555584Y192119D01*
X554881Y191416D01*
X554500Y190497D01*
Y189503D01*
X554881Y188584D01*
X555584Y187881D01*
X555899Y187750D01*
Y187250D01*
X555584Y187119D01*
X554881Y186416D01*
X554500Y185497D01*
Y184503D01*
X554881Y183584D01*
X555584Y182881D01*
X555899Y182750D01*
Y182250D01*
X555584Y182119D01*
X554881Y181416D01*
X554500Y180497D01*
Y179503D01*
X554881Y178584D01*
X555584Y177881D01*
X555899Y177750D01*
Y177250D01*
X555584Y177119D01*
X554881Y176416D01*
X554500Y175497D01*
Y174503D01*
X554881Y173584D01*
X555584Y172881D01*
X555899Y172750D01*
Y172250D01*
X555584Y172119D01*
X554881Y171416D01*
X554500Y170497D01*
Y169503D01*
X554881Y168584D01*
X555584Y167881D01*
X555899Y167750D01*
Y167250D01*
X555584Y167119D01*
X554881Y166416D01*
X554500Y165497D01*
Y164503D01*
X554881Y163584D01*
X555584Y162881D01*
X555899Y162750D01*
Y162250D01*
X555584Y162119D01*
X554881Y161416D01*
X554500Y160497D01*
Y159503D01*
X554881Y158584D01*
X555584Y157881D01*
X556503Y157500D01*
X557497D01*
X558416Y157881D01*
X559119Y158584D01*
X559500Y159503D01*
Y160497D01*
X559119Y161416D01*
X558416Y162119D01*
X558101Y162250D01*
Y162750D01*
X558416Y162881D01*
X559119Y163584D01*
X559500Y164503D01*
Y165497D01*
X559119Y166416D01*
X558416Y167119D01*
X558101Y167250D01*
Y167750D01*
X558416Y167881D01*
X559119Y168584D01*
X559500Y169503D01*
Y170497D01*
X559119Y171416D01*
X558416Y172119D01*
X558101Y172250D01*
Y172750D01*
X558416Y172881D01*
X559119Y173584D01*
X559500Y174503D01*
Y175497D01*
X559119Y176416D01*
X558416Y177119D01*
X558101Y177250D01*
Y177750D01*
X558416Y177881D01*
X559119Y178584D01*
X559500Y179503D01*
Y180497D01*
X559119Y181416D01*
X558416Y182119D01*
X558101Y182250D01*
Y182750D01*
X558416Y182881D01*
X559119Y183584D01*
X559500Y184503D01*
Y185497D01*
X559119Y186416D01*
X558416Y187119D01*
X558101Y187250D01*
Y187750D01*
X558416Y187881D01*
X559119Y188584D01*
X559500Y189503D01*
Y190497D01*
X559119Y191416D01*
X558416Y192119D01*
X558101Y192250D01*
Y192750D01*
X558416Y192881D01*
X559119Y193584D01*
X559500Y194503D01*
Y195497D01*
X559119Y196416D01*
X558416Y197119D01*
X558101Y197250D01*
Y197750D01*
X558416Y197881D01*
X559119Y198584D01*
X559500Y199503D01*
Y200497D01*
X559119Y201416D01*
X558416Y202119D01*
X558101Y202250D01*
Y202750D01*
X558416Y202881D01*
X559119Y203584D01*
X559500Y204503D01*
Y205497D01*
X559119Y206416D01*
X558416Y207119D01*
X558101Y207250D01*
Y207750D01*
X558416Y207881D01*
X559119Y208584D01*
X559500Y209503D01*
Y210497D01*
X559119Y211416D01*
X558416Y212119D01*
X558101Y212250D01*
Y212750D01*
X558416Y212881D01*
X559119Y213584D01*
X559500Y214503D01*
Y215497D01*
X559119Y216416D01*
X558416Y217119D01*
X558101Y217250D01*
Y217750D01*
X558416Y217881D01*
X559119Y218584D01*
X559500Y219503D01*
Y220497D01*
X559119Y221416D01*
X558416Y222119D01*
X558101Y222250D01*
Y222750D01*
X558416Y222881D01*
X559119Y223584D01*
X559500Y224503D01*
Y225497D01*
X559119Y226416D01*
X558416Y227119D01*
X558101Y227250D01*
Y227750D01*
X558416Y227881D01*
X559119Y228584D01*
X559500Y229503D01*
Y230497D01*
X559119Y231416D01*
X558416Y232119D01*
X558101Y232250D01*
Y232750D01*
X558416Y232881D01*
X559119Y233584D01*
X559500Y234503D01*
Y235497D01*
X559119Y236416D01*
X558416Y237119D01*
X558101Y237250D01*
Y237750D01*
X558416Y237881D01*
X559119Y238584D01*
X559500Y239503D01*
Y240497D01*
X559119Y241416D01*
X558416Y242119D01*
X558101Y242250D01*
Y242750D01*
X558416Y242881D01*
X559119Y243584D01*
X559500Y244503D01*
Y245497D01*
X559119Y246416D01*
X558612Y246923D01*
X558472Y247250D01*
X558612Y247577D01*
X559119Y248084D01*
X559500Y249003D01*
Y249997D01*
X559119Y250916D01*
X558416Y251619D01*
X558101Y251750D01*
Y252250D01*
X558416Y252381D01*
X559119Y253084D01*
X559500Y254003D01*
Y254997D01*
X559119Y255916D01*
X558416Y256619D01*
X558101Y256750D01*
Y257250D01*
X558416Y257381D01*
X559119Y258084D01*
X559500Y259003D01*
Y259997D01*
X559119Y260916D01*
X558416Y261619D01*
X558101Y261750D01*
Y262250D01*
X558416Y262381D01*
X559119Y263084D01*
X559500Y264003D01*
Y264997D01*
X559119Y265916D01*
X558416Y266619D01*
X558101Y266750D01*
Y267250D01*
X558416Y267381D01*
X559119Y268084D01*
X559500Y269003D01*
Y269997D01*
X559119Y270916D01*
X558416Y271619D01*
X558101Y271750D01*
Y272250D01*
X558416Y272381D01*
X559119Y273084D01*
X559500Y274003D01*
Y274997D01*
X559119Y275916D01*
X558416Y276619D01*
X558101Y276750D01*
Y277250D01*
X558416Y277381D01*
X559119Y278084D01*
X559500Y279003D01*
Y279997D01*
X559119Y280916D01*
X558416Y281619D01*
X558101Y281750D01*
Y282250D01*
X558416Y282381D01*
X559119Y283084D01*
X559500Y284003D01*
Y284997D01*
X559119Y285916D01*
X558416Y286619D01*
X558101Y286750D01*
Y287250D01*
X558416Y287381D01*
X559119Y288084D01*
X559500Y289003D01*
Y289997D01*
X559119Y290916D01*
X558416Y291619D01*
X558182Y291716D01*
Y292216D01*
X558418Y292314D01*
X559121Y293018D01*
X559502Y293936D01*
Y294931D01*
X559121Y295850D01*
X558418Y296553D01*
X558103Y296684D01*
Y297184D01*
X558418Y297314D01*
X559121Y298018D01*
X559502Y298936D01*
Y299931D01*
X559121Y300850D01*
X558418Y301553D01*
X558103Y301684D01*
Y302184D01*
X558418Y302314D01*
X559121Y303017D01*
X559502Y303936D01*
Y304931D01*
X559121Y305850D01*
X558418Y306553D01*
X558103Y306684D01*
Y307184D01*
X558418Y307314D01*
X559121Y308017D01*
X559502Y308936D01*
Y309931D01*
X559121Y310850D01*
X558418Y311553D01*
X558103Y311684D01*
Y312184D01*
X558418Y312314D01*
X559121Y313018D01*
X559502Y313936D01*
Y314931D01*
X559121Y315850D01*
X558418Y316553D01*
X558103Y316684D01*
Y317184D01*
X558418Y317314D01*
X559121Y318018D01*
X559502Y318936D01*
Y319931D01*
X559121Y320850D01*
X558418Y321553D01*
X558103Y321684D01*
Y322184D01*
X558418Y322314D01*
X559121Y323018D01*
X559502Y323936D01*
Y324931D01*
X559121Y325850D01*
X558418Y326553D01*
X558103Y326684D01*
Y327184D01*
X558418Y327314D01*
X559121Y328017D01*
X559502Y328936D01*
Y329931D01*
X559121Y330850D01*
X558418Y331553D01*
X558103Y331684D01*
Y332184D01*
X558418Y332314D01*
X559121Y333017D01*
X559502Y333936D01*
Y334931D01*
X559121Y335850D01*
X558418Y336553D01*
X558071Y336697D01*
Y337238D01*
X558416Y337381D01*
X559119Y338084D01*
X559500Y339003D01*
Y339997D01*
X559119Y340916D01*
X558416Y341619D01*
X558101Y341750D01*
Y342250D01*
X558416Y342381D01*
X559119Y343084D01*
X559500Y344003D01*
Y344997D01*
X559119Y345916D01*
X558416Y346619D01*
X558101Y346750D01*
Y347250D01*
X558416Y347381D01*
X559119Y348084D01*
X559500Y349003D01*
Y349997D01*
X559119Y350916D01*
X558416Y351619D01*
X558101Y351750D01*
Y352250D01*
X558416Y352381D01*
X559119Y353084D01*
X559500Y354003D01*
Y354997D01*
X559119Y355916D01*
X558416Y356619D01*
X558101Y356750D01*
Y357250D01*
X558416Y357381D01*
X559119Y358084D01*
X559500Y359003D01*
Y359997D01*
X559119Y360916D01*
X558416Y361619D01*
X558101Y361750D01*
Y362250D01*
X558416Y362381D01*
X559119Y363084D01*
X559500Y364003D01*
Y364997D01*
X559119Y365916D01*
X558416Y366619D01*
X558101Y366750D01*
Y367250D01*
X558416Y367381D01*
X559119Y368084D01*
X559500Y369003D01*
Y369997D01*
X559119Y370916D01*
X558416Y371619D01*
X558101Y371750D01*
Y372250D01*
X558416Y372381D01*
X559119Y373084D01*
X559500Y374003D01*
Y374997D01*
X559119Y375916D01*
X558416Y376619D01*
X558101Y376750D01*
Y377250D01*
X558416Y377381D01*
X559119Y378084D01*
X559500Y379003D01*
Y379997D01*
X559119Y380916D01*
X558416Y381619D01*
X557497Y382000D01*
D02*
G37*
G36*
X608508Y179311D02*
X606492D01*
X604500Y178996D01*
X602582Y178372D01*
X600786Y177457D01*
X599154Y176272D01*
X597728Y174846D01*
X596543Y173214D01*
X595628Y171418D01*
X595004Y169500D01*
X594689Y167508D01*
Y165492D01*
X595004Y163500D01*
X595628Y161582D01*
X596543Y159786D01*
X597728Y158154D01*
X599154Y156728D01*
X600786Y155543D01*
X602582Y154628D01*
X604500Y154004D01*
X606492Y153689D01*
X608508D01*
X610500Y154004D01*
X612418Y154628D01*
X614214Y155543D01*
X615846Y156728D01*
X617272Y158154D01*
X618457Y159786D01*
X619372Y161582D01*
X619996Y163500D01*
X620311Y165492D01*
Y167508D01*
X619996Y169500D01*
X619372Y171418D01*
X618457Y173214D01*
X617272Y174846D01*
X615846Y176272D01*
X614214Y177457D01*
X612418Y178372D01*
X610500Y178996D01*
X608508Y179311D01*
D02*
G37*
G36*
X428508D02*
X426492D01*
X424500Y178996D01*
X422582Y178372D01*
X420786Y177457D01*
X419154Y176272D01*
X417728Y174846D01*
X416543Y173214D01*
X415628Y171418D01*
X415004Y169500D01*
X414689Y167508D01*
Y165492D01*
X415004Y163500D01*
X415628Y161582D01*
X416543Y159786D01*
X417728Y158154D01*
X419154Y156728D01*
X420786Y155543D01*
X422582Y154628D01*
X424500Y154004D01*
X426492Y153689D01*
X428508D01*
X430500Y154004D01*
X432418Y154628D01*
X434214Y155543D01*
X435846Y156728D01*
X437272Y158154D01*
X438457Y159786D01*
X439372Y161582D01*
X439996Y163500D01*
X440311Y165492D01*
Y167508D01*
X439996Y169500D01*
X439372Y171418D01*
X438457Y173214D01*
X437272Y174846D01*
X435846Y176272D01*
X434214Y177457D01*
X432418Y178372D01*
X430500Y178996D01*
X428508Y179311D01*
D02*
G37*
G36*
X248508D02*
X246492D01*
X244500Y178996D01*
X242582Y178372D01*
X240786Y177457D01*
X239154Y176272D01*
X237728Y174846D01*
X236543Y173214D01*
X235628Y171418D01*
X235004Y169500D01*
X234689Y167508D01*
Y165492D01*
X235004Y163500D01*
X235628Y161582D01*
X236543Y159786D01*
X237728Y158154D01*
X239154Y156728D01*
X240786Y155543D01*
X242582Y154628D01*
X244500Y154004D01*
X246492Y153689D01*
X248508D01*
X250500Y154004D01*
X252418Y154628D01*
X254214Y155543D01*
X255846Y156728D01*
X257272Y158154D01*
X258457Y159786D01*
X259372Y161582D01*
X259996Y163500D01*
X260311Y165492D01*
Y167508D01*
X259996Y169500D01*
X259372Y171418D01*
X258457Y173214D01*
X257272Y174846D01*
X255846Y176272D01*
X254214Y177457D01*
X252418Y178372D01*
X250500Y178996D01*
X248508Y179311D01*
D02*
G37*
G36*
X424527Y133500D02*
X423473D01*
X422456Y133227D01*
X421544Y132701D01*
X420799Y131956D01*
X420273Y131044D01*
X420000Y130027D01*
Y128973D01*
X420273Y127956D01*
X420799Y127044D01*
X421544Y126299D01*
X422456Y125773D01*
X423473Y125500D01*
X424527D01*
X425544Y125773D01*
X426456Y126299D01*
X427201Y127044D01*
X427727Y127956D01*
X428000Y128973D01*
Y130027D01*
X427727Y131044D01*
X427201Y131956D01*
X426456Y132701D01*
X425544Y133227D01*
X424527Y133500D01*
D02*
G37*
G36*
X407527D02*
X406473D01*
X405456Y133227D01*
X404544Y132701D01*
X403799Y131956D01*
X403273Y131044D01*
X403000Y130027D01*
Y128973D01*
X403273Y127956D01*
X403799Y127044D01*
X404544Y126299D01*
X405456Y125773D01*
X406473Y125500D01*
X407527D01*
X408544Y125773D01*
X409456Y126299D01*
X410201Y127044D01*
X410727Y127956D01*
X411000Y128973D01*
Y130027D01*
X410727Y131044D01*
X410201Y131956D01*
X409456Y132701D01*
X408544Y133227D01*
X407527Y133500D01*
D02*
G37*
%LPD*%
D34*
X373000Y352500D02*
X481500D01*
X489000Y345000D01*
X366273Y345773D02*
X373000Y352500D01*
X366273Y337727D02*
Y345773D01*
Y337727D02*
X367000Y337000D01*
X363000Y333472D02*
X366528Y337000D01*
X367000D01*
X489000Y224500D02*
Y344500D01*
Y345000D01*
X363000Y199500D02*
Y333472D01*
D38*
X546000Y428000D02*
D03*
D40*
X379500Y166000D02*
D03*
X378500Y231500D02*
D03*
X475000Y191500D02*
D03*
X474000Y312000D02*
D03*
X379000Y348000D02*
D03*
X367000Y337000D02*
D03*
X489000Y224500D02*
D03*
Y344500D02*
D03*
X363000Y199500D02*
D03*
M02*
