M48
;Layer_Color=9474304
;FILE_FORMAT=2:5
INCH,LZ
;TYPE=PLATED
T1F00S00C0.01500
T2F00S00C0.01800
T3F00S00C0.02800
T4F00S00C0.02953
T5F00S00C0.03000
T6F00S00C0.04528
T7F00S00C0.19685
%
T01
X0508Y01925
X0513
X0518
X0523
Y0197786
X0518
X0513
X0508
Y0203071
X0513
X0518
X0523
Y0208357
X0518
X0513
X0508
Y0213643
X0513
X0518
X0523
Y0218929
X0518
X0513
X0508
Y0224214
X0513
X0518
X0523
Y02295
X0518
X0513
X0508
X05285
Y0224214
Y0218929
Y0213643
Y0208357
Y0203071
Y0197786
Y01925
X03455Y0194
Y0199286
Y0204571
Y0209857
Y0215143
Y0220428
Y0225714
Y0231
X034
X0335
X033
X0325
Y0225714
X033
X0335
X034
Y0220428
X0335
X033
X0325
Y0215143
X033
X0335
X034
Y0209857
X0335
X033
X0325
Y0204571
X033
X0335
X034
Y0199286
X0335
X033
X0325
Y0194
X033
X0335
X034
X03395Y03115
X03345
X03295
X03245
X0345
Y0316786
Y0322071
Y0327357
Y0332643
Y0337929
Y0343214
Y03485
X03395
X03345
X03295
X03245
Y0343214
X03295
X03345
X03395
Y0337929
X03345
X03295
X03245
Y0332643
X03295
X03345
X03395
Y0327357
X03345
X03295
X03245
Y0322071
X03295
X03345
X03395
Y0316786
X03345
X03295
X03245
X0507Y0317786
X0512
X0517
X0522
Y03125
X0517
X0512
X0507
Y0323071
X0512
X0517
X0522
Y0328357
X0517
X0512
X0507
Y0333643
X0512
X0517
X0522
Y0338929
X0517
X0512
X0507
Y0344214
X0512
X0517
X0522
Y03495
X0517
X0512
X0507
X05275
Y0344214
Y0338929
Y0333643
Y0328357
Y0323071
Y0317786
Y03125
T02
X04985Y0177603
Y0182103
Y0186603
X05035
Y0182103
Y0177603
X05085
Y0182103
Y0186603
X05135
Y0182103
Y0177603
X05185
Y0182103
Y0186603
X05235
Y0182103
Y0177603
X05285
Y0182103
Y0186603
X0535103Y01915
X0539603
X0544103
Y01965
X0539603
X0535103
Y02015
X0539603
X0544103
Y02065
X0539603
X0535103
Y02115
X0539603
X0544103
Y02165
X0539603
X0535103
Y02215
X0539603
X0544103
Y02265
X0539603
X0535103
Y02315
X0539603
X0544103
X0557Y023
Y0225
Y022
Y0215
Y021
Y0205
Y02
Y0195
Y019
Y0185
Y018
Y0175
Y017
Y0165
Y016
X0564
Y0165
Y017
Y0175
Y018
Y0185
Y019
Y0195
Y02
Y0205
Y021
Y0215
Y022
Y0225
Y023
Y0235
Y024
Y0245
Y02495
Y02545
Y02595
Y02645
Y02695
Y02745
Y02795
Y02845
Y02895
X0564002Y0294434
Y0299434
Y0304434
Y0309434
X0557002
Y0304434
Y0299434
Y0294434
X0557Y02895
Y02845
Y02795
Y02745
Y02695
Y02645
Y02595
Y02545
Y02495
Y0245
Y024
Y0235
X05715
Y023
Y0225
Y022
Y0215
Y021
Y0205
Y02
Y0195
Y019
Y0185
Y018
Y0175
Y017
Y0165
Y016
X0579
Y0165
Y017
Y0175
Y018
Y0185
Y019
Y0195
Y02
Y0205
Y021
Y0215
Y022
Y0225
Y023
Y0235
Y024
Y0245
Y02495
Y02545
Y02595
Y02645
Y02695
Y02745
Y02795
Y02845
Y02895
X0579002Y0294434
Y0299434
Y0304434
Y0309434
X0571502
Y0304434
Y0299434
Y0294434
X05715Y02895
Y02845
Y02795
Y02745
Y02695
Y02645
Y02595
Y02545
Y02495
Y0245
Y024
X0528Y0240103
Y0244603
X0523
Y0240103
Y0235603
X0518
Y0240103
Y0244603
X0513
Y0240103
Y0235603
X0508
Y0240103
Y0244603
X0503
Y0240103
Y0235603
X0498
Y0240103
Y0244603
X0493
Y0240103
Y0235603
X0528
Y0297603
Y0302103
Y0306603
X0523
Y0302103
Y0297603
X0518
Y0302103
Y0306603
X0513
Y0302103
Y0297603
X0508
Y0302103
Y0306603
X0503
Y0302103
Y0297603
X0498
Y0302103
Y0306603
X0534603Y03115
X0539103
X0543603
X0358Y0305397
Y0300897
Y0296397
X0353
Y0300897
Y0305397
X0348
Y0300897
Y0296397
X0343
Y0300897
Y0305397
X0338
Y0300897
Y0296397
X0333
Y0300897
Y0305397
X0328
Y0300897
Y0296397
X0323
Y0300897
Y0305397
X0315897Y03095
X0324Y0246397
Y0241897
Y0237397
X0329
Y0241897
Y0246397
X0334
Y0241897
Y0237397
X0339
Y0241897
Y0246397
X0344
Y0241897
Y0237397
X0349
Y0241897
Y0246397
X0354
Y0241897
Y0237397
X0317397Y02325
X0312897
Y02275
X0317397
Y02225
X0312897
Y02175
X0317397
Y02125
X0312897
Y02075
X0317397
Y02025
X0312897
Y01975
X0317397
Y01925
X0312897
X03245Y0188397
Y0183897
Y0179397
X03295
Y0183897
Y0188397
X03345
Y0183897
Y0179397
X03395
Y0183897
Y0188397
X03445
Y0183897
Y0179397
X03495
Y0183897
Y0188397
X03545
Y0183897
Y0179397
X03595
Y0183897
Y0188397
X0308397Y01925
Y01975
Y02025
Y02075
Y02125
Y02175
Y02225
Y02275
Y02325
X0298Y02305
Y02355
Y02405
Y02455
Y025
Y0255
Y026
Y0265
Y027
Y0275
Y028
Y0285
Y029
X0298002Y0294934
Y0299934
Y0304934
Y0309934
X0290502
Y0304934
Y0299934
Y0294934
X02905Y029
Y0285
Y028
Y0275
Y027
Y0265
Y026
Y0255
Y025
Y02455
Y02405
Y02355
Y02305
Y02255
Y02205
Y02155
Y02105
Y02055
Y02005
Y01955
Y01905
Y01855
Y01805
Y01755
Y01705
Y01655
Y01605
X0298
Y01655
Y01705
Y01755
Y01805
Y01855
Y01905
Y01955
Y02005
Y02055
Y02105
Y02155
Y02205
Y02255
X0283
Y02305
Y02355
Y02405
Y02455
Y025
Y0255
Y026
Y0265
Y027
Y0275
Y028
Y0285
Y029
X0283002Y0294934
Y0299934
Y0304934
Y0309934
X0276002
Y0304934
Y0299934
Y0294934
X0276Y029
Y0285
Y028
Y0275
Y027
Y0265
Y026
Y0255
Y025
Y02455
Y02405
Y02355
Y02305
Y02255
Y02205
Y02155
Y02105
Y02055
Y02005
Y01955
Y01905
Y01855
Y01805
Y01755
Y01705
Y01655
Y01605
X0283
Y01655
Y01705
Y01755
Y01805
Y01855
Y01905
Y01955
Y02005
Y02055
Y02105
Y02155
Y02205
X0306897Y03095
X0311397
Y03145
X0306897
Y03195
X0311397
Y03245
X0306897
Y03295
X0311397
Y03345
X0306897
Y03395
X0311397
Y03445
X0306897
Y03495
X0311397
X0298Y035
Y0355
Y036
Y0365
Y037
Y0375
Y038
X02905
Y0375
Y037
Y0365
Y036
Y0355
Y035
Y0345
Y034
X0290502Y0334934
Y0329934
Y0324934
Y0319934
Y0314934
X0283002
Y0319934
Y0324934
Y0329934
Y0334934
X0283Y034
Y0345
Y035
Y0355
Y036
Y0365
Y037
Y0375
Y038
X0276
Y0375
Y037
Y0365
Y036
Y0355
Y035
Y0345
Y034
X0276002Y0334934
Y0329934
Y0324934
Y0319934
Y0314934
X0298002
Y0319934
Y0324934
Y0329934
Y0334934
X0298Y034
Y0345
X0315897Y03445
Y03395
Y03345
Y03295
Y03245
Y03195
Y03145
Y03495
X03225Y0354397
Y0358897
Y0363397
X03275
Y0358897
Y0354397
X03325
Y0358897
Y0363397
X03375
Y0358897
Y0354397
X03425
Y0358897
Y0363397
X03475
Y0358897
Y0354397
X03525
Y0358897
Y0363397
X04925Y0364603
Y0360103
Y0355603
X04975
Y0360103
Y0364603
X05025
Y0360103
Y0355603
X05075
Y0360103
Y0364603
X05125
Y0360103
Y0355603
X05175
Y0360103
Y0364603
X05225
Y0360103
Y0355603
X05275
Y0360103
Y0364603
X0534603Y03515
X0539103
X0543603
Y03465
X0539103
X0534603
Y03415
X0539103
X0543603
Y03365
X0539103
X0534603
Y03315
X0539103
X0543603
Y03265
X0539103
X0534603
Y03215
X0539103
X0543603
Y03165
X0539103
X0534603
X0557002Y0314434
Y0319434
Y0324434
Y0329434
Y0334434
X0557Y03395
Y03445
Y03495
Y03545
Y03595
Y03645
Y03695
Y03745
Y03795
X0564
Y03745
Y03695
Y03645
Y03595
Y03545
Y03495
Y03445
Y03395
X0564002Y0334434
Y0329434
Y0324434
Y0319434
Y0314434
X0571502
Y0319434
Y0324434
Y0329434
Y0334434
X05715Y03395
Y03445
Y03495
Y03545
Y03595
Y03645
Y03695
Y03745
Y03795
X0579
Y03745
Y03695
Y03645
Y03595
Y03545
Y03495
Y03445
Y03395
X0579002Y0334434
Y0329434
Y0324434
Y0319434
Y0314434
T03
X0475Y01915
X0489Y02245
X0474Y0312
X04505Y0307
X04465Y0257
X04435Y0211
X045Y0189
X03935Y01895
X03795Y0166
X0363Y01995
X03785Y02315
X0408Y0226256
X03925Y0307
X04085Y03445
X0379Y0348
X0367Y0337
X03875Y03975
X04435Y03305
X0489Y03445
T04
X0397Y04125
X0417Y04025
Y04225
T05
X0407Y01295
X0424
X04725Y0428
X050925
X0546
T06
X03045Y0405
Y0455
X03545
Y0405
X03295Y043
T07
X06075Y01665
X04275
X02475
Y03765
X04275
X06075
M30
